<?xml version="1.0" encoding="utf-8"?>
<!-- Generator: Adobe Illustrator 24.1.0, SVG Export Plug-In . SVG Version: 6.00 Build 0)  -->
<svg version="1.1" id="Layer_1" xmlns="http://www.w3.org/2000/svg" xmlns:xlink="http://www.w3.org/1999/xlink" x="0px" y="0px"
	 viewBox="0 0 750 500" style="enable-background:new 0 0 750 500;" xml:space="preserve">
<style type="text/css">
	.st0{fill:#EBEBEB;}
	.st1{fill:#E0E0E0;}
	.st2{fill:#00A69C;}
	.st3{opacity:0.7;}
	.st4{fill:#FFFFFF;}
	.st5{fill:#263238;}
	.st6{fill:#F4D3BD;}
	.st7{fill:#EAAE94;}
	.st8{fill:#455A64;}
	.st9{opacity:0.6;}
	.st10{opacity:0.3;}
	.st11{fill:#FAFAFA;}
	.st12{fill:#FFCBB8;}
	.st13{fill:#AA5555;}
	.st14{fill:#8B0756;}
</style>
<g id="freepik--background-complete--inject-13">
	<path class="st0" d="M82.5,408.5c0,0-2.2,7.1,14.1,10.2s25.3,3.4,25.3,3.4s3.5,1,2.2,3.6c-1.4,2.6-6,7-4,10.2
		c2,3.2,6.4,3.4,12.2,0.9s18.4-7.2,19.5-7.6c1.2-0.4,3-0.3,2.4,1.7c-0.6,1.9-8.2,14.1-2.2,17.4c6,3.3,20.8-6,22.4-7
		c1.6-1,2.5-0.9,3.2-0.1c0.7,0.7-2.3,4.6-4.3,8.1c-2,3.6-3.7,8-0.1,9.6c3.6,1.6,16-1.2,32.2-18.4l7-8.5l-3.7-10.4
		c-9.2-21.8-19.8-28.7-23.8-28.5s-3.9,5-3.3,9.1c0.6,4,2,8.7,1.1,9.1c-0.9,0.4-1.7,0.2-2.9-1.2c-1.2-1.5-11.8-15.4-18.5-14.5
		c-6.8,0.9-3.9,15-4,17c-0.1,2-1.9,1.5-2.8,0.7s-11.1-9.8-15.6-14c-4.5-4.3-8.6-5.8-11.7-3.4s-0.1,8.1,0.2,10.9
		c0.3,2.9-3.3,2.7-3.3,2.7s-8.5-2.8-24.9-5.6S82.5,408.6,82.5,408.5"/>
	<path class="st1" d="M214.7,433.1c-12-2.1-33.2-6.2-51.5-9.6s-34.8-6.5-46.7-8.7l-14.2-2.6l-3.9-0.7l-1-0.2l-0.3-0.1l0.3,0l1,0.2
		l3.9,0.6c3.4,0.5,8.2,1.4,14.2,2.4c12,2.1,28.5,5.2,46.8,8.6c18.2,3.4,39.5,7.6,51.5,9.8"/>
	<path class="st1" d="M126.8,430.1c0.2-0.2,0.4-0.3,0.6-0.5c0.4-0.3,1-0.7,1.8-1.2c1.5-1,3.7-2.3,6.1-3.6l6.2-3.5l1.9-1.1
		c0.2-0.1,0.5-0.3,0.7-0.4c-0.2,0.2-0.4,0.3-0.6,0.5c-0.4,0.3-1,0.7-1.8,1.2c-1.6,1-3.8,2.2-6.2,3.6l-6.2,3.5l-1.9,1.1
		C127.3,429.9,127,430,126.8,430.1z"/>
	<path class="st1" d="M144.1,418.8c-0.1,0-2.9-4.3-6.4-9.8c-3.4-5.4-6.1-9.9-6-10c0.1-0.1,2.9,4.3,6.4,9.8S144.2,418.8,144.1,418.8z
		"/>
	<path class="st1" d="M171.9,425.4c-0.1-0.2-0.2-0.5-0.3-0.8c-0.2-0.6-0.4-1.3-0.6-2.1c-0.5-1.8-1.2-4.3-2.1-7
		c-0.9-2.7-1.8-5.1-2.4-6.9c-0.3-0.8-0.6-1.5-0.8-2.1c-0.1-0.3-0.2-0.5-0.3-0.8c0.1,0.2,0.3,0.5,0.4,0.7c0.2,0.5,0.5,1.2,0.9,2
		c0.7,1.7,1.7,4.1,2.6,6.8s1.6,5.2,2,7c0.2,0.9,0.4,1.6,0.5,2.1C171.8,424.8,171.9,425.1,171.9,425.4z"/>
	<path class="st1" d="M158.5,439c0.1-0.2,0.3-0.4,0.5-0.6c0.4-0.4,0.8-0.9,1.4-1.5c1.2-1.3,2.8-3,4.6-4.9s3.5-3.6,4.7-4.8l1.5-1.4
		c0.2-0.2,0.4-0.4,0.6-0.5c-0.1,0.2-0.3,0.4-0.5,0.6l-1.4,1.5c-1.2,1.3-2.8,3-4.6,4.9s-3.5,3.6-4.7,4.8l-1.5,1.4
		C158.9,438.7,158.7,438.8,158.5,439z"/>
	<path class="st1" d="M182.3,447.9c0.2-0.3,0.4-0.5,0.6-0.7l1.8-1.9c1.5-1.6,3.6-3.9,5.9-6.3c2.3-2.4,4.4-4.7,6-6.3l1.8-1.9
		c0.2-0.2,0.5-0.5,0.7-0.6c-0.2,0.3-0.4,0.5-0.6,0.7l-1.8,2c-1.5,1.6-3.6,3.9-5.9,6.3c-2.3,2.5-4.4,4.7-6,6.2l-1.8,1.9
		C182.8,447.5,182.5,447.7,182.3,447.9z"/>
	<path class="st1" d="M198.5,430.4c-0.1-0.3-0.3-0.6-0.4-1c-0.2-0.7-0.5-1.6-0.9-2.7c-0.7-2.3-1.8-5.4-3-8.7
		c-1.2-3.4-2.4-6.4-3.3-8.6c-0.4-1.1-0.8-1.9-1-2.6c-0.1-0.3-0.3-0.6-0.4-1c0.2,0.3,0.3,0.6,0.5,1c0.3,0.6,0.7,1.5,1.1,2.6
		c0.9,2.2,2.2,5.2,3.4,8.6c1.2,3.4,2.2,6.5,2.9,8.7c0.3,1.1,0.6,2.1,0.8,2.7C198.4,429.7,198.5,430.1,198.5,430.4z"/>
	<path class="st0" d="M513.5,187.8c-14.9-7.9-20.1-25.3-21.5-41.3c-0.3-2.7-0.9-5.5,0.1-7.9s3.8-4.4,6.3-3.6
		c2.1,0.7,3.2,2.9,4.6,4.7c1.8,2.4,4.2,4.2,7,5.2c1.8,0.7,4,1,5.5-0.2c2.2-1.5,2-4.8,1.7-7.4l-1.9-14.8c-0.5-2.6-0.5-5.3-0.1-8
		c0.5-2.6,2.1-5.2,4.5-6.2c2.4-1,5.7,0.1,6.6,2.6c0.2,1.1,0.4,2.2,0.5,3.3c0.1,1.1,0.9,2.1,1.9,2.4c1.1,0.2,2.1-0.7,2.8-1.6
		c2.4-3,3.8-6.7,5.2-10.3s2.6-7.3,4.7-10.5c2.1-3.2,5.3-6,9.1-6.6c3.8-0.7,8.1,1.2,9.5,4.8c1.4,3.6-0.3,7.7-2.3,11
		c-3,4.9-6.6,9.4-10.9,13.2c-0.8,0.6-1.4,1.5-1.8,2.5c-0.4,1.8,1.5,3.4,3.3,3.8c2.1,0.4,4.2,0,6.3-0.1c2.1,0,4.4,0.6,5.5,2.5
		c1.4,2.6-0.5,5.7-2.5,7.8c-4,4.3-8.7,7.8-13.9,10.5c-1.9,0.8-3.7,1.9-5.3,3.4c-1.4,1.6-2.1,4.1-0.9,5.8c1.2,1.7,3.7,2.1,5.7,1.4
		s3.7-2,5.5-2.9c3.5-1.8,8.2-2.1,10.9,0.7c1.7,2,2.3,4.7,1.8,7.3c-0.6,2.5-1.7,4.9-3.2,7c-4.9,7.6-11.8,13.8-20,17.9
		C530,188.1,522.3,189.8,513.5,187.8"/>
	<path class="st1" d="M516.5,177.3c1.6-9,3.7-17.9,6.3-26.7c0.7-2.3,1.4-4.6,2-6.9c0.7-2.3,1.3-4.5,2.1-6.7
		c1.5-4.1,3.3-8.2,5.2-12.2c1.8-3.8,3.7-7.3,5.5-10.6c1.8-3.3,3.5-6.3,5.2-9c2.7-4.3,5.6-8.3,9-12.1c1.2-1.3,2.1-2.3,2.7-3l0.7-0.8
		c0.1-0.1,0.2-0.2,0.3-0.2c-0.1,0.1-0.1,0.2-0.2,0.3l-0.7,0.8c-0.6,0.7-1.5,1.7-2.7,3.1c-3.2,3.8-6.2,7.9-8.8,12.2
		c-1.7,2.7-3.4,5.7-5.2,9c-1.7,3.3-3.6,6.8-5.5,10.6c-1.9,3.9-3.7,8-5.2,12.1c-0.8,2.2-1.4,4.4-2.1,6.6l-2,6.9
		c-2.6,8.8-4.7,17.6-6.4,26.6"/>
	<path class="st1" d="M527,137c-0.2-0.3-0.3-0.7-0.4-1.1c-0.2-0.7-0.5-1.8-0.9-3.1c-0.7-2.6-1.5-6.2-2.4-10.2
		c-0.9-4-1.8-7.6-2.5-10.2c-0.4-1.3-0.7-2.3-0.9-3c-0.1-0.4-0.2-0.7-0.3-1.1c0.2,0.3,0.3,0.7,0.5,1.1c0.3,0.7,0.6,1.7,1,3
		c0.8,2.6,1.8,6.2,2.7,10.2c0.9,4,1.7,7.5,2.3,10.2c0.3,1.2,0.5,2.3,0.7,3.1C526.9,136.2,527,136.6,527,137z"/>
	<path class="st1" d="M560.3,126.5c-0.4,0.2-0.9,0.3-1.3,0.3c-0.9,0.2-2.1,0.4-3.7,0.8c-3.1,0.7-7.3,1.8-11.9,3.3s-8.7,3-11.6,4.1
		c-1.5,0.6-2.7,1.1-3.5,1.4c-0.4,0.2-0.8,0.4-1.3,0.5c0.4-0.3,0.8-0.5,1.2-0.7c0.8-0.4,1.9-0.9,3.4-1.6c2.9-1.3,7-2.8,11.6-4.3
		c3.9-1.3,7.9-2.3,12-3.2c1.6-0.3,2.8-0.5,3.7-0.7C559.4,126.6,559.9,126.5,560.3,126.5z"/>
	<path class="st1" d="M516.8,176.6c-0.1-0.1-0.2-0.3-0.3-0.4c-0.2-0.3-0.4-0.7-0.7-1.2c-0.6-1-1.5-2.5-2.6-4.4
		c-2.1-3.7-4.9-8.9-7.8-14.7c-3-5.8-5.7-11-7.7-14.8c-1-1.8-1.8-3.3-2.5-4.4l-0.6-1.2c-0.1-0.1-0.2-0.3-0.2-0.4c0,0,0.1,0.1,0.3,0.4
		l0.7,1.2c0.6,1,1.5,2.5,2.6,4.4c2.1,3.7,4.9,8.9,7.8,14.7s5.7,11,7.8,14.8c1,1.8,1.8,3.3,2.5,4.4l0.6,1.2
		C516.7,176.4,516.7,176.5,516.8,176.6z"/>
	<path class="st1" d="M560.3,156.6c-0.1,0.1-0.3,0.2-0.4,0.2l-1.3,0.6l-4.7,2.1c-3.9,1.8-9.3,4.4-15.3,7.3c-6,2.9-11.4,5.4-15.4,7.1
		c-2,0.9-3.6,1.6-4.7,2l-1.3,0.5c-0.2,0.1-0.3,0.1-0.5,0.1c0.1-0.1,0.3-0.2,0.4-0.2l1.3-0.6c1.2-0.5,2.7-1.3,4.7-2.2
		c3.9-1.8,9.3-4.4,15.3-7.3c6-2.9,11.4-5.4,15.4-7.1c2-0.9,3.6-1.6,4.7-2l1.3-0.5C560,156.7,560.1,156.6,560.3,156.6z"/>
	<path class="st0" d="M672.5,238.9c0,2.8-1,5.4-3,7.3c-2,1.9-4.3,3.4-6.9,4.2c-5,1.8-11,1.5-16.2,0.5c1.5-5.7,7.1-9.6,10-11.3
		C661.1,236.8,671.2,234.5,672.5,238.9"/>
	<path class="st0" d="M641,259.4c2.5-1.9,5.7-2.3,8.6-1.1c2.8,1.2,5,3.5,6.1,6.4c0.7,1.3,0.7,2.8,0.2,4.1c-0.7,1.1-2,1.8-3.3,1.7
		c-1.3-0.1-2.6-0.5-3.7-1.3C645,266.8,641.7,263.8,641,259.4"/>
	<path class="st1" d="M627.8,260.1c1.1-0.4,2.2-0.8,3.3-1c1.2-0.3,2.5-0.4,3.8-0.4c1.5,0,3.1,0.1,4.6,0.2c2.8,0.3,5.5,1.4,7.9,3
		c0.7,0.5,1.3,1.1,1.9,1.7c0.2,0.2,0.4,0.5,0.6,0.8c-0.1,0.1-0.9-1-2.7-2.2c-2.3-1.5-5-2.4-7.7-2.8c-1.5-0.2-3-0.3-4.6-0.3
		c-1.2,0-2.5,0-3.7,0.3C630.1,259.8,628.9,260,627.8,260.1z"/>
	<path class="st1" d="M664.9,241.4c-0.5,0.4-1,0.7-1.5,0.9c-0.9,0.6-2.4,1.4-4.2,2.4c-3.5,2-8.5,4.6-14,7.4s-10.6,5.2-14.3,6.8
		c-1.9,0.8-3.4,1.5-4.4,1.9c-0.5,0.3-1.1,0.5-1.7,0.6c0.5-0.3,1-0.6,1.6-0.8l4.3-2.1c3.7-1.7,8.7-4.2,14.2-7l14.1-7.2l4.3-2.2
		C663.9,241.8,664.4,241.6,664.9,241.4z"/>
	<path class="st0" d="M636.2,254.3c4.7-4.5,7-11,6-17.5c-0.2-1.6-1-3.5-2.5-3.9c-1.6-0.4-3.1,0.9-4,2.3c-3.9,5.8-3.8,13.4,0.1,19.2"
		/>
	<path class="st1" d="M638.9,240.3c0.1,0.3,0.1,0.6,0.1,0.9c0.1,0.6,0,1.5,0,2.5c0,2.8-0.6,5.6-1.6,8.2c-0.6,1.4-1.5,2.7-2.5,3.9
		c-1.4,1.6-3.2,2.8-5.2,3.5c-0.3,0.1-0.6,0.2-0.9,0.3c0-0.1,1.2-0.6,2.9-1.7c1-0.7,1.9-1.5,2.8-2.4c1-1.1,1.8-2.4,2.4-3.8
		c1-2.5,1.6-5.2,1.8-8C638.7,242.6,638.8,241.5,638.9,240.3z"/>
	<path class="st0" d="M90.3,126c3.2-0.5,6.5,0.3,9.1,2.3c2.6,2,4.7,4.5,6.1,7.4c2.9,5.5,3.6,12.6,3.3,18.9c-6.9-0.8-12.4-6.6-15-9.8
		C89.7,139.8,85.3,128.3,90.3,126"/>
	<path class="st0" d="M119.6,159.5c-2.6-2.6-3.7-6.3-2.8-9.9c1-3.5,3.3-6.5,6.5-8.3c1.4-0.8,3.2-1.5,4.7-0.9c1.5,0.6,2.4,2,2.6,3.6
		c0.1,1.6-0.2,3.1-0.9,4.5C127.6,153.5,124.6,157.8,119.6,159.5"/>
	<path class="st1" d="M122.7,174.8c-0.7-1.2-1.3-2.4-1.7-3.7c-0.5-1.4-0.9-2.9-1.1-4.4c-0.3-1.8-0.5-3.6-0.5-5.5
		c-0.1-3.4,0.7-6.7,2.2-9.7c0.5-0.9,1-1.7,1.7-2.5c0.5-0.5,0.8-0.8,0.8-0.8c0,0-1,1.2-2.1,3.5c-1.3,3-2,6.2-1.9,9.5
		c0.1,1.8,0.2,3.6,0.5,5.4c0.2,1.5,0.5,2.9,0.9,4.3C121.9,172.1,122.4,173.4,122.7,174.8z"/>
	<path class="st1" d="M94.4,134.5c0.5,0.5,0.9,1,1.3,1.6c0.8,1,2,2.6,3.5,4.5c2.9,3.8,6.8,9.1,11,15.1c4.2,6,7.9,11.5,10.4,15.6
		c1.3,2,2.3,3.7,3,4.8c0.4,0.6,0.7,1.2,1,1.8c-0.5-0.5-0.9-1.1-1.2-1.7l-3.2-4.7c-2.7-4-6.4-9.5-10.6-15.4l-10.9-15.2
		c-1.3-1.9-2.4-3.4-3.3-4.6C95.1,135.7,94.7,135.1,94.4,134.5z"/>
	<path class="st0" d="M114.5,165.9c-6.1-4.8-14.1-6.3-21.5-4.1c-1.9,0.6-3.8,1.7-4.1,3.6c-0.2,1.9,1.6,3.4,3.4,4.3
		c7.5,3.5,16.4,2.2,22.5-3.4"/>
	<path class="st1" d="M97.6,165.1c0.3-0.2,0.7-0.3,1.1-0.3c0.7-0.2,1.7-0.3,3-0.5c3.3-0.4,6.6-0.3,9.8,0.5c1.8,0.5,3.5,1.2,5,2.3
		c1.2,0.8,2.4,1.9,3.3,3c0.6,0.8,1.2,1.6,1.7,2.5c0.2,0.3,0.4,0.6,0.5,1c-0.1,0.1-0.9-1.3-2.5-3.1c-1-1.1-2.1-2-3.3-2.8
		c-1.5-0.9-3.1-1.7-4.8-2.1c-3.1-0.7-6.4-1-9.6-0.7C100.4,165,99,165.1,97.6,165.1z"/>
	<path class="st0" d="M363.9,468.1c-1.4-2.6-1.7-5.6-0.8-8.3c0.9-2.8,2.4-5.3,4.4-7.3c3.7-4.1,9.5-6.8,14.9-8.4
		c1.4,6-1.9,12.4-3.8,15.5C375.7,464.4,367.3,471.5,363.9,468.1"/>
	<path class="st0" d="M383.3,433.4c-1.4,3-4.2,5-7.5,5.3c-3.2,0.2-6.4-0.8-8.9-3c-1.2-0.9-2-2.2-2.1-3.7c0.1-1.4,1-2.7,2.3-3.2
		c1.3-0.6,2.7-0.8,4.1-0.6C375.9,428.5,380.4,429.6,383.3,433.4"/>
	<path class="st1" d="M395.3,426.3c-0.8,0.9-1.7,1.8-2.6,2.6c-1,0.9-2.1,1.6-3.3,2.2c-1.4,0.8-2.9,1.5-4.4,2.1
		c-2.8,1.1-5.8,1.4-8.8,1.1c-0.9-0.1-1.8-0.4-2.6-0.7c-0.6-0.3-0.9-0.4-0.9-0.5c0,0,1.3,0.5,3.6,0.7c2.9,0.2,5.8-0.2,8.6-1.2
		c1.5-0.6,3-1.2,4.4-2c1.2-0.6,2.3-1.3,3.3-2.1C393.3,427.7,394.3,427,395.3,426.3z"/>
	<path class="st1" d="M369.8,462.1c0.3-0.6,0.6-1.1,0.9-1.6c0.6-1,1.6-2.5,2.8-4.2c2.3-3.6,5.7-8.5,9.4-13.8c3.8-5.3,7.3-10,10-13.4
		c1.3-1.7,2.4-3,3.2-3.9c0.4-0.5,0.8-1,1.2-1.4c-0.3,0.5-0.7,1.1-1,1.5c-0.8,1.1-1.8,2.4-3,4.1c-2.6,3.4-6.1,8.2-9.8,13.5l-9.6,13.7
		l-2.9,4.1C370.6,461.1,370.3,461.6,369.8,462.1z"/>
	<path class="st0" d="M390.3,435.8c-2.2,6.5-1.1,13.7,3,19.3c1,1.4,2.6,2.8,4.3,2.3c1.7-0.4,2.4-2.4,2.6-4.1
		c0.7-7.3-3-14.4-9.5-17.9"/>
	<path class="st1" d="M394.6,450.2c0,0-0.2-0.3-0.6-0.8c-0.3-0.5-0.8-1.3-1.2-2.3c-1.3-2.6-2.2-5.5-2.5-8.4c-0.1-1.6,0-3.3,0.4-4.9
		c0.3-1.3,0.9-2.5,1.6-3.7c0.4-0.8,1-1.5,1.6-2.2c0.4-0.5,0.7-0.7,0.7-0.7c0,0-0.8,1.1-1.9,3.1c-0.6,1.1-1.1,2.3-1.4,3.6
		c-0.4,1.5-0.5,3.1-0.4,4.7c0.3,2.9,1.1,5.7,2.3,8.3C393.7,448,394.2,449.1,394.6,450.2z"/>
</g>
<g id="freepik--Stains--inject-13">
	<path class="st2" d="M45.7,276.2c-6.7-23.7-1-51.3,16.7-68.4s47.6-21.3,67.9-7.4c14.3,9.8,22.2,26.2,31.6,40.8
		c9.4,14.6,22.9,28.9,40.2,29.8c14.9,0.8,28.9-8.8,43.8-8.4c14.6,0.4,27.9,10.9,33.4,24.4c5.6,13.5,4,29.3-2.1,42.5
		c-6.1,13.2-16.6,24.1-28.3,32.8c-37.8,27.8-91.4,32.5-133.5,11.8s-71-66.1-71.9-113.1"/>
	<g class="st3">
		<path class="st4" d="M45.7,276.2c-6.7-23.7-1-51.3,16.7-68.4s47.6-21.3,67.9-7.4c14.3,9.8,22.2,26.2,31.6,40.8
			c9.4,14.6,22.9,28.9,40.2,29.8c14.9,0.8,28.9-8.8,43.8-8.4c14.6,0.4,27.9,10.9,33.4,24.4c5.6,13.5,4,29.3-2.1,42.5
			c-6.1,13.2-16.6,24.1-28.3,32.8c-37.8,27.8-91.4,32.5-133.5,11.8s-71-66.1-71.9-113.1"/>
	</g>
	<path class="st2" d="M301.2,468.5c12.2-10.3,16.3-30.6,6.7-43.3l0,0c-9.5-11.5-23.4-20-38.3-20.6c-14.9-0.6-30.5,8.1-35.7,22.1
		c-3.3,8.8-2.2,19,2.1,27.3c4.5,8.3,11.6,15,20.2,18.9C270.7,479.8,289.1,478.8,301.2,468.5z"/>
	<g class="st3">
		<path class="st4" d="M301.2,468.5c12.2-10.3,16.3-30.6,6.7-43.3l0,0c-9.5-11.5-23.4-20-38.3-20.6c-14.9-0.6-30.5,8.1-35.7,22.1
			c-3.3,8.8-2.2,19,2.1,27.3c4.5,8.3,11.6,15,20.2,18.9C270.7,479.8,289.1,478.8,301.2,468.5z"/>
	</g>
	<path class="st2" d="M717.5,342.5c-3-20.9-15.5-40.6-34-50.5s-42.9-9-59.7,3.7c-10.5,7.9-17.4,19.6-23,31.4
		c-3.1,6.5-6.2,13.7-12.6,17c-8.3,4.4-18.2,0.6-27.5-0.3c-22.5-2.1-42.9,13.5-46.6,35.9c-4.6,33.8,21,55,47.2,66.8
		c29.3,13.2,64.3,9.5,93.3-4.2c19-9,36.2-22.4,48-39.9C714.5,385,720.5,363.3,717.5,342.5z"/>
	<g class="st3">
		<path class="st4" d="M717.5,342.5c-3-20.9-15.5-40.6-34-50.5s-42.9-9-59.7,3.7c-10.5,7.9-17.4,19.6-23,31.4
			c-3.1,6.5-6.2,13.7-12.6,17c-8.3,4.4-18.2,0.6-27.5-0.3c-22.5-2.1-42.9,13.5-46.6,35.9c-4.6,33.8,21,55,47.2,66.8
			c29.3,13.2,64.3,9.5,93.3-4.2c19-9,36.2-22.4,48-39.9C714.5,385,720.5,363.3,717.5,342.5z"/>
	</g>
	<path class="st2" d="M651.6,168.5c-4.3-16.4-21.9-29.8-38.6-26.5l0,0c-15.5,3.9-30.1,13.3-37.5,27.4c-7.4,14.1-6.3,33.1,4.8,44.5
		c7,7.2,17.2,10.9,27.2,10.6c10.1-0.5,19.8-4.2,27.6-10.7C648.3,203.1,655.9,184.9,651.6,168.5z"/>
	<g class="st3">
		<path class="st4" d="M651.6,168.5c-4.3-16.4-21.9-29.8-38.6-26.5l0,0c-15.5,3.9-30.1,13.3-37.5,27.4c-7.4,14.1-6.3,33.1,4.8,44.5
			c7,7.2,17.2,10.9,27.2,10.6c10.1-0.5,19.8-4.2,27.6-10.7C648.3,203.1,655.9,184.9,651.6,168.5z"/>
	</g>
</g>
<g id="freepik--character-2--inject-13">
	<path class="st5" d="M457.3,192.7c2.1-0.5,3.7-2.3,5.6-3.4c2.9-1.7,6.4-1.9,9.4-0.5c3,1.4,5.2,3.2,5.7,6.5l-3.2,4.4"/>
	<path class="st6" d="M482.5,210.7l-2.2,35.8c-0.4,6.1-2.2,15-11.8,13.9l0,0c-8.3-1.5-9.9-9.6-9.5-15.3c0.2-2.7,0.3-4.9,0.3-5.2
		c0,0-9.1-1.4-9.1-10.5c0-4.4,0.6-13.4,1.3-21.6c0.7-8.7,8.1-15.5,16.8-15.5l0.9,0C478.5,192.9,483.3,201.2,482.5,210.7z"/>
	<path class="st7" d="M459.2,239.8c4.2,0.1,8.3-1.1,11.8-3.3c0,0-2.8,6.5-11.8,5.7L459.2,239.8z"/>
	<path class="st5" d="M452.7,213.1c0.2,0.1,1.4-0.4,3-0.4s2.9,0.6,3.1,0.5s-0.1-0.3-0.7-0.6c-0.8-0.4-1.6-0.6-2.5-0.6
		c-0.8,0-1.7,0.1-2.4,0.5C452.8,212.8,452.6,213.1,452.7,213.1z"/>
	<path class="st5" d="M466.5,213.2c0.2,0.1,1.4-0.4,3-0.4c1.7,0,2.9,0.6,3.1,0.5c0.2-0.1-0.1-0.3-0.7-0.6c-0.8-0.4-1.6-0.5-2.5-0.6
		c-0.8,0-1.7,0.1-2.4,0.5C466.5,212.9,466.4,213.2,466.5,213.2z"/>
	<path class="st5" d="M466.4,215.5c0,0.5,0.4,1,1,1c0.5,0,1-0.4,1-0.9c0-0.5-0.4-1-1-1C466.9,214.6,466.5,215,466.4,215.5z"/>
	<path class="st5" d="M453.4,215.4c0,0.5,0.4,1,1,1c0.5,0,1-0.4,1-0.9c0-0.5-0.4-1-1-1C453.9,214.5,453.4,214.9,453.4,215.4z"/>
	<path class="st5" d="M461.9,222.9c-0.7-0.2-1.5-0.4-2.3-0.4c-0.4,0-0.7-0.1-0.8-0.4c0-0.4,0.1-0.7,0.2-1c0.3-0.9,0.7-1.8,1.1-2.7
		c1-2.3,1.8-4.7,2.4-7.1c-0.2-0.1-1.5,3-2.9,6.9l-0.9,2.7c-0.2,0.4-0.3,0.9-0.2,1.4c0.1,0.3,0.3,0.4,0.6,0.5
		c0.2,0.1,0.4,0.1,0.6,0.1C460.4,223,461.1,223,461.9,222.9z"/>
	<path class="st5" d="M467.5,207.1c0.1,0.3,1.3,0.2,2.8,0.4c1.4,0.2,2.6,0.6,2.8,0.3c0.2-0.3-0.1-0.5-0.6-0.8
		c-0.6-0.4-1.3-0.7-2.1-0.8c-0.7-0.1-1.5,0-2.2,0.2C467.7,206.6,467.5,206.9,467.5,207.1z"/>
	<path class="st5" d="M453,208.8c0.1,0.3,1.3,0.1,2.8,0.1c1.4,0.1,2.6,0.3,2.8,0.1c0.2-0.3-0.1-0.4-0.6-0.6
		c-1.3-0.6-2.9-0.7-4.2-0.1C453.2,208.4,452.9,208.6,453,208.8z"/>
	<path class="st6" d="M481.7,217.4c0.2-0.1,6.2-1.8,6,4.4c-0.2,6.2-6.4,4.7-6.4,4.5C481.3,226.2,481.7,217.4,481.7,217.4z"/>
	<path class="st7" d="M483.3,224c0,0,0.1,0.1,0.3,0.2c0.3,0.1,0.5,0.1,0.8,0c0.8-0.5,1.3-1.4,1.3-2.4c0-0.5,0-1.1-0.3-1.6
		c-0.1-0.4-0.4-0.7-0.8-0.9c-0.3-0.1-0.5,0-0.6,0.3c-0.1,0.2,0,0.3-0.1,0.3c0,0-0.1-0.1,0-0.4c0-0.2,0.1-0.3,0.3-0.4
		c0.2-0.1,0.4-0.2,0.6-0.1c0.5,0.1,0.9,0.5,1.1,1c0.2,0.5,0.4,1.1,0.3,1.7c0,1.1-0.6,2.2-1.7,2.6c-0.4,0.1-0.7,0-1-0.2
		C483.3,224.1,483.3,224,483.3,224z"/>
	<path class="st5" d="M449.4,205.9c4.1,1.1,8.4,0.1,11.6-2.6c2.2-1.9,3.9-4.6,6.7-5.4c1.9-0.5,3.9-0.2,5.6,0.8
		c1.7,1,3.1,2.3,4.3,3.9c-1.8,4.6-0.6,9.8,0.6,14.5c0.1,0.5,0.3,1.1,0.7,1.4c0.8,0.4,1.9,0.2,2.5-0.5c0.9-1.2,1.5-2.6,1.7-4
		c0.7-3.3,0.6-6.7,0-10c-0.7-3.3-2.3-6.4-4.8-8.8c-3.1-2.9-7.2-4.5-11.5-4.4c-4.2,0.1-8.4,1.6-11.7,4.2c-1.6,1.1-2.9,2.6-3.8,4.4"/>
	<path class="st5" d="M450.8,214.4c0.3-2.5,0.3-5.7,0.6-8.2c4,0.2,7.9-1.2,10.8-3.9c1.5-1.4,2.7-3.3,4.7-4.1c2.5-1,5.3,0.1,7.7,1.1
		l-0.1-0.1c1.3,0.7,2.4,1.6,3.3,2.8c-0.9,5-0.8,10.1,0.4,15c0.2,0.7,0.7,1.4,1.4,1.7c1.3,0.6,2.2-0.3,3.1-1c0.7-0.5,1.6-0.9,2.3-0.4
		c1.5-3.3,2.6-6.8,3-10.4c-0.3,1.4,0.6,2.7,2,2.9c1,0.2,2.1-0.3,2.6-1.2c-0.7-0.6-1.2-1.5-1.5-2.4c1.5,1,3.5,0.7,4.5-0.8
		c0,0,0,0,0-0.1l-2.1-1.8l2.8-0.1c-2.2-0.9-4.2-2.2-5.7-4c-1.6-1.8-3.4-3.3-5.4-4.5c-2.1-1.1-4.8-1.3-6.7,0.1
		c-0.2-3.2-2.8-6-5.9-7.1c-3.7-1-7.6-1-11.2,0c-2.4,0.8-4.8,2.5-7.7,5.1c-1.4,1.2-2.7,2.6-3.9,4.1c-1.7,2.2-5.2,6-9,5.4l0.7,3.8
		c2.2,1.7,6.1-0.4,6.1-0.4s-2.1,2.6-4.3,2.8l0.9,3.2c0,0,3.4,0.2,4.6-2.5L450.8,214.4z"/>
	<path class="st8" d="M477.6,202.7c0,0-0.3-0.4-1-1.2c-1-1-2.1-1.9-3.4-2.5c-0.9-0.4-1.8-0.6-2.8-0.7c-1.1-0.2-2.2-0.1-3.2,0.3
		c-2.2,0.9-3.6,3.4-5.8,5.1c-2.1,1.7-4.6,2.7-7.3,3c-0.6,0.1-1.2,0.1-1.8,0.1c-0.2,0-0.5,0-0.7,0.1c-0.2,0.1-0.5,0.3-0.7,0.4
		c-0.7,0.6-1.3,1.4-1.7,2.3c-0.7,1.3-2,2.2-3.5,2.6c-0.4,0.1-0.8,0.1-1.2,0.1c-0.1,0-0.3,0-0.4,0c0,0,0.6-0.1,1.5-0.3
		c1.4-0.4,2.5-1.3,3.2-2.6c0.4-0.9,1-1.8,1.8-2.5c0.2-0.2,0.5-0.3,0.7-0.5c0.3-0.1,0.6-0.2,0.9-0.2c0.6,0,1.2,0,1.7-0.1
		c2.6-0.3,5-1.3,7-2.9c1-0.8,2-1.8,2.9-2.8c0.9-1,1.9-1.8,3.1-2.3c1.1-0.4,2.3-0.5,3.5-0.2c1,0.2,2,0.4,2.9,0.8
		c1.3,0.7,2.4,1.6,3.4,2.7c0.3,0.3,0.5,0.6,0.7,0.9C477.6,202.5,477.6,202.7,477.6,202.7z"/>
	<path class="st8" d="M487.8,207.1c0,0,0,0.2-0.1,0.5c-0.1,0.5-0.4,0.9-0.6,1.4c-0.4,0.7-1.2,1.1-2,1.1c-0.5,0-1-0.3-1.3-0.7
		c-0.3-0.4-0.5-1-0.4-1.5l0.5,0.1c-0.2,0.7-0.9,1.2-1.6,1.3c-0.7,0.1-1.3-0.1-1.9-0.5c-0.5-0.4-0.9-0.8-1.1-1.4
		c-0.4-0.9-0.6-1.8-0.7-2.8c-0.1-0.9-0.3-1.7-0.6-2.5c0.5,0.7,0.9,1.6,0.9,2.5c0.1,0.9,0.4,1.8,0.8,2.7c0.2,0.5,0.6,0.9,1,1.2
		c0.4,0.3,1,0.5,1.5,0.4c0.6-0.1,1-0.5,1.2-1l0.6-2.1l-0.1,2.2c-0.1,0.8,0.4,1.6,1.3,1.8c0.7,0,1.4-0.3,1.8-0.9
		c0.3-0.4,0.5-0.8,0.7-1.2C487.7,207.2,487.8,207,487.8,207.1z"/>
	<path class="st8" d="M486.3,214c-0.5,0.4-1.1,0.6-1.7,0.6c-1.5,0.1-2.9-0.4-4.1-1.3c-1.1-0.9-2-2.1-2.7-3.3c-0.3-0.5-0.6-1-0.7-1.6
		c0.4,0.4,0.8,0.9,1,1.4c0.7,1.2,1.7,2.2,2.7,3.1c1.1,0.9,2.4,1.3,3.8,1.3C485.2,214.2,485.7,214.1,486.3,214z"/>
	<path class="st8" d="M486.1,215.2c-0.5,0.2-1,0.3-1.5,0.3c-1.2,0-2.5-0.3-3.6-0.8c-1.1-0.5-2.1-1.3-2.9-2.3
		c-0.4-0.4-0.6-0.8-0.7-1.3c0.4,0.3,0.7,0.7,1,1.1c0.8,0.9,1.8,1.6,2.8,2.1c1.1,0.5,2.2,0.8,3.4,0.9
		C485.1,215.1,485.6,215.1,486.1,215.2z"/>
	<path class="st8" d="M487.7,191.9c-0.5,0-1,0-1.6-0.1c-1.2,0-2.5,0.2-3.6,0.6c-1.2,0.4-2.2,1-3.2,1.8c-0.7,0.6-1.1,1.1-1.2,1
		c0.2-0.5,0.5-0.9,0.9-1.3c0.9-0.9,2-1.6,3.2-2.1c1.2-0.4,2.5-0.6,3.8-0.5C486.7,191.5,487.2,191.6,487.7,191.9z"/>
	<path class="st8" d="M478.9,187.4c1.5,2.6,1.3,5.8-0.4,8.3c0.5-1.3,0.8-2.7,0.9-4.1C479.3,190.2,479.2,188.8,478.9,187.4z"/>
	<path class="st8" d="M444.3,202.2c0.4,0.3,0.9,0.5,1.4,0.6c1.4,0.1,2.7-0.2,3.9-0.9c0.8-0.4,1.6-0.8,2.6-1.3c1-0.5,1.9-1,2.8-1.7
		c1.9-1.3,3.7-3.2,6-4.5c1.1-0.7,2.4-1.1,3.7-1.4c1.2-0.2,2.5-0.1,3.7,0.4c2.2,0.9,3.8,2.2,5.5,2.7c1.3,0.4,2.7,0.4,3.9-0.2
		c0.4-0.3,0.8-0.6,1.1-1c0,0,0,0.1-0.2,0.4c-0.2,0.3-0.5,0.6-0.8,0.8c-1.3,0.7-2.7,0.8-4.1,0.4c-1.8-0.5-3.5-1.8-5.6-2.6
		c-1.1-0.4-2.3-0.5-3.5-0.3c-1.3,0.3-2.5,0.7-3.5,1.4c-2.3,1.3-4.1,3.1-6,4.5c-0.9,0.7-1.8,1.2-2.8,1.7c-1,0.4-1.8,0.9-2.6,1.2
		c-1.3,0.7-2.7,0.9-4.1,0.7c-0.4-0.1-0.7-0.3-1.1-0.5C444.5,202.5,444.3,202.3,444.3,202.2z"/>
	<path class="st8" d="M478.6,195.2c-0.8-0.8-1.7-1.5-2.6-2.1c-2.3-1.5-4.9-2.4-7.6-2.4c-1.5,0-3,0.2-4.4,0.5
		c-1.2,0.2-2.5,0.4-3.7,0.5c-0.8,0-1.7-0.1-2.5-0.3c-0.3-0.1-0.6-0.2-0.9-0.4c1.1,0.2,2.2,0.3,3.3,0.3c1.2-0.1,2.4-0.3,3.6-0.6
		c1.5-0.3,3-0.5,4.5-0.6c2.8,0.1,5.5,1,7.8,2.6c0.7,0.5,1.3,1.1,1.9,1.7C478.2,194.6,478.4,194.9,478.6,195.2z"/>
	<path class="st5" d="M463,227.3c0-0.2,1.2-0.4,2.1-1.5c0.4-0.5,0.7-1,1-1.5c0.2-0.4,0.4-0.7,0.4-0.7c0.1,0,0,0.3-0.1,0.8
		c-0.2,0.6-0.5,1.2-0.9,1.7c-0.4,0.5-1,0.9-1.7,1.1C463.3,227.4,463,227.4,463,227.3z"/>
	<path class="st2" d="M640.7,381.8l15.3-10.9c0,0,16.2,11.9,19.3,10.2l-20.1-30.5l-24.6,16L640.7,381.8z"/>
	<g class="st9">
		<path class="st4" d="M648.5,362.3c-0.2-0.7,0.1-1.5,0.8-1.8c0.7-0.2,1.5,0.1,1.8,0.8c0.2,0.8-0.1,1.6-0.9,1.9
			c-0.8,0.2-1.6-0.3-1.8-1.1"/>
	</g>
	<g class="st9">
		<path class="st4" d="M655.2,350.6l-2.4,1.8l20.2,28.6c0,0,1.5,1,2.3,0.2L655.2,350.6z"/>
	</g>
	<path class="st5" d="M656.2,371.5c0.2-0.1-0.3-0.9-0.3-1.9c0-1,0.4-1.9,0.2-2c-0.1-0.1-0.9,0.7-0.8,2
		C655.4,370.8,656.1,371.6,656.2,371.5z"/>
	<path class="st5" d="M659.6,373.8c0.2,0,0-0.9,0.3-1.8c0.3-0.9,0.9-1.5,0.8-1.6c-0.1-0.1-1,0.3-1.4,1.5
		C658.9,373,659.5,373.9,659.6,373.8z"/>
	<path class="st5" d="M664.6,373.1c0-0.2-0.9,0.1-1.5,1s-0.4,1.8-0.3,1.8c0.2,0,0.3-0.7,0.8-1.5
		C664.1,373.7,664.7,373.2,664.6,373.1z"/>
	<path class="st5" d="M652.4,373.6c0.1-0.2-0.6-0.7-1.1-1.6c-0.5-0.9-0.7-1.7-0.8-1.7s-0.3,1,0.3,2
		C651.4,373.3,652.3,373.7,652.4,373.6z"/>
	<g class="st10">
		<polygon points="643.7,379.6 646.4,377.7 636.4,362.8 633.9,364.4 		"/>
	</g>
	<path class="st5" d="M649.3,375.7c0.1,0-0.2-0.7-1-1.5c-0.5-0.5-1-0.9-1.5-1.3c-0.3-0.2-0.7-0.4-1.1-0.6c-0.2-0.1-0.4-0.2-0.7-0.2
		c-0.3-0.1-0.7,0.1-0.8,0.4c-0.1,0.3-0.1,0.6,0.1,0.9c0.1,0.2,0.3,0.4,0.5,0.5c0.3,0.3,0.6,0.5,1,0.7c0.6,0.4,1.2,0.6,1.9,0.8
		c0.6,0.2,1.2,0.2,1.8,0.1c0-0.1-0.7-0.1-1.7-0.5c-0.6-0.2-1.1-0.5-1.7-0.8c-0.3-0.2-0.6-0.4-0.8-0.7c-0.3-0.3-0.5-0.5-0.4-0.7
		c0.1-0.2,0.1-0.1,0.2-0.1c0.2,0,0.3,0.1,0.5,0.2c0.3,0.2,0.7,0.3,1,0.5c0.5,0.3,1.1,0.7,1.5,1.1
		C648.8,375.2,649.2,375.8,649.3,375.7z"/>
	<path class="st5" d="M649.4,375.4c-0.6,0-1.2,0.2-1.7,0.6c-0.6,0.3-1.1,0.8-1.5,1.3c-0.3,0.3-0.5,0.6-0.7,1c-0.3,0.4-0.3,1-0.1,1.5
		c0.2,0.3,0.5,0.4,0.8,0.4c0.2,0,0.5-0.1,0.7-0.2c1-0.5,1.8-1.3,2.2-2.4c0.3-0.6,0.3-1.2,0.1-1.8c-0.1,0-0.1,0.7-0.5,1.7
		c-0.3,0.5-0.6,1-1.1,1.4c-0.3,0.2-0.6,0.4-0.9,0.6c-0.4,0.2-0.7,0.2-0.7,0.1c-0.1-0.3,0-0.6,0.2-0.9c0.2-0.3,0.4-0.6,0.6-0.9
		c0.4-0.5,0.8-0.9,1.3-1.3C648.7,375.7,649.4,375.5,649.4,375.4z"/>
	<path class="st2" d="M596.9,411.9l18.2-4.9c0,0,11.1,16.8,14.6,16.2l-8.3-35.6l-28.6,6.5L596.9,411.9z"/>
	<g class="st9">
		<path class="st4" d="M610.9,396.4c0-0.8,0.7-1.4,1.4-1.4c0.8,0,1.4,0.6,1.4,1.4c-0.1,0.8-0.7,1.4-1.5,1.5
			c-0.8-0.1-1.4-0.8-1.3-1.6"/>
	</g>
	<g class="st9">
		<path class="st4" d="M621.3,387.7l-2.9,0.8l9,33.9c0,0,1.1,1.4,2.1,1L621.3,387.7z"/>
	</g>
	<path class="st5" d="M615,407.6c0.2,0,0.1-0.9,0.4-1.9s1-1.6,0.9-1.8c-0.1-0.1-1,0.3-1.5,1.6C614.4,406.7,614.8,407.7,615,407.6z"
		/>
	<path class="st5" d="M617.4,411c0.2,0,0.3-0.8,0.8-1.6s1.3-1.1,1.3-1.3c0-0.1-1-0.1-1.8,0.9C617,410,617.2,411,617.4,411z"/>
	<path class="st5" d="M622.3,412.1c0-0.2-0.9-0.2-1.8,0.5s-1,1.6-0.8,1.6c0.2,0,0.6-0.6,1.3-1.1
		C621.7,412.4,622.4,412.2,622.3,412.1z"/>
	<path class="st5" d="M610.7,408.3c0.1-0.1-0.3-0.8-0.4-1.8c-0.2-1,0-1.8-0.2-1.9c-0.2-0.1-0.6,0.8-0.4,2
		C609.9,407.7,610.6,408.4,610.7,408.3z"/>
	<g class="st10">
		<polygon points="600.5,410.9 603.7,410.1 599.5,392.6 596.5,393.3 		"/>
	</g>
	<path class="st5" d="M607,409.2c0-0.6-0.1-1.2-0.4-1.8c-0.3-0.6-0.6-1.2-1-1.7c-0.2-0.3-0.5-0.6-0.8-0.9c-0.2-0.2-0.3-0.3-0.5-0.4
		c-0.3-0.2-0.7-0.2-1,0.1c-0.2,0.2-0.3,0.6-0.2,0.9c0.1,0.2,0.1,0.4,0.2,0.6c0.2,0.4,0.4,0.7,0.6,1c0.4,0.5,0.9,1,1.5,1.4
		c0.5,0.4,1.1,0.6,1.7,0.7c0-0.1-0.6-0.4-1.4-1.1c-0.5-0.4-0.9-0.9-1.3-1.4c-0.2-0.3-0.4-0.6-0.6-0.9c-0.2-0.4-0.3-0.7-0.1-0.8
		c0.2-0.1,0.1-0.1,0.2,0c0.1,0.1,0.3,0.2,0.4,0.3c0.3,0.3,0.5,0.5,0.8,0.8c0.4,0.5,0.8,1,1.1,1.6C606.4,408.1,606.7,408.7,607,409.2
		z"/>
	<path class="st5" d="M607.2,408.9c-0.6-0.2-1.2-0.2-1.8-0.1c-0.7,0.1-1.3,0.4-1.9,0.7c-0.3,0.2-0.6,0.4-0.9,0.7
		c-0.4,0.3-0.7,0.8-0.6,1.3c0.1,0.3,0.3,0.6,0.7,0.6c0.2,0,0.5,0.1,0.7,0c0.4,0,0.8-0.1,1.2-0.3c0.6-0.3,1.2-0.7,1.7-1.2
		c0.8-0.9,0.8-1.7,0.7-1.7s-0.3,0.6-1.1,1.4c-0.4,0.4-1,0.8-1.5,1c-0.3,0.1-0.6,0.2-1,0.2c-0.4,0-0.7,0-0.7-0.2s0.2-0.5,0.4-0.8
		c0.3-0.2,0.6-0.5,0.9-0.7c0.5-0.3,1.1-0.6,1.7-0.8C606.5,409,607.2,409,607.2,408.9z"/>
	<path class="st5" d="M510.8,320.1c-0.6,0.3,9.7,8.3,11.8,14.2c2.6,7.1,8.3,15,8.3,15l37.8,29.4l63.9-16.2l13,18.9l-76,29.2
		c-4.1,1.6-8.7,1.2-12.4-1.1l-54.3-32.3l-32.6-32.8L510.8,320.1z"/>
	<path class="st5" d="M465.7,347.7l5.8,14.9c14.2,23,41.2,66.6,47.5,68.9c8.6,3.3,82.7-19.6,82.7-19.6l-3.8-20.7l-62.9,12
		l-50.1-70.2L465.7,347.7z"/>
	<path class="st8" d="M640.8,383.3c0,0-0.1,0.1-0.4,0.2l-1.2,0.5l-4.8,1.9l-17.6,7l-26.1,10.4l-15.3,6.1c-1.3,0.5-2.7,1.1-4,1.6
		c-4.3,1.5-9,1.5-13.3-0.1c-1.4-0.5-2.8-1.2-4.1-2l-3.8-2.4c-2.5-1.6-5-3.2-7.4-4.8c-4.8-3.2-9.3-6.3-13.6-9.4
		c-8.6-6.2-16.1-12-22.3-17.1c-6.2-5.1-10.9-9.5-14-12.6l-2.1-2.1c-0.6-0.6-1-1.2-1.4-1.6l-0.9-1c-0.2-0.2-0.3-0.4-0.3-0.4
		s0.1,0.1,0.3,0.3c0.2,0.2,0.5,0.6,0.9,1s0.9,1,1.5,1.6l2.1,2.1c3.2,3.1,8,7.5,14.1,12.5c6.2,5,13.7,10.8,22.3,16.9
		c4.3,3.1,8.9,6.2,13.6,9.4c2.4,1.6,4.8,3.2,7.3,4.8l3.8,2.4c1.3,0.8,2.6,1.5,4,2c4.2,1.5,8.8,1.6,13,0.1c1.4-0.5,2.7-1.1,4-1.6
		l15.4-6.1l26.1-10.3l17.6-6.9l4.8-1.9l1.3-0.5L640.8,383.3z"/>
	<path class="st8" d="M487,346.5c0.1,0.1-0.4,0.3-0.4,1c0,0.4,0.1,0.7,0.4,1c0.5,0.4,1.2,0.2,1.6-0.3c0.1-0.2,0.2-0.4,0.2-0.7
		c-0.1-0.4-0.3-0.7-0.6-0.8C487.5,346.3,487.1,346.5,487,346.5c0-0.1,0.1-0.2,0.3-0.3c0.3-0.1,0.6-0.1,0.9,0.1
		c0.5,0.2,0.8,0.6,0.9,1.1c0.1,0.9-0.5,1.6-1.4,1.8c-0.4,0.1-0.8-0.1-1.2-0.3c-0.4-0.4-0.5-0.9-0.4-1.4c0-0.3,0.2-0.6,0.4-0.8
		C486.9,346.5,487,346.5,487,346.5z"/>
	<path class="st8" d="M519.1,334.1c-0.1,0.2-0.3,0.5-0.5,0.7c-0.5,0.6-1.1,1.1-1.7,1.6c-2,1.6-4.4,2.6-6.9,3.1
		c-2.5,0.5-5.1,0.3-7.5-0.5c-0.7-0.2-1.4-0.5-2.1-0.9c-0.3-0.1-0.5-0.3-0.7-0.4c0-0.1,1.1,0.5,2.9,1c4.8,1.3,10,0.4,14.1-2.6
		C518.3,335,519.1,334.1,519.1,334.1z"/>
	<path class="st8" d="M572,273c0,0-46.8-12.3-49.8-14.4c-3-2.2-16.3-14.4-21.4-15.6c0,0-8.3-1.3-13.7-0.4l-5.7,1.3l-0.5-4.4
		l-23.7,2.8l-0.1,5.9l-3.9,1.9c0,0-7.5,20.9-6.5,29.9c0.9,9.1,1.7,62.7,12,71.9c1.6,1.4,7-0.2,7-0.2s26.4-5.6,51-26.9l-10.9-10.2
		c0,0-5.8-23.1-3.6-40.4c0.1-0.4,0.1-0.8,0.1-1.1c12.1,4.5,30.6,10.9,35.8,10.4c0,0,30.1,6.8,34.8,0C573.6,282.8,572,273,572,273z"
		/>
	<path class="st8" d="M457.8,248.8c0,0-9.3,1.3-14.5,9.5c-5.3,8.2-11.8,41.3-11.8,41.3l-15-12.5l-12.2,8.5c0,0,20.9,23.6,24.8,26.2
		c2.1,1.1,4.5,1.9,6.9,2.1c8.8-0.1,13.7-9.6,14.8-17.1l2.9-30.6"/>
	<path class="st6" d="M407.9,292.9l-14.8-6.8c0,0-5.2-9.5-3.7-10.1c1.6-0.6,3.6,5.2,3.6,5.2l2.1,0.8c0,0-3.2-4.8-2.3-5.3
		c0.9-0.6,2.4,0.8,3.2,1.9c0.6,0.8,2.8,4.3,2.8,4.3l0.8-1.4l-1.1-3.3c0,0-1.2-2.2-0.1-2.3c1.1-0.1,1.1-0.2,2.1,1.6
		c1,1.8,1.7,3.1,1.7,3.1s4.3,2,5.1,1.6c1.3-0.6,2.7-0.6,4-0.1c0,0,4.1,1.6,3.6,5.8"/>
	<path class="st5" d="M498.3,245.9c0.1,0-0.2,1-0.5,2.6c-0.7,4.1-0.5,8.4,0.6,12.5c0.4,1.6,0.8,2.5,0.7,2.5
		c-0.5-0.8-0.8-1.6-1.1-2.4c-0.7-2-1.1-4.1-1.1-6.3c-0.1-2.1,0.1-4.3,0.6-6.4C497.6,247.6,497.9,246.7,498.3,245.9z"/>
	<path class="st5" d="M460.9,248.5c-0.4-1.1-0.6-2.2-0.6-3.4c-0.2-1.1-0.1-2.3,0.2-3.4c0.2,1.1,0.3,2.2,0.3,3.4
		C460.9,246.3,461,247.4,460.9,248.5z"/>
	<path class="st5" d="M466.5,248.8c-0.3-1.3-0.4-2.5-0.3-3.8c-0.1-1.3,0-2.6,0.2-3.8c0.3,1.3,0.4,2.5,0.3,3.8
		C466.8,246.3,466.7,247.6,466.5,248.8z"/>
	<path class="st5" d="M473.9,247.8c-0.1,0,0-1.7,0-3.7c-0.1-2-0.4-3.7-0.2-3.7C474.5,242.8,474.6,245.4,473.9,247.8z"/>
	<path class="st5" d="M479.2,245.9c-0.1,0-0.1-1.4-0.3-3.1c-0.2-1.7-0.6-3-0.5-3.1c0.6,0.9,0.9,1.9,1,3
		C479.6,243.8,479.5,244.9,479.2,245.9z"/>
	<path class="st5" d="M445.4,262.3c0.1,0,1.3,13,2.7,29c1.3,16,2.3,29.1,2.2,29.1c-0.1,0-1.3-13-2.7-29
		C446.3,275.4,445.3,262.4,445.4,262.3z"/>
	<path class="st11" d="M447.6,293c-0.7-0.2-1.4-0.5-2.1-0.9c-1.6-0.8-3.3-1.5-5-1.9c-1.7-0.5-3.5-0.5-5.3-0.2
		c-1.3,0.3-2.1,0.7-2.1,0.6c0.6-0.5,1.3-0.8,2.1-1c1.8-0.4,3.7-0.4,5.5,0.1c1.8,0.5,3.5,1.2,5,2.1
		C446.4,292.1,447.1,292.5,447.6,293z"/>
	<path class="st11" d="M501.1,278.3c-0.1,0.1-0.3,0.2-0.4,0.3l-1.3,0.9c-0.6,0.4-1.3,0.9-2.1,1.4c-0.8,0.5-1.8,1.2-2.8,1.7
		c-1.1,0.6-2.3,1.3-3.6,1.9c-1.3,0.6-2.7,1.3-4.2,2c-3.3,1.4-6.7,2.5-10.1,3.5c-3.5,0.9-7,1.5-10.5,2c-1.6,0.2-3.2,0.3-4.7,0.4
		s-2.8,0.1-4.1,0.1c-1.2,0-2.4-0.1-3.3-0.1c-1,0-1.8-0.1-2.5-0.2l-1.6-0.2c-0.2,0-0.4,0-0.6-0.1c0.2,0,0.4,0,0.6,0l1.6,0.1
		c0.7,0,1.5,0.1,2.5,0.1c1,0,2.1,0.1,3.3,0c1.2,0,2.6,0,4-0.1s3-0.2,4.6-0.4c7.1-0.8,14-2.7,20.6-5.4c1.5-0.7,2.9-1.2,4.2-1.9
		s2.5-1.3,3.6-1.9c1.1-0.6,2-1.2,2.8-1.7c0.8-0.5,1.6-1,2.1-1.3l1.3-0.9C500.7,278.4,500.9,278.3,501.1,278.3z"/>
	<path class="st11" d="M525.8,261.2c0.1,0.1-0.7,0.7-1.8,1.9c-1.5,1.5-2.7,3.2-3.8,5.1c-1,1.9-1.8,3.8-2.4,5.9
		c-0.4,1.6-0.6,2.6-0.7,2.6c0-0.2,0-0.5,0-0.7c0.1-0.7,0.2-1.3,0.3-1.9c0.9-4.2,3.1-8.1,6.2-11.1c0.5-0.5,1-0.9,1.5-1.3
		C525.5,261.3,525.8,261.2,525.8,261.2z"/>
	<path class="st11" d="M531,262.2c0,0.1-0.9,0.6-2.3,1.8c-3.6,2.9-6.2,7-7.4,11.5c-0.5,1.7-0.6,2.8-0.6,2.8c-0.1,0,0-0.3,0-0.8
		c0.1-0.7,0.2-1.4,0.3-2.1c1-4.7,3.7-8.8,7.5-11.7c0.6-0.4,1.2-0.8,1.8-1.2C530.5,262.4,530.7,262.3,531,262.2z"/>
	<path class="st11" d="M501,274.2c-0.1,0.1-0.3,0.2-0.5,0.3l-1.4,0.7c-0.6,0.3-1.4,0.7-2.3,1.1s-1.9,0.9-3,1.4c-2.3,1-5,2.1-8.1,3.1
		c-3.1,1.1-6.6,2-10.3,2.8s-7.3,1.4-10.5,1.8c-3.2,0.4-6.2,0.6-8.7,0.6c-1.2,0.1-2.3,0-3.3,0c-1,0-1.8,0-2.5-0.1l-1.6-0.1
		c-0.2,0-0.4,0-0.6,0c0.2,0,0.4-0.1,0.6-0.1l1.6,0c0.7,0,1.5,0,2.5,0s2.1,0,3.3-0.1c2.5-0.1,5.4-0.3,8.6-0.7s6.8-1,10.5-1.8
		c3.7-0.8,7.1-1.8,10.2-2.8c3.1-1,5.8-2,8.1-3c1.1-0.4,2.2-0.9,3.1-1.3c0.9-0.4,1.7-0.7,2.3-1l1.4-0.7
		C500.6,274.3,500.8,274.2,501,274.2z"/>
	<path class="st11" d="M447.4,285.4c-1.8-0.9-3.7-1.7-5.6-2.3c-2-0.5-4-0.8-6-0.9c0.6-0.2,1.2-0.2,1.8-0.2c1.5,0,2.9,0.2,4.3,0.6
		c1.4,0.4,2.8,1,4,1.7C446.5,284.5,447,284.9,447.4,285.4z"/>
	<path class="st6" d="M586.5,267.8l-9.5,4.3L572,273l1.1,10.6l5.3,1.2l13.6-2.2c0,0,8.3,3.2,10.2,2.7c2-0.4,1.9-1.1,1.9-1.1
		l-10.3-4.9c1.2-0.4,2.6-0.4,3.8,0.1c2.3,0.8,6.4,2.6,7.8,1.9c1.3-0.8,1-1.2,1-1.2l-8.1-4c0,0,6.8,2.3,7.9,1.6
		c0.6-0.3,1-0.9,1.1-1.6l-4.6-3.3l-6.9-4.3L586.5,267.8z"/>
	<path class="st7" d="M581.4,272.7c0.4,0.1,0.8,0.2,1.1,0.3c0.7,0.2,1.7,0.6,3,1.1c1.2,0.5,2.7,1,4.4,1.8c0.4,0.2,0.9,0.4,1.2,0.8
		c0.4,0.4,0.6,0.8,0.7,1.3c0.1,0.5,0.1,1.1-0.2,1.6c-0.3,0.5-0.7,0.9-1.3,1c-0.7,0.2-1.4,0.3-2.2,0.2c-0.7-0.1-1.3-0.3-2-0.5
		c-1.2-0.4-2.4-0.8-3.4-1.2l0.3-0.1c-0.5,0.9-1.2,1.6-2.1,2.1c-0.7,0.4-1.4,0.6-2.2,0.6c-0.5,0-1,0-1.4-0.1
		c-0.3-0.1-0.5-0.1-0.5-0.2c0.6,0.1,1.3,0.1,1.9,0c0.7-0.1,1.4-0.3,2-0.7c0.8-0.5,1.4-1.2,1.9-2l0.1-0.1l0.2,0.1
		c1,0.4,2.2,0.8,3.4,1.1c0.6,0.2,1.3,0.3,1.9,0.5c0.7,0.1,1.3,0,1.9-0.2c0.4-0.1,0.8-0.4,1-0.8c0.2-0.4,0.2-0.8,0.1-1.3
		c-0.2-0.8-0.8-1.5-1.7-1.8c-1.6-0.7-3.1-1.3-4.3-1.8l-2.9-1.2C582.1,273.1,581.8,272.9,581.4,272.7z"/>
	<path class="st7" d="M598.8,276.2c-1.6-0.5-3.2-1.3-4.6-2.3c-0.3-0.2-0.7-0.4-1-0.7l0.3,0c-0.8,0.5-1.7,0.9-2.7,1
		c-0.4,0.1-0.8,0.1-1.1,0c0-0.1,0.4-0.1,1.1-0.3c0.9-0.2,1.7-0.6,2.5-1.1l0.2-0.1l0.2,0.1c0.3,0.2,0.6,0.4,0.9,0.6
		C595.9,274.3,597.4,275.2,598.8,276.2z"/>
	<path class="st2" d="M623.4,350.7c-2,0.2-4,0.1-6-0.2c-19.5-3.7-19.9-17.5-20.3-28.5c-0.3-10.3-0.9-16.7-9.7-19
		c-11.6-3-15.7,1.5-22.1,8.4c-7.5,8.2-16.9,18.3-42.2,17.2c-13.1-0.6-34.7-5.3-62.5-24.3c-9.9-6.7-19.2-14.3-27.8-22.7l3.5-3.5
		c0.4,0.4,43.5,43.6,87,45.5c23,1,31.2-7.8,38.3-15.6c6.4-7,12.5-13.6,27-9.8c12.8,3.4,13.1,14.2,13.4,23.7
		c0.3,11.2,0.6,20.8,16.2,23.8c17.5,3.3,37.1-25.9,48.8-43.4c4.2-6.2,7.1-10.7,9.5-13.2l4,2.6c-1.4,2.2-5.5,7.6-9.4,13.3
		C659.4,322.7,642,348.8,623.4,350.7z"/>
	<path class="st4" d="M549.3,318.7c0,0-0.2,0.2-0.6,0.5c-0.5,0.4-1.1,0.8-1.6,1.2c-1.9,1.2-3.9,2.1-6,2.8c-2.1,0.7-4.3,1.1-6.5,1.2
		c-0.7,0-1.3,0-2,0c-0.2,0-0.5,0-0.7-0.1c0-0.1,1.1-0.1,2.7-0.3c4.4-0.4,8.6-1.8,12.4-3.9C548.3,319.2,549.2,318.6,549.3,318.7z"/>
	<path class="st4" d="M576.8,300.7c-0.5,0.1-1.1,0.1-1.6,0.1c-2.6,0.2-5,1.4-6.9,3.2c-0.3,0.4-0.7,0.8-1.1,1.2
		c0.2-0.5,0.5-1,0.9-1.4c1.8-2.1,4.4-3.3,7.1-3.3C575.7,300.4,576.3,300.5,576.8,300.7z"/>
	<path class="st4" d="M613.3,344.5c-0.8,0-1.6-0.2-2.3-0.5c-3.7-1.2-6.7-3.9-8.4-7.4c-0.4-0.7-0.6-1.4-0.7-2.2
		c0.1,0,0.4,0.8,1.1,2.1c0.9,1.6,2.1,3.1,3.5,4.3c1.4,1.2,3,2.2,4.7,2.9C612.5,344.2,613.3,344.4,613.3,344.5z"/>
	<path class="st4" d="M677.8,290.7c-2.1,3.1-4.4,6-7,8.6C672.8,296.3,675.2,293.4,677.8,290.7z"/>
	<path class="st2" d="M437.4,282.2L437.4,282.2c-1.9,2.6-5.5,3.1-8,1.2l-9.6-7.1l6.8-9.3l9.5,7.1C438.7,276,439.3,279.6,437.4,282.2
		z"/>
	<path class="st5" d="M437.4,282.2c0.2-0.5,0.5-0.9,0.7-1.4c0.5-1.4,0.4-2.9-0.2-4.2c-0.4-0.9-1-1.7-1.8-2.3l-2.9-2.1
		c-2-1.5-4.3-3.1-6.7-4.9l0.3,0l-3.4,4.6l-3.4,4.6l0-0.3l6.7,4.9l2.9,2.1c0.8,0.6,1.7,1,2.7,1.1c1.4,0.2,2.9-0.2,4-1.1
		C436.6,282.9,437,282.5,437.4,282.2c-0.3,0.4-0.6,0.8-1,1.2c-1.2,1-2.7,1.4-4.2,1.3c-1.1-0.1-2.1-0.5-2.9-1.1
		c-0.9-0.7-1.9-1.4-2.9-2.1l-6.7-4.9l-0.2-0.1l0.2-0.2l3.4-4.6l3.4-4.6l0.1-0.2l0.2,0.1l6.7,5l2.9,2.1c0.8,0.6,1.5,1.5,1.9,2.5
		c0.6,1.4,0.6,3,0,4.4C438,281.3,437.8,281.8,437.4,282.2z"/>
	<path class="st2" d="M388.3,238.9L372,228c-1.3-0.9-1.6-2.6-0.8-3.9c0,0,0,0,0,0l0,0c0.9-1.3,2.6-1.6,3.9-0.8c0,0,0,0,0,0
		l16.3,10.9L388.3,238.9z"/>
	<path class="st2" d="M376.1,258.6l-16.3-10.9c-1.3-0.9-1.6-2.6-0.8-3.9c0,0,0,0,0,0l0,0c0.8-1.3,2.6-1.6,3.9-0.8c0,0,0,0,0,0
		l16.3,10.9L376.1,258.6z"/>
	<g class="st9">
		<path class="st4" d="M388.3,238.9L372,228c-1.3-0.9-1.6-2.6-0.8-3.9c0,0,0,0,0,0l0,0c0.9-1.3,2.6-1.6,3.9-0.8c0,0,0,0,0,0
			l16.3,10.9L388.3,238.9z"/>
	</g>
	<g class="st9">
		<path class="st4" d="M376.1,258.6l-16.3-10.9c-1.3-0.9-1.6-2.6-0.8-3.9c0,0,0,0,0,0l0,0c0.8-1.3,2.6-1.6,3.9-0.8c0,0,0,0,0,0
			l16.3,10.9L376.1,258.6z"/>
	</g>
	<path class="st5" d="M388.3,238.9c0.1-0.1,0.1-0.2,0.2-0.4l0.6-0.9l2.2-3.4l0,0.2l-7.7-5l-4.8-3.2l-2.6-1.7l-1.3-0.9
		c-0.4-0.3-0.9-0.4-1.4-0.4c-0.9,0-1.7,0.4-2.1,1.1c-0.5,0.7-0.6,1.5-0.3,2.3c0.1,0.4,0.4,0.7,0.6,0.9c0.3,0.3,0.6,0.5,1,0.7l2,1.4
		l7,4.8l4.7,3.3l1.3,0.9C388,238.6,388.2,238.7,388.3,238.9c-0.2-0.2-0.3-0.3-0.5-0.4l-1.3-0.9c-1.2-0.8-2.8-1.8-4.8-3.1l-7.2-4.7
		l-2.1-1.4c-0.4-0.2-0.7-0.5-1.1-0.8c-1.2-1.1-1.4-3-0.3-4.2c0.6-0.7,1.5-1.1,2.4-1c0.6,0,1.2,0.2,1.7,0.5l1.3,0.9l2.6,1.7l4.8,3.2
		l7.6,5.1l0.1,0.1l-0.1,0.1l-2.4,3.4l-0.6,0.9C388.5,238.6,388.4,238.8,388.3,238.9z"/>
	<path class="st5" d="M376.1,258.6c0.1-0.1,0.1-0.2,0.2-0.4c0.2-0.3,0.3-0.6,0.6-0.9l2.2-3.4l0,0.2l-7.7-5l-4.8-3.2l-2.6-1.7
		l-1.3-0.9c-0.4-0.3-0.9-0.4-1.4-0.4c-0.9,0-1.7,0.4-2.1,1.1c-0.5,0.7-0.6,1.5-0.3,2.3c0.1,0.4,0.3,0.7,0.6,0.9
		c0.3,0.3,0.6,0.5,1,0.7l2,1.4l7,4.8l4.7,3.3l1.3,0.9C375.7,258.2,375.9,258.3,376.1,258.6c0-0.1-0.2-0.2-0.5-0.3l-1.3-0.8l-4.8-3.1
		l-7.2-4.7l-2.1-1.4c-0.4-0.2-0.7-0.5-1.1-0.8c-0.3-0.3-0.6-0.7-0.8-1.2c-0.3-0.9-0.2-2,0.3-2.8c0.6-0.8,1.5-1.3,2.6-1.3
		c0.6,0,1.2,0.2,1.7,0.5c0.4,0.3,0.9,0.6,1.3,0.9l2.6,1.7l4.8,3.2l7.6,5.2l0.1,0.1l-0.1,0.1c-1,1.4-1.8,2.6-2.4,3.4l-0.6,0.9
		C376.1,258.5,376.1,258.6,376.1,258.6z"/>
	<path class="st2" d="M424.2,251.2l0.3-0.5c1.6-2.5,1-5.8-1.5-7.4c-2.1-1.4-4.9-1.2-6.7,0.6l-23.9-16.1l-22.1,32.8l24.4,15.6
		c-1.2,2.4-0.4,5.3,1.8,6.9l0,0c2.4,1.6,5.7,1,7.3-1.4c7.1,4.3,16.4,2.2,20.9-4.8l3.2-4.9C432.3,265,430.7,256,424.2,251.2z"/>
	<path class="st5" d="M424.2,251.2l0.2,0.1l0.6,0.5c0.3,0.2,0.6,0.5,0.9,0.8l0.5,0.5l0.6,0.7c1,1.2,1.8,2.5,2.4,3.9
		c1.8,4.4,1.5,9.4-0.9,13.5c-0.7,1.2-1.5,2.4-2.3,3.7c-0.8,1.3-1.7,2.6-2.7,3.8c-2.3,2.6-5.4,4.4-8.8,5c-3.8,0.7-7.7,0-11-1.9l0.3,0
		c-0.8,1.2-2,2-3.4,2.3c-1.5,0.3-3,0-4.2-0.8l0,0l0,0c-2.3-1.6-3.2-4.6-1.9-7.2l0.1,0.3l-18.9-12.2l-5.5-3.5l-0.2-0.1l0.1-0.2
		c8.1-11.9,15.6-23.1,22.1-32.7l0.1-0.2l0.2,0.1l23.9,16.2l-0.2,0c2.2-2.1,5.6-2,7.7,0.1c0.9,0.9,1.4,2.1,1.5,3.3
		c0.1,1.1-0.1,2.2-0.7,3.1c-0.1,0.2-0.3,0.5-0.5,0.7L424.2,251.2c0-0.1,0.2-0.4,0.5-1c0.5-0.9,0.7-2,0.6-3.1c-0.2-1.7-1.2-3.2-2.7-4
		c-0.9-0.5-2-0.8-3.1-0.7c-1.2,0.1-2.3,0.6-3.2,1.5l-0.1,0.1l-0.1-0.1l-24-16l0.3,0l-22,32.8l0-0.3l5.5,3.5l18.9,12.1l0.2,0.1
		l-0.1,0.2c-1.2,2.3-0.5,5.1,1.7,6.6l0,0c2.3,1.5,5.4,1,7-1.3l0.1-0.2l0.2,0.1c6.3,3.8,14.4,2.5,19.3-3c1-1.2,1.9-2.4,2.6-3.8
		c0.8-1.3,1.6-2.5,2.3-3.7c3.1-5.5,2.6-12.3-1.3-17.2c-0.2-0.2-0.4-0.5-0.6-0.7l-0.5-0.5c-0.3-0.3-0.6-0.6-0.9-0.8l-0.6-0.5
		C424.2,251.2,424.2,251.2,424.2,251.2z"/>
	
		<rect x="387.5" y="240.3" transform="matrix(0.5558 -0.8313 0.8313 0.5558 -35.1328 435.0243)" class="st1" width="4" height="20.2"/>
	<path class="st5" d="M424.2,251.2c-0.2,0.4-0.4,0.9-0.7,1.3c-0.5,0.8-1.2,1.9-2.1,3.3c-1.8,2.8-4.3,6.6-7.2,10.8
		c-2.9,4.2-5.4,7.9-7.3,10.8l-2.2,3.2c-0.3,0.4-0.6,0.8-0.9,1.2c0.2-0.4,0.4-0.9,0.7-1.3c0.5-0.8,1.2-1.9,2.1-3.3
		c1.8-2.8,4.3-6.6,7.2-10.8l7.3-10.8l2.2-3.2C423.6,251.9,423.9,251.5,424.2,251.2z"/>
	<path class="st5" d="M416.4,243.8c-0.2,0.5-0.5,0.9-0.8,1.3c-0.5,0.8-1.3,2-2.3,3.5c-1.9,3-4.7,7-7.8,11.4
		c-3.1,4.4-5.8,8.4-7.9,11.4c-1,1.4-1.7,2.5-2.4,3.4c-0.3,0.4-0.6,0.8-0.9,1.2c0.2-0.5,0.5-0.9,0.8-1.3c0.5-0.8,1.3-2,2.3-3.5
		c1.9-3,4.7-7,7.8-11.4l7.9-11.3l2.4-3.4C415.7,244.6,416,244.2,416.4,243.8z"/>
</g>
<g id="freepik--character-1--inject-13">
	<path class="st12" d="M309.1,174c-0.1,0.3-10.2,9.8-10.2,9.8l0.5,7.1l5.8,0.2l7.6-5.4l5.4-0.8c0,0,3.5,1.4,4.2,1.6
		c0.9,0.2,1.8-0.3,2.1-1.2l-5.3-3.1c0,0,5.8,2.5,6.3,2c0.5-0.8,0.4-1.8-0.4-2.4c-0.1-0.1-0.2-0.2-0.4-0.2c0,0,1.8,0.7,2.8-0.1
		c1-0.8,0.5-1.7,0.5-1.7l-8-5.8c-1-0.7-2.3-1.1-3.5-0.9L309.1,174z"/>
	<path class="st13" d="M310.2,177c0,0.3,0,0.6,0,0.9c0,0.6-0.1,1.4-0.1,2.4l-0.2-0.2l4.2-0.7c0.9-0.2,1.8-0.2,2.7,0.1
		c0.5,0.2,0.9,0.5,1.2,1c0.3,0.5,0.4,1.1,0.2,1.6l0,0.1l-0.1,0c-1.2,0.9-2.9,0.9-4.4,1.2c-1.1,0.1-2.2,0.6-3,1.4
		c-0.8,0.8-1.4,1.6-2.1,2.5c-0.6,0.8-1.3,1.5-2.1,2.2c-0.7,0.5-1.6,0.9-2.5,1c-1.3,0.1-2.5,0-3.7-0.4c-0.4-0.1-0.9-0.2-1.3-0.4
		c0.5,0,0.9,0.1,1.3,0.2c1.2,0.3,2.4,0.4,3.6,0.2c0.8-0.1,1.6-0.4,2.3-0.9c0.8-0.6,1.4-1.3,2-2.1c0.6-0.9,1.3-1.7,2.1-2.5
		c0.9-0.9,2-1.4,3.2-1.6c1.5-0.2,3.1-0.3,4.2-1.1l-0.1,0.1c0.2-0.9-0.3-1.7-1.1-2c-0.8-0.2-1.7-0.3-2.5-0.1l-4.2,0.6l-0.2,0l0-0.2
		c0.1-0.9,0.2-1.7,0.3-2.4C310.1,177.5,310.2,177.3,310.2,177z"/>
	<path class="st13" d="M325,181.8c-0.7-0.2-1.4-0.5-2-0.9c-1.2-0.7-2.5-2-4.2-3c-0.4-0.2-0.8-0.4-1.3-0.4c-0.4,0-0.9,0.1-1.3,0.1
		l-2.3,0.2c-0.7,0.1-1.4,0.1-2.2,0.1c0.7-0.2,1.4-0.4,2.1-0.4l2.3-0.3c0.5-0.1,0.9-0.1,1.4-0.1c0.5,0,1.1,0.2,1.5,0.4
		c1.5,1,2.8,2,4.2,3.2C324.2,181.4,325,181.7,325,181.8z"/>
	<path class="st14" d="M347.1,392.3l1.5,17.5c0,0,18.2,4.3,18.8,7.5l-33.7,4.2l-3.5-27.1L347.1,392.3z"/>
	<g class="st9">
		<path class="st4" d="M338.1,409.5c-0.6,0.3-1,1-0.8,1.7c0.3,0.7,1,1,1.7,0.8c0.7-0.3,1.1-1.1,0.8-1.8
			C339.4,409.5,338.6,409.3,338.1,409.5"/>
	</g>
	<g class="st9">
		<path class="st4" d="M333.8,421.3l-0.3-2.7l32.4-3c0,0,1.6,0.5,1.5,1.5L333.8,421.3z"/>
	</g>
	<path class="st5" d="M349.2,409.5c0,0.2-0.8,0.3-1.5,1c-0.7,0.6-1.1,1.4-1.3,1.3c-0.2,0,0-1,0.9-1.8
		C348.2,409.2,349.2,409.3,349.2,409.5z"/>
	<path class="st5" d="M352.9,410.5c0.1,0.2-0.6,0.5-1.1,1.3c-0.5,0.8-0.5,1.5-0.7,1.5c-0.2,0-0.4-0.9,0.2-1.8
		S352.9,410.3,352.9,410.5z"/>
	<path class="st5" d="M355.4,414.5c-0.1,0-0.5-0.7-0.2-1.7s1-1.4,1.1-1.3c0.1,0.1-0.3,0.7-0.6,1.5S355.6,414.4,355.4,414.5z"/>
	<path class="st5" d="M348.4,405.5c0,0.2-0.8,0-1.8,0.2c-0.9,0.2-1.6,0.6-1.7,0.4s0.5-0.8,1.6-1
		C347.6,404.9,348.5,405.4,348.4,405.5z"/>
	<g class="st10">
		<polygon points="347.4,395.7 347.7,398.8 331.1,400.7 330.8,397.9 		"/>
	</g>
	<path class="st5" d="M348,402c-0.5,0.2-1.1,0.3-1.7,0.2c-0.6,0-1.2-0.1-1.8-0.3c-0.4-0.1-0.7-0.2-1-0.4c-0.2-0.1-0.4-0.2-0.6-0.3
		c-0.3-0.2-0.3-0.6-0.2-0.9c0.1-0.3,0.4-0.4,0.7-0.5c0.2,0,0.4,0,0.6,0c0.4,0,0.7,0.1,1.1,0.2c0.6,0.2,1.2,0.5,1.7,0.8
		c0.9,0.6,1.2,1.2,1.1,1.3c-0.1,0-0.5-0.4-1.4-0.9c-0.5-0.3-1.1-0.5-1.6-0.7c-0.3-0.1-0.7-0.1-1-0.2c-0.4-0.1-0.7,0-0.7,0.2
		c-0.1,0.2,0,0.1,0,0.2c0.1,0.1,0.3,0.2,0.4,0.2c0.3,0.2,0.6,0.3,1,0.4c0.6,0.2,1.1,0.3,1.7,0.4C346.9,401.9,347.4,401.9,348,402z"
		/>
	<path class="st5" d="M347.8,402.3c-0.4-0.4-0.6-1-0.6-1.6c-0.1-0.6-0.1-1.3,0-1.9c0.1-0.4,0.2-0.7,0.3-1c0.1-0.5,0.5-0.9,1-1
		c0.3,0,0.6,0.1,0.8,0.4c0.1,0.2,0.2,0.4,0.3,0.6c0.1,0.4,0.1,0.8,0.1,1.1c0,0.6-0.2,1.3-0.5,1.8c-0.5,1-1.2,1.2-1.2,1.2
		c0-0.1,0.5-0.5,0.9-1.4c0.2-0.5,0.3-1.1,0.3-1.7c0-0.3-0.1-0.7-0.2-1c-0.1-0.4-0.3-0.6-0.4-0.6c-0.1,0-0.4,0.3-0.5,0.6
		c-0.1,0.3-0.2,0.6-0.3,1c-0.1,0.6-0.2,1.2-0.1,1.7C347.7,401.6,347.9,402.2,347.8,402.3z"/>
	<path class="st5" d="M275.6,300.2c1,1.2,41.5,35.4,41.5,35.4s-2.8,18,0.5,33c3.2,15.1,10.6,38.8,10.6,38.8l26.4-4.9l-15.7-81.8
		l-32.9-35.4L275.6,300.2z"/>
	<path class="st14" d="M354.3,372.1l5,16.8c0,0,18.7,0.5,20,3.5l-32.2,10.9l-8.9-25.8L354.3,372.1z"/>
	<g class="st9">
		<path class="st4" d="M348.9,390.8c-0.6,0.4-0.7,1.2-0.4,1.8c0.4,0.6,1.2,0.8,1.8,0.4c0.6-0.4,0.8-1.3,0.4-1.9
			c-0.5-0.6-1.3-0.7-1.9-0.2"/>
	</g>
	<g class="st9">
		<path class="st4" d="M347.2,403.3l-0.8-2.6l31.1-9.5c0,0,1.6,0.1,1.8,1.2L347.2,403.3z"/>
	</g>
	<path class="st5" d="M359.8,388.5c0,0.2-0.7,0.5-1.3,1.3s-0.8,1.6-0.9,1.6c-0.2,0-0.2-1,0.5-1.9
		C358.8,388.4,359.8,388.3,359.8,388.5z"/>
	<path class="st5" d="M363.7,388.8c0.1,0.1-0.5,0.6-0.9,1.5c-0.3,0.8-0.2,1.6-0.4,1.6s-0.6-0.8-0.2-1.9
		C362.6,389,363.6,388.6,363.7,388.8z"/>
	<path class="st5" d="M367,392.1c-0.1,0.1-0.6-0.6-0.5-1.6c0.1-1,0.7-1.6,0.9-1.5c0.1,0.1-0.2,0.7-0.3,1.5S367.1,392.1,367,392.1z"
		/>
	<path class="st5" d="M358.3,384.8c0,0.2-0.8,0.2-1.7,0.6c-0.9,0.4-1.5,0.9-1.6,0.8c-0.1-0.1,0.3-0.9,1.4-1.3
		C357.4,384.4,358.3,384.7,358.3,384.8z"/>
	<g class="st10">
		<polygon points="355.3,375.4 356.2,378.4 340.4,383.6 339.5,380.9 		"/>
	</g>
	<path class="st5" d="M357.2,381.4c-0.5,0.3-1,0.5-1.6,0.5c-1,0.1-2,0.1-2.9-0.1c-0.2,0-0.4-0.1-0.6-0.2c-0.3-0.2-0.4-0.5-0.4-0.8
		c0.1-0.3,0.3-0.5,0.6-0.6c0.2-0.1,0.4-0.1,0.6-0.1c0.4,0,0.7,0,1.1,0c0.6,0.1,1.2,0.2,1.8,0.5c1,0.4,1.4,0.9,1.4,1
		c0,0.1-0.6-0.3-1.5-0.6c-0.6-0.2-1.1-0.3-1.7-0.3c-0.3,0-0.7,0-1,0c-0.4,0-0.7,0.1-0.7,0.3c0,0.2,0,0.1,0.1,0.2
		c0.1,0.1,0.3,0.1,0.4,0.2c0.3,0.1,0.7,0.2,1,0.2c0.6,0.1,1.2,0.1,1.8,0.1C356.1,381.5,356.6,381.5,357.2,381.4z"/>
	<path class="st5" d="M357.1,381.7c-0.1,0-0.6-0.4-1-1.4c-0.2-0.6-0.4-1.2-0.4-1.8c0-0.4,0-0.7,0.1-1.1c0-0.5,0.3-0.9,0.7-1.2
		c0.3-0.1,0.6,0,0.8,0.2c0.1,0.2,0.3,0.3,0.4,0.5c0.2,0.3,0.3,0.7,0.4,1.1c0.1,0.6,0.1,1.3-0.1,1.9c-0.3,1-0.9,1.5-1,1.4
		c0.2-0.5,0.4-1,0.6-1.5c0.1-0.6,0.1-1.1,0-1.7c-0.1-0.3-0.2-0.6-0.3-0.9c-0.2-0.3-0.4-0.6-0.5-0.5s-0.4,0.4-0.4,0.7
		c-0.2,0.9-0.1,1.8,0.1,2.7C356.8,381.2,357.1,381.7,357.1,381.7z"/>
	<path class="st5" d="M207.4,280.9c0,0-0.8,16,9.7,25.3c10.6,9.3,21.3,12.8,39.3,10.1c18-2.7,57.2-5.8,57.2-5.8s3.8,20.7,10.1,37.3
		c6.3,16.6,18,41.4,18,41.4l17.5-3.5c0,0-14.4-92.6-16.4-100.7s-16.2-10.9-23.9-12.6c-7.7-1.7-51-5.9-51-5.9l-39.1-1.4L207.4,280.9z
		"/>
	<path class="st8" d="M359.2,385.7l-0.3,0l-0.9,0.2l-3.6,0.6l-13.5,2.3l-0.1,0l0-0.1c-3.2-7.4-7.3-17-12-28
		c-2.4-5.5-4.9-11.5-7.5-17.6c-1.3-3.1-2.7-6.2-3.8-9.6c-1.1-3.4-2-6.9-2.6-10.4c-0.7-4.1-0.9-8.3-0.6-12.5l0.3,0.3
		c-10.8,0.9-21,1.8-30.2,2.7c-4.6,0.5-9,0.9-12.9,1.4s-7.8,1-11.2,1.4c-6.8,0.7-12.4,0.9-16.2,1c-1.9,0-3.4,0-4.4,0l-1.1,0l-0.4,0
		c0.1,0,0.3,0,0.4,0l1.1,0l4.4-0.1c3.8-0.1,9.3-0.4,16.1-1.1c3.4-0.4,7.2-0.9,11.2-1.4s8.4-1,12.9-1.4c9.2-0.9,19.4-1.9,30.2-2.8
		l0.3,0l0,0.3c-0.3,4.1-0.1,8.3,0.6,12.4c0.6,3.5,1.4,7,2.5,10.3c1.1,3.3,2.5,6.5,3.8,9.5c2.6,6.2,5.1,12.1,7.5,17.6
		c4.7,11.1,8.8,20.7,11.9,28.1l-0.2-0.1l13.5-2.2l3.6-0.5l0.9-0.1C359,385.7,359.1,385.7,359.2,385.7z"/>
	<path class="st8" d="M321.9,298.9c0.1,0.1-1.9,2.4-3.8,5.7c-1.9,3.2-3.1,6.1-3.2,6c0.1-0.7,0.3-1.3,0.6-1.9c0.6-1.5,1.4-3,2.2-4.3
		c0.8-1.4,1.8-2.7,2.8-4C320.9,299.8,321.3,299.3,321.9,298.9z"/>
	<path class="st8" d="M326.9,300.1c-2.3,1.2-4.5,2.6-6.6,4.3c-1.9,1.8-3.7,3.8-5.3,5.9c0.3-0.7,0.7-1.4,1.1-2
		c2.2-3.1,5.1-5.7,8.6-7.3C325.4,300.5,326.1,300.2,326.9,300.1z"/>
	<path class="st8" d="M234.9,182.7c1.4,0.5,30.2,14.3,31.5,14.2c1.3-0.1,32.2-15.2,32.2-15.2l7.6,9.5c0,0-25.9,24.6-35.1,25.9
		c-9.2,1.3-24.6-4.6-24.6-4.6L234.9,182.7z"/>
	<path class="st8" d="M179.4,197.6c0,0-30.3,37.9-29,46.5c1.3,8.7,6,13.1,8.8,13.9c3.9,1.2,45.7-8.4,45.7-8.4l0.8-16.7
		c-7.1-0.7-16-0.8-25.7-0.7c3.8-4.9,8.2-8.8,14-10.4l9-12.1C203,209.8,188.7,194.5,179.4,197.6z"/>
	<path class="st8" d="M178.7,208.1c0,0-2.4-7.3,0.9-10.6c5.5-5.6,10.3-8.4,14.4-11c4.7-3,9.7-6.4,9.7-6.4l31.3,2.6
		c0,0,19.1,24.5,19.4,30.9c0.2,3.9-1,7.8-3.3,10.9c-0.4,7.2,1.1,14.4,4.4,20.8c4.6,8.7,12.5,21.3,12.5,21.3s-35.8-2.1-51.6,7.8
		c-8.5,5.3-8.6,12.4-8.6,12.4l-5.2-38.2l0,0l-9.3-22.8L178.7,208.1z"/>
	<path class="st5" d="M204.7,232.9c0,0-0.2,0-0.5-0.1c-0.3,0-0.8-0.1-1.4-0.1c-1.2-0.1-3-0.1-5.1-0.1c-4.3,0-10.3,0-16.9,0l-1.1,0
		l-0.6,0l0.4-0.4c2.3-2.2,4.4-4.3,6.4-6.2c1.8-1.6,4-2.9,6.3-3.6c1.6-0.5,3.2-0.8,4.8-0.8c0.4,0,0.9,0,1.3,0c0.2,0,0.3,0,0.4,0.1
		c-2.2,0-4.4,0.3-6.5,1c-2.3,0.8-4.3,2-6.1,3.6l-6.4,6.2l-0.2-0.4l1.1,0c6.6,0,12.6,0,16.9,0.1C202,232.4,204.8,232.7,204.7,232.9z"
		/>
	<path class="st5" d="M168.1,234.3c0.3-0.5,0.7-1,1.2-1.4c1.2-0.9,2.6-1.5,4.1-1.8c1.5-0.2,3-0.1,4.4,0.5c0.6,0.2,1.1,0.5,1.6,0.9
		c0,0.1-0.7-0.3-1.7-0.6c-1.4-0.4-2.8-0.5-4.2-0.3c-1.4,0.2-2.8,0.8-3.9,1.6C168.7,233.8,168.2,234.3,168.1,234.3z"/>
	<path class="st5" d="M198.1,209.9c-0.1,0-0.5-1.2-1.5-3.1c-1.2-2.5-2.8-4.7-4.8-6.5c-1.1-1-2.4-1.8-3.8-2.4l-0.9-0.4
		c-0.3-0.1-0.6-0.2-0.9-0.2c-0.6-0.1-1.1-0.2-1.7-0.3c-0.8-0.1-1.7,0-2.5,0.1c-0.3,0.1-0.6,0.1-0.9,0.1c0.3-0.1,0.6-0.2,0.9-0.2
		c1.4-0.3,2.9-0.3,4.3,0c0.3,0.1,0.6,0.1,1,0.2l1,0.3c1.4,0.6,2.8,1.4,3.9,2.5c2,1.9,3.7,4.2,4.8,6.8c0.4,0.8,0.7,1.6,0.9,2.4
		C198.1,209.4,198.1,209.7,198.1,209.9z"/>
	<path class="st5" d="M250.2,225.6c0,0,0.4-0.5,0.9-1.4c0.8-1.3,1.5-2.7,1.9-4.2c0.6-2.2,0.8-4.5,0.5-6.8c-0.4-2.8-1.5-5.4-3.2-7.6
		c-1.8-2.2-3.7-4.2-5.8-6.2c-1.7-1.6-3.2-3.4-4.5-5.3c-0.9-1.3-1.5-2.8-1.9-4.3c-0.1-0.4-0.2-0.8-0.2-1.3c0-0.1-0.1-0.3,0-0.4
		c0,0,0.1,0.6,0.4,1.7c0.4,1.5,1.1,2.9,2,4.2c1.3,1.9,2.9,3.6,4.6,5.2c2.1,1.9,4.1,4,5.9,6.2c1.8,2.3,2.9,5,3.3,7.9
		c0.3,2.3,0.1,4.7-0.6,7c-0.4,1.5-1.1,2.9-2,4.2c-0.2,0.4-0.5,0.7-0.8,1C250.4,225.4,250.3,225.5,250.2,225.6z"/>
	<g class="st10">
		<path d="M196.8,232.3c-0.9-2.2,0.1-4.8,2.2-5.9c1.2-0.4,2.4-0.7,3.7-0.9c0.8-0.2,1.6-0.7,1.7-1.5c0.1-1-1-1.6-1.9-1.9
			c-3.9-1.2-8-0.9-11.6,0.9c2.4,2.6,4,5.8,4.6,9.2"/>
	</g>
	<g class="st10">
		<path d="M239.8,193.5c-1.9-3,4.7,5.3,7.7,7.4c3,1.9,5.8,4.1,8.5,6.5c2.5,2.5,4.5,5.4,4.5,9l-6.6-1.6c0,0,0.3-5.2-2.9-8.7
			C247.8,202.5,240.6,194.7,239.8,193.5z"/>
	</g>
	<g class="st10">
		<path d="M179.5,232.1c-2-1.7-4.7-2.2-7.3-2.3c-1.6-0.1-3.2,0.2-4.7,0.8c-1.5,0.6-2.6,1.9-3,3.5c-0.1,0.5,0,1,0.3,1.4
			c0.4,0.4,1,0.4,1.5,0.2c0.5-0.3,0.9-0.6,1.3-1c3.2-2.8,7.7-3.8,11.8-2.5"/>
	</g>
	<path class="st5" d="M187.5,206.6c0.1,1.2-0.7,2.2-1.9,2.3c-1.2,0.1-2.2-0.7-2.3-1.9c-0.1-1.2,0.7-2.2,1.9-2.3c0,0,0,0,0,0
		C186.3,204.6,187.3,205.4,187.5,206.6C187.5,206.6,187.5,206.6,187.5,206.6z"/>
	<path class="st5" d="M197.3,191.6c0.1,1.2-0.7,2.2-1.9,2.3c-1.2,0.1-2.2-0.7-2.3-1.9c-0.1-1.2,0.7-2.2,1.9-2.3
		C196.2,189.6,197.2,190.4,197.3,191.6L197.3,191.6z"/>
	<path class="st5" d="M219.3,190.2c0.1,1.2-0.7,2.2-1.9,2.3c-1.2,0.1-2.2-0.7-2.3-1.9c-0.1-1.2,0.7-2.2,1.9-2.3c0,0,0,0,0,0
		C218.2,188.2,219.2,189,219.3,190.2L219.3,190.2z"/>
	<path class="st5" d="M236.2,187.1c0.1,1.2-0.7,2.2-1.9,2.3c-1.2,0.1-2.2-0.7-2.3-1.9c-0.1-1.2,0.7-2.2,1.9-2.3
		C235,185.1,236.1,186,236.2,187.1L236.2,187.1z"/>
	<path class="st5" d="M266.8,209.1c0.1,1.2-0.7,2.2-1.9,2.3c-1.2,0.1-2.2-0.7-2.3-1.9s0.7-2.2,1.9-2.3c0,0,0,0,0,0
		C265.7,207.1,266.7,207.9,266.8,209.1C266.8,209.1,266.8,209.1,266.8,209.1z"/>
	<path class="st5" d="M249.5,208.8c0.1,1.2-0.7,2.2-1.9,2.3c-1.2,0.1-2.2-0.7-2.3-1.9c-0.1-1.2,0.7-2.2,1.9-2.3c0,0,0,0,0,0
		C248.3,206.8,249.3,207.6,249.5,208.8C249.5,208.8,249.5,208.8,249.5,208.8z"/>
	<path class="st5" d="M251.6,194.5c0.1,1.2-0.7,2.2-1.9,2.3c-1.2,0.1-2.2-0.7-2.3-1.9c-0.1-1.2,0.7-2.2,1.9-2.3c0,0,0,0,0,0
		C250.5,192.5,251.5,193.3,251.6,194.5C251.6,194.4,251.6,194.5,251.6,194.5z"/>
	
		<ellipse transform="matrix(0.9948 -0.1023 0.1023 0.9948 -18.7804 29.2489)" class="st5" cx="275.8" cy="197.7" rx="2.1" ry="2.1"/>
	<path class="st5" d="M292.6,197.9c0.1,1.2-0.7,2.2-1.9,2.3c-1.2,0.1-2.2-0.7-2.3-1.9c-0.1-1.2,0.7-2.2,1.9-2.3c0,0,0,0,0,0
		C291.4,195.9,292.5,196.8,292.6,197.9z"/>
	<path class="st5" d="M242.4,225.7c0.1,1.2-0.7,2.2-1.9,2.3c-1.2,0.1-2.2-0.7-2.3-1.9c-0.1-1.2,0.7-2.2,1.9-2.3c0,0,0,0,0,0
		C241.2,223.7,242.2,224.6,242.4,225.7C242.4,225.7,242.4,225.7,242.4,225.7z"/>
	<path class="st5" d="M251.2,236.9c0.1,1.2-0.7,2.2-1.9,2.3c-1.2,0.1-2.2-0.7-2.3-1.9c-0.1-1.2,0.7-2.2,1.9-2.3c0,0,0,0,0,0
		C250,234.9,251.1,235.7,251.2,236.9C251.2,236.8,251.2,236.9,251.2,236.9z"/>
	<path class="st5" d="M236.4,246.5c0.1,1.2-0.7,2.2-1.9,2.3c-1.2,0.1-2.2-0.7-2.3-1.9c-0.1-1.2,0.7-2.2,1.9-2.3c0,0,0,0,0,0
		C235.2,244.5,236.3,245.3,236.4,246.5C236.4,246.5,236.4,246.5,236.4,246.5z"/>
	<path class="st5" d="M227.6,260.7c0.1,1.2-0.7,2.2-1.9,2.3c-1.2,0.1-2.2-0.7-2.3-1.9c-0.1-1.2,0.7-2.2,1.9-2.3c0,0,0,0,0,0
		C226.4,258.7,227.5,259.5,227.6,260.7L227.6,260.7z"/>
	<path class="st5" d="M252.2,255.9c0.1,1.2-0.7,2.2-1.9,2.3c-1.2,0.1-2.2-0.7-2.3-1.9c-0.1-1.2,0.7-2.2,1.9-2.3c0,0,0,0,0.1,0
		C251.1,253.9,252.1,254.8,252.2,255.9z"/>
	<path class="st5" d="M212.8,271.9c0.1,1.2-0.7,2.2-1.9,2.3s-2.2-0.7-2.3-1.9c-0.1-1.2,0.7-2.2,1.9-2.3c0,0,0,0,0,0
		C211.6,269.9,212.7,270.7,212.8,271.9C212.8,271.9,212.8,271.9,212.8,271.9z"/>
	<path class="st5" d="M218.1,238.2c0.1,1.2-0.7,2.2-1.9,2.3c-1.2,0.1-2.2-0.7-2.3-1.9c-0.1-1.2,0.7-2.2,1.9-2.3c0,0,0,0,0,0
		C217,236.2,218,237,218.1,238.2C218.1,238.2,218.1,238.2,218.1,238.2z"/>
	<path class="st5" d="M212.7,254.2c0.1,1.2-0.7,2.2-1.9,2.3c-1.2,0.1-2.2-0.7-2.3-1.9c-0.1-1.2,0.7-2.2,1.9-2.3
		C211.5,252.2,212.5,253,212.7,254.2L212.7,254.2z"/>
	<path class="st5" d="M233.4,204.8c0.1,1.2-0.7,2.2-1.9,2.3c-1.2,0.1-2.2-0.7-2.3-1.9s0.7-2.2,1.9-2.3c0,0,0,0,0,0
		C232.3,202.8,233.3,203.6,233.4,204.8C233.4,204.8,233.4,204.8,233.4,204.8z"/>
	<path class="st5" d="M222.1,222.9c0.1,1.2-0.7,2.2-1.9,2.3c-1.2,0.1-2.2-0.7-2.3-1.9c-0.1-1.2,0.7-2.2,1.9-2.3
		C220.9,220.9,222,221.7,222.1,222.9C222.1,222.9,222.1,222.9,222.1,222.9z"/>
	<path class="st5" d="M208.2,210.9c0.1,1.2-0.7,2.2-1.9,2.3c-1.2,0.1-2.2-0.7-2.3-1.9c-0.1-1.2,0.7-2.2,1.9-2.3
		C207.1,208.9,208.1,209.7,208.2,210.9L208.2,210.9z"/>
	<path class="st5" d="M159.9,248.6c0.1,1.2-0.7,2.2-1.9,2.3c-1.2,0.1-2.2-0.7-2.3-1.9c-0.1-1.2,0.7-2.2,1.9-2.3c0,0,0,0,0,0
		C158.7,246.6,159.8,247.5,159.9,248.6z"/>
	<path class="st5" d="M166.9,221.1c0.1,1.2-0.7,2.2-1.9,2.3c-1.2,0.1-2.2-0.7-2.3-1.9c-0.1-1.2,0.7-2.2,1.9-2.3c0,0,0,0,0,0
		C165.7,219.1,166.8,220,166.9,221.1C166.9,221.1,166.9,221.1,166.9,221.1z"/>
	<path class="st5" d="M188.5,248.7c0.1,1.2-0.7,2.2-1.9,2.3c-1.2,0.1-2.2-0.7-2.3-1.9c-0.1-1.2,0.7-2.2,1.9-2.3c0,0,0,0,0,0
		C187.4,246.7,188.4,247.5,188.5,248.7z"/>
	<path class="st5" d="M200.3,237.6c0.1,1.2-0.7,2.2-1.9,2.3c-1.2,0.1-2.2-0.7-2.3-1.9c-0.1-1.2,0.7-2.2,1.9-2.3c0,0,0,0,0,0
		C199.1,235.6,200.2,236.4,200.3,237.6z"/>
	<path class="st5" d="M174.6,237.9c0.1,1.2-0.7,2.2-1.9,2.3c-1.2,0.1-2.2-0.7-2.3-1.9c-0.1-1.2,0.7-2.2,1.9-2.3c0,0,0,0,0,0
		C173.4,235.9,174.5,236.8,174.6,237.9C174.6,237.9,174.6,237.9,174.6,237.9z"/>
	<path class="st5" d="M184.1,223c0.1,1.2-0.7,2.2-1.9,2.3c-1.2,0.1-2.2-0.7-2.3-1.9c-0.1-1.2,0.7-2.2,1.9-2.3c0,0,0,0,0,0
		C182.9,221,183.9,221.8,184.1,223C184.1,223,184.1,223,184.1,223z"/>
	<path class="st14" d="M187.7,344.8c-4.3,0.4-8.7,0.4-13-0.1c-9-1-16.1-3.2-21.8-6.5c-6.3,3-13,4.9-20,5.8
		c-22.5,2.9-43.6-2-70.8-19.7c-1.5-2.6-3-5.3-4.5-8.2c26.1,17,53.4,25.7,74.6,22.9c5.4-0.7,10.8-2.1,15.8-4.2
		c-6.4-5.5-10.2-13.1-11.1-22.7c-1.1-10.6,3-15.8,6.5-18.3c5-3.6,12.3-3.9,19.1-0.9c7.5,3.4,12.4,9.9,13.1,17.4
		c0.5,6.3-1.8,12.4-6.4,16.7c-3.4,3.2-7.1,6-11.1,8.3c12.7,5.4,26.8,6.1,40,2.2c20.8-6.4,37.7-15.7,50.3-27.8
		c20.1-19,29.8-46.4,26.1-73.8l0-0.1c-3.7-24.4-20.5-46.9-42.8-57.3c-19.3-9-42.9-9.6-66.4-1.7c-14.6,4.9-34.2,15.1-44.2,35.5
		c-10.8,21.9-4.7,47.2,7.2,57.9c8.5,7.7,22.8,3.1,34.2-0.5l3.8-1.2c12.3-3.8,61-33,61.2-33.1l1.5,4c-0.8,0.4-48.6,30-61.3,33.9
		c-1.2,0.4-2.5,0.8-3.7,1.2c-12.7,4-28.5,9.1-39.1-0.5c-7.7-7-12.6-17.7-14-30.1c-1.3-11.6,0.7-23.2,5.7-33.8
		c10.8-21.9,31.6-32.7,47.1-38c24.7-8.4,49.6-7.7,70.1,1.8c23.7,11.1,41.5,35.1,45.5,61.1c0.2,1.3,3.5,20.2-4.4,42.8
		c-4.8,13.5-12.7,25.7-23.1,35.6c-13.2,12.6-30.8,22.3-52.3,28.9C195.7,343.6,191.7,344.4,187.7,344.8z M151.8,295.9
		c-1.9,0.2-3.8,0.8-5.4,2c-3.5,2.5-5.1,7.3-4.4,13.8c1,9.3,4.6,16.2,11.2,20.9c4.6-2.4,8.9-5.5,12.7-9c3.5-3.2,5.3-7.9,4.9-12.6
		c-0.6-5.7-4.4-10.7-10.2-13.4C157.8,296.2,154.8,295.6,151.8,295.9z"/>
	<path class="st5" d="M157.1,340.4c-0.7-0.1-1.4-0.4-2-0.7c-1.5-0.7-3-1.6-4.3-2.6c-1.4-0.9-2.7-2-3.9-3.1c-0.5-0.4-1-1-1.3-1.6
		c0.1,0,0.6,0.5,1.6,1.3c1,0.8,2.4,1.9,4,3c1.6,1.1,3.1,2,4.2,2.6C155.9,339.6,156.5,340,157.1,340.4z"/>
	<path class="st5" d="M162,336.9c-0.8,0-1.6-0.1-2.3-0.3c-1.8-0.5-3.5-1.3-5.1-2.4c-1.6-1-3-2.2-4.3-3.6c-0.6-0.5-1-1.2-1.4-1.9
		c0.1,0,0.6,0.6,1.7,1.6c1.4,1.3,2.8,2.4,4.4,3.4c1.5,1,3.2,1.8,4.9,2.5C161.2,336.7,162,336.9,162,336.9z"/>
	<path class="st4" d="M140.4,321.8c-0.2-0.2-0.3-0.5-0.4-0.8c-0.3-0.7-0.6-1.5-0.8-2.2c-1.5-5-1.7-10.4-0.5-15.5
		c0.2-0.8,0.4-1.5,0.7-2.3c0.1-0.3,0.2-0.5,0.3-0.8c0.1,0-0.3,1.2-0.7,3.1c-0.5,2.5-0.7,5.1-0.6,7.7c0.1,2.6,0.5,5.1,1.1,7.6
		C140,320.7,140.5,321.8,140.4,321.8z"/>
	<path class="st4" d="M129.8,340.9c-0.7,0.3-1.5,0.6-2.4,0.7c-3.9,0.7-7.9,0.6-11.7-0.5c-0.8-0.2-1.6-0.5-2.3-0.8
		c0.8,0.1,1.6,0.3,2.4,0.5c1.9,0.4,3.8,0.7,5.8,0.7c1.9,0.1,3.9,0,5.8-0.3C128.2,341.1,129,341,129.8,340.9z"/>
	<path class="st4" d="M263.6,293.8c-0.3,0.8-0.7,1.6-1.2,2.3c-2.2,3.6-4.8,6.9-7.8,9.9c-0.6,0.6-1.3,1.2-2,1.7
		c0.5-0.7,1.1-1.3,1.7-1.9c1.1-1.2,2.6-2.9,4.1-4.8c1.5-1.9,2.8-3.7,3.7-5.1C262.5,295.2,263,294.5,263.6,293.8z"/>
	<path class="st4" d="M116.5,257.8c-0.3-0.4-0.5-0.8-0.6-1.3c-0.5-1.2-1-2.4-1.4-3.6c-0.6-1.8-1.2-3.7-1.6-5.5
		c-1-4.6-1.4-9.3-1.1-14c0.1-1.9,0.4-3.8,0.7-5.7c0.2-1.3,0.5-2.5,0.9-3.8c0.1-0.5,0.2-0.9,0.4-1.4c0,0.5-0.1,0.9-0.3,1.4
		c-0.2,0.9-0.5,2.2-0.7,3.8c-0.3,1.9-0.5,3.8-0.6,5.7c-0.1,2.3-0.1,4.7,0.1,7c0.2,2.3,0.5,4.6,1,6.9c0.4,1.9,0.9,3.7,1.4,5.5
		c0.5,1.5,0.9,2.8,1.3,3.6C116.3,256.9,116.4,257.3,116.5,257.8z"/>
	<path class="st4" d="M117.9,212.5c-0.2,1-0.5,1.9-0.9,2.8c-0.3,0.9-0.8,1.8-1.4,2.6c0.2-1,0.5-1.9,0.9-2.8
		C116.9,214.2,117.3,213.3,117.9,212.5z"/>
	<path class="st5" d="M233.8,156.2c-1,2,0.3,4.4,1.8,6.1c1.5,1.7,3.3,3.2,3.9,5.4c0.7,3-1.6,5.9-4.3,7.5c-0.9,0.4-1.6,1-2.2,1.7
		c-0.7,1.2-0.2,2.6-0.1,3.9c0.2,2.3-0.8,4.6-2.7,5.9c-2,1.3-4.5,1.1-6.3-0.4c-0.9-0.9-1.6-2.1-2-3.4c-1.6-4.9-0.8-10.2,2.1-14.5
		c1.5-2,3.5-3.6,5.1-5.6c1.7-1.9,3-4.2,2.9-6.7"/>
	<path class="st5" d="M231.2,133.6c-1.7-3.4-5.6-5.2-9.3-6.1c-5.4-1.4-11.1-1-16.2,1.3c-7.3,3.5-11.7,11.1-14.9,18.6
		c-1.4,3.2-2.9,6.9-6.2,8.2c-1.7,0.7-3.7,0.7-5.5,1.1c-2.9,0.6-5.4,2.3-7,4.7c-1.9,2.9-2.7,6.9-5.8,8.7c-2,1.1-4.4,1-6.6,1.3
		c-4.7,0.6-9.4,4-9.9,8.7c-0.4,3.1,1,6.3-0.1,9.2c-0.4,1-1.1,2-1.5,3c-1,2.7,0.5,5.7,3.2,6.6c1.7,0.6,3.6,0.3,5-0.9
		c0.6-0.6,1.2-1.1,1.9-1.6c1.6-0.9,3.5-0.1,5,0.8c1.5,0.9,3.1,2.1,4.8,2.1c3.6,0,6-4.6,9.6-4.7c2-0.1,3.8,1.3,5.6,2.2
		c3.2,1.5,4.6-0.3,6.9-3c2.3-2.7,4.8,7.4,10.5,4.1c5.3-3.1-1.2-12,0.9-12c2.1,0,7.3-0.9,8.3-2.7"/>
	<path class="st5" d="M233,144.2c1.1-4.2,0-8.7-2.8-12.1c-2.2-2.4-5.1-4.1-8.2-5c-4.2-1.4-8.7-1.4-12.8,0.1c-4,1.6-7.3,5.3-7.8,9.7
		c-0.2,2,0.1,4-0.5,5.9c-0.4,0.8-0.6,1.6-0.5,2.5c0.3,0.8,0.9,1.3,1.7,1.4c0.8,0.1,1.6-0.1,2.3-0.4c2.4-1.2,4.6-2.7,6.6-4.6"/>
	<path class="st12" d="M223,183.1c0.1-3.7,0.1-5.2,0.1-5.2c0,0,7.8-1.2,9.6-11.4c0.9-5.1,0.7-13.4,0.3-20.2
		c-0.3-6.1-4.3-13.7-10.4-13.1l-19.1,4.6c-1.9,0.2-3.3,1.7-3.3,3.6l1.5,44.5c0,0,9.8,9.5,17.3,7.3C226.4,190.9,223,183.1,223,183.1z
		"/>
	<path class="st5" d="M230.5,153.4c0,0.7-0.6,1.3-1.3,1.3c-0.7,0.1-1.3-0.5-1.3-1.2c0,0,0,0,0,0c0-0.7,0.6-1.3,1.3-1.3
		C229.8,152.1,230.4,152.6,230.5,153.4C230.5,153.3,230.5,153.4,230.5,153.4z"/>
	<path class="st5" d="M231.1,150.6c-0.2,0.2-1.1-0.6-2.6-0.6s-2.5,0.7-2.6,0.5c-0.1-0.2,0.1-0.4,0.6-0.7c0.6-0.4,1.3-0.6,2.1-0.6
		c0.7,0,1.4,0.2,2,0.7C231.1,150.2,231.2,150.5,231.1,150.6z"/>
	<path class="st5" d="M217.6,153.4c0,0.7-0.6,1.3-1.3,1.3c-0.7,0-1.3-0.5-1.3-1.2c0,0,0,0,0,0c0-0.7,0.6-1.3,1.3-1.3
		C216.9,152.1,217.5,152.6,217.6,153.4C217.6,153.3,217.6,153.4,217.6,153.4z"/>
	<path class="st5" d="M217.3,150.7c-0.2,0.2-1.1-0.6-2.6-0.6c-1.4,0-2.5,0.7-2.6,0.5c-0.2-0.2,0.1-0.4,0.6-0.7
		c0.6-0.4,1.3-0.6,2.1-0.6c0.7,0,1.5,0.2,2.1,0.7C217.2,150.3,217.4,150.6,217.3,150.7z"/>
	<path class="st5" d="M222.3,161.2c0.7-0.2,1.5-0.4,2.3-0.4c0.4,0,0.7-0.1,0.8-0.3c0-0.4,0-0.7-0.2-1.1c-0.3-0.9-0.7-1.8-1-2.8
		c-1-2.3-1.7-4.7-2.3-7.2c0.2,0,1.5,3.1,2.9,7c0.4,1,0.7,1.9,1,2.8c0.2,0.4,0.3,0.9,0.1,1.4c-0.1,0.3-0.3,0.4-0.6,0.5
		c-0.2,0-0.4,0.1-0.6,0.1C223.8,161.3,223,161.3,222.3,161.2z"/>
	<path class="st13" d="M223.1,177.9c-4.8,0-9.5-1.3-13.6-3.8c0,0,3.4,7.1,13.6,6.3L223.1,177.9z"/>
	<path class="st13" d="M221.6,164.6c-0.5-0.7-1.4-1.1-2.3-1c-0.6,0-1.2,0.4-1.6,0.8c-0.4,0.5-0.4,1.1-0.1,1.7
		c0.5,0.5,1.2,0.7,1.8,0.5c0.7-0.2,1.3-0.6,1.8-1.1c0.2-0.1,0.3-0.2,0.4-0.4C221.8,165,221.8,164.8,221.6,164.6"/>
	<path class="st5" d="M217.4,145.5c-0.1,0.4-1.6,0.2-3.2,0.3s-3,0.6-3.2,0.3c-0.1-0.2,0.1-0.5,0.7-0.9c1.5-0.9,3.3-1.1,4.9-0.5
		C217.2,145.1,217.5,145.4,217.4,145.5z"/>
	<path class="st5" d="M230.8,144.4c-0.2,0.3-1.2,0-2.4-0.1c-1.2,0-2.2,0.2-2.4-0.1c-0.1-0.2,0.1-0.5,0.5-0.8
		c1.2-0.7,2.7-0.7,3.8,0.2C230.8,143.9,230.9,144.2,230.8,144.4z"/>
	<path class="st12" d="M202.9,158.5c0-0.8-0.9-2.6-1.6-2.7c-2-0.3-5.6-0.2-5.7,4.9c-0.1,7,6.9,5.6,6.9,5.5
		C202.5,166,202.9,161.1,202.9,158.5z"/>
	<path class="st13" d="M200.4,163.5c0,0-0.1,0.1-0.3,0.2c-0.3,0.1-0.6,0.1-0.9,0c-0.9-0.6-1.4-1.6-1.3-2.7c0-0.6,0.1-1.2,0.4-1.7
		c0.1-0.4,0.5-0.8,0.9-0.9c0.3-0.1,0.6,0.1,0.7,0.3c0.1,0.2,0,0.3,0,0.3s0.1-0.1,0.1-0.4c0-0.2-0.1-0.3-0.3-0.4
		c-0.2-0.2-0.4-0.2-0.7-0.2c-0.6,0.1-1.1,0.5-1.3,1.1c-0.3,0.6-0.5,1.3-0.5,1.9c0,1.4,0.7,2.7,1.7,3c0.4,0.1,0.8,0.1,1.1-0.2
		C200.4,163.7,200.4,163.5,200.4,163.5z"/>
	<path class="st5" d="M223.5,131.9c-0.6,3.4-3.1,6.2-6.4,7.3c-1.7,0.6-3.8,0.7-4.9,2.2c-1,1.5-0.4,3.8-1.4,5.3
		c-1.4,2.2-5.1,2.1-6.1,4.5c-0.4,1-0.2,2.3-0.7,3.3c-0.7,1.4-2.4,2-3.9,1.5c-1.4-0.5-2.6-1.7-3.1-3.1c-0.5-1.4-0.8-2.9-0.8-4.4
		c-0.3-2.9-0.1-5.9,0.7-8.8c1.8-5.9,10.3-14.1,16.5-13.8"/>
	<path class="st5" d="M233.3,158.4c1.4-2,2.7-4.3,4-6.3s2.7-4,2.6-6.3c-0.2-2-1-3.8-2.2-5.3c-2.3-3-4.8-5.7-7.5-8.3
		c-0.6-0.6-1.3-1.2-2-1.6c-0.7-0.3-1.4-0.5-2.2-0.5c-0.6,0-1.2,0.2-1.7,0.6c-0.5,0.4-0.6,1.1-0.3,1.7c0.4,0.4,0.9,0.7,1.4,0.9
		c3,1.2,5.2,4,6.3,7c1.1,3,1.2,6.1,1.5,9.3c0.2,2.5,0.1,5.2,0.1,7.6"/>
	<path class="st5" d="M213.7,126.3c-7.4-0.1-14.4,3.7-18.3,10c-2.1,3.5-3.4,7.8-7.1,9.6c-3,1.4-6.6,0.5-9.8,1.5
		c-2.9,0.9-5.2,3.1-6.1,6c-0.7,2.3-0.5,4.9-2,6.8c-1.9,2.5-5.8,2.6-7.8,5.1c-1.6,2-1.4,5-0.4,7.4c0.3,1,1,1.9,2,2.4
		c0.9,0.3,1.9,0.3,2.7-0.1c3-1,5.9-2.5,8.5-4.4c6-4.1,11.7-8.5,17.4-13c2.7-2,5.2-4.3,7.3-6.9c2.7-3.5,4-7.9,5.7-12
		c1.7-4.1,4-8.2,7.8-10.5"/>
	<path class="st8" d="M152.1,198.9c-0.1,0-0.2,0-0.3-0.1c-0.3-0.1-0.6-0.2-0.8-0.3c-1-0.6-1.7-1.4-2.2-2.4c-0.7-1.6-0.7-3.5,0.1-5.1
		c1.1-2.1,2.8-3.7,5-4.7c2.6-1.1,5.2-1.9,7.9-2.6c1.5-0.4,2.9-1,4.2-1.8c3-1.6,4.8-4.7,4.7-8.1c0-1.8,0.1-3.6,0.4-5.4
		c0.8-3.8,3.1-7.1,6.5-9.1c1.7-1,3.6-1.6,5.5-1.8c1.9-0.2,3.8,0,5.6-0.1c1.8,0,3.5-0.4,5.1-1.1c0.8-0.4,1.4-0.9,2-1.5
		c0.5-0.6,1-1.4,1.3-2.1c0.6-1.5,1-3.1,1.7-4.6c0.7-1.4,1.7-2.6,3-3.6c2.3-1.6,4.8-2.9,7.4-3.8c2.2-0.7,4.3-1.6,6.3-2.7
		c1.5-0.8,2.9-1.8,4.1-3c0.7-0.8,1.4-1.7,1.8-2.7c0.3-0.7,0.4-1,0.4-1.1c-0.1,0.4-0.2,0.7-0.3,1c-0.4,1-1,1.9-1.7,2.8
		c-1.2,1.3-2.6,2.3-4.1,3.1c-2,1-4.1,1.9-6.3,2.7c-2.6,0.9-5,2.1-7.3,3.8c-1.2,0.9-2.1,2.1-2.8,3.5c-0.7,1.4-1,3-1.7,4.6
		c-0.3,0.8-0.8,1.6-1.3,2.2c-0.6,0.7-1.3,1.2-2.1,1.6c-1.7,0.8-3.5,1.1-5.3,1.1c-1.8,0.1-3.7-0.1-5.5,0.1c-1.9,0.2-3.7,0.8-5.3,1.7
		c-3.2,1.9-5.5,5.1-6.2,8.8c-0.2,1.8-0.4,3.5-0.4,5.3c0,1.8-0.5,3.5-1.3,5c-0.9,1.4-2.2,2.6-3.6,3.4c-1.4,0.8-2.8,1.4-4.3,1.8
		c-2.7,0.6-5.3,1.5-7.9,2.5c-2.1,0.9-3.8,2.5-4.9,4.5c-0.8,1.5-0.8,3.3-0.2,4.9c0.4,1,1.1,1.9,2,2.4
		C151.4,198.6,151.7,198.7,152.1,198.9z"/>
	<path class="st8" d="M150.5,177.7c0.2-0.3,0.4-0.5,0.6-0.7c0.7-0.6,1.6-1,2.6-1.1c1.5-0.2,3-0.1,4.4,0.3c0.9,0.2,1.8,0.3,2.7,0.3
		c1,0.1,2-0.1,3-0.6c1-0.5,1.8-1.3,2.3-2.3c0.6-1,1.1-2.2,1.3-3.4c0.3-1.2,0.5-2.5,0.8-3.9c0.3-1.4,0.8-2.7,1.3-4
		c1.1-2.9,3.1-5.3,5.7-7c1.4-0.8,3-1.3,4.6-1.5c1.6-0.2,3.2-0.3,4.9-0.6c1.6-0.2,3-1,4.1-2.2c1-1.2,1.7-2.6,2.2-4.1
		c0.5-1.5,1.1-2.9,2-4.2c0.9-1.2,2-2.3,3.2-3.1c2.4-1.4,5-2.4,7.7-2.8c2.5-0.5,4.9-0.8,7-1.4c1.9-0.4,3.7-1.1,5.4-2.1
		c1.3-0.8,2.4-1.7,3.3-2.9c0.6-0.7,1-1.5,1.4-2.4c0.2-0.6,0.3-0.9,0.3-0.9c0,0.3-0.1,0.6-0.2,1c-0.3,0.9-0.7,1.7-1.3,2.5
		c-0.9,1.2-2,2.2-3.3,3c-1.7,1-3.5,1.8-5.4,2.2c-2.1,0.6-4.5,0.9-7,1.4c-2.7,0.5-5.2,1.4-7.5,2.8c-1.2,0.8-2.3,1.8-3.1,3
		c-0.8,1.3-1.4,2.7-1.9,4.1c-0.5,1.5-1.3,3-2.3,4.3c-1.2,1.2-2.7,2.1-4.4,2.3c-1.7,0.3-3.3,0.3-4.9,0.6c-1.6,0.2-3.1,0.6-4.4,1.4
		c-2.5,1.6-4.4,4-5.5,6.8c-0.5,1.3-1,2.6-1.3,3.9c-0.3,1.3-0.5,2.6-0.8,3.9c-0.6,2.5-1.8,4.8-3.9,5.9c-1,0.5-2,0.7-3.1,0.6
		c-0.9-0.1-1.8-0.2-2.8-0.4c-1.4-0.4-2.9-0.5-4.4-0.4c-0.9,0.1-1.8,0.4-2.5,1C150.7,177.4,150.5,177.8,150.5,177.7z"/>
	<path class="st8" d="M182.9,195.6c0,0,0.2,0,0.4-0.2c0.3-0.3,0.6-0.6,0.7-1.1c0.2-0.7,0-1.4-0.5-2c-0.6-0.7-1.4-1.2-2.3-1.4
		c-1.1-0.3-2.2-0.8-3.2-1.4c-1.1-0.9-1.8-2.1-2-3.5c-0.3-1.5-0.1-3,0.4-4.4c0.7-1.5,1.7-2.8,3-3.8c2.5-1.8,5.3-3.1,8.3-3.8
		c2.4-0.6,4.7-1.4,6.9-2.5c1.5-0.7,2.8-1.8,3.9-3c0.8-0.9,1-1.5,1.1-1.5c0,0,0,0.2-0.2,0.4c-0.2,0.4-0.5,0.8-0.7,1.2
		c-1.1,1.3-2.4,2.4-3.9,3.2c-2.2,1.1-4.6,2-7,2.6c-2.7,0.8-5.7,1.7-8.1,3.7c-1.2,0.9-2.2,2.2-2.8,3.6c-0.6,1.3-0.7,2.8-0.4,4.2
		c0.2,1.3,0.9,2.4,1.9,3.2c0.9,0.6,2,1.1,3.1,1.4c0.9,0.3,1.8,0.8,2.4,1.6c0.5,0.6,0.7,1.4,0.5,2.1c-0.1,0.5-0.4,0.8-0.8,1.1
		C183.3,195.5,183.1,195.5,182.9,195.6z"/>
	<path class="st12" d="M200.8,246.2c0,0-1.3-1.1-1-2.3c0.3-1.2,0.8-2.1,1.1-2c0.3,0-0.5-6.2,0.7-6.8c0.8-0.4,1.6-0.7,2.4-1
		c0,0,1-3.6,1.8-3.6c0.8,0,9.4,0.7,9.4,0.7s7.4,6.5,7.1,7.2c-0.3,0.7-0.6,1.5-1.7,1.2c-0.7-0.2-1.5-0.5-2.2-0.8l4,3.5
		c0,0-0.4,3.1-3.5,1.2l1.6,1.7c0,0-0.5,3.8-5,1.1l-4.6-2.1l-2.8,0.3l6.7,3.2c0,0,0.9,1.8-1,2c-1.9,0.2-7-1.9-7-1.9s-2.7,2-3.7,2.1
		c-1,0.1-1.3-0.9-1.3-0.9L200.8,246.2z"/>
	<path class="st13" d="M219.1,243.6c-0.6-0.3-1.1-0.7-1.6-1.1c-1.3-0.8-2.6-1.8-3.8-2.8c-0.6-0.6-1.4-0.8-2.3-0.8
		c-0.7,0.1-1.4,0.2-2.1,0.3c-0.6,0.2-1.3,0.2-2,0.1c0-0.1,0.7-0.1,1.9-0.4c0.7-0.2,1.4-0.4,2.1-0.5c0.4,0,0.9,0,1.3,0.1
		c0.5,0.1,0.9,0.4,1.3,0.7c1.4,1.2,2.8,2.1,3.7,2.9C218.2,242.6,218.7,243.1,219.1,243.6z"/>
	<path class="st13" d="M222.4,242.2c-0.7-0.4-1.3-1-1.9-1.5c-1.2-1-2.8-2.3-4.5-3.8c-0.9-0.7-1.8-1.4-2.6-1.9
		c-0.7-0.4-1.6-0.6-2.4-0.6c-1.5,0.1-2.4,0.2-2.4,0.2c0.2-0.1,0.4-0.2,0.6-0.2c0.6-0.2,1.2-0.3,1.8-0.3c0.9-0.1,1.9,0.1,2.7,0.6
		c0.9,0.6,1.8,1.3,2.6,1.9c1.8,1.4,3.4,2.8,4.4,3.9C221.3,241,221.9,241.6,222.4,242.2z"/>
	<path class="st5" d="M217.3,163c0.2-0.1,0.9,0.7,1.9,1.5s2,1.3,1.9,1.6c-0.1,0.3-1.3,0.1-2.5-0.8
		C217.4,164.3,217.1,163.1,217.3,163z"/>
	<path class="st14" d="M298.9,235.2l-13.5-44.6c-0.6-1.8-2.6-2.8-4.4-2.1c-1.7,0.6-2.7,2.4-2.2,4.1l0.6,2l-17.8,6.4
		c-3.8,1.4-6.7,4.6-7.8,8.5l-10.8,3.9c-3.7,1.3-5.7,5.4-4.3,9.2l1.4,3.9l-10.5,3.8c-2.9,1.1-4.5,4.3-3.4,7.2
		c1.1,2.9,4.3,4.5,7.2,3.4L244,237l1.1,3c1.3,3.7,5.4,5.7,9.2,4.3l10.9-3.9l0-0.1c3.2,2.2,7.4,2.8,11.1,1.5l15.8-5.6l0.3,1
		c0.6,1.8,2.6,2.8,4.4,2.1C298.5,238.8,299.4,237,298.9,235.2L298.9,235.2z"/>
	<path class="st5" d="M298.9,235.2c0.1,0.2,0.2,0.5,0.2,0.8c0.1,0.8-0.1,1.5-0.6,2.2c-0.7,1.1-2,1.7-3.2,1.5
		c-1.3-0.1-2.3-0.9-2.8-2.1c-0.2-0.4-0.3-0.9-0.4-1.3l0.1,0.1l-11.6,4.2l-3.5,1.3c-1.2,0.5-2.5,0.8-3.8,0.9
		c-2.9,0.2-5.8-0.5-8.1-2.2l0.3-0.2l0,0.1l0.1,0.2l-0.2,0c-3.7,1.3-7.6,2.8-11.7,4.2c-2.3,0.5-4.7,0-6.5-1.5
		c-0.9-0.8-1.6-1.7-2.1-2.9c-0.4-1.1-0.8-2.2-1.2-3.3l0.3,0.1l-8.9,3.2c-0.8,0.2-1.5,0.6-2.3,0.8c-3.2,0.7-6.3-1.3-7-4.4
		c-0.3-1.2-0.2-2.6,0.4-3.7c0.8-1.6,2.2-2.8,4-3.3l9.9-3.5l-0.1,0.3c-0.3-0.8-0.6-1.6-0.9-2.5c-0.3-0.9-0.6-1.8-0.8-2.7
		c-0.3-1.9,0.1-3.8,1.1-5.4c0.5-0.8,1.2-1.5,2-2c0.8-0.5,1.6-0.9,2.5-1.2l9.9-3.6l-0.1,0.2c0.7-2.7,2.3-5.1,4.5-6.8
		c1.1-0.8,2.3-1.5,3.6-1.9l3.7-1.3l14-5l-0.1,0.3c-0.2-0.5-0.3-1.1-0.5-1.6c-0.2-0.5-0.3-1.1-0.3-1.7c0.1-2,1.8-3.5,3.8-3.4
		c0.4,0,0.7,0.1,1,0.2c1.1,0.4,1.9,1.2,2.2,2.2l3.3,11c2.1,6.9,3.9,13,5.4,18c1.5,5,2.7,8.9,3.5,11.6c0.4,1.3,0.7,2.4,0.9,3.1
		c0.1,0.3,0.2,0.6,0.2,0.8C298.9,235,298.9,235.1,298.9,235.2c0,0-0.1-0.1-0.1-0.2c0-0.2-0.1-0.4-0.3-0.8l-1-3.1
		c-0.8-2.7-2-6.6-3.6-11.6s-3.4-11-5.5-17.9c-1.1-3.5-2.2-7.1-3.4-11c-0.3-0.9-1-1.7-2-2c-1.7-0.6-3.5,0.3-4.1,1.9
		c-0.1,0.3-0.2,0.6-0.2,0.9c0,0.5,0.1,1,0.3,1.5c0.2,0.5,0.3,1.1,0.5,1.6l0,0.2l-0.2,0.1l-14,5c-2.4,0.9-5,1.5-7.1,3.2
		c-2.1,1.6-3.7,4-4.4,6.6l0,0.1l-0.1,0l-9.9,3.6c-0.8,0.3-1.6,0.6-2.4,1.1c-0.7,0.5-1.3,1.1-1.8,1.8c-1,1.5-1.4,3.3-1.1,5
		c0.2,0.9,0.5,1.7,0.8,2.6c0.3,0.9,0.6,1.7,0.9,2.5l0.1,0.2l-0.2,0.1l-9.8,3.5c-1.6,0.4-3,1.5-3.7,3.1c-1.2,2.7,0,5.9,2.7,7.1
		c1.1,0.5,2.2,0.6,3.3,0.3c0.7-0.2,1.5-0.5,2.3-0.8l8.9-3.2l0.2-0.1l0.1,0.2c0.4,1.1,0.8,2.2,1.2,3.3c0.4,1,1.1,2,1.9,2.7
		c1.7,1.4,3.9,2,6.1,1.5c4.1-1.4,8-2.8,11.7-4.1l-0.1,0.2l0-0.1l-0.2-0.6l0.5,0.3c2.3,1.6,5.1,2.3,7.9,2.1c1.3-0.1,2.5-0.4,3.7-0.9
		l3.5-1.2l11.6-4.1l0.1,0l0,0.1c0.1,0.4,0.3,0.9,0.4,1.3c0.2,0.4,0.4,0.7,0.7,1c0.5,0.5,1.3,0.9,2,1c1.9,0.2,3.5-1.2,3.7-3
		c0-0.2,0-0.4,0-0.5C299,235.7,299,235.4,298.9,235.2z"/>
	<path class="st5" d="M292.5,236.1c-0.1,0-3.2-9.2-6.9-20.6c-3.7-11.4-6.6-20.7-6.5-20.7c0.1,0,3.2,9.2,6.9,20.6
		C289.7,226.8,292.6,236,292.5,236.1z"/>
	<path class="st5" d="M265.2,240.4c-0.1,0-2.7-6.8-5.9-15.4c-3.1-8.5-5.5-15.5-5.4-15.5c0.1,0,2.7,6.8,5.9,15.4
		S265.3,240.4,265.2,240.4z"/>
	<path class="st5" d="M244,237c-0.9-1.6-1.6-3.4-2.1-5.2c-0.7-1.8-1.2-3.6-1.7-5.4c0.9,1.7,1.6,3.4,2.1,5.2
		C243,233.4,243.5,235.2,244,237z"/>
	<path class="st4" d="M251.4,212.4c0,0.1-1,0.3-2.7,0.9c-0.8,0.3-1.8,0.6-2.9,1c-1.2,0.4-2.3,1-3.3,1.7c-1.1,0.6-1.8,1.6-2.2,2.8
		c-0.1,1,0,2,0.2,3c0.4,1.7,0.8,2.7,0.7,2.8c-0.5-0.8-0.9-1.7-1.1-2.7c-0.3-1-0.4-2.1-0.3-3.1c0.1-0.6,0.4-1.2,0.8-1.7
		c0.4-0.5,0.9-1,1.5-1.4c1.1-0.7,2.2-1.3,3.4-1.7c1.1-0.4,2.1-0.7,2.9-0.9C249.4,212.7,250.4,212.5,251.4,212.4z"/>
	<path class="st4" d="M276.3,197.7c-0.3,0.2-0.6,0.3-0.9,0.4c-0.6,0.2-1.5,0.5-2.5,0.9l-8.4,2.7c-1.5,0.5-3,1.2-4.3,2
		c-1.1,0.7-2,1.7-2.7,2.8c-0.6,1-1,2.2-1.1,3.4c-0.1-0.3-0.1-0.7,0-1c0.1-0.9,0.4-1.8,0.9-2.6c0.7-1.2,1.6-2.2,2.8-2.9
		c1.4-0.9,2.9-1.6,4.4-2.1c3.3-1.1,6.3-1.9,8.5-2.6c1.1-0.3,2-0.6,2.6-0.7C275.7,197.8,276,197.7,276.3,197.7z"/>
	<path class="st4" d="M238.6,229.1c-0.5,0.5-1.2,0.8-1.8,1c-1.2,0.5-2.9,0.8-4.8,1.4c-0.9,0.3-1.7,0.6-2.4,1.1
		c-0.6,0.4-1.1,0.9-1.6,1.5c-0.4,0.6-0.7,1.2-0.9,1.8c0-0.7,0.2-1.4,0.6-2c0.4-0.6,1-1.2,1.6-1.7c0.8-0.5,1.6-1,2.5-1.3
		c1.9-0.6,3.6-0.9,4.8-1.2C237.8,229.4,238.5,229,238.6,229.1z"/>
	<path class="st4" d="M283,189.2c0,0.1-0.4,0.1-0.9,0.3c-0.7,0.3-1.2,0.7-1.6,1.3c-0.4,0.6-0.6,1.3-0.6,2c0,0.5,0.1,0.9,0,0.9
		s-0.3-0.3-0.4-0.9c-0.1-0.8,0.1-1.6,0.5-2.3c0.5-0.7,1.2-1.1,1.9-1.3C282.6,189,283,189.1,283,189.2z"/>
</g>
<g id="freepik--Lines--inject-13">
	<path class="st5" d="M427.2,167.6c0,0.1-0.1,0.1-0.2,0.1l-0.5,0.4l-2.1,1.4l-7.7,5l-26,16.6l-0.2,0.1l-0.1-0.2
		c-0.9-1-1.8-2.1-2.7-3.1l-3.9-4.5l0.3,0l-24,17.4l-7.2,5.1l-2,1.4c-0.2,0.1-0.4,0.3-0.5,0.3c-0.1,0.1-0.2,0.1-0.2,0.1
		c0,0,0,0,0.2-0.1l0.5-0.4l1.9-1.4l7.1-5.2l23.9-17.5l0.2-0.1l0.1,0.2c1.3,1.4,2.6,2.9,3.9,4.5c0.9,1.1,1.9,2.1,2.7,3.1l-0.3,0
		l26-16.5l7.8-4.9l2.1-1.3l0.6-0.3L427.2,167.6z"/>
	<path class="st5" d="M423.6,204.2c-0.2,0.1-0.3,0.2-0.5,0.2l-1.5,0.5l-5.7,1.8l-19.1,5.8l-0.2,0.1l0-0.2l-0.7-2.4
		c-0.1-0.5-0.3-1.1-0.4-1.6l0.3,0.2c-7.8,2.2-14.6,4.5-19.4,6.4c-2.4,0.9-4.4,1.7-5.8,2.2l-1.6,0.6c-0.2,0.1-0.4,0.1-0.6,0.2
		c0.2-0.1,0.3-0.2,0.5-0.3l1.5-0.7c1.3-0.6,3.3-1.4,5.7-2.4c6.4-2.5,12.9-4.7,19.5-6.5l0.2,0l0,0.2c0.1,0.5,0.3,1,0.5,1.6
		c0.2,0.8,0.5,1.6,0.7,2.4l-0.3-0.2l19.2-5.6l5.7-1.6l1.6-0.4C423.3,204.4,423.4,204.3,423.6,204.2z"/>
	<path class="st5" d="M353.4,176.6c0.1,0-1.8,5.8-4.4,12.8c-2.6,7-4.7,12.7-4.9,12.6c-0.1,0,1.8-5.8,4.4-12.8
		C351.1,182.2,353.3,176.5,353.4,176.6z"/>
	<path class="st5" d="M385.9,200.3c0,0.1-6,2.7-13.6,5.8s-13.8,5.4-13.8,5.3c0-0.1,6-2.7,13.6-5.8S385.8,200.2,385.9,200.3z"/>
	<path class="st5" d="M332.7,161.4c0.2,0.3,0.4,0.6,0.5,1c0.3,0.7,0.8,1.6,1.3,2.8c1.1,2.5,2.7,5.9,4.5,9.9l0.1,0.3l-0.3,0L331,176
		l0.2-0.3c0.3,1,0.6,2,0.9,3c2,6.8,3.8,13.1,5.1,17.7c0.6,2.2,1.1,4,1.5,5.4c0.2,0.6,0.3,1.1,0.4,1.5c0.1,0.2,0.1,0.3,0.1,0.5
		c-0.1-0.2-0.2-0.3-0.2-0.5c-0.1-0.4-0.3-0.9-0.5-1.4l-1.6-5.3c-1.4-4.6-3.2-10.8-5.3-17.7c-0.3-1-0.6-2-0.9-3l-0.1-0.3l0.3,0
		l7.8-0.6l-0.2,0.3l-4.3-10c-0.5-1.2-0.9-2.1-1.2-2.9C332.9,162.1,332.8,161.7,332.7,161.4z"/>
	<path class="st5" d="M306,239.9c-0.1-0.1,4.7-3.1,10.7-6.7c6-3.6,10.9-6.4,11-6.3c0.1,0.1-4.7,3.1-10.7,6.7
		C311,237.2,306.1,240,306,239.9z"/>
	<path class="st5" d="M330.2,244.7c1.1-2.1,2.3-4.1,3.7-6c1.3-2,2.6-3.9,4.1-5.7c-1.1,2.1-2.3,4.1-3.7,6
		C333.1,241,331.7,242.9,330.2,244.7z"/>
	<path class="st5" d="M346.4,277.5c-0.1,0-0.3-9.8-0.3-21.8c0-12.1,0.1-21.8,0.2-21.8s0.3,9.8,0.3,21.8
		C346.6,267.8,346.5,277.5,346.4,277.5z"/>
	<path class="st5" d="M320.3,193.6c1,1.2,1.9,2.5,2.7,3.8c0.9,1.3,7.7,12.8,8.3,14.3c-1-1.2-7.9-12.6-8.7-14
		C321.7,196.4,320.9,195.1,320.3,193.6z"/>
</g>
</svg>
