<svg id="Layer_1" data-name="Layer 1" xmlns="http://www.w3.org/2000/svg" viewBox="0 0 411.54 388.75"><defs><style>.cls-1{fill:#00a19a;}.cls-2{fill:#fff;}</style></defs><path class="cls-1" d="M256,320H73.35V74.6H222.77L256,107.84ZM83.35,310H246V112L218.62,84.6H83.35Z"/><polygon class="cls-1" points="249.3 122.81 205.06 122.81 205.06 79.6 215.06 79.6 215.06 112.81 249.3 112.81 249.3 122.81"/><rect class="cls-2" x="54.12" y="147.5" width="94.52" height="65.17"/><path class="cls-1" d="M153.64,217.68H49.12V142.5H153.64Zm-94.52-10h84.52V152.5H59.12Z"/><rect class="cls-2" x="158.2" y="241.68" width="151.84" height="93.84"/><path class="cls-1" d="M315,340.52H153.2V236.68H315Zm-151.84-10H305V246.68H163.2Z"/><path class="cls-1" d="M291.45,233.66l-19.17-24V110.48a12,12,0,0,1,12-12h14.33a12,12,0,0,1,12,12v99.17Zm-9.17-27.51,9.17,11.48,9.16-11.48V110.48a2,2,0,0,0-2-2H284.28a2,2,0,0,0-2,2Z"/><path class="cls-1" d="M287.4,103.75h-10V88.64a14,14,0,0,1,28.09,0v14.84h-10V88.64a4,4,0,0,0-8.09,0Z"/><rect class="cls-1" x="148.64" y="98.48" width="43.68" height="10"/><rect class="cls-1" x="148.64" y="117.59" width="25.25" height="10"/><path class="cls-1" d="M116.48,132.88a19.42,19.42,0,1,1,19.42-19.42A19.44,19.44,0,0,1,116.48,132.88Zm0-28.83a9.42,9.42,0,1,0,9.42,9.41A9.42,9.42,0,0,0,116.48,104.05Z"/><rect class="cls-1" x="219.73" y="293.02" width="39.47" height="10"/><rect class="cls-1" x="219.73" y="308.05" width="22.82" height="10"/><path class="cls-1" d="M190.67,322.83a18,18,0,1,1,18-18A18,18,0,0,1,190.67,322.83Zm0-26.05a8,8,0,1,0,8,8A8,8,0,0,0,190.67,296.78Z"/><rect class="cls-1" x="108.55" y="175.09" width="23.95" height="10"/><rect class="cls-1" x="108.55" y="188.4" width="23.95" height="10"/><path class="cls-1" d="M83,189.67a14.91,14.91,0,1,1,14.9-14.9A14.92,14.92,0,0,1,83,189.67Zm0-19.81a4.91,4.91,0,1,0,4.9,4.91A4.91,4.91,0,0,0,83,169.86Z"/><polygon class="cls-1" points="234.12 285.5 155.95 246.15 160.45 237.21 234.12 274.3 307.8 237.21 312.29 246.15 234.12 285.5"/></svg>