<svg xmlns="http://www.w3.org/2000/svg" width="151.996" height="151.996" viewBox="0 0 151.996 151.996">
  <g id="web-04" transform="translate(-55.51 -35.957)">
    <path id="Path_175" data-name="Path 175" d="M55.51,101.8a2.937,2.937,0,0,1,2.91-1.61c1.978.08,3.961-.053,5.933.114,5.092.427,8.61,4.929,8.673,10.953.011.915,0,1.837,0,2.952H80.1c1.284,0,2.575-.033,3.859.013,1.711.06,2.41.895,2.421,2.919.017,4.655.006,9.3.006,13.959v2.017c.511.04.938.107,1.364.107,5.541.007,11.083-.04,16.624.02,3.228.033,5.6-1.563,7.212-4.8,1.54-3.1,3.075-6.2,4.672-9.41-4.268-2.9-8.411-5.71-12.56-8.522q-9.369-6.361-18.744-12.73c-6.172-4.214-8-12.055-4.45-19.335Q89.1,60.83,97.777,43.279c3.643-7.373,10.327-9.4,16.709-5.069q33.461,22.681,66.9,45.389,12,8.145,24.012,16.289c2.45,1.663,2.626,2.424,1.245,5.243q-7.152,14.566-14.3,29.133c-1.29,2.631-2.04,2.858-4.285,1.349-1.068-.721-2.137-1.449-3.245-2.2a9.982,9.982,0,0,0-.665.748c-4.973,6.839-12.447,9.163-19.6,6.044a1.6,1.6,0,0,0-1.989.321c-4.143,3.633-8.565,3.987-13.06,1.035-5.348-3.513-10.622-7.186-15.93-10.779-.421-.281-.852-.534-1.375-.862-1.517,3.032-3,5.977-4.467,8.929q-8,16.059-23.842,16.022c-5.246-.02-10.491-.007-15.731-.007H86.393v10.926c0,2.805-.6,3.533-2.961,3.546-3.313.027-6.627.027-9.94.047a2.036,2.036,0,0,0-.455.174c0,2.177.006,4.428,0,6.679-.011,7.14-3.853,11.668-9.912,11.688-1.586.007-3.171-.06-4.751.02a2.789,2.789,0,0,1-2.853-1.7Q55.5,144.007,55.51,101.8Zm36.5-37.027q48.678,33.03,97.242,65.986c4.467-9.1,8.86-18.039,13.3-27.082-.523-.387-.972-.735-1.432-1.049Q178.282,87.118,155.44,71.61,133.88,56.973,112.309,42.35c-4.086-2.772-8.4-1.656-10.679,2.879C98.408,51.627,95.293,58.092,92.014,64.771Zm75.907,57.156C141.874,104.249,115.975,86.67,89.94,69.005c-1.864,3.787-3.688,7.487-5.507,11.194Q80.153,88.9,87.6,93.937q21.3,14.446,42.6,28.905c7.059,4.789,14.1,9.6,21.17,14.373,3.535,2.384,7.729,1.676,9.815-2.01C163.6,130.964,165.647,126.455,167.921,121.927ZM59.755,105.01v78.021h3.012c4.2-.007,6.1-2.211,6.1-7.093V130.757c0-6.512.017-13.023-.006-19.535-.011-2.892-1.449-5.363-3.666-5.837A36.708,36.708,0,0,0,59.755,105.01Zm26.706,44.954c6.331,0,12.555.1,18.766-.027,7.059-.14,12.861-3.56,17.016-10.258,2.376-3.827,4.263-8.068,6.428-12.235-2.989-2.024-5.837-3.954-8.8-5.964-1.642,3.279-3.194,6.432-4.785,9.557-2.376,4.668-5.865,7.073-10.52,7.066q-8.227-.01-16.453,0h-1.66C86.461,142.1,86.461,145.91,86.461,149.964ZM73.1,119.142v45.195h9.019V119.142Zm92.911,16.363c5.581,3.052,12.8-.4,14.919-4.762-3.109-2.1-6.212-4.214-9.429-6.392C169.643,128.118,167.847,131.772,166.011,135.505Z" transform="translate(0)" fill="#00a19a"/>
    <path id="Path_176" data-name="Path 176" d="M301.061,148.164a16.451,16.451,0,1,1-16.567-16.334A16.486,16.486,0,0,1,301.061,148.164Zm-16.392-7.74a7.855,7.855,0,0,0-7.939,7.635,8.014,8.014,0,0,0,7.88,8.067,7.928,7.928,0,0,0,7.9-7.693A7.8,7.8,0,0,0,284.669,140.424Z" transform="translate(-124.581 -38.607)" fill="#00a19a"/>
    <path id="Path_177" data-name="Path 177" d="M118.8,102.8c1.672.725,2.736,1.064,3.683,1.6Q139,113.89,155.473,123.425c2.946,1.707,3.788,3.928,2.549,6.255-1.309,2.444-3.765,2.888-6.816,1.134q-16.644-9.558-33.252-19.175c-2.023-1.169-3.543-2.876-2.537-5.2C116.012,104.975,117.661,103.958,118.8,102.8Z" transform="translate(-31.504 -26.312)" fill="#00a19a"/>
  </g>
</svg>
