<?xml version="1.0" encoding="utf-8"?>
<!-- Generator: Adobe Illustrator 24.1.0, SVG Export Plug-In . SVG Version: 6.00 Build 0)  -->
<svg version="1.1" id="Layer_1" xmlns="http://www.w3.org/2000/svg" xmlns:xlink="http://www.w3.org/1999/xlink" x="0px" y="0px"
	 viewBox="0 0 750 500" style="enable-background:new 0 0 750 500;" xml:space="preserve">
<style type="text/css">
	.st0{fill:#FFFFFF;}
	.st1{fill:#EBEBEB;}
	.st2{fill:#37474F;}
	.st3{fill:#00A69C;}
	.st4{fill:#A6A6A6;}
	.st5{fill:none;stroke:#8B0756;stroke-width:0.25;stroke-miterlimit:10;}
	.st6{fill:#C7C7C7;}
	.st7{fill:#263238;}
	.st8{fill:#F5F5F5;}
	.st9{fill:#E0E0E0;}
	.st10{fill:#455A64;}
	.st11{fill:#EBA683;}
	.st12{fill:#A36957;}
	.st13{opacity:0.2;enable-background:new    ;}
	.st14{fill:#FAFAFA;}
	.st15{opacity:0.2;}
	.st16{fill:#D18862;}
	.st17{fill:#FFD1BF;}
	.st18{fill:#EB996E;}
	.st19{fill:#72094C;}
	.st20{fill:#8B0756;}
</style>
<g>
	<g id="freepik--background-complete--inject-2">
		<rect x="52.9" y="186" class="st0" width="153.3" height="103.3"/>
		<path class="st1" d="M206.7,289.8H52.4V185.5h154.3V289.8z M53.4,288.8h152.3V186.5H53.4V288.8z"/>
		<path class="st2" d="M67.7,193.8c0,1.9-1.6,3.5-3.5,3.5s-3.5-1.6-3.5-3.5s1.6-3.5,3.5-3.5l0,0C66.1,190.3,67.7,191.9,67.7,193.8z"
			/>
		<path class="st1" d="M82.1,193.8c0,1.9-1.6,3.5-3.5,3.5s-3.5-1.6-3.5-3.5s1.6-3.5,3.5-3.5l0,0C80.5,190.3,82.1,191.9,82.1,193.8z"
			/>
		<path class="st3" d="M96.5,193.8c0,2-1.6,3.5-3.5,3.5c-2,0-3.5-1.6-3.5-3.5s1.6-3.5,3.5-3.5c0,0,0,0,0,0
			C95,190.3,96.5,191.9,96.5,193.8z"/>
		<rect x="52.9" y="201.1" class="st1" width="153.3" height="1"/>
		<rect x="511.3" y="184" class="st0" width="153.3" height="103.3"/>
		<path class="st1" d="M665.1,287.9H510.8V183.5h154.3V287.9z M511.8,286.9h152.3V184.5H511.8V286.9z"/>
		<path class="st2" d="M526.1,191.9c0,1.9-1.6,3.5-3.5,3.5c-1.9,0-3.5-1.6-3.5-3.5c0-1.9,1.6-3.5,3.5-3.5
			C524.5,188.3,526.1,189.9,526.1,191.9C526.1,191.9,526.1,191.9,526.1,191.9z"/>
		<path class="st1" d="M540.5,191.9c0,1.9-1.6,3.5-3.5,3.5c-1.9,0-3.5-1.6-3.5-3.5c0-1.9,1.6-3.5,3.5-3.5
			C538.9,188.3,540.5,189.9,540.5,191.9C540.5,191.8,540.5,191.9,540.5,191.9z"/>
		<path class="st3" d="M555,191.9c0,1.9-1.6,3.5-3.5,3.5c-1.9,0-3.5-1.6-3.5-3.5c0-1.9,1.6-3.5,3.5-3.5
			C553.4,188.3,555,189.9,555,191.9C555,191.9,555,191.9,555,191.9z"/>
		<rect x="511.3" y="199.1" class="st1" width="153.3" height="1"/>
		<path class="st4" d="M185.1,235.6c0,9-7.3,16.2-16.2,16.2c0,0,0,0,0,0c-0.3,0-0.6,0-0.8,0l-28.9,0.1c-9-0.2-16.1-7.7-15.8-16.6
			c0.2-8.7,7.2-15.6,15.8-15.8h28.6c0.4,0,0.7,0,1.1,0C177.8,219.4,185.1,226.6,185.1,235.6z"/>
		<g id="freepik--IaQ7Yo--inject-2">
			<path class="st0" d="M139.4,236.1c0-0.6,0.2-1.2,0.6-1.7c0.1-0.2,0.3-0.5,0.4-0.7l1-1c0.4-0.3,0.8-0.6,1.1-0.8
				c1.6-1,3.3-1.7,5.1-2c4.2-0.8,8.6-0.8,12.8,0c1.8,0.3,3.5,1,5.1,2c0.4,0.3,0.8,0.6,1.2,0.9l1,0.9c0.3,0.4,0.5,0.7,0.7,1.1
				c0.2,0.4,0.3,0.8,0.4,1.2h-0.3h-8.1c-0.1,0-0.3,0-0.4-0.1c-0.5-0.9-1.4-1.5-2.4-1.5c-2.4-0.2-4.9-0.2-7.3,0c-1,0-1.9,0.6-2.4,1.5
				c-0.1,0.1-0.1,0.2-0.3,0.2L139.4,236.1L139.4,236.1z"/>
			<path class="st0" d="M139.3,240.8v-2.9c0-0.1,0-0.1,0-0.2h8.3c0,0.2,0,0.4,0,0.6c0,0.8,0,1.6,0,2.4c0.1,0.5-0.3,1-0.8,1
				c-0.1,0-0.2,0-0.3,0h-6.2c-0.5,0.1-1-0.3-1.1-0.8C139.3,241,139.3,240.9,139.3,240.8z"/>
			<path class="st0" d="M160.4,240.9c0-1,0-2.1,0.1-3.1h8.1c0,0,0,0.1,0,0.2c0,1,0,1.9,0,2.9c0.1,0.5-0.3,0.9-0.8,1
				c-0.1,0-0.1,0-0.2,0h-6.2c-0.5,0.1-0.9-0.3-1-0.8C160.4,241,160.4,240.9,160.4,240.9z"/>
		</g>
		<path class="st1" d="M655.9,187.3c-0.9-1.4-0.9-3.3,0-4.7c0.2-0.4,0.5-0.8,0.7-1.2s0.4-0.8,0.6-1.3c0.7-1.5,2.2-2.6,3.9-2.6
			l5.8-0.2l-0.6-18.9l-5.8,0.2c-1.7,0-3.2-0.9-4-2.4c-0.4-0.8-0.9-1.6-1.5-2.3c-1-1.4-1.1-3.2-0.3-4.7l2.7-5.1l-16.7-8.9l-2.7,5.1
			c-0.8,1.5-2.4,2.4-4.1,2.4c-0.9,0-1.8,0-2.8,0.1c-1.7,0.2-3.3-0.6-4.2-2l-3.1-5l-16.1,10l3.1,5c0.9,1.4,0.9,3.2,0,4.6
			c-0.3,0.4-0.5,0.8-0.7,1.3s-0.5,0.9-0.7,1.3c-0.7,1.5-2.2,2.5-3.9,2.6l-5.8,0.2l0.6,18.9l5.8-0.2c1.7,0,3.2,0.8,4,2.3
			c0.5,0.9,1,1.7,1.6,2.6c1,1.4,1,3.2,0.3,4.6l-2.7,5.1l16.7,8.8l2.7-5.1c0.8-1.5,2.4-2.4,4.1-2.3c0.9,0,1.8,0,2.8-0.1
			c1.7-0.2,3.3,0.6,4.2,2.1l3.1,4.9l16.1-10L655.9,187.3z M627.9,183.4c-8-3.1-12-12-8.9-20c3.1-8,12-12,20-8.9c8,3.1,12,12,8.9,20
			c-0.5,1.2-1.1,2.4-1.9,3.5C641.9,183.6,634.5,185.9,627.9,183.4L627.9,183.4z"/>
		<path class="st5" d="M589.1,131.4c-1-0.6-1.6-1.7-1.5-2.9c0-0.3,0-0.6,0-1s0-0.7,0-1c-0.1-1.2,0.5-2.3,1.5-2.9l3.5-2l-6.6-11.5
			l-3.5,2c-1,0.6-2.3,0.5-3.3-0.1c-0.6-0.4-1.1-0.7-1.7-1c-1.1-0.5-1.7-1.6-1.7-2.8v-4.1h-13.2v4.1c0,1.2-0.7,2.3-1.7,2.8
			c-0.6,0.3-1.2,0.6-1.7,1c-1,0.7-2.3,0.7-3.3,0.1l-3.5-2l-6.6,11.5l3.5,2c1,0.6,1.6,1.7,1.5,2.9c0,0.3,0,0.6,0,1s0,0.6,0,1
			c0.1,1.2-0.5,2.3-1.5,2.9l-3.5,2l6.6,11.5l3.5-2c1-0.6,2.3-0.5,3.3,0.1c0.6,0.4,1.1,0.7,1.7,1c1.1,0.5,1.7,1.6,1.7,2.8v4.1h13.2
			v-4.1c0-1.2,0.7-2.3,1.7-2.8c0.6-0.3,1.2-0.6,1.7-1c1-0.7,2.3-0.7,3.3-0.1l3.5,2l6.6-11.5L589.1,131.4z M569.1,138.4
			c-6,0-10.8-4.9-10.8-10.9c0-6,4.9-10.8,10.9-10.8c6,0,10.8,4.8,10.8,10.8C580,133.5,575.1,138.4,569.1,138.4
			C569.1,138.4,569.1,138.4,569.1,138.4L569.1,138.4z"/>
		<path class="st1" d="M112.4,174.8l6.6,11.5l3.5-2c1-0.6,2.3-0.5,3.3,0.1c0.6,0.4,1.1,0.7,1.7,1c1.1,0.5,1.7,1.6,1.7,2.8v4.1h13.3
			v-4.1c0-1.2,0.7-2.3,1.7-2.8c0.6-0.3,1.2-0.6,1.7-1c1-0.7,2.3-0.7,3.3-0.1l3.5,2l6.6-11.5l-3.5-2c-1.1-0.6-1.7-1.8-1.5-3
			c0-0.3,0-0.6,0-1s0-0.6,0-1c-0.1-1.2,0.5-2.3,1.5-2.9l3.5-2l-6.6-11.5l-3.5,2c-1,0.6-2.3,0.5-3.3-0.1c-0.6-0.4-1.1-0.7-1.7-1
			c-1.1-0.5-1.7-1.6-1.7-2.8v-4.1h-13.2v4.1c0,1.2-0.7,2.3-1.7,2.8c-0.6,0.3-1.2,0.6-1.7,1c-1,0.7-2.3,0.7-3.3,0.1l-3.5-2l-6.6,11.5
			l3.5,2c1,0.6,1.6,1.7,1.5,2.9c0,0.3,0,0.6,0,1s0,0.6,0,1c0.1,1.2-0.5,2.3-1.5,2.9L112.4,174.8z M125.1,168.8
			c0-6,4.9-10.8,10.8-10.8c6,0,10.9,4.9,10.8,10.9c0,6-4.9,10.9-10.9,10.8c0,0,0,0,0,0C129.9,179.6,125.1,174.8,125.1,168.8
			C125.1,168.8,125.1,168.8,125.1,168.8z"/>
		<circle class="st1" cx="372.4" cy="156.2" r="58.8"/>
		<ellipse transform="matrix(0.2429 -0.97 0.97 0.2429 130.3414 479.427)" class="st0" cx="372.3" cy="156.2" rx="44.9" ry="44.9"/>
		
			<ellipse transform="matrix(0.2445 -0.9697 0.9697 0.2445 129.8335 479.1084)" class="st1" cx="372.4" cy="156.2" rx="32.1" ry="32.1"/>
		
			<ellipse transform="matrix(0.246 -0.9693 0.9693 0.246 129.3282 478.6931)" class="st0" cx="372.3" cy="156.2" rx="17.7" ry="17.7"/>
		<ellipse transform="matrix(0.2472 -0.969 0.969 0.2472 128.9314 478.4361)" class="st1" cx="372.4" cy="156.2" rx="8" ry="8"/>
		
			<rect x="363" y="116.8" transform="matrix(0.7071 -0.7071 0.7071 0.7071 36.9064 324.916)" class="st6" width="95.3" height="2.3"/>
		<polygon class="st4" points="381.1,153.9 372.3,156.2 374.7,147.4 		"/>
		<polygon class="st4" points="455.6,79.8 443,92.5 433.1,95.5 436.1,85.6 448.7,73 445.7,82.9 		"/>
	</g>
	<g id="freepik--speech-bubble--inject-2">
		<path class="st3" d="M287.2,121c2.5-3.7,3.8-8,3.9-12.4c0-15.8-17.3-28.5-38.6-28.5s-38.6,12.8-38.6,28.5s17.3,28.5,38.6,28.5
			c10.3,0,19.7-3,26.6-7.9l13.3,3.4L287.2,121z"/>
		<path class="st7" d="M238.5,108.5c0,2.2-1.8,4-4,4s-4-1.8-4-4s1.8-4,4-4S238.5,106.3,238.5,108.5z"/>
		<circle class="st7" cx="252.4" cy="108.5" r="4"/>
		<path class="st7" d="M274.3,108.5c0,2.2-1.8,4-4,4s-4-1.8-4-4s1.8-4,4-4S274.3,106.3,274.3,108.5z"/>
	</g>
</g>
<g id="freepik--background-complete--inject-4">
	<path class="st8" d="M132.9,381.3c19.2-16.6,21.1-43.8,17.8-67.8c-0.6-4-0.6-8.3-2.8-11.6s-7-5.3-10.4-3.2
		c-2.8,1.7-3.8,5.3-5.1,8.4c-1.8,4.1-4.8,7.5-8.5,10c-2.4,1.6-5.5,2.7-8.2,1.6c-3.7-1.6-4.6-6.3-5-10.3l-2.1-22.4
		c-0.4-4-0.8-8.1-2.4-11.7s-4.8-6.9-8.7-7.6s-8.4,2-8.8,6c-0.2,1.7,0.3,3.3,0.4,5s-0.5,3.6-2,4.2s-3.3-0.3-4.6-1.4
		c-4.5-3.6-7.9-8.5-11-13.4s-6.2-9.9-10.4-13.9s-9.7-7-15.5-6.7s-11.5,4.4-12.3,10.2c-0.9,5.8,3,11.1,7,15.3
		c6,6.2,12.9,11.5,20.4,15.8c1.3,0.8,2.8,1.6,3.4,3c1.1,2.6-1.1,5.5-3.7,6.6c-2.9,1.3-6.1,1.3-9.2,2s-6.3,2.4-7.2,5.5
		c-1.2,4.3,2.6,8.2,6.3,10.6c7.3,4.9,15.4,8.6,24,10.7c3,0.8,6.2,1.4,8.8,3.2s4.4,5.3,3.2,8.2s-4.7,4.3-7.9,4s-6.1-1.6-9.1-2.4
		c-5.7-1.5-12.8-0.4-15.8,4.7c-2,3.4-1.7,7.7-0.2,11.3s4.3,6.6,7.1,9.3c9.9,9.4,22,16.6,35.2,19.7s25.1,3.1,37.3-2.9"/>
	<path class="st9" d="M135,399.1c-2.3-11-5.6-21.9-9.9-32.3c-5.3-12.7-11.4-25.1-18.2-37.1c-1.8-3.2-3.5-6.4-5.3-9.5
		c-1.7-3.1-3.4-6.2-5.3-9.1c-3.6-5.6-7.5-10.9-11.7-16.1c-4-4.9-7.9-9.5-11.6-13.7s-7.3-8.1-10.7-11.4c-5.3-5.4-11.1-10.3-17.2-14.8
		c-2.2-1.6-3.9-2.7-5-3.5c-0.6-0.4-1-0.7-1.3-0.9c-0.1-0.1-0.3-0.2-0.5-0.3c0.1,0.1,0.3,0.2,0.4,0.3l1.3,0.9c1.1,0.8,2.8,2,5,3.6
		c6,4.5,11.7,9.5,17,14.9c3.4,3.4,6.9,7.3,10.6,11.5s7.6,8.8,11.6,13.7c4.2,5.1,8,10.5,11.6,16.1c1.8,2.9,3.6,6,5.3,9.1
		s3.5,6.3,5.3,9.5c6.8,12,12.8,24.3,18.2,37c4.3,10.4,7.7,21.1,10,32.1"/>
	<path class="st9" d="M96.1,311.2c0.1-0.6,0.2-1.2,0.2-1.8c0.1-1.1,0.2-2.8,0.3-4.8c0.2-4,0.2-9.6,0.2-15.8s0.1-11.7,0.3-15.7
		c0.1-2,0.2-3.6,0.3-4.8c0.1-0.6,0.1-1.2,0-1.8c-0.2,0.6-0.3,1.1-0.3,1.7c-0.2,1.1-0.3,2.8-0.5,4.8c-0.4,4-0.5,9.6-0.5,15.8
		s0,11.6,0,15.8c0,1.9,0,3.5,0,4.8C95.9,310,96,310.6,96.1,311.2z"/>
	<path class="st9" d="M43.7,306.9c0.7,0.1,1.4,0.1,2.1,0c1.3,0,3.3-0.1,5.6,0c4.8,0,11.3,0.3,18.6,0.9s13.8,1.5,18.5,2.2
		c2.4,0.4,4.3,0.7,5.6,0.9c0.7,0.2,1.3,0.3,2,0.3c-0.6-0.3-1.3-0.5-2-0.6c-1.3-0.3-3.2-0.7-5.5-1.2c-4.7-0.9-11.2-1.8-18.5-2.4
		c-6.2-0.5-12.4-0.8-18.6-0.7c-2.4,0-4.3,0.2-5.7,0.3C45,306.7,44.4,306.8,43.7,306.9z"/>
	<path class="st9" d="M124.3,366c0.1-0.2,0.2-0.4,0.3-0.7c0.2-0.5,0.4-1.2,0.7-2c0.6-1.7,1.4-4.2,2.3-7.2c1.9-6.1,4.2-14.7,6.6-24.2
		s4.7-18.1,6.4-24.2c0.9-3,1.6-5.5,2.1-7.3c0.2-0.8,0.4-1.5,0.6-2c0.1-0.2,0.1-0.5,0.1-0.7c-0.1,0.2-0.2,0.4-0.3,0.7
		c-0.2,0.5-0.4,1.2-0.7,2c-0.6,1.7-1.4,4.2-2.3,7.2c-1.9,6.1-4.2,14.7-6.6,24.2s-4.7,18.1-6.4,24.2c-0.8,3-1.6,5.5-2.1,7.3l-0.6,2
		C124.4,365.5,124.4,365.8,124.3,366z"/>
	<path class="st9" d="M53.8,351c0.2,0.1,0.5,0.2,0.7,0.2l2.1,0.5l7.6,1.6c6.4,1.4,15.2,3.4,24.9,5.6s18.5,4.1,24.9,5.3
		c3.2,0.6,5.8,1.1,7.6,1.4l2.1,0.3c0.2,0.1,0.5,0.1,0.7,0.1c-0.2-0.1-0.5-0.2-0.7-0.2l-2-0.5l-7.6-1.6c-6.4-1.4-15.2-3.4-24.9-5.6
		s-18.5-4.1-24.9-5.4c-3.2-0.6-5.8-1.1-7.6-1.4l-2.1-0.3C54.3,351,54.1,351,53.8,351z"/>
</g>
<g id="freepik--Floor--inject-4">
	<path class="st7" d="M695.4,401.7c0,0.1-142.5,0.3-318.1,0.3s-318.2-0.1-318.2-0.3s142.4-0.3,318.2-0.3S695.4,401.5,695.4,401.7z"
		/>
</g>
<g id="freepik--character-2--inject-4">
	<path class="st7" d="M668.5,263.9l-55,137.6H459L508.1,262c0.4-1,1.3-1.7,2.4-1.7l155.7,0.1c1.4,0,2.5,1.1,2.5,2.5
		C668.7,263.3,668.6,263.6,668.5,263.9z"/>
	<path class="st10" d="M660,267.9l-50.5,123.3c-0.2,0.5-0.8,0.9-1.3,0.9H467.5c-0.8,0-1.4-0.6-1.4-1.4c0-0.2,0-0.3,0.1-0.5
		l44.8-123.3c0.2-0.6,0.7-0.9,1.3-0.9h146.5c0.8,0,1.4,0.6,1.4,1.4C660.1,267.5,660.1,267.7,660,267.9z"/>
	<polygon class="st7" points="613.5,401.7 612.1,401.7 403.6,401.7 403.6,392 607.8,392 	"/>
	<path class="st11" d="M454.1,269.2c0,0-4.2,50.3-13.3,52.7c-24.8,6.7-53.2,1.7-63.1-0.2c-1.1-1-2.4-2.1-3.9-3.6
		c-1.2-1.3-2.3-2.7-3-4.3c-1-1.9-1.8-4-2.3-6.2c-0.2-2-2.8-2.7-3.6-1.1s-1.3,7.8,2.1,13.4c0.6,1.3-0.1,2.9-1.4,3.5
		c-0.1,0.1-0.3,0.1-0.4,0.1c-4.2,1.6-19,6.2-21.5,7.3c-2.1,1-4.2,2.8-2,3.2s14.5-1.4,14.5-1.4s-16.1,2-15.7,4.3
		c0.3,1.6,4.6,2.4,15.1,0c0,0-13.3,1.7-14.6,3.1c-3.1,3.1,12.8,1.2,12.8,1.2c-11.2,1.5-11.1,0.9-11.2,2.4c-0.1,1.1,2.4,1.6,8.6,1.7
		c5,0.1,10.1,1.1,17.7,1.6l0,0c0,0,95.9,27.1,109-15.1c7.1-22.7,7.1-31.4,9.6-46.3"/>
	<path class="st12" d="M360.5,340.6c0,0.3-3.4,0.9-7.6,1.3s-7.7,0.6-7.7,0.3s3.4-0.9,7.6-1.3S360.5,340.3,360.5,340.6z"/>
	<path class="st12" d="M360.5,336.2c0,0.3-3.6,1.1-8,1.9s-8.2,1.1-8.2,0.9s3.5-1.1,8-1.9S360.4,335.9,360.5,336.2z"/>
	<path class="st12" d="M360.3,331.7c0,0.3-3.3,1.1-7.6,1.9s-7.7,1.1-7.8,0.9s3.3-1.1,7.6-1.9S360.3,331.4,360.3,331.7z"/>
	<polygon class="st7" points="578.5,355 584.7,391.3 487.5,391.3 491.3,363.1 	"/>
	<path class="st3" d="M464,230.4c0,0-14.1,42.4-13.2,44.1l31.1,7.2L464,230.4z"/>
	<path class="st13" d="M464,230.4c0,0-14.1,42.4-13.2,44.1l31.1,7.2L464,230.4z"/>
	<path class="st3" d="M490.6,310.1l-3,60.7l93.9-10.6l-14.7-58.7c0,0-10.1-68.1-28.5-75.6c-6.4-2.5-12.9-4.6-19.5-6.3
		c-11.7-3.3-24-4.2-36.1-2.7l-1.9,0.3c-7.7,0.8-14.2,6-16.8,13.2c0,0-0.3,20.9,6.1,34.7L490.6,310.1z"/>
	<path class="st10" d="M512.8,390.2c-0.1,0-0.3-4.9-0.5-11s-0.1-11,0-11s0.4,4.9,0.5,11S513,390.2,512.8,390.2z"/>
	<path class="st10" d="M518,370.9c0,0,0.1-0.2,0.4-0.3c1-0.3,2,0.3,2.3,1.3c0.1,0.2,0.1,0.4,0.1,0.6c0,0.9-0.6,1.7-1.5,2
		c-0.8,0.2-1.8,0-2.4-0.7c-0.5-0.5-0.7-1.2-0.6-1.9c0.2-1.2,0.9-1.5,0.9-1.5c-0.3,0.5-0.5,1-0.6,1.5c-0.1,1.1,0.7,2,1.7,2.1
		c0.2,0,0.4,0,0.7-0.1c0.6-0.2,1.1-0.8,1.1-1.5c0-0.6-0.2-1.1-0.7-1.4C519.1,370.8,518.5,370.8,518,370.9z"/>
	<path class="st10" d="M580,376.9c-0.1,0.1-0.2,0.2-0.4,0.3c-0.4,0.3-0.7,0.5-1.1,0.8c-1.4,0.9-3,1.6-4.5,2.1
		c-10.8,3.8-22.8-0.1-29.3-9.5c-1-1.4-1.8-2.8-2.4-4.4c-0.3-0.5-0.4-1-0.5-1.3s-0.1-0.5-0.1-0.5s0.3,0.6,0.8,1.6
		c1.8,3.7,4.4,6.9,7.6,9.5c4.7,3.7,10.6,5.7,16.7,5.4c2.4-0.1,4.9-0.5,7.2-1.3c1.6-0.5,3.1-1.2,4.5-1.9
		C579,377.4,579.5,377.1,580,376.9z"/>
	<path class="st14" d="M504.2,257.4c-0.3,0.4-0.7,0.8-1.1,1.1c-1.1,1-2.2,1.8-3.4,2.6c-1.8,1.2-3.8,2-5.9,2.3
		c-2.6,0.2-5.2-0.4-7.6-1.5c-2.5-1.1-4.8-2.4-7-3.2c-1.9-0.8-4-1.1-6.1-0.9c-1.4,0.2-2.7,0.7-3.9,1.5c-0.8,0.6-1.1,1.1-1.1,1
		c0.1-0.1,0.1-0.2,0.2-0.3c0.2-0.3,0.5-0.6,0.8-0.8c1.1-0.9,2.5-1.5,3.9-1.7c2.1-0.3,4.3,0,6.3,0.8c2.3,0.8,4.6,2.1,7,3.2
		c2.3,1.1,4.8,1.7,7.4,1.5c2.1-0.3,4-1,5.8-2.2c1.2-0.8,2.3-1.6,3.4-2.5C503.4,258,503.8,257.7,504.2,257.4z"/>
	<path class="st14" d="M479.6,233.6c-0.5,0.6-1.1,1.2-1.8,1.6c-3.3,2.2-7.2,3.1-11.1,2.4c-0.8-0.1-1.6-0.3-2.3-0.7
		c0-0.1,0.9,0.2,2.4,0.3c3.8,0.4,7.6-0.4,10.9-2.4C478.9,234.2,479.5,233.6,479.6,233.6z"/>
	<path class="st14" d="M564.5,290.9c-0.2,0.2-0.4,0.4-0.7,0.5c-0.7,0.5-1.4,0.9-2.2,1.2c-2.9,1-5.9,1.3-8.9,0.8
		c-2.1-0.3-4.1-0.7-6.1-1.3c-2.3-0.6-4.6-1.1-7-1.4c-2.6-0.2-5.2,0-7.7,0.6c-2.7,0.7-5.4,1.5-8,2.7c-5.3,2.2-10.4,4.6-15.4,5.6
		c-4.4,0.9-9,0.8-13.3-0.3c-2.9-0.7-5.8-1.6-8.6-2.8l-2.3-0.9c-0.3-0.1-0.5-0.2-0.8-0.4c0.3,0.1,0.5,0.1,0.8,0.3l2.3,0.8
		c2.8,1,5.7,1.9,8.6,2.6c4.3,1.1,8.8,1.2,13.1,0.2c4.9-1,9.9-3.4,15.3-5.7c2.6-1.1,5.3-2,8.1-2.7c2.6-0.6,5.3-0.8,7.9-0.5
		c2.4,0.3,4.7,0.8,7,1.4c2,0.5,4,1,6,1.3c2.9,0.5,6,0.3,8.8-0.6C562.6,292,563.6,291.5,564.5,290.9z"/>
	<path class="st14" d="M490.1,328c0,0,0-0.1,0.1-0.2l0.4-0.5c0.6-0.7,1.3-1.2,2-1.7c1.2-0.8,2.5-1.4,3.8-1.8
		c1.8-0.5,3.7-0.7,5.5-0.7c4.2,0.1,8.9,1.8,13.8,4c2.6,1.2,5.2,2.2,7.9,3.1c2.9,1,5.9,1.4,8.9,1.3c3-0.3,5.9-1.3,8.5-2.8
		c2.6-1.4,5-3,7.3-4.3c2.2-1.3,4.7-2.3,7.2-2.8c5.5-1,11.2,0.6,15.5,4.3c0.9,0.8,1.7,1.7,2.4,2.6c-0.1,0-0.1-0.1-0.2-0.2
		c-0.1-0.1-0.3-0.3-0.5-0.5c-0.2-0.3-0.5-0.6-0.8-0.8c-0.4-0.4-0.7-0.7-1.1-1c-2.5-2-5.5-3.4-8.7-4c-2.2-0.4-4.4-0.4-6.6,0
		c-2.5,0.6-4.9,1.5-7.1,2.8c-2.4,1.3-4.7,2.9-7.3,4.3c-2.7,1.6-5.6,2.6-8.7,2.9c-3.1,0.2-6.2-0.3-9.1-1.3c-2.7-0.9-5.3-2-7.9-3.2
		c-4.9-2.2-9.6-4-13.7-4.1c-1.8-0.1-3.7,0.1-5.4,0.6c-1.3,0.4-2.6,0.9-3.8,1.7C491.8,326.3,490.9,327.1,490.1,328z"/>
	<path class="st14" d="M574.9,360.1c-0.5-1.1-1.1-2.2-1.8-3.2c-2.1-2.7-4.9-4.6-8.1-5.6c-2.2-0.7-4.5-1-6.8-0.9
		c-2.7,0.1-5.3,0.6-7.8,1.4c-2.8,0.9-5.5,2-8.2,3.3c-2.8,1.3-5.6,2.7-8.6,4c-2.9,1.3-5.9,2.3-9,3c-2.9,0.6-5.9,0.8-8.9,0.6
		c-5-0.4-10-1.6-14.6-3.4c-4-1.5-7.1-3-9.3-4l-2.5-1.2l-0.6-0.3l-0.2-0.1c0.1,0,0.2,0,0.2,0.1l0.6,0.3l2.5,1.1
		c2.2,1,5.3,2.4,9.4,3.8c4.7,1.8,9.6,2.9,14.5,3.3c2.9,0.2,5.9,0,8.7-0.6c3.1-0.7,6.1-1.7,9-3c3-1.3,5.8-2.7,8.6-4
		c2.7-1.3,5.4-2.4,8.3-3.3c2.6-0.8,5.2-1.3,7.9-1.4c2.4-0.1,4.7,0.3,7,1c3.3,1,6.2,3,8.2,5.8c0.5,0.8,1,1.6,1.3,2.4
		c0.1,0.3,0.2,0.5,0.2,0.7C574.9,360,574.9,360,574.9,360.1z"/>
	<g class="st15">
		<path d="M503.3,368.8c9.5-0.4,19.1-3.6,26.4-9.7c10-8.4,14.9-21.6,16-34.7s-1.2-26-3.5-38.9c-8.9,12.5-16.2,26.1-21.6,40.5
			c-3.5,9.4-6.7,19.8-14.5,26.1c-2.8,2.3-6.1,4-8.3,6.8s-2.7,7.5,0.3,9.7l2.6,0.8"/>
	</g>
	<path class="st11" d="M434.5,369.3c1.9,0.9,3.9,1.6,6,1.9c1.6,0.4,3.3,0.4,5,0.2c0.8-0.1,1.5-0.2,2.2-0.3c3.2-0.5,6.2-1.9,8.7-4.1
		c10.8-9.4,40.1-39.1,45.4-45.9c6.3-8.1,8.1-61.6,8.1-61.6l35.2,5.8c0,0-0.6,38.5-9.3,68.5c-5.5,19.1-72,58.3-72.1,58.3
		c-4.9,5.4-10.5,11.3-13.9,14.1c-7.1,5.9-7.6,5.3-8.2,4.4c-1.5-2.5,12.1-10.9,8.1-10.8s-15.4,12.2-16.8,9.5
		c-1.9-3.5,12.5-12.1,13.6-12.9s0-2.5-1-1.7c-1.5,1.1-17,12.7-18.9,9.2c-1-1.9,2.6-3.5,2.6-3.5s15.3-9.7,14.4-11.3
		s-10.1,3.8-13.1,5.8s-5.1,1.4-4.9-0.6c0.1-1.4,9.1-7.9,12.1-9.8s11.3-7.1,5.1-7.9s-10.6-3.7-11.3-5.3S432.8,368.3,434.5,369.3z"/>
	<path class="st3" d="M523.1,224.8c6.7-1.4,13.7,0.8,18.5,5.7c4.1,4.3,8.2,11.4,7.9,22.8c-0.7,22.1-2.4,29.7-2.4,29.7l-43.4-1.5
		l1.7-37.1C505.4,244.2,508.7,227.8,523.1,224.8z"/>
	<path class="st13" d="M523.1,224.8c6.7-1.4,13.7,0.8,18.5,5.7c4.1,4.3,8.3,12,7.9,23.3c-0.7,22.1-2.5,29.1-2.5,29.1l-43.4-1.5
		l1.8-36.6C505.4,244.8,508.7,227.8,523.1,224.8z"/>
	<path class="st14" d="M548.6,270c0,0-0.5-0.4-1.5-1.1c-1.4-0.9-2.9-1.6-4.5-2c-2.4-0.6-4.9-0.7-7.3-0.3c-3,0.7-5.8,1.7-8.6,3
		c-2.8,1.3-5.7,2.4-8.6,3.3c-2.5,0.6-5,0.7-7.5,0.4c-1.7-0.2-3.3-0.8-4.8-1.6c-0.4-0.2-0.8-0.5-1.1-0.8c-0.1-0.1-0.3-0.2-0.4-0.3
		c0,0,0.5,0.4,1.6,0.9c1.5,0.7,3.1,1.2,4.8,1.4c2.5,0.3,5,0.1,7.4-0.5c2.9-0.8,5.8-1.9,8.5-3.3c2.8-1.3,5.7-2.4,8.7-3
		c2.5-0.4,5.1-0.3,7.5,0.4c1.6,0.4,3.2,1.2,4.6,2.2c0.4,0.3,0.7,0.6,1,0.9C548.4,269.8,548.5,269.9,548.6,270z"/>
	<path class="st14" d="M546.9,238.7c-0.5,0.2-0.9,0.4-1.4,0.6c-0.5,0.2-1,0.4-1.7,0.6s-1.5,0.4-2.3,0.6c-2,0.5-4.1,0.9-6.2,1.1
		c-2.6,0.3-5.1,0.3-7.7,0.3c-2.6-0.1-5.1-0.4-7.6-0.8c-2.1-0.4-4.1-0.9-6.1-1.6c-0.8-0.3-1.5-0.6-2.2-0.9c-0.6-0.2-1.1-0.5-1.6-0.8
		c-0.5-0.2-0.9-0.5-1.3-0.8c0.5,0.2,1,0.4,1.4,0.6c0.5,0.3,1.1,0.5,1.7,0.7c0.7,0.3,1.5,0.6,2.3,0.8c2,0.6,4,1.2,6,1.5
		c2.5,0.4,5,0.7,7.6,0.8c2.5,0.1,5.1,0,7.6-0.2c2.1-0.2,4.1-0.5,6.1-1c0.9-0.2,1.7-0.4,2.3-0.6s1.3-0.3,1.7-0.5
		C545.8,238.9,546.4,238.8,546.9,238.7z"/>
	<path class="st7" d="M500.2,176.7c-0.2,1.6,1,3.1,2.7,3.3c0.7,0.1,1.4-0.1,2-0.5c1.8-1.3,1.6-4,0.9-6s-1.8-4.2-1.2-6.3
		c0.5-1.6,1.8-2.8,2.8-4.2c1.7-2.4,2.2-5.5,1.4-8.3c-1-2.8-3.4-4.9-6.4-5.3c-3-0.3-6.3,1.1-8.7-0.6c-1.8-1.2-2.2-3.7-3.7-5.3
		c-2.3-2.5-6.2-2.3-9.4-1.3s-6.4,2.5-9.7,2.2c-2.8-0.2-5.3-1.8-8-2.5c-7.8-2.2-15.9,2.4-18,10.2c-1.2,4.3-0.3,9,2.3,12.6
		c1.2,1.8,3.1,3.1,5.2,3.7"/>
	<path class="st11" d="M495.3,239.4L495.3,239.4c-9,1.7-17.7-4.3-19.4-13.3c-1-5.1-1.8-9.5-1.8-9.5s-13.4,0.2-15.8-12.8
		s-5.1-41.6-5.1-41.6l-0.2-1.7c14-9.1,32-8.4,46.8-0.6l0.4,2.7l8.5,58.7C509.8,229.9,503.9,237.8,495.3,239.4z"/>
	<path class="st0" d="M480.7,193.9l-8.4,4.1c1.6,1.7,4.1,2.2,6.2,1C482.2,196.8,480.7,193.9,480.7,193.9z"/>
	<path class="st16" d="M474.1,216.4c6-0.9,11.7-3.6,16.2-7.7c0,0-2.4,10.1-15.6,11.1L474.1,216.4z"/>
	<path class="st11" d="M501,171.3c0.3-0.1,9.6-2.4,9.9,8.9s-11.2,7.9-11.2,7.5S501,171.3,501,171.3z"/>
	<path class="st16" d="M503.1,183.6c0,0,0.2,0.1,0.5,0.3c0.5,0.2,1,0.2,1.5,0c1.2-0.5,2.1-2.4,2.1-4.4c0-1-0.2-1.9-0.6-2.8
		c-0.2-0.7-0.8-1.3-1.5-1.5c-0.5-0.1-0.9,0.1-1.1,0.6c-0.1,0.3-0.1,0.5-0.1,0.6s-0.3-0.2-0.2-0.6c0.1-0.3,0.2-0.5,0.4-0.7
		c0.3-0.2,0.7-0.4,1.1-0.3c0.9,0.2,1.7,0.8,2.1,1.7c0.5,1,0.8,2,0.8,3.1c0,2.3-1.1,4.4-2.7,4.9c-0.6,0.2-1.3,0.1-1.8-0.3
		C503.1,183.9,503,183.7,503.1,183.6z"/>
	<path class="st7" d="M451.1,168c0,0,8.4,2.7,18-3.8c6.3-4.3,13.9-7,15.9-5.9s3.2,8,10.2,9.1c0,0,1.4,13.3,6.6,12.1
		s-0.9-21.3-0.9-21.3l-13.3-7.1l-14.5-0.7l-15.4,3.9l-8.1,6.6L451.1,168z"/>
	<path class="st7" d="M500.3,147c-2,0.4-3.8,1.4-5.1,2.9C496,147.9,498.1,146.7,500.3,147z"/>
	<path class="st7" d="M494.1,142.6c0.6,1.3,0.9,2.7,0.9,4.1c0,1-0.2,2-0.5,3c-0.1,0.4-0.3,0.8-0.6,1.1c0.3-1.3,0.5-2.7,0.6-4.1
		C494.5,144.4,494,142.6,494.1,142.6z"/>
	<path class="st7" d="M457.3,181.1c0,1.1,0.9,1.9,2,1.8c1,0,1.9-0.8,1.9-1.8c0,0,0,0,0,0c0-1-0.9-1.8-1.9-1.8
		c-1-0.1-1.9,0.7-1.9,1.7C457.3,181.1,457.3,181.1,457.3,181.1z"/>
	<path class="st7" d="M457.3,179.6c0.3,0.2,1.6-0.9,3.7-1s3.6,0.9,3.8,0.6c0.1-0.1-0.2-0.6-0.8-1c-0.9-0.6-2-0.8-3.1-0.8
		c-1.1,0-2.1,0.4-2.9,1.1C457.4,179.1,457.2,179.5,457.3,179.6z"/>
	<path class="st7" d="M477.6,180.1c0.1,1,1,1.8,2,1.7c1,0,1.8-0.8,1.8-1.9c0,0,0,0,0-0.1c-0.1-1-1-1.8-2-1.7
		C478.4,178.2,477.6,179,477.6,180.1C477.6,180,477.6,180,477.6,180.1z"/>
	<path class="st7" d="M477,178.6c0.3,0.2,1.6-1,3.6-1.2s3.7,0.7,3.9,0.4s-0.2-0.6-0.9-1c-0.9-0.5-2-0.8-3.1-0.6
		c-1.1,0.1-2.1,0.5-2.9,1.3C477.1,178,476.9,178.5,477,178.6z"/>
	<path class="st7" d="M471.1,194.5c-1.1-0.2-2.3-0.3-3.4-0.3c-0.5,0-1-0.1-1.2-0.4c-0.1-0.5,0-1.1,0.2-1.6c0.4-1.3,0.8-2.7,1.2-4.1
		c1.6-5.9,2.7-10.7,2.5-10.8s-1.7,4.7-3.3,10.6c-0.4,1.4-0.8,2.8-1.1,4.2c-0.3,0.7-0.3,1.4-0.1,2.1c0.2,0.4,0.5,0.6,0.9,0.7
		c0.3,0,0.6,0,0.9,0C468.8,194.8,470,194.7,471.1,194.5z"/>
	<path class="st7" d="M475.8,172.4c0.3,0.5,2.3,0.1,4.7,0.1s4.5,0.5,4.7,0c0.1-0.3-0.3-0.7-1.1-1.2c-2.3-1.1-4.9-1.2-7.2-0.1
		C476,171.7,475.6,172.2,475.8,172.4z"/>
	<path class="st7" d="M457,174.1c0.4,0.4,1.8-0.2,3.5-0.4s3.2,0,3.5-0.5c0.1-0.3-0.1-0.7-0.8-1.1c-1.8-0.9-4-0.6-5.6,0.7
		C457,173.4,456.8,173.9,457,174.1z"/>
</g>
<g id="freepik--character-1--inject-4">
	<path class="st7" d="M94.3,267.7l53.6,134h150.4l-47.8-135.8c-0.3-1-1.3-1.7-2.3-1.6l-151.6,0.1c-1.4,0-2.5,1.1-2.4,2.5
		C94.1,267.1,94.2,267.4,94.3,267.7z"/>
	<path class="st10" d="M102.5,271.4l49.2,120c0.2,0.5,0.7,0.9,1.3,0.9h137c0.8,0,1.4-0.6,1.4-1.4c0-0.2,0-0.3-0.1-0.5l-43.6-120
		c-0.2-0.5-0.7-0.9-1.3-0.9H103.8c-0.8,0-1.4,0.6-1.4,1.3C102.4,271,102.5,271.2,102.5,271.4z"/>
	<polygon class="st7" points="147.9,401.7 149.2,401.7 352.3,401.7 352.3,392.3 153.4,392.3 	"/>
	<path class="st17" d="M383,271.2c0,0,3.8-4.9,1.2-10.5s-9.3-12-9.3-12c-2-0.5,0.6-11.8,1.8-15.6s-0.1-5.8-2.2-5
		c-1.4,0.6-5.2,11.9-6.2,15.6c-0.6,2-1.6,6-2.9,8.2c-1.1,1.8-2.3,2.4-3.6-0.5c-2.8-6.3-7.2-10.1-9-10.3s-2.8,2.4-1.2,3.8
		c1.5,1.7,2.9,3.6,3.9,5.7c0.9,1.6,1.5,3.4,1.8,5.2c0.3,1.6,0.5,3,0.6,4.3c0.3,3.1,0.3,6.3-0.1,9.5L320,314.2l-8.2-30.1l-0.8-2.3
		l-32.4,12.1c-1,0.3,7,23.9,12,38.5c2.5,7.3,8,13.1,15.1,16l0,0c11.4,4.6,24.4,0.9,31.6-9l40.3-58.5l-0.9-0.6l0.8,0.4L383,271.2z"/>
	<path class="st18" d="M377.9,251.6c-0.1,0.4-0.2,0.7-0.3,1.1l-1.1,2.9l-1.6,4.4c-0.3,0.9-0.7,1.7-1.2,2.5c-0.4,0.4-0.8,0.7-1.4,0.8
		c-0.6,0.1-1.2-0.2-1.5-0.6c-0.4-0.4-0.6-1-0.6-1.5c0-0.5,0-1,0.2-1.5c0.2-0.9,0.5-1.8,0.7-2.6c0.5-1.7,1-3.2,1.5-4.4
		s0.9-2.2,1.2-2.9c0.1-0.4,0.3-0.7,0.5-1c-0.1,0.4-0.2,0.7-0.4,1.1c-0.3,0.7-0.6,1.7-1,2.9s-0.9,2.7-1.4,4.4
		c-0.2,0.8-0.5,1.7-0.7,2.6c-0.3,0.9-0.2,1.8,0.3,2.6c0.3,0.3,0.7,0.5,1.1,0.5c0.4-0.1,0.8-0.3,1.1-0.6c0.5-0.7,0.9-1.5,1.2-2.4
		l1.7-4.3l1.2-2.9C377.6,252.3,377.7,251.9,377.9,251.6z"/>
	<path class="st18" d="M381.8,256c0,0.3-0.1,0.7-0.3,1c-0.2,0.6-0.5,1.5-1,2.6s-0.9,2.4-1.5,3.8c-0.3,0.8-0.8,1.5-1.5,2
		c-0.4,0.3-0.9,0.4-1.3,0.4c-0.5,0-1-0.2-1.3-0.6c-0.6-0.7-0.9-1.6-0.8-2.6c0.1-0.8,0.3-1.6,0.5-2.4c0.4-1.3,0.8-2.6,1.3-3.9
		c0.5-1.1,0.9-1.9,1.2-2.5c0.1-0.3,0.3-0.6,0.5-0.9c0.1,0-0.5,1.3-1.4,3.5c-0.5,1.3-0.9,2.5-1.2,3.8c-0.2,0.8-0.4,1.5-0.4,2.3
		c-0.1,0.8,0.1,1.6,0.7,2.2c0.5,0.5,1.4,0.6,2,0.1c0.6-0.4,1.1-1.1,1.3-1.8l1.6-3.7c0.5-1.1,0.8-1.9,1.1-2.5
		C381.3,256.6,381.5,256.3,381.8,256z"/>
	<path class="st18" d="M383.9,260.5c-0.2,1-0.4,1.9-0.8,2.9c-0.3,0.9-0.6,1.9-1,3c-0.2,0.7-0.7,1.2-1.3,1.6c-0.4,0.2-0.8,0.2-1.2,0
		c-0.4-0.1-0.7-0.4-0.9-0.8c-0.4-0.6-0.5-1.4-0.4-2.1c0.1-1.7,0.5-3.4,1.3-5c0.3-0.6,0.7-1.3,1.2-1.8c0.3-0.4,0.5-0.6,0.6-0.6
		s-0.7,0.9-1.4,2.6c-0.4,1-0.7,2-0.9,3c-0.1,0.6-0.2,1.2-0.2,1.8c-0.1,0.6,0,1.3,0.3,1.8c0.3,0.5,0.9,0.7,1.4,0.5
		c0.5-0.3,0.8-0.7,1-1.3c0.4-1.1,0.7-2.1,1.1-3C383,262.2,383.4,261.3,383.9,260.5z"/>
	<path class="st18" d="M371,270.1c-0.1,0,0-0.8-0.1-2c-0.3-3.3-1.8-6.3-4.3-8.4c-0.9-0.8-1.6-1.2-1.6-1.3c0.7,0.2,1.3,0.5,1.8,1
		c2.7,2.1,4.3,5.3,4.4,8.7C371.3,268.8,371.2,269.5,371,270.1z"/>
	<path class="st7" d="M161,391.4l97.8,0.5l1.2-17.3l-76.3-33.9c-6.6,8-11,17.6-12.7,27.8L161,391.4"/>
	<path class="st10" d="M207.2,358.1c-0.3,0.4-0.6,0.7-0.9,1c-0.4,0.4-0.7,0.7-1.1,1.1c-0.5,0.5-1,0.9-1.6,1.3
		c-0.7,0.5-1.4,1-2.1,1.4c-0.8,0.5-1.6,1-2.5,1.4c-4,2-8.3,3.1-12.8,3.3c-1,0.1-1.9,0.1-2.9,0c-0.8,0-1.7-0.1-2.5-0.3
		c-0.7-0.1-1.3-0.2-2-0.4c-0.5-0.1-1-0.2-1.5-0.4c-0.4-0.1-0.9-0.2-1.3-0.5c0-0.1,1.8,0.5,4.9,0.9c0.8,0.1,1.6,0.2,2.5,0.2
		s1.9,0,2.9,0c4.4-0.2,8.6-1.3,12.5-3.2c0.9-0.5,1.7-0.9,2.5-1.4c0.7-0.4,1.4-0.9,2.1-1.4C205.8,359.5,207.1,358.1,207.2,358.1z"/>
	<path class="st10" d="M233.8,389.9c0.3-1.1,0.7-2.2,1.2-3.3c0.8-2.2,1.9-4.9,3-7.9s2.2-5.8,3.1-7.9c0.4-1.1,0.9-2.2,1.4-3.2
		c-0.3,1.1-0.6,2.3-1.1,3.4c-0.7,2-1.8,4.9-2.9,8s-2.3,5.9-3.2,7.9c-0.4,1-0.8,1.8-1.1,2.4C234.1,389.4,233.9,389.7,233.8,389.9z"/>
	<path class="st10" d="M234.3,366.7c-0.6,0.3-1,0.7-1.3,1.3c-0.3,0.6-0.2,1.2,0.1,1.8c0.5,0.9,1.7,1.2,2.6,0.7
		c0.5-0.3,0.8-0.7,0.9-1.3c0.2-0.6,0-1.3-0.5-1.7c-0.4-0.4-1-0.7-1.6-0.8c0,0,0.2-0.1,0.5-0.1c0.5,0,1,0.3,1.4,0.6
		c0.6,0.5,0.8,1.3,0.7,2.1c-0.2,1.3-1.5,2.1-2.7,1.9c-0.7-0.1-1.3-0.6-1.6-1.2c-0.4-0.7-0.4-1.5,0-2.2c0.2-0.4,0.6-0.8,1.1-1
		C234.1,366.6,234.3,366.6,234.3,366.7z"/>
	<path class="st19" d="M300.4,245.4c0,0,14.3,42.1,13.5,43.8l-28.9,7.9L300.4,245.4z"/>
	<path class="st20" d="M277,314.4l-9.1,38.7l-5.9,21.7L183.7,340l24.8-40c0,0,13.6-55.6,32.8-65.9c13.9-7.5,25.8-4.9,27.6-4.9
		l16.7,2.3c0.4,0.1,0.7,0.1,1.1,0.2c8.9,1.8,14.9,10.1,14.5,19.1c-0.4,7.2-1.6,19.5-5.6,28.6C290.2,291.8,277,314.4,277,314.4z"/>
	<path class="st14" d="M264.8,366.8l-0.6-0.3c-0.6-0.3-1.1-0.6-1.6-0.9c-2-1.3-3.8-2.9-5.2-4.8c-2.3-3-3.6-6.6-3.8-10.4
		c-0.1-2.4,0.3-4.7,1.3-6.9c0.6-1.2,1.3-2.2,2.3-3.1c1-0.9,2.3-1.5,3.6-1.8c4.7-0.5,8.9,2.9,9.4,7.6c0,0,0,0,0,0
		c0.1,1.6-0.2,3.3-0.9,4.7c-1.4,3.1-4.2,5.5-7.5,6.4c-3.5,0.9-7.2,0.5-10.5-1c-3.4-1.6-6.4-4-8.7-7c-1.2-1.5-2.3-3.1-3.3-4.8
		c-1-1.7-1.8-3.5-2.3-5.5c-0.5-2-0.5-4-0.1-6c0.4-2,1.5-3.9,3.1-5.3c1.7-1.4,3.8-2,6-1.7c1.1,0.1,2.1,0.5,3,1.1
		c0.9,0.6,1.6,1.5,2,2.5c0.8,2,0.9,4.3,0.1,6.3c-0.8,2-2.1,3.7-3.8,4.9c-6.7,4.6-15.2,5.6-22.8,2.6c-3.5-1.5-6.5-3.9-8.6-7
		c-2.1-2.9-3.3-6.4-3.4-10c0-1.7,0.2-3.4,0.8-5.1c0.6-1.6,1.6-3,2.9-4.1c1.3-1,2.9-1.6,4.5-1.7c1.6-0.1,3.2,0.4,4.4,1.5
		c1.1,1.1,1.8,2.5,1.9,4c0.2,1.4-0.1,2.9-0.6,4.2c-1.2,2.4-3.2,4.3-5.8,5.2c-2.2,0.8-4.5,1.3-6.9,1.3c-3.8,0-7.5-0.7-10.9-2.2
		c-2.2-0.9-4.2-2.2-6-3.7c-0.6-0.5-1.1-0.9-1.4-1.2s-0.4-0.5-0.4-0.5s0.2,0.1,0.5,0.4s0.8,0.7,1.4,1.2c4.8,3.8,10.8,5.8,16.9,5.7
		c2.3,0,4.6-0.4,6.8-1.3c1.2-0.5,2.3-1.1,3.2-1.9c1-0.8,1.8-1.9,2.3-3.1c0.5-1.3,0.7-2.6,0.6-4c-0.1-1.4-0.8-2.8-1.8-3.8
		c-1.1-1-2.6-1.5-4.1-1.4c-1.6,0.1-3,0.6-4.3,1.6c-1.2,1-2.2,2.4-2.7,3.9c-0.6,1.6-0.8,3.2-0.8,4.9c0.1,3.5,1.3,6.9,3.3,9.8
		c2.1,3,5,5.4,8.4,6.8c7.4,3,15.8,2,22.3-2.5c1.6-1.2,2.9-2.8,3.7-4.7c0.7-1.9,0.7-4-0.1-5.9c-0.4-0.9-1-1.7-1.9-2.3
		c-0.8-0.6-1.8-0.9-2.8-1c-2-0.2-4,0.4-5.6,1.6c-1.5,1.3-2.6,3.1-3,5c-0.4,1.9-0.4,3.9,0.1,5.8c0.9,3.8,3.1,7.1,5.5,10
		c2.3,2.9,5.2,5.3,8.5,6.9c3.2,1.5,6.8,1.8,10.2,1c3.2-0.8,5.9-3.1,7.3-6.1c0.7-1.4,1-3,0.8-4.5c-0.4-4.5-4.4-7.8-8.9-7.4
		c0,0,0,0,0,0c-1.3,0.2-2.5,0.8-3.5,1.7c-0.9,0.8-1.7,1.9-2.2,3c-1,2.1-1.5,4.4-1.3,6.7c0.2,3.7,1.5,7.3,3.7,10.3
		c1.4,1.9,3.1,3.5,5.1,4.8c0.5,0.3,1,0.6,1.6,0.9L264.8,366.8z"/>
	<path class="st14" d="M288.3,292.1c0,0-0.1-0.1-0.2-0.2l-0.5-0.7c-0.6-0.9-1.2-1.8-1.7-2.8c-1.7-3.7-2.1-7.8-1.3-11.8
		c0.6-2.8,1.8-5.3,3.7-7.4c0.6-0.6,1.2-1,2-1.3c0.8-0.3,1.7-0.2,2.4,0.2c0.7,0.4,1.3,1.1,1.7,1.9c0.3,0.8,0.5,1.6,0.5,2.5
		c0,3.6-1.3,7-3.5,9.8c-1.2,1.5-2.6,2.7-4.2,3.7c-1.7,1-3.6,1.6-5.5,1.6c-2,0-3.9-0.7-5.4-2c-1.4-1.2-2.5-2.8-3.2-4.6
		c-0.6-1.7-0.9-3.5-0.9-5.3c0-1.7,0.2-3.5,0.6-5.1c0.2-0.8,0.6-1.6,1.1-2.3c0.5-0.7,1.3-1.2,2.1-1.4c0.8-0.2,1.7,0,2.4,0.4
		c0.7,0.4,1.2,1,1.7,1.6c0.4,0.6,0.7,1.3,0.9,2c0.2,0.7,0.3,1.4,0.3,2.1c0,1.3-0.2,2.7-0.7,4c-0.8,2.2-2.1,4.1-3.8,5.6
		c-1.3,1.2-2.7,2.2-4.1,3.1c-1.2,0.7-2.2,1.2-2.9,1.6l-0.8,0.4c-0.1,0.1-0.2,0.1-0.3,0.1l0.2-0.2l0.7-0.4c0.6-0.4,1.6-0.9,2.8-1.7
		c1.5-0.9,2.8-1.9,4.1-3.1c1.7-1.5,2.9-3.4,3.7-5.5c0.4-1.2,0.6-2.5,0.6-3.8c0-0.7-0.1-1.4-0.3-2c-0.2-0.7-0.5-1.3-0.9-1.9
		c-0.4-0.6-0.9-1.1-1.5-1.5c-0.6-0.4-1.4-0.5-2.1-0.4c-1.5,0.3-2.4,1.8-2.9,3.3c-0.4,1.6-0.6,3.3-0.6,5c0,1.8,0.3,3.5,0.8,5.2
		c0.6,1.7,1.6,3.2,3,4.4c1.4,1.2,3.2,1.9,5.1,1.9c1.9-0.1,3.7-0.6,5.3-1.6c1.6-0.9,3-2.1,4.1-3.5c2.2-2.7,3.4-6,3.5-9.5
		c0-0.8-0.2-1.6-0.5-2.3c-0.3-0.7-0.8-1.3-1.5-1.6c-0.6-0.3-1.4-0.4-2.1-0.2c-0.7,0.2-1.3,0.6-1.8,1.1c-1.8,2-3.1,4.5-3.7,7.2
		c-0.5,2.2-0.6,4.5-0.3,6.7c0.2,1.7,0.7,3.3,1.4,4.9c0.4,1,1,1.9,1.6,2.8l0.5,0.7C288.3,292,288.3,292.1,288.3,292.1z"/>
	<path class="st17" d="M264.4,280.3c0,0,0,35.6,8.9,38.9c24.2,9.2,53.2,7,63.4,6.1c1.2-0.9,2.6-1.9,4.2-3.2l3.4-2.8
		c0,0,16,3,15.8,3.9s-6.2,2.8-12.4,1.4c-0.7,1.3-0.2,2.9,1.1,3.6c0.1,0.1,0.3,0.1,0.4,0.2c4.1,2,18.5,8.1,20.8,9.5
		c2,1.2,3.9,3.3,1.6,3.4s-14.4-2.9-14.4-2.9s16,3.6,15.3,5.9c-0.4,1.6-4.9,1.9-15.2-1.5c0,0,13.1,3.1,14.4,4.6
		c2.8,3.5-13-0.1-13-0.1c11.1,2.6,11,2,11,3.5c0,1.2-2.6,1.4-8.8,0.8c-5-0.4-10.3,0.1-17.9-0.1l0,0c0,0-98.9,17.6-107.9-26
		c-4.9-23.5-4-32.2-5-47.4"/>
	<path class="st18" d="M351.9,345.9c-0.1,0.3,3.3,1.2,7.5,2.1s7.7,1.3,7.7,1.1s-3.3-1.2-7.5-2.1S352,345.6,351.9,345.9z"/>
	<path class="st18" d="M352.4,341.6c-0.1,0.3,3.5,1.5,7.9,2.7s8.1,1.9,8.1,1.7s-3.5-1.5-7.9-2.7S352.5,341.3,352.4,341.6z"/>
	<path class="st18" d="M353,337c-0.1,0.3,3.2,1.5,7.4,2.6s7.6,1.9,7.7,1.6s-3.2-1.5-7.4-2.6S353.1,336.8,353,337z"/>
	<path class="st19" d="M246.3,245.4c-6.5-0.6-12.8,2.4-16.6,7.7c-3.4,4.7-6.4,12.3-4.9,23.5c3,21.9,5.4,29.2,5.4,29.2l40.2-6.4
		l-5.5-36.7C264.9,262.7,260,246.8,246.3,245.4z"/>
	<path class="st18" d="M347.4,320c-0.3,0-0.6,0-0.9-0.1c-0.6-0.1-1.4-0.3-2.5-0.4c-0.6,0-1.1,0.3-1.6,0.6c-0.6,0.4-1.1,0.8-1.6,1.3
		c-1.3,1.1-2.5,2.4-3.6,3.6l0,0l0,0c-3.1,0.9-6.3,1.4-9.6,1.5c-3.8,0-7.6-0.1-11.4-0.5c-9.2-0.6-17.6-1.2-23.6-2
		c-3-0.4-5.4-0.8-7.1-1.2c-0.8-0.2-1.5-0.3-1.9-0.4c-0.2,0-0.4-0.1-0.7-0.2c0.2,0,0.5,0,0.7,0.1l1.9,0.3c1.7,0.3,4.1,0.6,7.1,1
		c6,0.7,14.4,1.2,23.6,1.9c4,0.3,7.9,0.6,11.4,0.5c3.2,0,6.4-0.5,9.5-1.4l-0.1,0.1c1.2-1.3,2.4-2.5,3.7-3.6c0.5-0.5,1.1-0.9,1.7-1.3
		c0.5-0.4,1.1-0.6,1.7-0.6c1.1,0.2,1.9,0.4,2.4,0.5C346.9,319.8,347.2,319.9,347.4,320z"/>
	<path class="st14" d="M267.4,279c-0.1,0-0.2,0.1-0.3,0.1l-0.9,0.2l-1.5,0.1c-0.7,0-1.4,0-2.1-0.1c-3.1-0.4-6.1-1.6-8.5-3.7
		c-1-0.9-2-1.9-2.7-3c-0.9-1.2-1.5-2.6-1.9-4.1c-0.2-0.8-0.3-1.6-0.2-2.4c0.1-0.9,0.4-1.7,0.9-2.4c0.6-0.7,1.5-1.1,2.4-1.1
		c0.9,0,1.8,0.2,2.6,0.6c1.7,0.9,3,2.3,3.8,4c0.9,1.8,1.3,3.7,1.1,5.7c-0.1,2.1-0.9,4-2.1,5.6c-2.7,3.4-7,5.2-11.3,4.8
		c-4.3-0.6-8.1-2.9-10.6-6.5c-1.2-1.6-2-3.6-2.2-5.6c-0.1-1,0-2,0.3-3c0.3-0.9,0.9-1.8,1.6-2.4c0.7-0.7,1.6-1.1,2.6-1.3
		c0.9-0.1,1.9,0,2.7,0.5c1.6,0.8,2.7,2.4,3.1,4.1c0.4,1.6,0.4,3.3,0,4.9c-0.3,1.5-0.9,2.9-1.7,4.1c-2.4,3.9-6.8,6.2-11.4,6
		c-1.2,0-2.4-0.3-3.6-0.6c-0.4-0.1-0.8-0.3-1.2-0.5c0,0,0.4,0.2,1.2,0.4c1.2,0.3,2.3,0.5,3.6,0.5c1.9,0,3.8-0.3,5.5-1.1
		c2.3-1,4.2-2.7,5.5-4.9c0.8-1.2,1.3-2.6,1.6-4c0.4-1.5,0.4-3.1,0-4.7c-0.4-1.6-1.4-3-2.9-3.8c-0.8-0.4-1.6-0.5-2.5-0.4
		c-0.9,0.2-1.7,0.6-2.3,1.2c-0.7,0.6-1.2,1.4-1.5,2.2c-0.3,0.9-0.4,1.8-0.3,2.8c0.2,1.9,1,3.8,2.1,5.4c2.3,3.5,6.1,5.8,10.2,6.3
		c4.2,0.4,8.3-1.3,10.9-4.6c2.3-3.1,2.7-7.3,1-10.8c-0.4-0.8-0.9-1.5-1.5-2.2c-0.6-0.6-1.3-1.2-2.1-1.6c-0.7-0.4-1.6-0.6-2.4-0.6
		c-0.8,0-1.5,0.3-2.1,0.9c-0.5,0.6-0.8,1.3-0.9,2.1c-0.1,0.8,0,1.5,0.2,2.3c0.4,1.4,1,2.7,1.8,3.9c0.7,1.1,1.6,2.1,2.6,3
		c0.9,0.8,1.9,1.4,2.9,2c1.7,0.9,3.5,1.5,5.4,1.7C264.2,279.4,265.8,279.4,267.4,279z"/>
	<path class="st7" d="M246.3,168.1c-2.2-6.1-8.9-9.3-15-7.1c-2.4,0.9-4.5,2.5-5.9,4.6c-1.5,2.3-2.2,5-3.1,7.6s-2.4,5.2-4.8,6.5
		c-2.8,1.5-6.6,1-9.2,3c-2.9,2.1-3,6.9-0.5,9.6s6.6,3.2,10,1.9c-0.8,2.1-1.3,4.3-1.4,6.6c-0.1,2.3,1,4.5,2.9,5.8
		c2,1.1,4.5,1.1,6.5-0.1c2-1.2,3.7-2.8,4.9-4.6c0.3,1.6,0.9,3.1,1.6,4.6c0.8,1.4,2.2,2.5,3.8,2.8c2,0.2,4-0.8,5.1-2.5
		c1.1-1.7,1.7-3.6,1.8-5.6c0.6-4.9,0.3-9.8-0.9-14.6c-0.8-3.1-1.8-6.2-1.2-9.3s3.6-6,6.6-5.1"/>
	<path class="st10" d="M206.9,189.2c0.2,0.1,0.3,0.2,0.5,0.2c0.5,0.2,1,0.3,1.6,0.4c4.9,1,10.1-0.4,13.8-3.9
		c1.3-1.2,2.3-2.6,3.1-4.2c0.8-1.7,1.4-3.5,1.8-5.3c0.3-1.8,0.8-3.5,1.5-5.3c0.6-1.5,1.7-2.9,3-3.9c2.3-1.7,5.2-2.2,8-1.6
		c1.9,0.5,3.6,1.4,5,2.7c1,0.9,1.5,1.6,1.5,1.5s-0.1-0.2-0.3-0.5c-0.3-0.4-0.6-0.9-1-1.2c-1.4-1.4-3.2-2.5-5.1-3
		c-2.9-0.8-6.1-0.3-8.6,1.5c-1.5,1-2.6,2.5-3.3,4.1c-0.7,1.7-1.2,3.5-1.5,5.4c-0.3,1.8-0.9,3.5-1.7,5.1c-2.1,4.1-5.9,7-10.4,8
		c-1.9,0.4-3.8,0.5-5.8,0.2C207.6,189.4,206.9,189.1,206.9,189.2z"/>
	<path class="st10" d="M233.2,207.7c0,0,0.1-0.1,0.4-0.3c0.4-0.3,0.7-0.6,1-1c1-1.4,1.6-3,1.8-4.7c0.2-2.5-0.1-5-0.9-7.4
		c-0.8-2.7-1.9-5.6-2.4-8.7c-0.5-2.9,0.1-5.9,1.6-8.5c1.2-2.1,3-3.8,5.2-4.8c1.5-0.7,3.1-1.2,4.7-1.3c0.6,0,1.2-0.1,1.8-0.1
		c-0.6-0.2-1.2-0.2-1.8-0.2c-1.7,0-3.4,0.4-4.9,1.1c-2.3,1-4.3,2.8-5.6,4.9c-1.6,2.7-2.3,5.9-1.8,9c0.5,3.3,1.7,6.1,2.5,8.8
		c0.8,2.3,1.1,4.7,1,7.2c-0.1,1.6-0.6,3.2-1.5,4.6C233.7,207.2,233.2,207.6,233.2,207.7z"/>
	<path class="st7" d="M300,188.7c7.8-18.1-2.9-29.2-9.9-33.1c-4.2-2.4-9.1-2.9-13.9-3c-4.7-0.2-9.5,0.2-14.1,1.3
		c-4.6,1.1-8.9,3.5-12.2,6.9c-5.7,6.1-7,15.2-6.5,23.6c0.6,9.9,3.5,19.6,8.4,28.2c0.5,1.2,1.4,2.1,2.4,2.9c1.1,0.7,2.6,0.4,3.4-0.6"
		/>
	<path class="st17" d="M286.6,234l-0.3-9.5c0,0,11.1-1.9,13.5-16.4c1.1-7.2,0.8-19.1,0.2-28.8c-0.5-8.5-7.8-14.9-16.3-14.4
		c-0.2,0-0.5,0-0.7,0.1l-25.2,2.7c-2.6,0.3-4.6,2.5-4.6,5.2l0,0l3.3,62.4c0.4,8,7,14.3,15,14.2l0,0c8.3,0.1,15.1-6.6,15.1-14.9
		C286.6,234.4,286.6,234.2,286.6,234z"/>
	<path class="st7" d="M297.4,187.5c0,1-0.8,1.8-1.8,1.9c-1,0.1-1.9-0.7-1.9-1.7c0,0,0,0,0,0c0-1,0.8-1.8,1.8-1.9
		C296.4,185.7,297.3,186.5,297.4,187.5C297.4,187.5,297.4,187.5,297.4,187.5z"/>
	<path class="st7" d="M297.3,185.4c-0.2,0.2-1.6-0.8-3.7-0.8s-3.5,1-3.7,0.8s0.1-0.6,0.8-1c0.9-0.6,1.9-0.9,3-0.9
		c1,0,2.1,0.3,2.9,0.9C297.2,184.8,297.5,185.3,297.3,185.4z"/>
	<path class="st7" d="M277.3,188c0,1-0.8,1.8-1.8,1.9c-1,0.1-1.9-0.7-1.9-1.7c0,0,0,0,0,0c0-1,0.8-1.8,1.8-1.9
		C276.3,186.2,277.2,187,277.3,188C277.3,188,277.3,188,277.3,188z"/>
	<path class="st7" d="M277.6,185.8c-0.2,0.2-1.6-0.8-3.6-0.8s-3.5,1-3.7,0.8s0.1-0.6,0.8-1c0.9-0.6,1.9-0.9,3-0.9
		c1,0,2.1,0.3,2.9,0.9C277.5,185.2,277.7,185.6,277.6,185.8z"/>
	<path class="st7" d="M284.9,200.6c1.1-0.3,2.2-0.5,3.3-0.6c0.5-0.1,1-0.1,1.1-0.5c0-0.5-0.1-1.1-0.3-1.5l-1.5-3.9
		c-2.1-5.6-3.6-10.1-3.4-10.2s2.1,4.4,4.2,9.9c0.5,1.4,1,2.7,1.5,3.9c0.3,0.6,0.4,1.3,0.3,2c-0.1,0.4-0.5,0.6-0.9,0.8
		c-0.3,0.1-0.6,0.1-0.9,0.1C287.1,200.8,286,200.8,284.9,200.6z"/>
	<path class="st18" d="M286.3,224.4c-6.8,0.1-13.6-1.7-19.5-5.2c0,0,4.7,10,19.3,8.6L286.3,224.4z"/>
	<path class="st18" d="M284,205.5c-0.8-1-2-1.5-3.3-1.4c-0.9,0.1-1.7,0.5-2.3,1.2c-0.5,0.7-0.6,1.6-0.2,2.4c0.7,0.7,1.7,1,2.6,0.7
		c0.9-0.3,1.8-0.9,2.6-1.5c0.2-0.2,0.4-0.4,0.6-0.6C284.2,206.1,284.2,205.8,284,205.5"/>
	<path class="st7" d="M279,202c0.3,0,0.3,2.2,2.2,3.7s4.2,1.3,4.2,1.6c0,0.1-0.5,0.4-1.5,0.4c-1.3,0-2.5-0.4-3.5-1.2
		c-1-0.8-1.6-1.9-1.7-3.1C278.6,202.6,278.8,202,279,202z"/>
	<path class="st7" d="M278.5,182.2c-0.2,0.6-2.2,0.3-4.5,0.6s-4.3,0.9-4.6,0.4c-0.1-0.2,0.2-0.8,1-1.3c1-0.7,2.2-1.1,3.4-1.2
		c1.2-0.1,2.4,0,3.6,0.4C278.1,181.6,278.6,182,278.5,182.2z"/>
	<path class="st7" d="M296.6,179.6c-0.4,0.5-1.7,0-3.4,0s-3.1,0.3-3.4-0.2c-0.1-0.2,0.1-0.7,0.7-1.1c0.8-0.5,1.8-0.8,2.8-0.7
		c1,0,1.9,0.3,2.7,0.9C296.6,178.9,296.8,179.4,296.6,179.6z"/>
	<path class="st7" d="M299.9,179.2c-2.5-12.4-6-7.5-9.9-13.4c-5.7,5.7-18.7,12.3-26.6,13.6c-0.8,0.1-1.6,0.3-2.3,0.8
		c-1.2,0.9-1.3,2.7-1.3,4.2c0.2,4.3-0.2,8.6-1.1,12.9c-0.9,4.3-3,8.1-6.2,11.1c-4.8-10.1-5.3-21.9-3.1-32.9c0.9-4.5,2.4-9.2,5.9-12
		c2.6-2,5.9-2.9,9.1-3.4c8-1.5,16.4-1.8,23.9,1s13.5,6.3,14.5,14.4"/>
	<path class="st10" d="M244.9,170.5c0.5,0.4,1.1,0.7,1.6,0.9c0.6,0.3,1.3,0.6,2,0.8l1.3,0.4l1.5,0.4c2.4,0.6,4.9,0.9,7.4,1
		c6.2,0.2,12.3-0.8,18-3c1.3-0.6,2.6-1.1,3.7-1.7l1.6-0.9l1.4-0.9c0.8-0.5,1.6-1.1,2.3-1.7l0.9-0.7l0.7-0.7c0.5-0.4,0.9-0.9,1.2-1.4
		c-0.1-0.1-1.9,1.8-5.5,4.1l-1.4,0.9l-1.6,0.8c-1.1,0.6-2.3,1-3.6,1.6c-2.8,1-5.8,1.8-8.7,2.3c-3,0.5-6,0.7-9,0.6
		c-2.5-0.1-4.9-0.3-7.3-0.8C247.3,171.6,245,170.3,244.9,170.5z"/>
	<path class="st10" d="M249.1,160.7c0.4,0.4,0.8,0.7,1.3,1c0.5,0.4,1.1,0.7,1.6,1l1.1,0.6l1.2,0.5c4.6,1.8,9.4,2.6,14.3,2.6
		c4.9,0,9.7-0.5,14.4-1.6c1.8-0.4,3.3-0.8,4.3-1.1c0.5-0.1,1-0.3,1.5-0.6c0-0.1-2.3,0.5-5.9,1.2c-4.7,0.9-9.5,1.4-14.3,1.4
		c-4.8,0.1-9.6-0.7-14.1-2.3C252.6,162.5,250.8,161.6,249.1,160.7z"/>
	<path class="st10" d="M293.8,157.5c0-0.1-0.5-0.2-1.3,0c-2.1,0.6-3.6,2.4-3.8,4.6c0,0.8,0.1,1.3,0.2,1.3s0.1-1.9,1.6-3.6
		S293.8,157.8,293.8,157.5z"/>
	<path class="st7" d="M218.6,173.2c-0.1-0.2-0.3-0.4-0.4-0.5c-0.5-0.4-1.1-0.7-1.8-0.8c-1-0.1-2.1,0.1-3,0.7
		c-1.2,0.8-1.9,2.2-1.8,3.7c0.2,1.8,1.2,3.3,2.8,4.1c1.9,0.9,4,0.6,5.7-0.6c0.9-0.6,1.6-1.4,2.1-2.4c0.5-1,0.7-2.1,0.8-3.2
		c0.1-2.2-0.2-4.4,0.2-6.6c0.9-4.1,3.8-7.5,7.8-9c3.3-1.1,6.8-0.7,9.7,1.2c2,1.2,3.6,3,4.6,5.1c0.7,1.5,0.9,2.4,1,2.4
		c0-0.2,0-0.5-0.1-0.7c-0.1-0.6-0.3-1.3-0.6-1.9c-1-2.2-2.6-4.1-4.6-5.4c-1.4-0.9-3-1.6-4.6-1.9c-1.9-0.3-3.9-0.2-5.7,0.4
		c-4.3,1.5-7.4,5.1-8.3,9.5c-0.4,2.4,0,4.6-0.2,6.7c0,1-0.3,2-0.7,2.9c-0.4,0.9-1,1.6-1.8,2.1c-1.4,1.1-3.3,1.3-4.9,0.6
		c-1.4-0.7-2.3-2.1-2.5-3.6c-0.2-1.3,0.4-2.5,1.4-3.2c0.8-0.6,1.8-0.8,2.8-0.8C217.2,172.3,218,172.7,218.6,173.2z"/>
	<path class="st7" d="M256.8,179.8c0.5,0.1,1,0.2,1.5,0.1c1,0,2.4,0,4.1,0c4.6-0.1,9.1-0.9,13.5-2.3c4.4-1.5,8.2-4.3,11-8.1
		c0.8-1.1,1.5-2.4,2-3.7c0.2-0.5,0.3-1,0.4-1.5c-0.8,1.7-1.7,3.3-2.8,4.8c-2.8,3.5-6.6,6.1-10.8,7.6c-4.3,1.4-8.7,2.3-13.2,2.5
		C260.5,179.4,258.7,179.5,256.8,179.8z"/>
	<path class="st7" d="M236.2,215.3c0,0,0.1,0.6,0.7,1.4c1,1.1,2.3,1.8,3.8,1.8c2.2,0.1,4.2-0.7,5.8-2.2c1-0.9,1.6-2.1,1.8-3.4
		c0.2-1.5-0.6-2.9-1.9-3.6c-1.4-0.7-3.1-0.1-3.9,1.4c-0.3,0.7-0.2,1.5,0.1,2.1c0.3,0.6,0.8,1.1,1.4,1.4c1.1,0.5,2.3,0.5,3.5,0.1
		c0.9-0.3,1.8-0.9,2.5-1.6c1-1,1.7-2.3,1.9-3.8c0.1-0.5,0.1-1-0.1-1.5c-0.1,0,0,0.6-0.2,1.5c-0.3,1.3-1,2.5-1.9,3.4
		c-0.7,0.6-1.4,1.1-2.3,1.4c-0.9,0.3-2,0.3-2.9-0.1c-1-0.4-1.5-1.5-1.2-2.5c0.5-1,1.7-1.4,2.8-0.9c1,0.6,1.6,1.7,1.4,2.9
		c-0.1,1.1-0.7,2.1-1.5,2.9c-1.4,1.4-3.3,2.1-5.3,2.2c-1.3,0-2.6-0.5-3.6-1.5C236.4,215.8,236.2,215.3,236.2,215.3z"/>
	<path class="st10" d="M319.6,392.3c0,0.1-36.3,0.3-81.1,0.3s-81.1-0.1-81.1-0.3s36.3-0.3,81.1-0.3S319.6,392.1,319.6,392.3z"/>
</g>
<g id="freepik--Plant--inject-4">
	<path class="st20" d="M107.2,334.2c3.5,0.6,6.6,2.6,8.7,5.5c2,2.9,3.3,6.2,3.8,9.7c1.1,6.7-0.7,14.3-3.1,20.6
		c-6.9-3.2-10.5-11.1-12.1-15.3C101.9,348.2,101.3,334.8,107.2,334.2"/>
	<path class="st20" d="M126,379c-1.9-3.6-1.7-7.8,0.5-11.2c2.2-3.3,5.6-5.6,9.5-6.3c1.8-0.4,3.8-0.4,5.2,0.7
		c1.3,1.2,1.8,2.9,1.4,4.6c-0.4,1.7-1.3,3.2-2.5,4.4C136.3,375.5,131.8,379,126,379"/>
	<path class="st7" d="M124.7,400.9c-0.1-0.5-0.2-0.9-0.2-1.4c-0.1-1-0.2-2.3-0.4-3.8c-0.6-4.2-0.4-8.4,0.4-12.6
		c0.9-4.2,2.9-8,5.7-11.2c0.9-0.9,1.9-1.8,2.9-2.5c0.3-0.2,0.6-0.4,0.9-0.5c0.1-0.1,0.2-0.1,0.3-0.1c-1.4,1-2.7,2.1-3.9,3.4
		c-2.7,3.1-4.6,6.9-5.5,11c-1.1,4.8-0.7,9.3-0.5,12.5c0.1,1.6,0.2,2.9,0.2,3.8C124.8,399.9,124.8,400.4,124.7,400.9z"/>
	<path class="st7" d="M108.6,344.4c0.1,0.2,0.2,0.4,0.2,0.6c0.2,0.4,0.3,1,0.6,1.6c0.5,1.4,1.2,3.5,2,6.1c1.7,5.1,3.9,12.3,6.2,20.2
		s4.2,15.2,5.4,20.4c0.7,2.6,1.2,4.8,1.5,6.2c0.2,0.7,0.3,1.3,0.4,1.7c0.1,0.2,0.1,0.4,0.1,0.6c-0.1-0.2-0.1-0.4-0.2-0.6l-0.5-1.7
		c-0.4-1.5-1-3.6-1.6-6.2c-1.4-5.2-3.3-12.5-5.6-20.4s-4.4-15.1-6-20.3c-0.8-2.5-1.4-4.6-1.9-6.1c-0.2-0.7-0.4-1.2-0.5-1.7
		C108.7,344.8,108.6,344.6,108.6,344.4z"/>
	<path class="st20" d="M117.7,385.6c-3.6-7.6-10.7-12.9-19-14.4c-2.1-0.4-4.6-0.2-5.7,1.6s-0.1,4.1,1.2,5.8
		c5.6,7.1,14.9,10.1,23.6,7.6"/>
	<path class="st7" d="M101.3,377.1c0.4,0,0.9,0.1,1.3,0.2c0.5,0.1,1,0.2,1.5,0.3c0.6,0.2,1.3,0.3,2,0.6c0.8,0.3,1.6,0.6,2.3,0.9
		c0.9,0.4,1.7,0.8,2.6,1.3c1.9,1.1,3.7,2.4,5.3,3.8c1.6,1.5,3,3.2,4.2,5c0.5,0.8,1,1.6,1.4,2.5c0.4,0.7,0.7,1.5,1,2.3
		c0.3,0.6,0.5,1.3,0.7,1.9c0.2,0.5,0.3,1,0.4,1.5c0.1,0.4,0.2,0.9,0.2,1.3c-0.1,0-0.4-1.8-1.6-4.6c-0.3-0.8-0.7-1.5-1.1-2.2
		c-0.4-0.8-0.9-1.6-1.4-2.4c-2.4-3.6-5.6-6.6-9.3-8.7c-0.8-0.5-1.7-0.9-2.5-1.3c-0.8-0.4-1.6-0.7-2.3-0.9
		C103.2,377.5,101.3,377.2,101.3,377.1z"/>
</g>
<g id="freepik--light-bulb--inject-4">
	<path class="st3" d="M372.4,104.4c0,0-17-0.2-22.8,14.6s0.9,21.8,3.5,26.2s9.6,13.8,9.7,22.6l22.8-0.1c1.2-7.9,3.9-15.4,8-22.2
		c6.8-11.3,6-19.6,4.1-24.6S389.7,103.7,372.4,104.4z"/>
	<path class="st7" d="M377.5,167l-0.1-0.4c0-0.3-0.1-0.6-0.2-1c-0.1-0.9-0.3-2.3-0.6-4c-0.5-3.5-1.2-8.6-1.6-14.9
		c-0.1-1.6-0.2-3.2-0.3-5s-0.1-3.5,0-5.4c0.1-1.9,0.5-3.8,1.3-5.6c0.9-1.9,2.4-3.4,4.3-4.3c2.1-0.8,4.5-0.3,6.1,1.2
		c0.8,0.8,1.3,1.9,1.3,3.1c0,1.2-0.4,2.3-1.2,3.2c-0.7,0.9-1.7,1.7-2.7,2.2c-1.1,0.5-2.2,0.9-3.4,1.1c-2.3,0.5-4.7,0.7-7.1,0.8
		c-2.4,0.1-4.8-0.1-7.1-0.4c-1.2-0.2-2.3-0.5-3.4-1c-1.1-0.5-2-1.2-2.8-2c-0.8-0.8-1.3-1.9-1.6-3c-0.2-1.1-0.1-2.3,0.4-3.3
		c0.5-1,1.3-1.8,2.4-2.3c1-0.4,2.2-0.3,3.2,0.2c1,0.5,1.8,1.2,2.4,2.1c0.6,0.8,1,1.7,1.2,2.7c0.3,1.9,0.5,3.8,0.5,5.7
		c0.2,3.7,0.3,7.2,0.4,10.3c0.3,6.3,0.5,11.4,0.6,14.9c0.1,1.8,0.1,3.1,0.1,4.1c0,0.5,0,0.8,0,1.1s0,0.4,0,0.4v-0.4
		c0-0.3,0-0.6-0.1-1c0-0.9-0.1-2.3-0.2-4.1c-0.2-3.5-0.4-8.6-0.7-14.9c-0.1-3.1-0.3-6.6-0.5-10.3c0-1.9-0.2-3.8-0.5-5.7
		c-0.2-1-0.6-1.9-1.1-2.7c-0.6-0.8-1.3-1.5-2.3-1.9c-0.9-0.5-2-0.5-3-0.2c-1,0.4-1.7,1.2-2.2,2.1c-0.5,1-0.6,2.1-0.4,3.1
		c0.2,1.1,0.8,2.1,1.5,2.9c1.6,1.6,3.7,2.7,6,2.9c2.3,0.3,4.7,0.5,7.1,0.4c2.4,0,4.7-0.3,7-0.8c1.1-0.2,2.2-0.6,3.3-1.1
		c1-0.5,1.9-1.1,2.6-2c0.7-0.9,1.1-1.9,1.1-3c0-1.1-0.4-2.1-1.2-2.9c-1.5-1.5-3.8-1.9-5.8-1.2c-1.8,0.8-3.3,2.3-4.2,4.1
		c-0.8,1.7-1.2,3.6-1.3,5.5c-0.1,1.8-0.1,3.6,0,5.4s0.1,3.4,0.2,4.9c0.4,6.3,1.1,11.4,1.5,14.9l0.5,4c0.1,0.4,0.1,0.8,0.1,1.1
		C377.6,166.8,377.6,166.9,377.5,167z"/>
	<polygon class="st9" points="362.7,167.4 385.6,167.1 385.8,181.5 379.2,189.4 370.4,189.8 363,180.9 	"/>
	<path class="st10" d="M379.2,189.4c-1.2-1.2-2.9-1.9-4.6-1.9c-1.7,0.1-3.3,0.9-4.3,2.3L379.2,189.4z"/>
	<path class="st7" d="M385.2,180.3c-0.3-0.1-0.6-0.2-0.8-0.4c-0.5-0.3-1.3-0.6-2.3-0.9c-5.1-1.8-10.7-1.7-15.8,0.3
		c-1,0.4-1.7,0.8-2.2,1c-0.3,0.1-0.5,0.3-0.8,0.4c0.2-0.2,0.5-0.4,0.7-0.5c0.7-0.4,1.4-0.8,2.2-1.1c5.1-2.2,10.8-2.3,15.9-0.3
		c0.8,0.3,1.5,0.6,2.2,1C384.7,179.9,385,180.1,385.2,180.3z"/>
	<path class="st7" d="M385.3,176.8c-0.3-0.1-0.6-0.2-0.8-0.4c-0.5-0.2-1.3-0.6-2.3-0.9c-2.5-0.9-5.2-1.3-7.9-1.3
		c-2.7,0.1-5.4,0.6-7.9,1.6c-1,0.4-1.7,0.8-2.2,1c-0.3,0.2-0.5,0.3-0.8,0.4c0.2-0.2,0.5-0.4,0.7-0.5c0.7-0.4,1.4-0.8,2.2-1.1
		c5.1-2.2,10.8-2.3,15.9-0.3c0.8,0.3,1.5,0.6,2.2,1C384.8,176.4,385,176.6,385.3,176.8z"/>
	<path class="st7" d="M385.1,173.5c-0.3-0.1-0.6-0.2-0.8-0.4c-0.5-0.3-1.3-0.6-2.3-0.9c-2.5-0.9-5.2-1.3-7.9-1.3
		c-2.7,0.1-5.3,0.6-7.8,1.6c-1,0.4-1.7,0.8-2.2,1c-0.3,0.2-0.5,0.3-0.8,0.4c0.2-0.2,0.5-0.4,0.8-0.5c0.7-0.4,1.4-0.8,2.2-1.1
		c5.1-2.2,10.8-2.3,15.9-0.3c0.8,0.3,1.5,0.6,2.2,1C384.6,173.1,384.8,173.3,385.1,173.5z"/>
	<g class="st15">
		<path class="st0" d="M360,145.1c-0.3,0.4-1.1,0.3-2.2-0.3c-1.6-0.9-2.9-2.1-4-3.5c-1.6-2.1-2.8-4.6-3.5-7.2
			c-1.8-6.6-0.2-13.7,4.2-19c1.7-2.1,3.8-3.8,6.2-5.1c1.6-0.9,3.3-1.4,5.1-1.5c1.3-0.1,2,0.2,2.2,0.7c0.3,1-1.8,2.3-4.4,4.9
			c-1.5,1.5-2.8,3.1-3.9,4.8c-1.3,2.1-2.2,4.3-2.8,6.7c-0.5,2.4-0.6,4.8-0.3,7.2c0.3,2,0.8,4.1,1.5,6
			C359.3,142.3,360.7,144.4,360,145.1z"/>
	</g>
	<g class="st15">
		<path class="st0" d="M227.4,124.8c-0.3,0.4-1.1,0.3-2.2-0.3c-1.6-0.9-2.9-2.1-4-3.5c-1.6-2.1-2.8-4.6-3.5-7.2
			c-1.8-6.6-0.2-13.7,4.2-19c1.7-2.1,3.8-3.8,6.2-5.1c1.6-0.9,3.3-1.4,5.1-1.5c1.3-0.1,2,0.2,2.2,0.7c0.3,1-1.8,2.3-4.4,4.9
			c-1.5,1.5-2.8,3.1-3.9,4.8c-1.3,2.1-2.2,4.3-2.8,6.7c-0.5,2.4-0.6,4.8-0.3,7.2c0.3,2,0.8,4.1,1.5,6
			C226.7,121.9,228,124.1,227.4,124.8z"/>
	</g>
	<g class="st15">
		<path class="st0" d="M367.3,153.2c-0.2,1.8-1.8,3-3.5,2.8c-1.8-0.2-3-1.8-2.8-3.5c0.2-1.6,1.6-2.9,3.2-2.9
			C366,149.8,367.4,151.4,367.3,153.2z"/>
	</g>
	<path class="st7" d="M345,109.7c-0.1,0.1-3-2-6.5-4.7s-6.3-4.9-6.3-5s3,2,6.5,4.7S345.1,109.7,345,109.7z"/>
	<path class="st7" d="M349.8,103.4c-1-1-1.9-2-2.7-3.1c-0.9-1-1.7-2.1-2.5-3.3c1,1,1.9,2,2.7,3.1
		C348.3,101.1,349.1,102.2,349.8,103.4z"/>
	<path class="st7" d="M360.3,101.9c-0.1,0-1.3-3.2-2.6-7.2s-2.4-7.3-2.3-7.3s1.3,3.2,2.6,7.2S360.4,101.9,360.3,101.9z"/>
	<path class="st7" d="M373.1,99.2c-0.3-1.2-0.6-2.4-0.7-3.6c-0.2-1.2-0.3-2.5-0.3-3.7c0.3,1.2,0.6,2.4,0.7,3.6
		C373,96.7,373.1,97.9,373.1,99.2z"/>
	<path class="st7" d="M385.6,103.5c-0.1,0,0.9-3.8,2.2-8.5s2.4-8.4,2.5-8.4s-0.9,3.8-2.2,8.5S385.7,103.5,385.6,103.5z"/>
	<path class="st7" d="M396.2,108.7c0.6-1.2,1.3-2.4,2.1-3.6c0.7-1.2,1.5-2.3,2.4-3.4c-0.6,1.2-1.3,2.4-2.1,3.6
		C398,106.5,397.1,107.7,396.2,108.7z"/>
	<path class="st7" d="M413,106.5c0,0.1-2.9,2.3-6.6,5s-6.7,4.8-6.8,4.7s2.9-2.3,6.6-5S413,106.4,413,106.5z"/>
</g>
</svg>
