<?xml version="1.0" encoding="utf-8"?>
<!-- Generator: Adobe Illustrator 24.1.0, SVG Export Plug-In . SVG Version: 6.00 Build 0)  -->
<svg version="1.1" id="Layer_1" xmlns="http://www.w3.org/2000/svg" xmlns:xlink="http://www.w3.org/1999/xlink" x="0px" y="0px"
	 viewBox="0 0 750 500" style="enable-background:new 0 0 750 500;" xml:space="preserve">
<style type="text/css">
	.st0{fill:#E0E0E0;}
	.st1{fill:#FFFFFF;}
	.st2{fill:#F5F5F5;}
	.st3{fill:#EBEBEB;}
	.st4{fill:#263238;}
	.st5{fill:#FFBE9D;}
	.st6{fill:#455A64;}
	.st7{fill:#00A69C;}
	.st8{fill:#EB996E;}
	.st9{opacity:0.3;}
	.st10{fill:#771055;}
	.st11{opacity:0.4;}
	.st12{opacity:0.2;}
	.st13{fill:#FAFAFA;}
	.st14{opacity:0.8;}
	.st15{opacity:0.5;}
	.st16{opacity:0.6;}
	.st17{opacity:0.7;}
</style>
<g id="freepik--background-complete--inject-13">
	<polygon class="st0" points="74.7,297.5 182.2,297.5 182.2,453.4 75.4,453.4 	"/>
	<rect x="66.6" y="298.2" class="st1" width="106.5" height="154.4"/>
	<path class="st0" d="M173.9,297.5v155.9h-108V297.5H173.9z M172.4,451.9V299h-105v153L172.4,451.9z"/>
	<rect x="79.9" y="315" class="st1" width="80.1" height="121"/>
	<path class="st0" d="M79.9,315c0,0,0,0.2,0,0.6s0,1,0,1.7c0,1.5,0,3.8,0,6.6c0,5.8,0.1,14.3,0.1,24.9c0,21.3,0.1,51.5,0.2,87.1
		l-0.3-0.4h80l0,0l-0.4,0.4c0-45.6,0.1-87.7,0.1-121l0.3,0.3l-58.3-0.2l-16-0.1h-4.2h-1.5c0,0,0.5,0,1.4,0h4.2l16-0.1l58.4-0.2h0.3
		v0.2c0,33.3,0,75.3,0.1,121v0.4h-0.4h-80h-0.4V436c0.1-35.6,0.1-65.9,0.2-87.3c0-10.6,0.1-19,0.1-24.9c0-2.9,0-5,0-6.6
		c0-0.7,0-1.3,0-1.7S79.9,315,79.9,315z"/>
	<path class="st0" d="M66.3,452.7c0.5-1,1-1.8,1.7-2.7c1.1-1.6,2.8-3.7,4.6-6s3.6-4.4,4.9-5.8c0.7-0.8,1.4-1.6,2.3-2.2
		c0.2,0.1-2.9,3.9-6.6,8.5S66.5,452.8,66.3,452.7z"/>
	<path class="st0" d="M66.6,298.3c0.2-0.1,3.3,3.5,6.9,8.1s6.5,8.5,6.3,8.6s-3.3-3.5-6.9-8.1S66.5,298.4,66.6,298.3z"/>
	<path class="st1" d="M173.2,298.4l-14,17.2"/>
	<path class="st0" d="M159.2,315.6c-0.2-0.1,2.8-4.1,6.7-8.9s7.1-8.5,7.3-8.4s-2.8,4.1-6.7,8.9S159.4,315.7,159.2,315.6z"/>
	<path class="st0" d="M173.2,452.7c-0.2,0.1-3.2-3.5-6.9-8s-6.4-8.4-6.2-8.5s3.2,3.5,6.8,8S173.3,452.5,173.2,452.7z"/>
	<path class="st0" d="M125.1,377.2H111l-1.7,3.9c-0.5,1-0.8,2.1-0.8,3.2c-0.1,1,0.5,2,1.3,2.5c1.3,0.5,2.6,0.7,3.9,0.7v1.1h-13.3
		v-1.1c1.3-0.2,2.6-0.8,3.5-1.8c1.4-1.8,2.6-3.8,3.4-6l14.3-31.8h0.6l14.4,32.7c1.4,3.1,2.5,5,3.4,5.9c0.8,0.7,1.8,1,2.8,1.1v1.1
		h-19.3v-1.1h0.8c1.1,0.1,2.3-0.1,3.3-0.6c0.4-0.3,0.7-0.8,0.6-1.4c0-0.4-0.1-0.7-0.2-1.1c0-0.2-0.3-0.9-0.9-2.2L125.1,377.2z
		 M124.1,375l-5.9-13.7L112,375H124.1z"/>
	<path class="st0" d="M158,131.6c0.4-0.1,0.7-0.2,1.1-0.1h0.4l-0.1,0.1c0-0.4,0.1-0.7,0.1-0.7s0.1,0.3,0.1,0.7v0.1H159
		C158.7,131.8,158.3,131.7,158,131.6z"/>
	<path class="st0" d="M155,131.6c0-0.1,0.3-0.1,0.7-0.1s0.7,0.1,0.7,0.1s-0.3,0.1-0.7,0.1S155,131.7,155,131.6z"/>
	<path class="st0" d="M152.1,131.6c0-0.1,0.3-0.1,0.7-0.1s0.7,0.1,0.7,0.1s-0.3,0.1-0.7,0.1S152.1,131.7,152.1,131.6z"/>
	<path class="st0" d="M149.2,131.6c0-0.1,0.3-0.1,0.7-0.1s0.7,0.1,0.7,0.1s-0.3,0.1-0.7,0.1S149.2,131.7,149.2,131.6z"/>
	<path class="st0" d="M146.3,131.6c0-0.1,0.3-0.1,0.7-0.1s0.7,0.1,0.7,0.1s-0.3,0.1-0.7,0.1S146.3,131.7,146.3,131.6z"/>
	<path class="st0" d="M143.4,131.6c0-0.1,0.3-0.1,0.7-0.1s0.7,0.1,0.7,0.1s-0.3,0.1-0.7,0.1S143.4,131.7,143.4,131.6z"/>
	<path class="st0" d="M140.5,131.6c0-0.1,0.3-0.1,0.7-0.1s0.7,0.1,0.7,0.1s-0.3,0.1-0.7,0.1S140.5,131.7,140.5,131.6z"/>
	<path class="st0" d="M137.5,131.6c0-0.1,0.3-0.1,0.7-0.1s0.7,0.1,0.7,0.1s-0.3,0.1-0.7,0.1S137.5,131.7,137.5,131.6z"/>
	<path class="st0" d="M134.6,131.6c0-0.1,0.3-0.1,0.7-0.1s0.7,0.1,0.7,0.1s-0.3,0.1-0.7,0.1S134.6,131.7,134.6,131.6z"/>
	<path class="st0" d="M131.7,131.6c0-0.1,0.3-0.1,0.7-0.1s0.7,0.1,0.7,0.1s-0.3,0.1-0.7,0.1S131.7,131.7,131.7,131.6z"/>
	<path class="st0" d="M128.8,131.6c0-0.1,0.3-0.1,0.7-0.1s0.7,0.1,0.7,0.1s-0.3,0.1-0.7,0.1S128.8,131.7,128.8,131.6z"/>
	<path class="st0" d="M125.9,131.6c0-0.1,0.3-0.1,0.7-0.1s0.7,0.1,0.7,0.1s-0.3,0.1-0.7,0.1S125.9,131.7,125.9,131.6z"/>
	<path class="st0" d="M123,131.6c0-0.1,0.3-0.1,0.7-0.1s0.7,0.1,0.7,0.1s-0.3,0.1-0.7,0.1S123,131.7,123,131.6z"/>
	<path class="st0" d="M120.1,131.6c0-0.1,0.3-0.1,0.7-0.1s0.7,0.1,0.7,0.1s-0.3,0.1-0.7,0.1S120.1,131.7,120.1,131.6z"/>
	<path class="st0" d="M117.1,131.6c0-0.1,0.3-0.1,0.7-0.1s0.7,0.1,0.7,0.1s-0.3,0.1-0.7,0.1S117.1,131.7,117.1,131.6z"/>
	<path class="st0" d="M114.2,131.6c0-0.1,0.3-0.1,0.7-0.1s0.7,0.1,0.7,0.1s-0.3,0.1-0.7,0.1S114.2,131.7,114.2,131.6z"/>
	<path class="st0" d="M111.3,131.6c0-0.1,0.3-0.1,0.7-0.1s0.7,0.1,0.7,0.1s-0.3,0.1-0.7,0.1S111.3,131.7,111.3,131.6z"/>
	<path class="st0" d="M108.4,131.6c0-0.1,0.3-0.1,0.7-0.1s0.7,0.1,0.7,0.1s-0.3,0.1-0.7,0.1S108.4,131.7,108.4,131.6z"/>
	<path class="st0" d="M107.5,129.6c0.1,0,0.1,0.3,0.1,0.7s-0.1,0.7-0.1,0.7s-0.1-0.3-0.1-0.7S107.4,129.6,107.5,129.6z"/>
	<path class="st0" d="M107.5,126.7c0.1,0,0.1,0.3,0.1,0.7s-0.1,0.7-0.1,0.7s-0.1-0.3-0.1-0.7S107.4,126.7,107.5,126.7z"/>
	<path class="st0" d="M107.5,123.8c0.1,0,0.1,0.3,0.1,0.7s-0.1,0.7-0.1,0.7s-0.1-0.3-0.1-0.7S107.4,123.8,107.5,123.8z"/>
	<path class="st0" d="M107.5,120.9c0.1,0,0.1,0.3,0.1,0.7s-0.1,0.7-0.1,0.7s-0.1-0.3-0.1-0.7S107.4,120.9,107.5,120.9z"/>
	<path class="st0" d="M107.5,118c0.1,0,0.1,0.3,0.1,0.7s-0.1,0.7-0.1,0.7s-0.1-0.3-0.1-0.7S107.4,118,107.5,118z"/>
	<path class="st0" d="M107.5,115.1c0.1,0,0.1,0.3,0.1,0.7s-0.1,0.7-0.1,0.7s-0.1-0.3-0.1-0.7S107.4,115.1,107.5,115.1z"/>
	<path class="st0" d="M107.5,112.1c0.1,0,0.1,0.3,0.1,0.7s-0.1,0.7-0.1,0.7s-0.1-0.3-0.1-0.7S107.4,112.1,107.5,112.1z"/>
	<path class="st0" d="M107.5,109.2c0.1,0,0.1,0.3,0.1,0.7s-0.1,0.7-0.1,0.7s-0.1-0.3-0.1-0.7S107.4,109.2,107.5,109.2z"/>
	<path class="st0" d="M107.5,106.3c0.1,0,0.1,0.3,0.1,0.7s-0.1,0.7-0.1,0.7s-0.1-0.3-0.1-0.7S107.4,106.3,107.5,106.3z"/>
	<path class="st0" d="M107.5,103.4c0.1,0,0.1,0.3,0.1,0.7s-0.1,0.7-0.1,0.7s-0.1-0.3-0.1-0.7S107.4,103.4,107.5,103.4z"/>
	<path class="st0" d="M107.5,100.5c0.1,0,0.1,0.3,0.1,0.7s-0.1,0.7-0.1,0.7s-0.1-0.3-0.1-0.7S107.4,100.5,107.5,100.5z"/>
	<path class="st0" d="M107.5,97.6c0.1,0,0.1,0.3,0.1,0.7s-0.1,0.7-0.1,0.7s-0.1-0.3-0.1-0.7S107.4,97.6,107.5,97.6z"/>
	<path class="st0" d="M107.5,94.6c0.1,0,0.1,0.3,0.1,0.7s-0.1,0.7-0.1,0.7s-0.1-0.3-0.1-0.7S107.4,94.6,107.5,94.6z"/>
	<path class="st0" d="M107.5,91.7c0.1,0,0.1,0.3,0.1,0.7s-0.1,0.7-0.1,0.7s-0.1-0.3-0.1-0.7S107.4,91.7,107.5,91.7z"/>
	<path class="st0" d="M107.5,88.8c0.1,0,0.1,0.3,0.1,0.7s-0.1,0.7-0.1,0.7s-0.1-0.3-0.1-0.7S107.4,88.8,107.5,88.8z"/>
	<path class="st0" d="M107.5,85.9c0.1,0,0.1,0.3,0.1,0.7s-0.1,0.7-0.1,0.7s-0.1-0.3-0.1-0.7S107.4,85.9,107.5,85.9z"/>
	<path class="st0" d="M107.5,83c0.1,0,0.1,0.3,0.1,0.7s-0.1,0.7-0.1,0.7s-0.1-0.3-0.1-0.7S107.4,83,107.5,83z"/>
	<path class="st0" d="M107.5,80.1c0.1,0,0.1,0.3,0.1,0.7s-0.1,0.7-0.1,0.7s-0.1-0.3-0.1-0.7S107.4,80.1,107.5,80.1z"/>
	<path class="st0" d="M110,79.7c0,0.1-0.3,0.1-0.7,0.1s-0.7-0.1-0.7-0.1s0.3-0.1,0.7-0.1S110,79.6,110,79.7z"/>
	<path class="st0" d="M113,79.7c0,0.1-0.3,0.1-0.7,0.1s-0.7-0.1-0.7-0.1s0.3-0.1,0.7-0.1S113,79.6,113,79.7z"/>
	<path class="st0" d="M115.9,79.7c0,0.1-0.3,0.1-0.7,0.1s-0.7-0.1-0.7-0.1s0.3-0.1,0.7-0.1S115.9,79.6,115.9,79.7z"/>
	<path class="st0" d="M118.8,79.7c0,0.1-0.3,0.1-0.7,0.1s-0.7-0.1-0.7-0.1s0.3-0.1,0.7-0.1S118.8,79.6,118.8,79.7z"/>
	<ellipse class="st0" cx="121" cy="79.7" rx="0.7" ry="0.1"/>
	<path class="st0" d="M124.6,79.7c0,0.1-0.3,0.1-0.7,0.1s-0.7-0.1-0.7-0.1s0.3-0.1,0.7-0.1S124.6,79.6,124.6,79.7z"/>
	<path class="st0" d="M127.5,79.7c0,0.1-0.3,0.1-0.7,0.1s-0.7-0.1-0.7-0.1s0.3-0.1,0.7-0.1S127.5,79.6,127.5,79.7z"/>
	<ellipse class="st0" cx="129.7" cy="79.7" rx="0.7" ry="0.1"/>
	<path class="st0" d="M133.4,79.7c0,0.1-0.3,0.1-0.7,0.1s-0.7-0.1-0.7-0.1s0.3-0.1,0.7-0.1S133.4,79.6,133.4,79.7z"/>
	<path class="st0" d="M136.3,79.7c0,0.1-0.3,0.1-0.7,0.1s-0.7-0.1-0.7-0.1s0.3-0.1,0.7-0.1S136.3,79.6,136.3,79.7z"/>
	<ellipse class="st0" cx="138.5" cy="79.7" rx="0.7" ry="0.1"/>
	<path class="st0" d="M142.1,79.7c0,0.1-0.3,0.1-0.7,0.1s-0.7-0.1-0.7-0.1s0.3-0.1,0.7-0.1S142.1,79.6,142.1,79.7z"/>
	<path class="st0" d="M145,79.7c0,0.1-0.3,0.1-0.7,0.1s-0.7-0.1-0.7-0.1s0.3-0.1,0.7-0.1S145,79.6,145,79.7z"/>
	<ellipse class="st0" cx="147.2" cy="79.7" rx="0.7" ry="0.1"/>
	<path class="st0" d="M150.9,79.7c0,0.1-0.3,0.1-0.7,0.1s-0.7-0.1-0.7-0.1s0.3-0.1,0.7-0.1S150.9,79.6,150.9,79.7z"/>
	<path class="st0" d="M153.8,79.7c0,0.1-0.3,0.1-0.7,0.1s-0.7-0.1-0.7-0.1s0.3-0.1,0.7-0.1S153.8,79.6,153.8,79.7z"/>
	<ellipse class="st0" cx="155.9" cy="79.7" rx="0.7" ry="0.1"/>
	<path class="st0" d="M159.4,79.9c0,0-0.1-0.1-0.1-0.2L159.4,79.9c-0.2-0.1-0.4-0.1-0.5-0.1c-0.4,0-0.7-0.1-0.7-0.1s0.3-0.1,0.7-0.1
		c0.2,0,0.4,0,0.5,0h0.1v0.1C159.5,79.8,159.4,79.9,159.4,79.9z"/>
	<ellipse class="st0" cx="159.4" cy="82.1" rx="0.1" ry="0.7"/>
	<path class="st0" d="M159.4,85.7c-0.1,0-0.1-0.3-0.1-0.7s0.1-0.7,0.1-0.7s0.1,0.3,0.1,0.7S159.5,85.7,159.4,85.7z"/>
	<path class="st0" d="M159.4,88.6c-0.1,0-0.1-0.3-0.1-0.7s0.1-0.7,0.1-0.7s0.1,0.3,0.1,0.7S159.5,88.6,159.4,88.6z"/>
	<ellipse class="st0" cx="159.4" cy="90.8" rx="0.1" ry="0.7"/>
	<path class="st0" d="M159.4,94.5c-0.1,0-0.1-0.3-0.1-0.7s0.1-0.7,0.1-0.7s0.1,0.3,0.1,0.7S159.5,94.5,159.4,94.5z"/>
	<path class="st0" d="M159.4,97.4c-0.1,0-0.1-0.3-0.1-0.7s0.1-0.7,0.1-0.7s0.1,0.3,0.1,0.7S159.5,97.4,159.4,97.4z"/>
	<ellipse class="st0" cx="159.4" cy="99.6" rx="0.1" ry="0.7"/>
	<path class="st0" d="M159.4,103.2c-0.1,0-0.1-0.3-0.1-0.7s0.1-0.7,0.1-0.7s0.1,0.3,0.1,0.7S159.5,103.2,159.4,103.2z"/>
	<path class="st0" d="M159.4,106.1c-0.1,0-0.1-0.3-0.1-0.7s0.1-0.7,0.1-0.7s0.1,0.3,0.1,0.7S159.5,106.1,159.4,106.1z"/>
	<ellipse class="st0" cx="159.4" cy="108.3" rx="0.1" ry="0.7"/>
	<path class="st0" d="M159.4,112c-0.1,0-0.1-0.3-0.1-0.7s0.1-0.7,0.1-0.7s0.1,0.3,0.1,0.7S159.5,112,159.4,112z"/>
	<path class="st0" d="M159.4,114.9c-0.1,0-0.1-0.3-0.1-0.7s0.1-0.7,0.1-0.7s0.1,0.3,0.1,0.7S159.5,114.9,159.4,114.9z"/>
	<ellipse class="st0" cx="159.4" cy="117.1" rx="0.1" ry="0.7"/>
	<ellipse class="st0" cx="159.4" cy="120" rx="0.1" ry="0.7"/>
	<path class="st0" d="M159.4,123.6c-0.1,0-0.1-0.3-0.1-0.7s0.1-0.7,0.1-0.7s0.1,0.3,0.1,0.7S159.5,123.6,159.4,123.6z"/>
	<ellipse class="st0" cx="159.4" cy="125.8" rx="0.1" ry="0.7"/>
	<ellipse class="st0" cx="159.4" cy="128.7" rx="0.1" ry="0.7"/>
	<rect x="157.5" y="129.2" class="st0" width="3.9" height="3.9"/>
	<rect x="105.6" y="129.7" class="st0" width="3.8" height="3.9"/>
	<rect x="157.5" y="77.4" class="st0" width="3.9" height="3.8"/>
	<rect x="105.6" y="77.8" class="st0" width="3.8" height="3.8"/>
	<circle class="st0" cx="689.3" cy="284.1" r="6"/>
	<path class="st0" d="M701.3,252.4c0-2,1.7-3.7,3.7-3.7s3.7,1.7,3.7,3.7s-1.7,3.7-3.7,3.7l0,0C703,256.1,701.3,254.4,701.3,252.4z"
		/>
	<path class="st0" d="M685.4,226.1c-0.6-1.8,0.4-3.7,2.1-4.3c1.8-0.6,3.7,0.4,4.3,2.1c0.6,1.8-0.4,3.7-2.1,4.3l0,0
		C688,228.9,686,227.9,685.4,226.1z"/>
	<circle class="st0" cx="664.9" cy="344.7" r="5.5"/>
	<circle class="st0" cx="666.3" cy="388" r="4"/>
	<path class="st0" d="M664.7,433.6c0,1.6-1.3,2.8-2.8,2.8c-1.6,0-2.8-1.3-2.8-2.8c0-1.6,1.3-2.8,2.8-2.8l0,0
		C663.4,430.8,664.7,432,664.7,433.6z"/>
	<circle class="st0" cx="681.4" cy="344.7" r="5.5"/>
	<circle class="st0" cx="701.2" cy="384" r="4"/>
	<path class="st0" d="M689.6,428.1c-0.3,1.5-1.9,2.5-3.4,2.1c-1.5-0.3-2.5-1.9-2.1-3.4c0.3-1.5,1.9-2.5,3.4-2.1
		S690,426.6,689.6,428.1z"/>
	<ellipse class="st0" cx="671.1" cy="311.8" rx="9.2" ry="9.2"/>
	<circle class="st0" cx="671.2" cy="272.7" r="6"/>
	<path class="st0" d="M657.1,284.1c0,3.3-2.6,6-5.9,6c-3.3,0-6-2.6-6-5.9s2.6-6,5.9-6l0,0C654.4,278.2,657.1,280.8,657.1,284.1z"/>
	<path class="st0" d="M639.1,315.8c0,2-1.7,3.7-3.7,3.7s-3.7-1.7-3.7-3.7s1.7-3.7,3.7-3.7S639.1,313.8,639.1,315.8L639.1,315.8z"/>
	<path class="st0" d="M655,342.1c0.6,1.8-0.4,3.7-2.1,4.3c-1.8,0.6-3.7-0.4-4.3-2.1c-0.6-1.8,0.4-3.7,2.1-4.3l0,0
		C652.5,339.4,654.4,340.3,655,342.1z"/>
	<path class="st2" d="M708.3,256.5c0,0-9.5,21.4-13.4,26c-2.6-0.9-5-2.3-7-4.2c0,0,11.4-21.7,13.3-25.4L708.3,256.5z"/>
	<path class="st2" d="M707.6,247.9c-0.1-0.4-15-23-15-23l-6.5,4.5l14.2,23.5L707.6,247.9z"/>
	<path class="st2" d="M692,223.5c0,0,9.6-10.8,2.9-14.5s-8.5,9.1-7.9,12.7l5.3,2"/>
	<path class="st0" d="M697.3,453.4h-46.9c0-8.2,6.6-14.8,14.8-14.8l0,0h17.2C690.7,438.6,697.3,445.2,697.3,453.4z"/>
	<path class="st0" d="M671.9,318.7c0.2,0,0.3,26.9,0.3,60.2s-0.1,60.2-0.3,60.2s-0.3-26.9-0.3-60.2S671.8,318.7,671.9,318.7z"/>
	<path class="st2" d="M661.3,314.9c0,0-5.5,8.9-4,26.5h28.8c0,0,1.8-20.9-5-27L661.3,314.9z"/>
	<polygon class="st2" points="658.5,349.3 671.7,349.3 670.5,386.6 661.4,386.6 	"/>
	<polygon class="st2" points="661.2,389.1 658.5,431.9 665.1,433.1 671,390.4 	"/>
	<path class="st2" d="M655.6,438.6c0,0,0.1-5.3,5.4-5.5s5.9,5.5,5.9,5.5H655.6z"/>
	<polygon class="st2" points="677.8,350.8 689.8,345.3 704.1,379.7 695.9,383.4 	"/>
	<polygon class="st2" points="696.1,384 684,425.1 690.1,427.8 705.4,387.4 	"/>
	<path class="st2" d="M681.1,431.4c0.3,0.6,16.2,6.5,16.2,6.5s3.8-3.4-8.1-8.8l-2.5-1.1c-1.9-0.9-4.1-0.1-5,1.8
		c-0.1,0.1-0.1,0.2-0.1,0.3L681.1,431.4z"/>
	<path class="st2" d="M656.4,276c-0.4,0.1,0.4,23.5,5.5,32.2c0,0,18.5-0.6,18.9,0s6.4-20.4,5.9-31.7
		C686.8,276.5,673.8,271.9,656.4,276z"/>
	<path class="st2" d="M668.6,239.6c0,0-11.8,0.3-9.6,15.3c2.2,15,4.6,15,4.7,15.4s14.8-1,14.8-1S686.6,239,668.6,239.6z"/>
	<path class="st2" d="M632.1,311.8c0,0,9.5-21.4,13.4-26c2.6,0.9,5,2.3,7,4.2c0,0-11.4,21.7-13.3,25.4L632.1,311.8z"/>
	<path class="st2" d="M632.8,320.3c0.1,0.4,15,23,15,23l6.5-4.5l-14.2-23.5L632.8,320.3z"/>
	<path class="st2" d="M648.1,345.5c0,0-9.6,10.8-2.9,14.5s8.5-9.1,7.9-12.7l-5.3-2"/>
	<rect x="629.3" y="107" class="st1" width="43.8" height="75.1"/>
	<rect x="629.3" y="107" class="st0" width="43.8" height="6.3"/>
	<polygon class="st0" points="639.8,121.2 640.3,128.2 642.3,125.7 645.5,125.5 	"/>
	<path class="st0" d="M658.7,121.2L658.7,121.2l0.4,0.3l1.2,0.9l4.2,3.1l0.2,0.1h-0.2l-3.2,0.1h-0.1h0.1l-2,2.6l-0.1,0.2v-0.2
		c-0.1-2-0.3-3.8-0.3-5.1c0-0.6-0.1-1.1-0.1-1.4c0-0.1,0-0.3,0-0.4S658.7,121.2,658.7,121.2s0,0.1,0,0.2v0.4c0,0.4,0.1,0.9,0.1,1.5
		c0.1,1.3,0.3,3,0.4,5h-0.1l2-2.6l0,0h0.2l3.2-0.1v0.1l-4.1-3.1l-1.2-0.9l-0.3-0.3L658.7,121.2z"/>
	<path class="st0" d="M638.5,151.7c0,0,2.2-2.3,4.9-5.2s5-5.1,5-5s-2.2,2.3-4.9,5.2S638.5,151.8,638.5,151.7z"/>
	<path class="st0" d="M668.9,146.6c0-0.5-0.1-1-0.2-1.6c-0.3-1.4-1.1-2.7-2.3-3.6c-1.7-1.4-4-1.7-6-0.9c-0.6,0.2-1.1,0.5-1.6,0.9
		s-1,0.9-1.3,1.4c-1.6,2.3-1.6,5.3,0,7.6c0.4,0.5,0.8,1,1.3,1.4s1,0.7,1.6,0.9c2,0.8,4.3,0.4,6-0.9c1.1-0.9,1.9-2.1,2.3-3.6
		C668.8,147.6,668.9,147.1,668.9,146.6v0.4c0,0.2,0,0.3,0,0.5s-0.1,0.5-0.1,0.7c-0.3,1.4-1.1,2.7-2.3,3.6c-1.7,1.4-4.1,1.8-6.1,1
		c-1.2-0.5-2.3-1.3-3-2.3c-1.6-2.3-1.6-5.4,0-7.8c0.4-0.5,0.8-1,1.3-1.4s1-0.7,1.6-0.9c1.1-0.4,2.3-0.5,3.4-0.3
		c1,0.2,1.9,0.6,2.7,1.3c1.1,0.9,1.9,2.2,2.3,3.6c0.1,0.2,0.1,0.4,0.1,0.7c0,0.2,0,0.3,0,0.5L668.9,146.6z"/>
	<path class="st0" d="M663.2,163.3c0,0,0.1,0,0.2,0.1l0.5,0.4l1.7,1.5l0,0l0,0l-7.4,8.4l0,0l0,0l-0.9,0.1l-1.6,0.2h-0.1l0,0
		c0.2-1,0.4-2,0.6-2.9l0,0l0,0c2-2.4,3.7-4.4,5-5.8C661.8,164.5,662.5,163.8,663.2,163.3l-0.1,0.1c-0.1,0.1-0.2,0.2-0.4,0.4
		c-0.3,0.4-0.8,0.9-1.5,1.6c-1.2,1.4-3,3.4-4.9,5.8l0,0c-0.2,0.9-0.4,1.9-0.6,2.9l-0.1-0.1l1.6-0.2l0.9-0.1l0,0
		c3-3.4,5.7-6.4,7.4-8.4v0.1l-1.7-1.5l-0.4-0.4L663.2,163.3z"/>
	<path class="st0" d="M647.2,173.5c0-0.1,0-0.1,0-0.2v-0.6c0-0.5,0-1.3,0-2.2c0-1.9,0-4.5,0-7.6l0.1,0.1H637l0.1-0.1l0,0v5.6
		c0,1.8,0,3.4,0,5l-0.1-0.1h7.4h2.1l0,0h-2.1H637h-0.1v-5c0-0.9,0-1.8,0-2.7V163l0,0l0.1-0.1h10.3v0.1c0,3.1,0,5.8,0,7.7
		c0,0.9,0,1.6,0,2.1C647.3,173,647.3,173.2,647.2,173.5C647.3,173.4,647.3,173.5,647.2,173.5z"/>
	<path class="st0" d="M638.5,162.9c-0.7,0.1-1.5,0.1-2.2,0.1s-1.5,0-2.2-0.1c0.7-0.1,1.5-0.1,2.2-0.1
		C637,162.8,637.8,162.8,638.5,162.9z"/>
	<path class="st0" d="M637,165c-0.1-1.7-0.1-3.3,0-5C637.1,161.7,637.1,163.3,637,165z"/>
	<path class="st0" d="M673.1,182.1c0,0,0-0.1,0-0.4v-1.1c0-1,0-2.3,0-4.1c0-3.6,0-8.9,0-15.5c0-13.3,0-32-0.1-54.1l0.1,0.1h-43.9
		l0.1-0.1c0,28.7,0,55,0,75.2l-0.1-0.1l32,0.1h8.8h2.3H673.1l-2.9-0.1h-8.8l-32,0.1h-0.1V182c0-20.2,0-46.5,0-75.2v-0.1h44.1v0.3
		c0,22,0,40.8-0.1,54.1c0,6.6,0,11.9,0,15.5c0,1.8,0,3.2,0,4.1c0,0.5,0,0.8,0,1S673.1,182.1,673.1,182.1z"/>
	<path class="st3" d="M604.5,65.7h-4.2L591,52.8v-8.4c0,0-6.5-0.4-5.8,10.7s-0.1,8.3-0.1,8.3s-13.9,0.1-15,1.3
		c-0.8,0.9-1.2,14.7-1.4,22.2c-0.2,3.7,2.2,7.1,5.7,8.2c0.5,0.1,1,0.2,1.5,0.2c3.5,0,21.2-2.8,21.2-2.8h7.3L604.5,65.7L604.5,65.7z"
		/>
	<polygon class="st3" points="616.7,63.4 614.1,92.4 606.8,92.4 606.8,64 	"/>
	<path class="st3" d="M71.2,185.5h3l6.5,9.1v6c0,0,4.6,0.3,4.1-7.5s0-5.8,0-5.8s9.8,0,10.6-0.9c0.6-0.6,0.9-10.4,1-15.6
		c0.1-2.6-1.5-5-4-5.8c-0.3-0.1-0.7-0.1-1.1-0.1c-2.4,0-15,2-15,2h-5.2L71.2,185.5L71.2,185.5z"/>
	<polygon class="st3" points="62.6,187.2 64.5,166.7 69.6,166.7 69.6,186.8 	"/>
</g>
<g id="freepik--Floor--inject-13">
	<path class="st4" d="M717.4,453.1c0,0.1-148.4,0.3-331.4,0.3s-331.4-0.1-331.4-0.3s148.3-0.3,331.4-0.3S717.4,453,717.4,453.1z"/>
</g>
<g id="freepik--Character--inject-13">
	<path class="st5" d="M437,316.5c0,0.5,2.9,4,1.7,7.9c-0.3,1.1-3.2,3.3-3.2,3.3l3,5.3l-17.6,7.5l-8.9-17.3l17.8-5L437,316.5z"/>
	<path class="st2" d="M426.5,296.4c3.5-2.4,4.4-7.3,1.9-10.8c-0.1-0.1-0.1-0.2-0.2-0.3c-1.9-2.3-5.1-3.3-6.6-5.9
		c-1.1-1.9-0.9-4.3-0.5-6.4c0.6-2.1,1-4.3,1-6.5c-0.1-2.2-1.2-4.5-3.2-5.3c-2.9-1.1-5.9,1.3-7.5,4c-3.4,5.6-3.7,12.5-1,18.4
		c1.2,2.5,2.9,4.7,4.2,7.2s2.2,5.3,1.5,8"/>
	<path class="st4" d="M418.4,269c-0.6,1.2-1,2.4-1.2,3.6c-0.2,1.4-0.1,2.8,0.2,4.1c0.2,0.8,0.5,1.5,0.9,2.3s1,1.4,1.6,2.1
		c1.3,1.3,2.9,2.2,3.8,3.5c0.9,1.2,1.4,2.6,1.5,4c0.1,1,0,2-0.3,2.9c-0.1,0.4-0.2,0.7-0.5,1c0.4-1.2,0.5-2.5,0.4-3.8
		c-0.1-1.4-0.7-2.7-1.5-3.8c-0.9-1.3-2.4-2.2-3.8-3.5c-0.7-0.7-1.2-1.4-1.7-2.2c-0.4-0.8-0.7-1.6-0.9-2.4c-0.3-1.4-0.4-2.9-0.1-4.3
		c0.2-1,0.5-1.9,1-2.7C417.9,269.6,418.1,269.3,418.4,269z"/>
	<path class="st4" d="M413.7,269.4c-0.6,1.1-1,2.4-1.2,3.6c-0.2,1.4-0.1,2.8,0.2,4.1c0.2,0.8,0.5,1.5,0.9,2.3s1,1.5,1.6,2.1
		c1.3,1.2,2.9,2.2,3.8,3.5c0.9,1.2,1.4,2.6,1.5,4c0.1,1,0,1.9-0.3,2.9c-0.1,0.4-0.2,0.7-0.5,1c0.4-1.2,0.5-2.5,0.4-3.8
		c-0.2-1.4-0.7-2.7-1.5-3.8c-0.9-1.3-2.4-2.2-3.8-3.5c-0.7-0.6-1.2-1.4-1.7-2.2c-0.4-0.8-0.7-1.6-0.9-2.4c-0.3-1.4-0.4-2.9-0.2-4.3
		c0.2-1,0.5-1.9,1-2.7C413.2,270,413.4,269.6,413.7,269.4z"/>
	<path class="st2" d="M421.1,238.6c1.3,0.5,2.2,1.5,2.6,2.8s0.3,2.7-0.1,3.9c-0.3,1.1-0.9,2-1.8,2.7c-0.8,0.7-1.9,1.1-3,1
		c-1.4-0.3-2.7-1.1-3.4-2.4c-1.3-2-1.4-4.5-0.2-6.6c1.3-1.9,4.1-2.8,6-1.5"/>
	<path class="st6" d="M436.7,293.1l3.2,28.3c0.2,2.2-1.3,4.2-3.5,4.6l-17.3,2.9c-2.2,0.4-4.4-1.1-4.8-3.4l-5.1-27.3L436.7,293.1z"/>
	<path class="st4" d="M423.2,300.3l1-0.1l0.9,6.5l-1,0.1L423.2,300.3z"/>
	<path class="st4" d="M425.8,321.6l-1,0.1l-0.3-1.1l-1.2,0.1v1.2l-0.9,0.1l0.3-6.6l1.5-0.2L425.8,321.6z M423.2,319.8l1-0.1
		l-0.9-3.2L423.2,319.8z"/>
	<path class="st4" d="M428.4,321.3c-0.1-0.2-0.2-0.5-0.2-0.8l-0.1-1c-0.1-0.6-0.3-0.8-0.8-0.8h-0.4l0.3,2.6l-1,0.1l-0.8-6.5l1.5-0.2
		c0.7-0.2,1.4,0.2,1.6,0.9c0,0.1,0.1,0.3,0.1,0.4l0.1,0.5c0.1,0.5-0.1,1.1-0.5,1.4c0.5,0.1,0.8,0.6,0.8,1.3l0.1,1
		c0,0.3,0.1,0.5,0.2,0.8L428.4,321.3z M426.6,315.8l0.2,2h0.4c0.4,0,0.6-0.2,0.5-0.8l-0.1-0.6c0-0.5-0.2-0.6-0.6-0.6H426.6z"/>
	<path class="st4" d="M428.9,314.6l3.1-0.4l0.1,0.9l-1.1,0.1l0.7,5.5l-1,0.1l-0.7-5.5l-1.1,0.1V314.6z"/>
	<path class="st7" d="M425.4,309.6c-0.5-0.6-1.1-1.2-1.8-1.6c-0.6-0.4-1.4-0.2-1.9,0.4c-0.2,0.4-0.2,0.9,0,1.4
		c0.2,0.4,0.5,0.8,0.9,1.1c1.1,0.9,2.2,1.7,3.5,2.3c1-1,1.7-2.2,2.1-3.6c0.1-0.4,0.2-0.8,0.1-1.3c-0.1-0.4-0.4-0.8-0.9-0.8
		c-0.4,0-0.8,0.2-1.1,0.5C425.9,308.4,425.6,309,425.4,309.6"/>
	<path class="st5" d="M437,295.8c0,0-9,9.7-7.5,12.9c0.9,1.8,3.3,1.6,4.6-0.1s3.2-3.8,4.4-5.3C440.1,301.4,439.9,295.5,437,295.8z"
		/>
	<path class="st5" d="M438.7,302.6c0,0-8.2,8-6.9,10.6s3.8,1.1,4.9-0.4s2-2.8,3-4C441.3,307.1,441.6,301.6,438.7,302.6z"/>
	<path class="st5" d="M439.4,309c0,0-5.8,6.3-4.8,8.4s2.3,1.6,3.2,0.5s2.1-2.5,2.9-3.5C441.6,313.1,441.2,308.5,439.4,309z"/>
	<path class="st5" d="M412,322.9l-4.7-10.9l10.9-12.4c0,0,2.7,1.7,1.1,5.4s-5.7,7-5.7,7l0.3,10.9H412z"/>
	<path class="st6" d="M415.7,301.9c0,0.3-2.2-0.2-5.2,1.1c-1.7,0.7-3.2,1.9-4.3,3.4c-2.6,3.8-2.3,8.9,0.9,12.3
		c1.3,1.3,3,2.3,4.8,2.7c3.1,0.8,5.2,0,5.3,0.3c0,0.1-0.4,0.4-1.4,0.6c-1.3,0.3-2.8,0.4-4.1,0.1c-2.1-0.4-4-1.3-5.5-2.8
		c-3.8-3.8-4.2-9.9-1-14.2c1.3-1.7,3.1-2.9,5-3.6c1.3-0.5,2.7-0.6,4.1-0.5C415.3,301.6,415.8,301.8,415.7,301.9z"/>
	<path class="st8" d="M439.1,302.2c-2,2.9-4.2,5.6-6.7,8.1c0.9-1.5,2-2.9,3.2-4.2C436.5,304.6,437.7,303.3,439.1,302.2z"/>
	<path class="st8" d="M440.1,308.7c-0.6,1.3-1.4,2.4-2.3,3.4c-0.8,1.1-1.8,2.2-2.9,3c0.7-1.2,1.5-2.3,2.5-3.3
		C438.2,310.7,439.1,309.6,440.1,308.7z"/>
	<path class="st8" d="M434.3,328.6c-1.4,0.8-2.8,1.4-4.3,1.9c-1.4,0.6-2.9,1.1-4.5,1.4c1.4-0.8,2.8-1.4,4.3-1.9
		C431.3,329.4,432.8,328.9,434.3,328.6z"/>
	<path class="st4" d="M420.3,398.8c0,0,3-35.5,1.4-40s-6.5-21.5-6.5-21.5l26.1-7.8c0,0,13.3,35.1,17.9,65.9L420.3,398.8z"/>
	<path class="st4" d="M412.6,422.4l-32.1-36l-0.3,43.8l9,23.3h-96.6l-2.9-54.4l-6.9-58.3c-0.9-7.1,3.2-14,9.9-16.6l26.5-10.4
		l37.3,6.8l15,5.7c6.3,2.4,11.9,6.3,16.3,11.4l45.1,51.6"/>
	<path class="st7" d="M378.2,377.8c1.8,0,3.6-0.2,5.4-0.4c8.8-1.4,16-8,18.1-16.7c0.4-1.8,0.6-3.6,0.8-5.4c0.1,0.5,0.2,1,0.1,1.5
		c0,1.3-0.1,2.7-0.4,4c-1.9,9.1-9.3,16-18.5,17.1c-1.3,0.2-2.7,0.2-4,0.1C379.2,378,378.7,377.9,378.2,377.8z"/>
	<path class="st6" d="M380.4,428.3c0.2,0,0.6-15.1,0.8-33.8s0.2-33.9-0.1-33.9s-0.6,15.1-0.8,33.9S380.2,428.3,380.4,428.3z"/>
	<path class="st4" d="M377.5,439.4L319.4,416c-4.7-1.9-7.9-6.3-8.3-11.3l-4.2-55.7c0,0,0.5-23.7-14.3-24.9l-8.4,3.3
		c-10.9,5.8-13.6,21.6-12.1,33.9c2.1,17.4,3,42,5.3,57.1c1.9,12.3,9,23.2,21.1,26.4l70.7,9L377.5,439.4z"/>
	<path class="st6" d="M307.7,357.5c0.1,0.4,0.2,0.8,0.2,1.3c0.1,0.9,0.2,2.1,0.4,3.7c0.3,3.3,0.7,7.9,1.2,13.5s1.1,12.5,1.7,20
		c0.2,1.9,0.3,3.8,0.5,5.8c0.1,2,0.4,4,0.8,6s1.4,3.8,2.9,5.2c1.6,1.4,3.4,2.5,5.4,3.3c16,6.9,30.8,12.6,41.5,16.7l12.7,4.7l3.5,1.3
		c0.4,0.1,0.8,0.3,1.2,0.5c-0.4-0.1-0.8-0.2-1.2-0.4L375,438c-3-1-7.4-2.5-12.8-4.5c-10.8-3.9-25.6-9.5-41.6-16.5
		c-2-0.8-3.9-2-5.6-3.5c-1.6-1.5-2.7-3.5-3.1-5.6c-0.4-2-0.6-4-0.7-6.1c-0.1-2-0.3-3.9-0.5-5.8c-0.6-7.5-1.1-14.3-1.5-20.1
		s-0.8-10.3-1-13.5c-0.1-1.5-0.2-2.8-0.2-3.7C307.7,358.3,307.6,357.9,307.7,357.5z"/>
	<path class="st4" d="M299.2,426.8c0.1-1.1,0.5-2.1,1-3.1c2.4-4.8,6.7-8.4,11.8-10.1c1-0.4,2.1-0.6,3.2-0.6c0,0.1-1.2,0.4-3,1.1
		c-4.8,1.9-8.9,5.3-11.5,9.8C299.8,425.6,299.4,426.8,299.2,426.8z"/>
	<path class="st7" d="M310.7,384.4c0,0,0.1,0,0.4,0.2l1,0.5c1.3,0.7,2.7,1.3,4.1,1.8c5.2,1.8,10.8,2.3,16.3,1.4
		c8.1-1.4,15.4-5.9,20.2-12.6c2.9-3.8,4.8-8.4,5.4-13.2c0.3-2.5,0-5-0.8-7.5s-2.3-4.7-4.2-6.4c-1.9-1.8-4.3-2.9-6.8-3.3
		s-5,0.3-6.8,1.9c-0.8,0.8-1.3,1.9-1.3,3.1s0.4,2.3,1.1,3.2c1.5,1.8,3.6,2.9,5.9,3.1c4.3,0.6,8.7-0.1,12.7-1.8
		c6.5-2.8,11.4-8.3,13.4-15c0.7-2.3,1.1-4.6,1.1-7c0-1.5-0.1-3-0.3-4.5c-0.1-0.5-0.2-0.9-0.2-1.2s-0.1-0.4,0-0.4
		c0.6,1.9,0.9,4,0.9,6c0,2.4-0.3,4.8-1,7.1c-3.4,11.5-14.6,18.9-26.6,17.5c-2.5-0.2-4.8-1.4-6.4-3.4c-0.8-1-1.3-2.3-1.3-3.6
		c0-1.4,0.6-2.7,1.5-3.6c2-1.8,4.8-2.6,7.5-2.1c2.7,0.4,5.2,1.6,7.2,3.5c2,1.8,3.5,4.1,4.4,6.7c0.8,2.5,1.1,5.1,0.8,7.8
		c-0.6,4.9-2.5,9.6-5.5,13.5c-8.5,11.6-23.7,16.1-37.2,11C314.2,386.5,312.4,385.5,310.7,384.4z"/>
	<path class="st7" d="M272.6,369.5c0.3-0.4,0.6-0.8,1-1.2c1-1,2-1.9,3.1-2.7c3.8-2.6,8.2-4.2,12.9-4.6c2.5-0.3,5.1-0.2,7.6,0.3
		c2,0.4,4,1.1,5.8,2c1.2,0.6,2.4,1.3,3.5,2.2c0.4,0.3,0.8,0.6,1.2,1c-0.1,0.1-1.8-1.2-5-2.6c-4.1-1.9-8.6-2.6-13.1-2.1
		c-4.5,0.4-8.8,1.8-12.6,4.2C274.1,368,272.7,369.6,272.6,369.5z"/>
	<path class="st7" d="M281.9,329.7c1.4,1.3,3,2.5,4.7,3.4c1.9,0.9,3.9,1.5,6,1.8c5.2,0.6,10.3-1.5,13.5-5.6c1.3-1.6,2.3-3.5,3-5.5
		c0.5-1.9,0.9-3.8,0.9-5.7c0.1,0.5,0.2,1,0.2,1.6c0,1.5-0.2,2.9-0.6,4.3c-0.6,2.1-1.6,4.1-3,5.8c-3.3,4.4-8.7,6.6-14.2,5.9
		c-2.2-0.3-4.3-0.9-6.2-2c-1.3-0.7-2.4-1.6-3.5-2.6C282.5,330.6,282.2,330.2,281.9,329.7z"/>
	<path class="st7" d="M332.5,421.3c0-0.4,0-0.7,0.1-1.1c0.2-1,0.5-2,1-3c1.9-3.5,5-6.2,8.7-7.5c4.5-2,10.8-2.4,17.1-0.6
		c3.1,0.9,6.6,2,8.9,5c1.2,1.6,1.4,3.7,0.6,5.5c-0.9,1.7-2.4,3.1-4.1,3.9c-1.7,0.9-3.6,1.3-5.5,1.4s-3.8-0.5-5.3-1.6
		c-1.4-1.2-2.3-2.9-2.4-4.8c-0.1-1.7,0.2-3.4,0.8-5c2.3-5.4,6.6-9.8,12-12.1c3.6-1.6,7.5-2.3,11.4-2c1.4,0.1,2.8,0.4,4.2,0.9
		c0,0.1-1.5-0.4-4.2-0.6c-3.8-0.2-7.7,0.5-11.2,2.2c-2.4,1.1-4.6,2.6-6.5,4.4c-2.2,2.1-3.9,4.6-5,7.4c-0.6,1.5-0.8,3.1-0.7,4.7
		c0.1,1.6,0.9,3.2,2.1,4.3c1.4,1,3.1,1.5,4.8,1.5c1.8-0.1,3.6-0.5,5.2-1.3c1.6-0.7,3-2,3.8-3.5c0.7-1.6,0.5-3.4-0.6-4.7
		c-1-1.3-2.4-2.4-3.9-3.1s-3-1.3-4.6-1.7c-6.2-1.8-12.2-1.5-16.7,0.4c-3.6,1.3-6.7,3.9-8.6,7.2C333.3,418.6,332.8,419.9,332.5,421.3
		z"/>
	<path class="st7" d="M293.8,442.3c0-0.1,2.2-0.3,5.6-1.5c8.9-3.1,15.6-10.6,17.8-19.7c0.9-3.5,0.8-5.7,1-5.7c0.1,0.5,0.1,1,0.1,1.6
		c0,1.4-0.2,2.9-0.5,4.3c-2,9.5-8.9,17.2-18.2,20.1c-1.4,0.4-2.8,0.8-4.2,0.9C294.9,442.3,294.4,442.3,293.8,442.3z"/>
	<path class="st7" d="M275.1,399c0.2-0.1,0.5-0.2,0.7-0.3c0.5-0.1,1.2-0.4,2.1-0.6c2.6-0.7,5.2-1,7.9-0.8c1.9,0.1,3.7,0.6,5.4,1.3
		c2,0.9,3.7,2.2,5,3.9c1.4,2,2.1,4.3,2,6.8c-0.1,1.3-0.5,2.5-1.2,3.6c-0.7,1.2-1.7,2.1-3,2.5c-1.4,0.5-2.9,0.2-3.9-0.8
		c-0.9-1-1.4-2.3-1.4-3.6c-0.1-2.4,0.4-4.7,1.4-6.9c1.6-3.7,4.7-6.6,8.5-8c2.5-1,5.3-1.2,7.9-0.8c0.7,0.1,1.4,0.3,2.1,0.5
		c0.2,0.1,0.5,0.2,0.7,0.3c0,0.1-1-0.3-2.8-0.5c-2.6-0.3-5.2,0-7.7,1c-3.6,1.5-6.5,4.3-8,7.8c-0.9,2.1-1.3,4.3-1.3,6.6
		c0,1.1,0.4,2.2,1.1,3.1c0.9,0.7,2.1,1,3.2,0.6s2-1.2,2.6-2.2s1-2.1,1.1-3.3c0.2-2.2-0.5-4.5-1.8-6.3c-1.2-1.6-2.8-2.9-4.7-3.8
		c-1.6-0.7-3.4-1.2-5.2-1.4c-2.6-0.2-5.2,0-7.8,0.6C276.1,398.8,275.1,399,275.1,399z"/>
	<g class="st9">
		<path d="M360.8,432.8c-6.2-3.5-12.3-6.2-18.8-9.2s-12.9-6.7-17.1-12.5c-8-10.8-7.1-26.4-15.3-37.1c0.5,7.2,1.1,14.3,1.6,21.5
			c0.5,6.6-0.5,13.1,3.7,17.5c3.6,3.8,10.5,6.6,15.4,8.3C340.2,424.6,350.9,429.5,360.8,432.8"/>
	</g>
	<path class="st7" d="M447.6,346.1c-0.2,0.2-0.5,0.3-0.7,0.5c-0.5,0.3-1.2,0.7-2.1,1.3c-2.5,1.7-4.7,3.7-6.6,6
		c-2.8,3.4-4.8,7.4-5.9,11.7c-0.7,2.5-0.7,5.1-0.1,7.6c0.4,1.3,1.1,2.5,2,3.4c1,1,2.2,1.7,3.5,2s2.8,0.1,3.9-0.6s2-1.8,2.6-3
		c0.5-1.2,0.7-2.5,0.5-3.8c-0.2-1.2-0.7-2.4-1.5-3.4c-1.4-1.8-3.6-3-5.9-3.4c-2-0.3-4.1-0.1-6,0.7c-1.6,0.6-3.1,1.4-4.4,2.5
		c-1,0.8-1.9,1.7-2.8,2.6c-0.7,0.8-1.2,1.4-1.6,1.9c-0.2,0.2-0.3,0.5-0.5,0.7c0,0,0-0.1,0.1-0.2s0.2-0.3,0.4-0.5
		c0.3-0.5,0.8-1.1,1.5-1.9c0.8-1,1.8-1.9,2.8-2.7c1.3-1.1,2.8-2,4.4-2.6c2-0.8,4.1-1,6.2-0.8c2.4,0.3,4.6,1.6,6.2,3.5
		c0.8,1,1.4,2.3,1.6,3.6c0.2,1.4,0.1,2.8-0.5,4.1c-0.6,1.3-1.5,2.5-2.8,3.2c-1.3,0.8-2.8,1-4.3,0.7c-1.4-0.3-2.8-1.1-3.8-2.2
		c-1-1-1.7-2.3-2.1-3.7c-0.7-2.6-0.6-5.3,0.1-7.9c1.9-7.3,6.4-13.7,12.8-17.8c0.7-0.4,1.4-0.8,2.1-1.2
		C447,346.3,447.3,346.2,447.6,346.1z"/>
	<path class="st6" d="M337.3,453.4c-0.3,0-0.6-0.1-0.9-0.2l-2.4-0.5l-9-1.8c-3.8-0.7-8.4-1.6-13.4-2.7c-2.5-0.5-5.1-1.1-7.9-1.7
		s-5.6-1.5-8.3-2.5c-5.2-2.2-9.7-5.9-12.8-10.6c-2.3-3.9-4-8.2-5-12.7c-0.7-3-1.2-6-1.4-9.1c-0.1-1.1-0.1-1.9-0.1-2.5
		c0-0.3,0-0.6,0-0.9c0.1,0.3,0.1,0.6,0.1,0.9c0,0.6,0.1,1.4,0.2,2.5c0.3,3,0.8,6,1.5,9c1,4.4,2.7,8.7,5,12.6
		c3,4.7,7.4,8.3,12.6,10.4c2.7,1,5.4,1.9,8.2,2.5c2.7,0.7,5.4,1.2,7.9,1.8l13.3,2.8c3.8,0.8,6.9,1.4,9,1.9c1.1,0.3,1.9,0.5,2.4,0.6
		C336.8,453.2,337.1,453.3,337.3,453.4z"/>
	<path class="st5" d="M379.2,441.7l3.5-1.6l5.4-6.3c1.9-2.3,4.9-3.3,7.9-2.8l12.5,2.4l-3.4,16.4h-26.9L379.2,441.7z"/>
	<path class="st4" d="M392.5,235.5c-5.3-3.1-12.4,0.6-18-1.9c-3.4-1.5-5.4-5-8.1-7.5c-4.1-3.8-10.7-5.8-16-4.4s-9.1,3.2-11,8.4
		c-3.8-3.6-12.4,0.2-16.1,5s-4.4,10.4-4.4,16.4c0.1,10.4,2.3,20.7,6.4,30.3c0.4,0.8,1,1.8,1.9,1.6c0.6-0.1,1-0.8,1.2-1.4
		c2.1-5,2.7-10.5,3.5-15.9s1.9-10.8,4.7-15.5s7.9-8.3,13.3-8.1c4,0.1,7.7,2.3,10.6,5s5.3,6,8.1,8.9c2.7,2.9,5.9,5.6,9.8,6.7
		s8.5,0.2,11-2.9s1.8-8.6-1.8-10.3c4.3,0.6,8.3-2.4,8.9-6.7C396.8,240.3,395.3,237.1,392.5,235.5L392.5,235.5z"/>
	<path class="st5" d="M326.7,255l-8.3,60.3c-1.4,9.9,5.6,19,15.5,20.4c0.3,0,0.6,0.1,0.9,0.1l0,0c9.6,0.8,18.2-6,19.5-15.6
		c0.6-4.5,1.1-8.3,1.2-8.8c0,0,15.5,0.7,18.7-14.4c1.5-7.3,3.5-22.5,5.1-36.3c1.7-14.8-8.2-28.5-22.8-31.4l-1.5-0.4
		C339.2,226.8,328.5,239.1,326.7,255z"/>
	<path class="st8" d="M355.6,311.2c-7-1.3-13.4-4.6-18.5-9.5c0,0,2.5,11.8,17.8,13.4L355.6,311.2z"/>
	<path class="st4" d="M372.9,269.9c-0.2,1.2-1.3,2-2.5,1.8c-1.2-0.1-2-1.2-1.8-2.4l0,0c0.2-1.2,1.3-2,2.5-1.8
		C372.3,267.7,373.1,268.7,372.9,269.9C373,269.9,373,269.9,372.9,269.9z"/>
	<path class="st4" d="M374.6,267.5c-0.3,0.2-1.7-1.3-4-1.8s-4.2,0.4-4.4,0c-0.1-0.1,0.3-0.6,1.1-1c1.1-0.5,2.4-0.6,3.6-0.4
		s2.3,0.9,3.1,1.8C374.7,266.8,374.8,267.4,374.6,267.5z"/>
	<path class="st4" d="M350.1,266.2c-0.2,1.2-1.3,1.9-2.5,1.8s-2-1.2-1.8-2.3c0,0,0,0,0-0.1c0.2-1.2,1.3-1.9,2.5-1.8
		C349.4,263.9,350.2,265,350.1,266.2C350.1,266.1,350.1,266.2,350.1,266.2z"/>
	<path class="st4" d="M351.8,263.4c-0.3,0.2-1.7-1.3-4-1.8s-4.2,0.4-4.4,0c-0.1-0.1,0.3-0.6,1.1-1c1.1-0.5,2.4-0.6,3.6-0.4
		s2.3,0.9,3.1,1.8C351.8,262.7,351.9,263.3,351.8,263.4z"/>
	<path class="st4" d="M356.8,282.2c1.3-0.1,2.6-0.1,3.9,0.1c0.6,0,1.2,0,1.4-0.3c0.2-0.6,0.2-1.2,0-1.8c-0.3-1.5-0.6-3.2-0.9-4.9
		c-1.1-6.9-1.9-12.5-1.6-12.6s1.4,5.5,2.6,12.4c0.3,1.7,0.5,3.3,0.8,4.9c0.2,0.8,0.2,1.6-0.1,2.4c-0.3,0.4-0.7,0.6-1.1,0.7
		c-0.3,0-0.7,0-1-0.1C358.2,282.6,356.7,282.4,356.8,282.2z"/>
	<path class="st4" d="M349.6,282.5c0.4,0.1-0.1,2.6,1.7,4.8s4.5,2.5,4.5,2.8c0,0.2-0.7,0.4-1.8,0.2c-1.5-0.3-2.8-1.1-3.8-2.2
		c-0.9-1.1-1.4-2.6-1.3-4C349.1,283,349.5,282.4,349.6,282.5z"/>
	<path class="st4" d="M354.2,254.4c-0.4,0.6-2.6-0.2-5.4-0.4s-5.1,0.1-5.4-0.6c-0.1-0.3,0.4-0.8,1.4-1.3c2.7-1,5.7-0.8,8.2,0.7
		C354,253.5,354.4,254.1,354.2,254.4z"/>
	<path class="st4" d="M375.1,260.6c-0.5,0.5-2-0.4-3.9-0.8s-3.6-0.4-3.9-1c-0.1-0.3,0.3-0.8,1.1-1.1c2.2-0.8,4.7-0.2,6.3,1.5
		C375.2,259.8,375.4,260.4,375.1,260.6z"/>
	<path class="st5" d="M325.7,266.4c-0.2-0.2-9.7-5.1-11.5,5.2s9,10,9.1,9.7S325.7,266.4,325.7,266.4z"/>
	<path class="st8" d="M320.8,276.8c0,0-0.2,0.1-0.5,0.2c-0.5,0.1-0.9,0-1.4-0.2c-1-0.6-1.7-2.5-1.4-4.4c0.1-0.9,0.4-1.7,0.9-2.5
		c0.3-0.6,0.9-1.1,1.6-1.2c0.5-0.1,0.9,0.2,1,0.7c0.1,0.3,0,0.5,0,0.5s0.3-0.1,0.2-0.6c0-0.3-0.1-0.5-0.3-0.7
		c-0.2-0.3-0.6-0.4-1-0.4c-0.9,0-1.7,0.5-2.2,1.3c-0.6,0.8-1,1.8-1.1,2.8c-0.3,2.1,0.5,4.2,1.9,4.9c0.5,0.3,1.2,0.3,1.7,0
		C320.7,277.1,320.8,276.9,320.8,276.8z"/>
	<path class="st4" d="M383.2,258.2c-7.1,0.4-14-2.7-18.5-8.2c-3-3.8-5-8.9-9.3-11.2c-3-1.5-6.5-1.7-9.6-0.6c-3.1,1.1-6,2.8-8.4,5.1
		c1.4,8.2-2.3,16.4-5.9,24c-0.3,0.9-0.9,1.6-1.7,2.1c-1.4,0.7-3.1-0.4-3.9-1.7c-1.4-2.1-1.5-4.8-1.5-7.3c0-5.7,1.2-11.4,3.4-16.7
		c2.3-5.3,6-9.8,10.8-13c6.2-3.8,13.6-5,20.6-3.4s13.3,5.4,18.1,10.9c2.3,2.4,4,5.3,4.9,8.6"/>
	<path class="st6" d="M396.1,240c0,0.3-0.1,0.6-0.3,0.9c-0.4,0.8-1.1,1.4-1.9,1.8c-1.3,0.6-2.7,0.8-4.1,0.5
		c-0.9-0.1-1.7-0.4-2.5-0.7c-0.9-0.4-1.8-1-2.4-1.7c-0.7-0.9-1-2.1-0.7-3.2c0.4-1.2,1.5-2.1,2.7-2.2c0.6-0.1,1.3-0.1,1.9,0.1
		c0.6,0.2,1.2,0.6,1.6,1.1c0.8,1.1,1.1,2.5,0.8,3.9c-0.3,1.4-1.2,2.7-2.4,3.4c-1.2,0.8-2.7,1.3-4.2,1.4c-3.1,0.1-6.1-0.9-8.6-2.7
		s-4.7-3.8-6.7-6.1c-1.8-2.1-3.8-4-6-5.8c-2-1.6-4.3-2.6-6.7-3.1c-2.2-0.4-4.4-0.2-6.5,0.4c-3.1,0.9-5.8,2.6-8.1,4.9
		c-0.6,0.6-1.2,1.3-1.8,1.9c-0.4,0.5-0.6,0.7-0.6,0.7s0-0.1,0.1-0.2s0.2-0.3,0.4-0.6c0.5-0.7,1.1-1.4,1.7-2c2.2-2.4,5-4.1,8.1-5.1
		c2.2-0.6,4.4-0.8,6.6-0.4c2.6,0.5,5,1.6,7,3.2c2.2,1.8,4.2,3.7,6.1,5.8c2,2.2,4.2,4.3,6.6,6c2.4,1.8,5.3,2.7,8.3,2.6
		c1.4-0.1,2.7-0.5,3.9-1.3c1.1-0.7,1.9-1.8,2.2-3.1c0.3-1.2,0-2.5-0.7-3.5c-0.7-0.9-1.9-1.4-3.1-1.1c-1.1,0.1-2,0.8-2.4,1.9
		c-0.2,1,0,2,0.6,2.8c0.6,0.7,1.3,1.3,2.2,1.6c0.8,0.3,1.6,0.6,2.5,0.7c1.3,0.3,2.7,0.1,4-0.4c0.8-0.4,1.4-1,1.9-1.7
		C396,240.5,396,240.3,396.1,240z"/>
	<path class="st6" d="M319.6,243.5c1,0.6,2,1.1,3,1.4c1.1,0.3,2.3,0.4,3.5,0.3c1.5-0.2,2.9-0.5,4.2-1.1c2.5-1.1,4.5-2.9,5.8-5.2
		c0.5-1,1-2,1.3-3.1c0,0.3,0,0.6-0.1,0.9c-0.2,0.8-0.5,1.6-0.9,2.3c-1.3,2.5-3.4,4.4-5.9,5.5c-1.4,0.6-2.9,1-4.4,1.1
		c-1.2,0.1-2.5-0.1-3.7-0.5c-0.8-0.3-1.5-0.7-2.2-1.2C320,244,319.8,243.8,319.6,243.5z"/>
	<path class="st6" d="M318.6,251.1c0-0.1,1.2,0.4,3.1,0.7c5.2,0.8,10.4-1.3,13.6-5.5c1.2-1.6,1.7-2.7,1.8-2.7c0,0.3-0.1,0.6-0.3,0.8
		c-0.3,0.7-0.7,1.4-1.2,2.1c-3.1,4.5-8.6,6.7-14,5.7c-0.8-0.1-1.6-0.4-2.3-0.7C319.1,251.4,318.8,251.3,318.6,251.1z"/>
	<path class="st8" d="M342.1,271.7c-0.2,0-0.3-0.1-0.3-0.3c0-0.2,0.1-0.3,0.3-0.3c0.2,0,0.3,0.1,0.3,0.3l0,0
		C342.4,271.5,342.3,271.7,342.1,271.7z"/>
	<path class="st8" d="M346.7,271.5c-0.2,0-0.4-0.1-0.4-0.3c0-0.2,0.1-0.4,0.3-0.4c0.2,0,0.4,0.1,0.4,0.3c0,0,0,0,0,0.1
		C347,271.4,346.9,271.5,346.7,271.5z"/>
	<path class="st8" d="M349.7,272.1c-0.1,0-0.3-0.2-0.2-0.4s0.1-0.4,0.3-0.4s0.3,0.2,0.2,0.4S349.9,272.1,349.7,272.1z"/>
	<path class="st8" d="M343.7,274.9c-0.1,0-0.2-0.1-0.2-0.2s0.1-0.1,0.3-0.1s0.2,0.1,0.2,0.2S343.9,274.9,343.7,274.9z"/>
	<path class="st8" d="M348,274.8c-0.2,0-0.3-0.2-0.2-0.3c0-0.1,0.1-0.2,0.3-0.2c0.1,0,0.2,0.1,0.2,0.3
		C348.3,274.6,348.2,274.8,348,274.8L348,274.8z"/>
	<ellipse class="st8" cx="369.6" cy="276.1" rx="0.3" ry="0.3"/>
	<path class="st8" d="M372.7,276.8c-0.2,0-0.3-0.2-0.2-0.4c0-0.1,0.2-0.2,0.3-0.2c0.2,0,0.3,0.2,0.2,0.4
		C373,276.6,372.8,276.8,372.7,276.8z"/>
	<path class="st8" d="M366.9,276c-0.1,0-0.2-0.1-0.3-0.2c0-0.1,0.1-0.2,0.3-0.2c0.1,0,0.2,0.1,0.3,0.2
		C367.2,275.9,367.1,276,366.9,276L366.9,276z"/>
	<path class="st8" d="M368.6,279.5c-0.1,0-0.3-0.1-0.3-0.2l0,0c0-0.1,0.1-0.3,0.2-0.3s0.3,0.1,0.3,0.2
		C368.8,279.3,368.7,279.4,368.6,279.5z"/>
	<path class="st8" d="M371.2,279.5c-0.1,0-0.2-0.2-0.1-0.3l0,0c0.1-0.1,0.2-0.1,0.3-0.1l0,0c0.1,0,0.2,0.2,0.1,0.3
		C371.5,279.5,371.4,279.5,371.2,279.5C371.3,279.5,371.3,279.5,371.2,279.5L371.2,279.5z"/>
	<polygon class="st6" points="500.5,388.4 471.2,453.4 343.6,453.4 344.1,450.1 388.3,449.4 410.6,388.7 	"/>
	<path class="st3" d="M442.1,417.9c2.4-1.3,5.5-0.4,6.8,2c0.2,0.4,0.4,0.7,0.5,1.1c0.5,2.6-1.2,5.2-3.8,5.7
		c-0.3,0.1-0.5,0.1-0.8,0.1c-2.1,0.1-4-1.1-4.7-3.1C439.5,421.8,440.1,418.9,442.1,417.9"/>
</g>
<g id="freepik--Books--inject-13">
	<rect x="188.6" y="378.6" class="st2" width="17.6" height="21"/>
	<rect x="109.5" y="377.2" class="st10" width="79.7" height="23.6"/>
	<path class="st10" d="M206.8,379.2h-19.7v-2h19.7c0.6,0,1,0.4,1,1l0,0C207.8,378.8,207.3,379.2,206.8,379.2z"/>
	<path class="st10" d="M206.8,400.9h-19.7v-2h19.7c0.6,0,1,0.4,1,1l0,0C207.8,400.4,207.3,400.9,206.8,400.9z"/>
	<g class="st11">
		<rect x="173.6" y="377.2" width="9.4" height="23.6"/>
	</g>
	<g class="st11">
		<rect x="116.6" y="377.2" width="9.4" height="23.6"/>
	</g>
	<path class="st0" d="M206.3,382.1c0,0-3.8,0.1-8.5,0.1s-8.5,0-8.5-0.1s3.8-0.1,8.5-0.1S206.3,382,206.3,382.1z"/>
	<path class="st0" d="M206.3,385.2c0,0.1-3.8,0.1-8.5,0.1s-8.5,0-8.5-0.1s3.8-0.1,8.5-0.1S206.3,385.1,206.3,385.2z"/>
	<path class="st0" d="M206.3,389.1c0,0.1-3.8,0.1-8.5,0.1s-8.5,0-8.5-0.1s3.8-0.1,8.5-0.1S206.3,389,206.3,389.1z"/>
	<path class="st0" d="M206.3,393c0,0.1-3.8,0.1-8.5,0.1s-8.5,0-8.5-0.1s3.8-0.1,8.5-0.1S206.3,392.9,206.3,393z"/>
	<path class="st0" d="M206.3,396.8c0,0.1-3.8,0.1-8.5,0.1s-8.5,0-8.5-0.1s3.8-0.1,8.5-0.1S206.3,396.8,206.3,396.8z"/>
	<g class="st12">
		<rect x="132.6" y="387" width="35.8" height="4.3"/>
	</g>
	<rect x="188.2" y="401.3" class="st13" width="17.9" height="12.8"/>
	<rect x="112.2" y="400.9" class="st6" width="76.2" height="13.7"/>
	<path class="st6" d="M187.8,401.8H207c0.3,0,0.5-0.2,0.5-0.5l0,0c0-0.3-0.2-0.5-0.5-0.5h-19.2V401.8z"/>
	<path class="st6" d="M187.8,413.6h19.3c0.2,0,0.4,0.2,0.4,0.4l0,0v0.1c0,0.2-0.2,0.4-0.4,0.4l0,0h-19.3l0,0V413.6L187.8,413.6z"/>
	<path class="st0" d="M206.1,403.8c0,0.1-4,0.1-8.9,0.1s-8.9,0-8.9-0.1s4-0.1,8.9-0.1S206.1,403.7,206.1,403.8z"/>
	<path class="st0" d="M206.1,406.2c0,0-4,0.1-8.9,0.1s-8.9,0-8.9-0.1s4-0.1,8.9-0.1S206.1,406.1,206.1,406.2z"/>
	<path class="st0" d="M206.1,408.6c0,0.1-4,0.1-8.9,0.1s-8.9,0-8.9-0.1s4-0.1,8.9-0.1S206.1,408.5,206.1,408.6z"/>
	<path class="st0" d="M206.1,411c0,0.1-4,0.1-8.9,0.1s-8.9,0-8.9-0.1s4-0.1,8.9-0.1S206.1,411,206.1,411z"/>
	<rect x="190.5" y="415.8" class="st3" width="18.3" height="34.6"/>
	<rect x="104.7" y="414.6" class="st7" width="85.8" height="37.5"/>
	<path class="st7" d="M210.2,452.1h-22.1v-2.4h22.1c0.7,0,1.2,0.5,1.2,1.2l0,0C211.4,451.6,210.9,452.1,210.2,452.1z"/>
	<path class="st7" d="M188.2,414.6h22.2c0.6,0,1.1,0.5,1.1,1.1l0,0v0.2c0,0.6-0.5,1.1-1.1,1.1l0,0h-22.2l0,0V414.6L188.2,414.6z"/>
	<path class="st0" d="M208.8,420.4c0,0.1-4.1,0.1-9.1,0.1s-9.1,0-9.1-0.1s4.1-0.1,9.1-0.1S208.8,420.4,208.8,420.4z"/>
	<path class="st0" d="M208.8,424.9c0,0.1-4.1,0.1-9.1,0.1s-9.1,0-9.1-0.1s4.1-0.1,9.1-0.1S208.8,424.8,208.8,424.9z"/>
	<path class="st0" d="M208.8,429.3c0,0.1-4.1,0.1-9.1,0.1s-9.1,0-9.1-0.1s4.1-0.1,9.1-0.1S208.8,429.3,208.8,429.3z"/>
	<path class="st0" d="M208.8,433.8c0,0.1-4.1,0.1-9.1,0.1s-9.1,0-9.1-0.1s4.1-0.1,9.1-0.1S208.8,433.7,208.8,433.8z"/>
	<path class="st0" d="M208.8,438.2c0,0.1-4.1,0.1-9.1,0.1s-9.1,0-9.1-0.1s4.1-0.1,9.1-0.1S208.8,438.1,208.8,438.2z"/>
	<path class="st0" d="M208.8,442.6c0,0.1-4.1,0.1-9.1,0.1s-9.1,0-9.1-0.1s4.1-0.1,9.1-0.1S208.8,442.6,208.8,442.6z"/>
	<path class="st0" d="M208.8,447.1c0,0.1-4.1,0.1-9.1,0.1s-9.1,0-9.1-0.1s4.1-0.1,9.1-0.1S208.8,447,208.8,447.1z"/>
	<path class="st3" d="M134.1,435.4v2.1c0,2.5-1.3,4-3.7,4s-3.7-1.4-3.7-4v-8.2c0-2.5,1.3-4,3.7-4s3.7,1.4,3.7,4v1.5h-2.3v-1.7
		c0-1.1-0.5-1.5-1.3-1.5s-1.3,0.4-1.3,1.5v8.5c0,1.1,0.5,1.5,1.3,1.5s1.3-0.4,1.3-1.5v-2.2L134.1,435.4L134.1,435.4z"/>
	<path class="st3" d="M135.4,429.3c0-2.5,1.3-4,3.8-4s3.8,1.4,3.8,4v8.2c0,2.5-1.3,4-3.8,4s-3.8-1.4-3.8-4V429.3z M137.9,437.6
		c0,1.1,0.5,1.5,1.3,1.5s1.3-0.4,1.3-1.5v-8.5c0-1.1-0.5-1.5-1.3-1.5s-1.3,0.4-1.3,1.5V437.6z"/>
	<path class="st3" d="M144.5,425.5h2.5V439h4v2.3h-6.5V425.5z"/>
	<path class="st3" d="M151.9,429.3c0-2.5,1.3-4,3.8-4s3.8,1.4,3.8,4v8.2c0,2.5-1.3,4-3.8,4s-3.8-1.4-3.8-4V429.3z M154.4,437.6
		c0,1.1,0.5,1.5,1.3,1.5s1.3-0.4,1.3-1.5v-8.5c0-1.1-0.5-1.5-1.3-1.5s-1.3,0.4-1.3,1.5V437.6z"/>
	<path class="st3" d="M163.4,425.5v12.1c0,1.1,0.5,1.5,1.3,1.5s1.3-0.4,1.3-1.5v-12.1h2.3v12c0,2.5-1.3,4-3.7,4s-3.7-1.4-3.7-4v-12
		H163.4z"/>
	<path class="st3" d="M175.1,441.3c-0.2-0.6-0.3-1.3-0.2-1.9v-2.5c0-1.5-0.5-2-1.6-2h-0.9v6.4h-2.5v-15.7h3.7c2.6,0,3.7,1.2,3.7,3.6
		v1.2c0,1.6-0.5,2.7-1.6,3.2c1.2,0.5,1.6,1.7,1.6,3.4v2.4c0,0.6,0,1.3,0.3,1.9H175.1z M172.4,427.8v4.8h1c0.9,0,1.5-0.4,1.5-1.7
		v-1.5c0-1.1-0.4-1.6-1.3-1.6L172.4,427.8L172.4,427.8z"/>
	<path class="st4" d="M133.6,406.3h-1.8l0.1-0.5h4.1l-0.1,0.5h-1.8l-0.9,4.6h-0.5L133.6,406.3z"/>
	<path class="st4" d="M139.4,407.1l-2.8,4.3c-0.5,0.7-0.8,1-1.4,1c-0.3,0-0.7-0.1-0.9-0.3l0.3-0.4c0.2,0.2,0.4,0.3,0.7,0.3
		s0.6-0.1,0.9-0.6l0.3-0.4l-1-3.8h0.5l0.8,3.3l2.1-3.3h0.5V407.1z"/>
	<path class="st4" d="M143.7,408.7c0.1,1.2-0.8,2.2-2,2.3h-0.1c-0.6,0.1-1.2-0.3-1.5-0.8l-0.4,2.2h-0.5l1-5.3h0.5l-0.1,0.6
		c0.4-0.4,0.9-0.7,1.5-0.6c0.9-0.1,1.6,0.5,1.7,1.4C143.7,408.5,143.7,408.6,143.7,408.7z M143.2,408.7c0-0.6-0.4-1.2-1-1.2
		c-0.1,0-0.2,0-0.2,0c-0.9,0-1.7,0.8-1.7,1.7v0.1c0,0.6,0.4,1.2,1,1.2c0.1,0,0.1,0,0.2,0c0.9,0,1.7-0.8,1.7-1.7
		C143.2,408.7,143.2,408.7,143.2,408.7L143.2,408.7z"/>
	<path class="st4" d="M144.3,409.3c0-1.2,0.9-2.2,2.1-2.3h0.1c0.9-0.1,1.6,0.5,1.7,1.4c0,0.1,0,0.2,0,0.2c0.1,1.2-0.9,2.2-2.1,2.3
		c-0.1,0-0.1,0-0.2,0c-0.9,0.1-1.6-0.5-1.7-1.4C144.3,409.5,144.3,409.4,144.3,409.3z M147.8,408.7c0-0.6-0.4-1.2-1-1.2
		c-0.1,0-0.1,0-0.2,0c-0.9,0-1.7,0.8-1.7,1.7v0.1c0,0.6,0.4,1.2,1,1.2c0.1,0,0.1,0,0.2,0c0.9,0,1.7-0.8,1.7-1.7
		C147.8,408.8,147.8,408.7,147.8,408.7z"/>
	<path class="st4" d="M153.3,407.1l-0.7,3.4c0,1.1-1,2-2.1,1.9c-0.1,0-0.1,0-0.2,0c-0.6,0-1.2-0.2-1.7-0.6l0.3-0.4
		c0.4,0.4,0.9,0.5,1.4,0.5c0.8,0.1,1.6-0.5,1.7-1.3c0,0,0,0,0-0.1l0.1-0.4c-0.4,0.4-0.9,0.7-1.5,0.7c-0.8,0.1-1.6-0.5-1.7-1.3
		c0-0.1,0-0.1,0-0.2c0-1.2,0.9-2.1,2.1-2.2h0.1c0.6-0.1,1.2,0.3,1.5,0.9l0.2-0.8L153.3,407.1z M152.4,408.6c0-0.7-0.5-1.1-1.3-1.1
		c-0.9,0-1.6,0.7-1.7,1.6v0.1c0,0.7,0.5,1.1,1.3,1.1c0.9,0,1.6-0.7,1.7-1.6C152.4,408.7,152.4,408.7,152.4,408.6z"/>
	<path class="st4" d="M156.6,407l-0.1,0.5h-0.1c-0.8,0-1.5,0.6-1.6,1.4l-0.4,1.9h-0.5l0.8-3.8h0.5l-0.1,0.7
		C155.4,407.3,156,407,156.6,407z"/>
	<path class="st4" d="M161,407.1l-0.8,3.8h-0.5l0.1-0.6c-0.4,0.4-0.9,0.6-1.5,0.6c-0.9,0.1-1.6-0.6-1.7-1.4c0-0.1,0-0.1,0-0.2
		c-0.1-1.2,0.9-2.2,2-2.3h0.1c0.6-0.1,1.2,0.3,1.5,0.8l0.2-0.8h0.6V407.1z M160.1,408.7c0-0.6-0.4-1.2-1-1.2c-0.1,0-0.1,0-0.2,0
		c-0.9,0-1.7,0.8-1.7,1.7v0.1c0,0.6,0.4,1.2,1,1.2c0.1,0,0.1,0,0.2,0c0.9,0,1.7-0.7,1.7-1.7C160.2,408.8,160.2,408.7,160.1,408.7
		L160.1,408.7z"/>
	<path class="st4" d="M166,408.7c0.1,1.2-0.8,2.2-2,2.3h-0.1c-0.6,0.1-1.2-0.3-1.5-0.8l-0.4,2.2h-0.5l1-5.3h0.5l-0.1,0.6
		c0.4-0.4,0.9-0.6,1.5-0.6c0.9-0.1,1.6,0.5,1.7,1.4C166,408.5,166,408.6,166,408.7z M165.5,408.7c0-0.6-0.4-1.2-1-1.2
		c-0.1,0-0.2,0-0.2,0c-0.9,0-1.7,0.8-1.7,1.7v0.1c0,0.6,0.4,1.2,1,1.2c0.1,0,0.1,0,0.2,0c0.9,0,1.7-0.7,1.7-1.7
		C165.5,408.8,165.5,408.7,165.5,408.7L165.5,408.7z"/>
	<path class="st4" d="M170.6,408.3c0,0.1,0,0.3,0,0.4l-0.4,2.2h-0.5l0.4-2.2c0-0.1,0-0.2,0-0.3c0-0.5-0.3-0.9-1-0.9
		c-0.8,0-1.5,0.6-1.6,1.4l-0.4,2h-0.5l1.1-5.4h0.5l-0.4,2.1c0.4-0.4,0.9-0.6,1.5-0.6c0.7-0.1,1.3,0.4,1.4,1
		C170.7,408.1,170.7,408.2,170.6,408.3z"/>
	<path class="st4" d="M175.5,407.1l-2.8,4.3c-0.5,0.7-0.8,1-1.4,1c-0.3,0-0.7-0.1-0.9-0.3l0.3-0.4c0.2,0.2,0.4,0.3,0.7,0.3
		s0.6-0.1,0.9-0.6l0.3-0.4l-1-3.8h0.5l0.8,3.3l2.1-3.3h0.5V407.1z"/>
	<g class="st9">
		<polygon points="126,414.6 114.2,452.1 104.7,452.1 104.7,414.6 		"/>
	</g>
</g>
<g id="freepik--Plant--inject-13">
	<path class="st7" d="M152.1,359.4c-5.6-3.2-8.5-10.7-8.8-16.9s2.3-12.5,7.4-16c5.5-3.6,12.7-3.7,18.3-0.1c5.5,3.7,8.7,9.9,8.4,16.5
		c-0.4,6.6-3.7,12.6-9,16.5"/>
	<path class="st1" d="M161,360c-0.1-0.5-0.1-0.9-0.1-1.4c0-1-0.1-2.3-0.1-3.8c-0.1-3.2-0.2-7.7-0.4-12.6s-0.5-9.4-0.7-12.6
		c-0.1-1.5-0.2-2.8-0.2-3.8c0-0.5,0-0.9,0-1.4c0.1,0.5,0.2,0.9,0.2,1.4c0.1,0.9,0.2,2.2,0.4,3.8c0.3,3.2,0.6,7.7,0.8,12.6
		s0.3,9.4,0.3,12.6c0,1.6,0,2.9-0.1,3.8C161.1,359.1,161.1,359.5,161,360z"/>
	<path class="st4" d="M145.1,341.1c0,0.1-0.9,0.2-2,0.1s-1.9-0.3-1.9-0.4s0.9-0.2,2-0.1S145.1,341,145.1,341.1z"/>
	<path class="st4" d="M145.4,335.6c-0.1,0.1-0.8-0.1-1.7-0.5s-1.6-0.8-1.5-1s0.8,0.1,1.7,0.5S145.4,335.5,145.4,335.6z"/>
	<path class="st4" d="M148.2,331.5c-0.1,0.1-0.9-0.3-1.8-1s-1.4-1.5-1.3-1.6s0.8,0.5,1.7,1.2S148.3,331.4,148.2,331.5z"/>
	<path class="st4" d="M151,327.7c-0.1,0.1-0.5-0.6-0.9-1.4s-0.6-1.6-0.4-1.6s0.5,0.6,0.9,1.4S151.2,327.6,151,327.7z"/>
	<path class="st4" d="M155.5,324.9c-0.1,0.1-0.6-0.6-0.9-1.6s-0.3-1.8-0.2-1.8s0.4,0.7,0.7,1.6S155.6,324.9,155.5,324.9z"/>
	<path class="st4" d="M163,321.9c0.1,0,0.1,0.6-0.2,1.3s-0.5,1.2-0.7,1.1s-0.1-0.6,0.2-1.3S162.8,321.8,163,321.9z"/>
	<path class="st4" d="M168.5,324.2c0.1,0.1-0.3,0.6-0.8,1.1s-1.1,0.8-1.1,0.7s0.3-0.6,0.8-1.1S168.4,324.1,168.5,324.2z"/>
	<path class="st4" d="M173.4,327.4c0.1,0.1-0.4,0.5-1,1s-1.2,0.6-1.3,0.5s0.4-0.6,1-1S173.3,327.3,173.4,327.4z"/>
	<path class="st4" d="M176.8,332.1c0.1,0.1-0.6,0.5-1.5,0.9s-1.7,0.6-1.7,0.5s0.6-0.5,1.5-0.9S176.8,331.9,176.8,332.1z"/>
	<path class="st4" d="M178.2,337.2c0,0.1-0.7,0.4-1.6,0.5s-1.6,0.1-1.6-0.1s0.7-0.3,1.6-0.5S178.2,337,178.2,337.2z"/>
	<path class="st4" d="M178.9,343.5c-0.1,0.1-0.8-0.1-1.6-0.4s-1.5-0.8-1.4-0.9s0.8,0.1,1.6,0.4S178.9,343.3,178.9,343.5z"/>
	<path class="st4" d="M178.3,348.9c0,0.1-1-0.1-2-0.7s-1.6-1.4-1.5-1.5s0.8,0.5,1.8,1.1S178.3,348.7,178.3,348.9z"/>
	<path class="st4" d="M175.4,353.8c-0.1,0.1-0.8-0.3-1.6-1.1s-1.1-1.5-1-1.6s0.7,0.5,1.4,1.3S175.5,353.7,175.4,353.8z"/>
	<path class="st4" d="M148.7,354.4c0.1,0.1-0.7,0.7-1.7,1.2s-1.9,0.9-2,0.7s0.7-0.7,1.8-1.2S148.7,354.2,148.7,354.4z"/>
	<path class="st4" d="M146.3,349.9c0.1,0.1-0.6,0.5-1.4,0.9s-1.6,0.6-1.6,0.5s0.6-0.5,1.4-0.9S146.3,349.8,146.3,349.9z"/>
	<path class="st4" d="M144.5,346c0,0.1-0.8,0.4-1.7,0.5s-1.8,0.1-1.8,0s0.8-0.4,1.7-0.5S144.5,345.8,144.5,346z"/>
	<path class="st4" d="M150.4,343.8c0.1,0.1-0.7,0.5-1.7,0.6s-1.8-0.1-1.8-0.2s0.8-0.2,1.7-0.3S150.4,343.7,150.4,343.8z"/>
	<path class="st4" d="M155.3,339c0,0.1-0.6,0.4-1.4,0.5s-1.4-0.1-1.4-0.2s0.6-0.2,1.4-0.3S155.2,338.8,155.3,339z"/>
	<path class="st4" d="M156.2,335.1c-0.1,0.1-0.7,0-1.4-0.2s-1.3-0.6-1.3-0.7s0.7,0,1.4,0.2S156.3,334.9,156.2,335.1z"/>
	<path class="st4" d="M158,331.1c-0.1,0.1-0.5-0.2-0.9-0.8s-0.4-1.1-0.2-1.1s0.4,0.4,0.7,0.9S158.1,331,158,331.1z"/>
	<path class="st4" d="M155.8,347.2c0,0.1-0.5,0.4-1.3,0.6c-0.3,0.1-0.7,0.1-1.1,0.1l-0.1-0.3c0.2,0,0.3,0,0.3,0s-0.1,0.1-0.2,0.3
		l-0.1-0.3c0.3-0.2,0.7-0.3,1-0.4C155.2,347.1,155.8,347.1,155.8,347.2z"/>
	<path class="st4" d="M156.9,354.1c0.1,0.1-0.7,0.5-1.6,0.9s-1.7,0.6-1.8,0.4s0.7-0.5,1.6-0.9S156.8,354,156.9,354.1z"/>
	<path class="st4" d="M151.3,351.1c0,0.1-0.4,0.4-1.1,0.6s-1.2,0.3-1.2,0.1s0.4-0.4,1.1-0.6S151.3,350.9,151.3,351.1z"/>
	<path class="st4" d="M151.8,337c0,0.1-0.9,0-1.8-0.3s-1.7-0.8-1.6-0.9s0.8,0.1,1.8,0.4S151.8,336.9,151.8,337z"/>
	<path class="st4" d="M165.1,335.5c0.1,0.1-0.4,0.6-1.1,1s-1.3,0.7-1.3,0.6s0.4-0.6,1.1-1S165,335.4,165.1,335.5z"/>
	<path class="st4" d="M165.8,342.4c0,0.1-0.5,0.4-1.1,0.5s-1.2,0.1-1.2,0s0.5-0.4,1.1-0.5S165.8,342.3,165.8,342.4z"/>
	<path class="st4" d="M166.7,350.2c-0.1,0.1-0.8-0.1-1.6-0.5s-1.4-0.8-1.4-0.9s0.8,0.1,1.6,0.5S166.7,350.1,166.7,350.2z"/>
	<path class="st4" d="M164.9,357.8c-0.1,0.1-0.6-0.3-1-0.8s-0.7-1.1-0.6-1.2s0.6,0.3,1,0.8S165,357.7,164.9,357.8z"/>
	<path class="st4" d="M164.5,330.4c0.1,0.1-0.2,0.5-0.7,0.8s-1,0.3-1,0.1s0.3-0.4,0.8-0.6S164.4,330.3,164.5,330.4z"/>
	<path class="st4" d="M171.1,337.4c0.1,0.1-0.6,0.5-1.4,0.6s-1.5,0-1.5-0.2s0.6-0.2,1.4-0.3S171,337.3,171.1,337.4z"/>
	<path class="st4" d="M169.8,331.1c0.1,0.1-0.5,0.5-1.4,0.8s-1.6,0.3-1.6,0.1s0.6-0.4,1.5-0.6S169.7,331,169.8,331.1z"/>
	<path class="st4" d="M172.5,347.1c-1.5,0.3-3.1,0-4.4-0.8c0.7,0,1.5,0.1,2.2,0.3C171.1,346.7,171.8,346.8,172.5,347.1z"/>
	<path class="st4" d="M170.1,356.2c-0.1,0.1-0.9-0.3-1.6-1.1s-1.2-1.5-1.1-1.6s0.7,0.5,1.5,1.2S170.2,356.1,170.1,356.2z"/>
	<path class="st1" d="M159.4,323.7c-1.7,1-3.2,2.2-4.6,3.6c-3.2,3.5-5.2,7.9-5.7,12.6c-0.2,2.6-0.1,5.2,0.4,7.7
		c0.4,2.1,0.8,4.1,1.4,6.2c0.5,1.7,1,3.1,1.3,4.1c0.2,0.5,0.3,1,0.4,1.5c-0.3-0.5-0.5-0.9-0.6-1.4c-0.4-1-0.9-2.3-1.4-4.1
		c-0.7-2-1.2-4.1-1.6-6.2c-0.5-2.6-0.6-5.2-0.4-7.9c0.5-4.8,2.6-9.3,5.9-12.8c1-1,2.2-1.9,3.4-2.7c0.3-0.2,0.7-0.4,1-0.5
		C159.2,323.7,159.4,323.7,159.4,323.7z"/>
	<path class="st1" d="M166.5,359.7c0.9-1.8,1.7-3.7,2.3-5.6c1.6-4.6,2-9.5,1.4-14.4c-0.4-2.6-1.1-5.2-2.2-7.7
		c-0.9-2-2.2-3.8-3.8-5.3c-1.1-1-2.4-1.8-3.7-2.3c-1-0.4-1.5-0.5-1.5-0.5c0.1,0,0.3,0,0.4,0c0.4,0.1,0.8,0.2,1.2,0.3
		c1.4,0.5,2.7,1.3,3.9,2.3c1.7,1.5,3,3.3,4,5.3c1.2,2.5,1.9,5.1,2.3,7.8c0.7,4.9,0.1,9.9-1.6,14.6c-0.3,0.9-0.7,1.7-0.9,2.4
		s-0.6,1.3-0.9,1.7C167.1,358.8,166.8,359.3,166.5,359.7z"/>
	<polygon class="st4" points="146.3,358.5 175,358.5 175.2,364.2 146.3,364.2 	"/>
	<polygon class="st4" points="148.7,361.3 150.4,378.9 171.4,378.9 173.1,361.5 	"/>
	<path class="st6" d="M175.2,364.3c0,0.1-6.5,0.3-14.4,0.3s-14.4-0.1-14.4-0.3s6.5-0.3,14.4-0.3S175.2,364.1,175.2,364.3z"/>
	<path class="st6" d="M172.3,369.6c-0.2,0.4-0.4,0.8-0.6,1.1c-0.6,1-1.4,1.8-2.2,2.6l-0.1,0.1l-0.1-0.1c-1.7-1.8-3.6-3.5-5.6-4.9
		h0.3l-2.5,2.2l-2.9,2.6l-0.2,0.1l-0.2-0.1l-4.8-4h0.3c-1,1.2-1.8,2.2-2.5,3c-0.3,0.4-0.6,0.7-1,1.1c0.2-0.4,0.5-0.8,0.8-1.2
		l2.4-3.1l0.1-0.2l0.2,0.1l4.9,3.9h-0.3l2.9-2.6l2.5-2.2l0.2-0.1l0.2,0.1c2,1.5,3.9,3.2,5.6,5.1h-0.3
		C170.3,372,171.3,370.9,172.3,369.6z"/>
</g>
<g id="freepik--Window--inject-13">
	<rect x="548.7" y="357.1" class="st1" width="99.9" height="72.9"/>
	<rect x="548.7" y="357.1" class="st10" width="99.9" height="9.1"/>
	<path class="st1" d="M554.1,362c-0.1,0.5-0.6,0.9-1.1,0.9c-0.5-0.1-0.9-0.6-0.9-1.1c0.1-0.5,0.5-0.9,1-0.9
		C553.7,360.9,554.1,361.4,554.1,362z"/>
	<path class="st1" d="M558.3,362c-0.1,0.5-0.6,0.9-1.1,0.9c-0.5-0.1-0.9-0.6-0.9-1.1c0.1-0.5,0.5-0.9,1-0.9
		C557.9,360.9,558.3,361.4,558.3,362z"/>
	<path class="st1" d="M562.5,362c-0.1,0.5-0.6,0.9-1.1,0.9c-0.5-0.1-0.9-0.6-0.9-1.1c0.1-0.5,0.5-0.9,1-0.9
		C562.1,360.9,562.5,361.4,562.5,362z"/>
	<rect x="558.2" y="375.2" class="st10" width="14.2" height="35.8"/>
	<rect x="580.1" y="375.2" class="st3" width="14.2" height="35.8"/>
	<rect x="602" y="375.2" class="st13" width="14.2" height="35.8"/>
	<rect x="624" y="375.5" class="st0" width="14.2" height="35.8"/>
	<rect x="556.5" y="414.9" class="st10" width="86.3" height="8.2"/>
	<polygon class="st4" points="636.2,421.4 638,431.3 639.6,428.5 642.8,433.4 644.5,432.3 641.2,427.4 644.2,427 	"/>
	<path class="st4" d="M648.5,430c0,0,0-0.5,0-1.3s0-2.2,0-3.9c0-3.4,0-8.4,0-14.7c0-12.7-0.1-30.9-0.1-53l0.2,0.2h-99.8l0,0l0.2-0.2
		c0,26.2,0,51,0,72.9l-0.2-0.2l72,0.1h20.5h5.5h1.4h-1.4h-5.4l-20.5,0.1l-72.2,0.1h-0.2v-0.2c0-22,0-46.8,0-72.9v-0.2h0.2h99.8h0.2
		v0.2c0,22.1-0.1,40.4-0.1,53.1c0,6.3,0,11.3,0,14.7c0,1.7,0,3,0,3.8S648.5,430,648.5,430z"/>
</g>
<g id="freepik--design-tool--inject-13">
	<path class="st7" d="M657.2,262.1c0,0.4-25.7,0.6-57.3,0.6s-57.3-0.3-57.3-0.6s25.7-0.6,57.3-0.6S657.2,261.8,657.2,262.1z"/>
	<rect x="598.6" y="259.7" class="st7" width="6.8" height="6.8"/>
	<path class="st7" d="M658.5,262.1c0,1.1-0.9,2-2,2s-2-0.9-2-2s0.9-2,2-2S658.5,261,658.5,262.1z"/>
	<circle class="st7" cx="542.6" cy="262.1" r="2"/>
	<path class="st7" d="M592.2,243.6l8.6,16h1.1l-0.3-12.8c-0.8-0.1-1.3-0.9-1.1-1.6c0.1-0.8,0.9-1.3,1.6-1.1c0.7,0.1,1.2,0.7,1.2,1.4
		s-0.5,1.3-1.1,1.4l0.3,12.8h1l8.1-16.7c-6.2-0.2-7-6.1-7-6.1l-6,0.1C598.7,242.8,592.2,243.6,592.2,243.6z"/>
	<path class="st7" d="M648.5,318.3c0-0.1,0-0.3,0-0.4v-1.2c0-1.1-0.1-2.7-0.3-4.7c-0.4-5.8-1.5-11.4-3.2-16.9
		c-1.2-3.8-2.9-7.4-4.9-10.8c-3.6-6.1-8.9-11-15.1-14.3c-2.3-1.2-4.6-2.2-7.1-3s-5.1-1.4-7.8-1.8s-5.5-0.6-8.2-0.7
		c-11.1-0.4-21.8,2.9-29.4,8.8c-3.6,2.7-6.8,6.1-9.3,10c-2.2,3.3-3.9,6.9-5.1,10.7c-0.3,0.9-0.5,1.7-0.8,2.5s-0.5,1.6-0.7,2.4
		c-0.3,1.6-0.7,3.1-0.9,4.5s-0.4,2.8-0.6,4s-0.2,2.4-0.3,3.4s-0.1,1.9-0.2,2.7s-0.1,1.4-0.1,2s0,0.9-0.1,1.2c0,0.1,0,0.3,0,0.4
		c0-0.1,0-0.3,0-0.4c0-0.3,0-0.7,0-1.2s0-1.2,0-2s0-1.7,0.1-2.7s0.2-2.2,0.3-3.4s0.3-2.6,0.5-4s0.6-3,0.9-4.6
		c0.2-0.8,0.4-1.6,0.7-2.5s0.4-1.7,0.8-2.6c1.2-3.8,3-7.5,5.1-10.8c2.5-3.9,5.6-7.3,9.3-10.1c7.7-5.9,18.5-9.3,29.7-8.9
		c2.8,0.1,5.5,0.3,8.3,0.7c2.7,0.4,5.3,1,7.8,1.8s4.9,1.8,7.2,3c2.2,1.2,4.3,2.6,6.2,4.1c3.6,2.9,6.6,6.4,9,10.4
		c2.1,3.4,3.7,7.1,4.9,10.9c1.7,5.5,2.7,11.3,3,17c0.1,2,0.2,3.6,0.1,4.7c0,0.5,0,0.9,0,1.2C648.5,318,648.5,318.1,648.5,318.3z"/>
</g>
<g id="freepik--light-bulb--inject-13">
	<path class="st7" d="M375,97.8c-1.1-18.4-17-32.3-35.3-31.2c-18.4,1.1-32.3,17-31.2,35.3c0.8,12.9,9,24.2,21.1,28.9
		c0.2,3.9,0.5,8.3,0.5,8.3l29.1-1.9c0,0-0.1-4.8-0.3-8.9C369.5,122,375.7,110.2,375,97.8z"/>
	<path class="st4" d="M348.7,137.9c0,0,0-0.1,0-0.4s0-0.7,0-1.2c0.1-1.1,0.1-2.6,0.3-4.6s0.4-4.5,0.9-7.3c0.5-3.2,1.3-6.4,2.4-9.4
		c0.6-1.8,1.4-3.5,2.4-5.1c0.5-0.9,1.3-1.7,2.1-2.2c1-0.5,2.2-0.6,3.2-0.1c0.5,0.2,0.9,0.7,1.1,1.2s0.2,1.2,0,1.7
		c-0.5,1.1-1.3,1.9-2.4,2.4c-2.2,0.9-4.7,0.9-6.9,0c-2.3-1-4.1-2.9-5-5.2c-0.5-1.2-0.6-2.5-0.4-3.8c0.2-1.4,1.5-2.5,2.9-2.5
		c0.7,0,1.4,0.4,1.8,1.1c0.4,0.6,0.5,1.3,0.4,2c-0.3,1.3-1.1,2.6-2.1,3.4c-2,1.9-4.8,2.9-7.6,2.7c-2.8-0.3-5.3-1.9-6.7-4.4
		c-0.7-1.2-0.9-2.7-0.5-4c0.2-0.7,0.7-1.3,1.4-1.6c0.7-0.3,1.4-0.3,2.1,0c0.6,0.3,1.1,0.8,1.5,1.4c0.3,0.6,0.5,1.2,0.6,1.9
		c0.2,1.3,0.1,2.6-0.3,3.8c-0.6,2.4-2.2,4.5-4.3,5.9c-2,1.3-4.4,1.7-6.8,1.4c-1.2-0.1-2.2-0.6-3.1-1.4s-1-2.2-0.4-3.2
		c0.4-0.5,0.9-0.8,1.5-0.8c0.5-0.1,1.1,0,1.6,0.2c0.9,0.5,1.7,1.2,2.2,2.1c1,1.7,1.7,3.4,2.5,5.1c3.1,6.5,5.3,11.9,6.8,15.6
		c0.7,1.9,1.3,3.3,1.7,4.3c0.2,0.5,0.3,0.9,0.4,1.2l0.1,0.4c0,0-0.1-0.1-0.2-0.4l-0.5-1.1c-0.4-1-1-2.4-1.8-4.3
		c-1.6-3.7-3.8-9.1-6.9-15.6c-0.8-1.6-1.6-3.3-2.5-5c-0.4-0.9-1.2-1.6-2-2c-0.9-0.4-2-0.2-2.7,0.5c-0.5,0.9-0.4,2,0.4,2.7
		s1.8,1.2,2.9,1.3c2.3,0.3,4.6-0.1,6.6-1.4s3.5-3.3,4.1-5.6c0.3-1.2,0.4-2.4,0.2-3.7c-0.1-1.2-0.8-2.4-1.9-2.9
		c-0.5-0.3-1.2-0.3-1.7-0.1c-0.6,0.3-1,0.7-1.2,1.3c-0.4,1.2-0.2,2.6,0.5,3.7c1.3,2.4,3.7,3.9,6.4,4.2c2.7,0.2,5.3-0.8,7.3-2.6
		c1-0.8,1.7-2,2-3.2c0.1-0.6,0-1.2-0.3-1.8c-0.3-0.5-0.8-0.8-1.4-0.9c-0.6,0-1.2,0.2-1.6,0.6s-0.7,1-0.8,1.5
		c-0.2,1.2-0.1,2.4,0.4,3.6c1.7,4.5,6.8,6.8,11.3,5.1c0,0,0.1,0,0.1-0.1c1-0.4,1.8-1.2,2.2-2.2c0.4-1,0-2.1-0.9-2.5s-2-0.4-2.9,0.1
		c-0.8,0.5-1.5,1.2-2,2.1c-0.9,1.6-1.7,3.3-2.4,5.1c-1.1,3-1.9,6.2-2.5,9.4c-0.5,2.8-0.7,5.3-0.9,7.3c-0.2,2-0.3,3.6-0.4,4.6
		c0,0.5-0.1,0.9-0.1,1.2S348.7,137.9,348.7,137.9z"/>
	<path class="st4" d="M357.3,142.9l-25,1.6c-1,0.1-1.9-0.7-2-1.7l0,0c-0.1-1,0.7-1.9,1.8-2l25-1.6c1-0.1,1.9,0.7,2,1.8l0,0
		C359.2,141.9,358.4,142.8,357.3,142.9L357.3,142.9z"/>
	<path class="st4" d="M357.4,144.6l-25,1.6c-1,0-1.9,0.9-1.9,1.9s0.9,1.9,1.9,1.9c0.1,0,0.1,0,0.2,0l2.7-0.2l4.1,6.7
		c0.5,0.8,1.3,1.2,2.2,1.2l8.9-0.6c0.9-0.1,1.7-0.6,2.1-1.5l3.1-7.1l1.9-0.1c1-0.1,1.8-1,1.7-2.1
		C359.2,145.3,358.4,144.6,357.4,144.6L357.4,144.6z"/>
	<g class="st12">
		<path class="st1" d="M319.1,80.2c1.8-2,4-3.6,6.4-4.8c1.6-0.9,3.3-1.5,5-1.8c1.2-0.2,2-0.1,2,0.1c0.2,0.6-2.3,1.6-5.5,4.1
			c-8.7,6.3-12.9,17.1-10.7,27.6c0.7,4,1.8,6.5,1.3,6.8c-0.2,0.1-0.8-0.3-1.6-1.3c-1.1-1.5-1.9-3.1-2.5-4.8
			c-0.9-2.5-1.4-5.2-1.4-7.9c-0.1-3.3,0.5-6.6,1.7-9.7"/>
	</g>
	<g class="st12">
		<path class="st1" d="M340.6,74.6c-2.1,0.1-4-0.3-4.3-1.4c-0.1-0.5,0.2-1.2,1-1.7c0.9-0.6,2-0.9,3.1-1s2.2,0.1,3.2,0.6
			c0.8,0.4,1.2,1,1.2,1.5"/>
	</g>
	<path class="st6" d="M352.3,156.2c-0.6-0.1-1.2-0.2-1.7-0.4c-1.4-0.3-2.8-0.4-4.3-0.3c-1.4,0.1-2.8,0.5-4.1,1
		c-0.5,0.3-1.1,0.5-1.6,0.7c0.4-0.4,1-0.8,1.5-1c1.3-0.6,2.8-1.1,4.2-1.2c1.5-0.1,3,0,4.4,0.4C351.2,155.6,351.8,155.8,352.3,156.2z
		"/>
	<path class="st6" d="M355.9,148.5c0,0.1-4.5,0.5-10.1,0.9s-10.1,0.6-10.1,0.5s4.5-0.5,10.1-0.9
		C351.3,148.6,355.9,148.4,355.9,148.5z"/>
	<path class="st6" d="M354.5,151.6c-0.8,0.2-1.6,0.3-2.5,0.4c-1.5,0.2-3.6,0.4-5.9,0.6c-2.4,0.2-4.4,0.3-5.9,0.3
		c-0.8,0.1-1.7,0.1-2.5,0c0.8-0.1,1.6-0.2,2.5-0.3l5.9-0.5l5.9-0.5C352.9,151.6,353.7,151.6,354.5,151.6z"/>
</g>
<g id="freepik--Photos--inject-13">
	
		<rect x="147.5" y="189.8" transform="matrix(0.9691 -0.2467 0.2467 0.9691 -46.5895 49.3152)" class="st3" width="52" height="41.6"/>
	<path class="st4" d="M193.5,184l-0.2,0.1l-0.7,0.2l-2.7,0.7l-10.3,2.7l-36.3,9.3l0.1-0.2c3.1,12,6.6,25.7,10.3,40.3l0,0l-0.2-0.1
		l50.4-12.8l-0.1,0.2c-3.1-12.1-5.6-22.2-7.4-29.2c-0.9-3.5-1.6-6.3-2.1-8.2c-0.2-1-0.4-1.7-0.5-2.2L193.5,184c0,0,0.1,0.3,0.2,0.7
		s0.3,1.2,0.6,2.1c0.5,1.9,1.2,4.6,2.1,8.1c1.8,7.1,4.4,17.1,7.5,29.3v0.1h-0.1l-50.4,12.8l-0.1,0.1l-0.1-0.1l0,0
		c-3.7-14.5-7.2-28.3-10.2-40.3v-0.1h0.1l36.5-9.2l10.3-2.6l2.7-0.7l0.7-0.2L193.5,184z"/>
	
		<rect x="149.3" y="192.4" transform="matrix(0.9691 -0.2467 0.2467 0.9691 -46.5813 49.2986)" class="st10" width="48.3" height="36.3"/>
	<polygon class="st10" points="154.5,234.1 165.3,208.1 178.9,219.2 183.9,210.1 201.3,222.2 	"/>
	<path class="st10" d="M179.1,201.7c0.5,2-0.7,4.1-2.7,4.6s-4.1-0.7-4.6-2.7s0.7-4.1,2.7-4.6l0,0
		C176.5,198.5,178.5,199.7,179.1,201.7z"/>
	<g class="st12">
		<polygon points="154.5,234.1 165.3,208.1 178.9,219.2 183.9,210.1 201.3,222.2 		"/>
	</g>
	<g class="st12">
		<path d="M179.1,201.7c0.5,2-0.7,4.1-2.7,4.6s-4.1-0.7-4.6-2.7s0.7-4.1,2.7-4.6l0,0C176.5,198.5,178.5,199.7,179.1,201.7z"/>
	</g>
	
		<rect x="170" y="140.9" transform="matrix(0.9725 -0.2328 0.2328 0.9725 -34.3605 53.4492)" class="st3" width="78.5" height="62.8"/>
	<path class="st4" d="M240.1,132.6l-0.4,0.1l-1.1,0.3l-4.1,1l-15.6,3.8l-55.1,13.3l0.1-0.3c4.4,18.2,9.4,39,14.6,61.1l0,0l-0.3-0.2
		l76.4-18.2l-0.1,0.2c-4.4-18.4-8-33.6-10.5-44.3c-1.3-5.3-2.2-9.5-2.9-12.4c-0.3-1.4-0.6-2.5-0.8-3.3S240.2,132.7,240.1,132.6
		c0,0,0.2,0.4,0.3,1.1c0.1,0.7,0.4,1.8,0.8,3.2c0.7,2.9,1.7,7,3,12.3l10.7,44.4l0.1,0.2l-0.2,0.1l-76.4,18.2l-0.2,0.1l-0.1-0.2l0,0
		c-5.3-22.1-10.2-42.9-14.6-61.1l-0.1-0.2l0.2-0.1l55.3-13.1l15.6-3.7l4.1-1l1.1-0.2L240.1,132.6z"/>
	
		<rect x="172.7" y="144.8" transform="matrix(0.9725 -0.2328 0.2328 0.9725 -34.3514 53.4331)" class="st10" width="73" height="54.9"/>
	<polygon class="st10" points="180.1,207.5 197,168.4 217.3,185.4 225.1,171.8 251.1,190.5 	"/>
	<path class="st10" d="M217.9,159.1c0.7,3.1-1.2,6.2-4.3,6.9s-6.2-1.2-6.9-4.3s1.2-6.2,4.3-6.9C214,154,217.1,155.9,217.9,159.1
		C217.9,159,217.9,159,217.9,159.1z"/>
	<g class="st12">
		<polygon points="180.1,207.5 197,168.4 217.3,185.4 225.1,171.8 251.1,190.5 		"/>
	</g>
	<g class="st12">
		<path d="M217.9,159.1c0.7,3.1-1.2,6.2-4.3,6.9s-6.2-1.2-6.9-4.3s1.2-6.2,4.3-6.9C214,154,217.1,155.9,217.9,159.1
			C217.9,159,217.9,159,217.9,159.1z"/>
	</g>
</g>
<g id="freepik--color-palette--inject-13">
	<path class="st2" d="M454.6,189.7l22.9,9.2c1.5,0.6,3.3-0.1,3.9-1.6l35.1-87.7c0.6-1.5-0.2-3.2-1.7-3.8l-22.9-9.2
		c-1.5-0.6-3.3,0.1-3.9,1.6l-35.1,87.7C452.3,187.4,453.1,189.1,454.6,189.7z"/>
	<path class="st4" d="M454.6,189.7c-0.2-0.1-0.4-0.2-0.6-0.3c-0.6-0.4-1-0.9-1.2-1.5c-0.2-0.5-0.2-1-0.1-1.4
		c0.1-0.6,0.3-1.1,0.6-1.7l1.6-4l10.2-25.6l15.1-37.9l4.4-11l2.3-5.7c0.4-1,0.7-1.9,1.2-2.9c0.6-1,1.6-1.6,2.8-1.6
		c0.6,0,1.1,0.1,1.6,0.4l1.5,0.6l2.9,1.2l6,2.4l12.2,4.9c1.1,0.5,1.9,1.5,2.1,2.7c0,0.6-0.1,1.2-0.3,1.7l-0.6,1.6l-2.4,6.1
		l-4.7,11.8l-9,22.4c-5.7,14.3-10.9,27.1-15.3,37.9l-3.1,7.7c-0.5,1.3-1.9,2-3.3,1.9c-0.6-0.1-1.2-0.3-1.8-0.6l-1.6-0.7l-11-4.5
		l-6.9-2.8c-0.8-0.3-1.4-0.6-1.8-0.7L454.6,189.7c0,0,0.2,0,0.6,0.2l1.8,0.7l7,2.7l11,4.4l1.6,0.6c0.5,0.3,1.1,0.4,1.7,0.6
		c1.2,0.2,2.4-0.5,2.9-1.7l3.1-7.7l15.1-37.9l9-22.3l4.7-11.8l2.4-6.1l0.6-1.5c0.7-1.3,0.1-3-1.2-3.6c-0.1,0-0.1-0.1-0.2-0.1
		l-12.2-4.9l-6-2.4l-3-1.2l-1.5-0.6c-0.4-0.2-0.9-0.3-1.4-0.3c-1,0-1.9,0.5-2.3,1.4s-0.8,1.9-1.2,2.8l-2.3,5.7l-4.4,11l-15.3,37.8
		L455,180.8l-1.6,4c-0.2,0.5-0.4,1.1-0.6,1.6c-0.1,0.5,0,0.9,0.1,1.4c0.2,0.6,0.6,1.1,1.1,1.5C454.4,189.6,454.6,189.7,454.6,189.7z
		"/>
	
		<rect x="490.1" y="99.8" transform="matrix(0.3661 -0.9306 0.9306 0.3661 211.5659 535.4053)" class="st10" width="17.3" height="25.2"/>
	
		<rect x="469.5" y="152.1" transform="matrix(0.3661 -0.9306 0.9306 0.3661 149.8055 549.4026)" class="st10" width="17.3" height="25.2"/>
	
		<rect x="476.3" y="134.7" transform="matrix(0.3661 -0.9306 0.9306 0.3661 170.3219 544.6994)" class="st10" width="17.3" height="25.2"/>
	
		<rect x="483.3" y="117.3" transform="matrix(0.3661 -0.9306 0.9306 0.3661 190.9915 540.0933)" class="st10" width="17.3" height="25.2"/>
	<g class="st14">
		<rect x="490.1" y="99.8" transform="matrix(0.3661 -0.9306 0.9306 0.3661 211.5659 535.4053)" width="17.3" height="25.2"/>
	</g>
	<g class="st15">
		<rect x="469.5" y="152.1" transform="matrix(0.3661 -0.9306 0.9306 0.3661 149.8055 549.4026)" width="17.3" height="25.2"/>
	</g>
	<g class="st16">
		<rect x="476.3" y="134.7" transform="matrix(0.3661 -0.9306 0.9306 0.3661 170.3219 544.6994)" width="17.3" height="25.2"/>
	</g>
	<g class="st17">
		<rect x="483.3" y="117.3" transform="matrix(0.3661 -0.9306 0.9306 0.3661 190.9915 540.0933)" width="17.3" height="25.2"/>
	</g>
	<path class="st2" d="M454.4,186.4l19.8,14.8c1.3,1,3.1,0.7,4.2-0.5l55.7-74.6c0.9-1.3,0.6-3.1-0.7-4.1l-19.8-14.8
		c-1.3-1-3.1-0.8-4.2,0.5l-55.7,74.5C452.8,183.6,453.1,185.5,454.4,186.4z"/>
	<path class="st4" d="M454.4,186.4c-0.2-0.1-0.4-0.3-0.5-0.4c-0.4-0.5-0.7-1.1-0.8-1.7c-0.1-0.5,0-1,0.2-1.4c0.3-0.5,0.6-1,1-1.4
		l2.5-3.4l16.2-21.9l24.1-32.4l7-9.4l3.6-4.8l0.9-1.2c0.3-0.4,0.6-0.9,1-1.2c0.9-0.7,2.1-0.9,3.1-0.5c0.5,0.2,1,0.5,1.4,0.9l1.3,0.9
		c0.8,0.6,1.7,1.3,2.5,1.9c1.7,1.3,3.3,2.5,5.1,3.8c3.4,2.6,6.9,5.2,10.4,7.8c1,0.7,1.5,1.9,1.3,3.1c-0.1,0.6-0.4,1.1-0.7,1.6
		l-1,1.3l-3.9,5.2l-7.5,10.1l-14.3,19.1l-24.2,32.3c-1.7,2.3-3.3,4.5-4.9,6.6c-1,1-2.5,1.2-3.7,0.6c-1.1-0.7-1.9-1.4-2.9-2.1
		c-3.7-2.7-6.8-5.1-9.4-7.1c-2.6-1.9-4.5-3.4-5.9-4.5l-1.5-1.2C454.5,186.5,454.4,186.4,454.4,186.4c0-0.1,0.2,0.1,0.5,0.3
		c0.3,0.3,0.9,0.6,1.6,1.1c1.4,1,3.4,2.5,6,4.4l9.4,7c0.9,0.7,1.9,1.4,2.8,2c1.1,0.6,2.4,0.4,3.3-0.5c1.6-2,3.2-4.3,4.9-6.6
		l24.1-32.4l14.3-19.1l7.5-10.1l3.9-5.2l1-1.3c0.3-0.4,0.5-0.9,0.6-1.4c0.1-1-0.3-2-1.1-2.6l-10.4-7.8l-5.1-3.8l-2.5-1.9l-1.3-0.9
		c-0.4-0.3-0.8-0.6-1.2-0.8c-0.9-0.3-1.9-0.2-2.7,0.4c-0.3,0.3-0.7,0.7-0.9,1.1l-0.9,1.2l-3.6,4.8l-7,9.3l-24.2,32.3L457,178.1
		l-2.6,3.4c-0.4,0.4-0.7,0.9-1,1.4c-0.2,0.4-0.3,0.9-0.2,1.3c0,0.6,0.3,1.2,0.7,1.7C454.2,186.3,454.4,186.4,454.4,186.4z"/>
	
		<rect x="507" y="113.2" transform="matrix(0.5936 -0.8048 0.8048 0.5936 108.2887 466.0876)" class="st10" width="17.3" height="25.2"/>
	
		<rect x="473.6" y="158.5" transform="matrix(0.5936 -0.8048 0.8048 0.5936 58.2875 457.6728)" class="st10" width="17.3" height="25.2"/>
	
		<rect x="484.7" y="143.5" transform="matrix(0.5936 -0.8048 0.8048 0.5936 74.9288 460.4828)" class="st10" width="17.3" height="25.2"/>
	
		<rect x="495.9" y="128.3" transform="matrix(0.5936 -0.8048 0.8048 0.5936 91.6656 463.3252)" class="st10" width="17.3" height="25.2"/>
	<g class="st15">
		<rect x="507" y="113.2" transform="matrix(0.5936 -0.8048 0.8048 0.5936 108.2887 466.0876)" width="17.3" height="25.2"/>
	</g>
	<g class="st12">
		<rect x="473.6" y="158.5" transform="matrix(0.5936 -0.8048 0.8048 0.5936 58.2875 457.6728)" width="17.3" height="25.2"/>
	</g>
	<g class="st9">
		<rect x="484.7" y="143.5" transform="matrix(0.5936 -0.8048 0.8048 0.5936 74.9288 460.4828)" width="17.3" height="25.2"/>
	</g>
	<g class="st11">
		<rect x="495.9" y="128.3" transform="matrix(0.5936 -0.8048 0.8048 0.5936 91.6656 463.3252)" width="17.3" height="25.2"/>
	</g>
	<path class="st2" d="M451.6,187.5l14.7,19.8c1,1.3,2.9,1.6,4.2,0.6l0,0l78.5-58.4c1.3-1,1.6-2.8,0.7-4.2c0,0,0,0,0-0.1L535,125.5
		c-1-1.3-2.9-1.6-4.2-0.6c0,0,0,0-0.1,0l-78.5,58.4C450.9,184.2,450.6,186.1,451.6,187.5C451.5,187.4,451.6,187.5,451.6,187.5z"/>
	<path class="st4" d="M451.6,187.5c-0.1-0.2-0.3-0.4-0.4-0.6c-0.3-0.6-0.3-1.3-0.2-2c0.1-0.5,0.4-0.9,0.7-1.3
		c0.4-0.4,0.9-0.8,1.4-1.1l3.5-2.7l22.7-17l33.7-25.1l9.7-7.2l5-3.7l2.6-1.9c0.4-0.4,0.9-0.6,1.5-0.8c0.6-0.1,1.2-0.1,1.7,0.1
		c0.6,0.2,1.1,0.5,1.5,0.9c0.4,0.5,0.7,0.9,1,1.3c0.6,0.9,1.3,1.7,2,2.6c1.3,1.8,2.6,3.5,3.9,5.3c2.6,3.6,5.3,7.2,8,10.8
		c0.8,1,0.9,2.4,0.3,3.5c-0.3,0.5-0.7,1-1.2,1.3l-1.4,1l-5.4,4l-10.5,7.8l-19.9,14.8l-33.7,25l-6.8,5.1c-0.3,0.2-0.5,0.4-0.8,0.6
		c-0.9,0.5-2,0.6-3,0.2c-0.6-0.3-1.1-0.7-1.4-1.3c-0.4-0.5-0.7-1-1.1-1.5c-2.8-3.8-5.2-7.1-7.2-9.8s-3.5-4.8-4.6-6.2
		c-0.5-0.7-0.9-1.2-1.2-1.7C451.7,187.6,451.6,187.4,451.6,187.5c0-0.1,0.2,0.1,0.5,0.5l1.2,1.6c1.1,1.4,2.7,3.5,4.6,6.1
		c2,2.7,4.5,6,7.3,9.7c0.4,0.5,0.7,1,1.1,1.4c0.3,0.5,0.8,0.9,1.3,1.2c0.6,0.3,1.2,0.3,1.8,0.2c0.6-0.2,1.2-0.5,1.7-0.9l6.8-5.1
		l33.7-25.1l19.9-14.8l10.5-7.8l5.4-4l1.4-1c0.4-0.3,0.8-0.7,1.1-1.1c0.5-0.9,0.4-2.1-0.2-2.9c-2.7-3.7-5.4-7.3-8-10.8
		c-1.3-1.8-2.6-3.6-3.9-5.3c-0.7-0.9-1.3-1.7-2-2.6c-0.3-0.4-0.6-0.9-1-1.3c-0.3-0.4-0.8-0.6-1.2-0.8c-1-0.3-2,0-2.8,0.6l-2.5,1.9
		l-5,3.7l-9.7,7.2l-33.7,25l-23,16.9l-3.6,2.6c-0.5,0.3-0.9,0.7-1.4,1.1c-0.3,0.4-0.6,0.8-0.7,1.3c-0.2,0.6-0.1,1.3,0.1,1.9
		C451.4,187.3,451.6,187.5,451.6,187.5z"/>
	<path class="st4" d="M451.4,187.7c0,0.1-1.1,0.5-2.8,1.7c-2.4,1.7-4.4,4.1-5.7,6.8c-1.9,4-2.1,8.6-0.7,12.8
		c3.1,8.7,12.7,13.3,21.4,10.2c6.1-2.2,10.4-7.7,11.1-14.2c0.3-3-0.2-6-1.4-8.7c-0.2-0.5-0.4-0.9-0.6-1.3c-0.2-0.4-0.4-0.7-0.5-0.9
		c-0.2-0.2-0.3-0.5-0.4-0.8c0.2,0.2,0.4,0.4,0.6,0.7c0.2,0.2,0.4,0.5,0.6,0.8s0.5,0.8,0.7,1.3c1.4,2.8,2,5.9,1.8,9
		c-0.3,4.7-2.6,9-6.2,12c-4.4,3.7-10.4,5-16,3.5c-1.4-0.4-2.8-1-4.1-1.7c-8-4.7-11-14.7-6.9-23c1.4-2.8,3.5-5.1,6.2-6.8
		c0.7-0.4,1.5-0.8,2.2-1.1C451,187.7,451.2,187.7,451.4,187.7z"/>
	<path class="st4" d="M472.7,188.7c1.2,1.7,0.9,4-0.8,5.3c-1.7,1.2-4,0.9-5.3-0.8c-1.2-1.7-0.9-4,0.8-5.3
		C469.1,186.7,471.4,187,472.7,188.7z"/>
	
		<rect x="524.6" y="130.2" transform="matrix(0.8024 -0.5967 0.5967 0.8024 20.1251 346.4169)" class="st10" width="17.3" height="25.2"/>
	
		<rect x="509.6" y="141.3" transform="matrix(0.8024 -0.5967 0.5967 0.8024 10.5251 339.6476)" class="st10" width="17.3" height="25.2"/>
	
		<rect x="494.6" y="152.5" transform="matrix(0.8024 -0.5967 0.5967 0.8024 0.897 332.892)" class="st10" width="17.3" height="25.2"/>
	
		<rect x="479.5" y="163.7" transform="matrix(0.8024 -0.5967 0.5967 0.8024 -8.7817 326.1088)" class="st10" width="17.3" height="25.2"/>
	<g class="st14">
		
			<rect x="479.5" y="163.7" transform="matrix(0.8024 -0.5967 0.5967 0.8024 -8.7817 326.1088)" class="st1" width="17.3" height="25.2"/>
	</g>
	<g class="st16">
		
			<rect x="494.6" y="152.5" transform="matrix(0.8024 -0.5967 0.5967 0.8024 0.897 332.892)" class="st1" width="17.3" height="25.2"/>
	</g>
	<g class="st11">
		
			<rect x="509.6" y="141.3" transform="matrix(0.8024 -0.5967 0.5967 0.8024 10.5251 339.6476)" class="st1" width="17.3" height="25.2"/>
	</g>
</g>
</svg>
