<svg id="ecommerce" xmlns="http://www.w3.org/2000/svg" width="437.001" height="437" viewBox="0 0 437.001 437">
  <g id="Group_12" data-name="Group 12">
    <g id="Group_11" data-name="Group 11">
      <path id="Path_6" data-name="Path 6" d="M389.5,0H47.5A47.039,47.039,0,0,0,0,47.5v266A47.038,47.038,0,0,0,47.5,361H190v19H123.5A47.038,47.038,0,0,0,76,427.5c0,5.7,3.8,9.5,9.5,9.5h266c5.7,0,9.5-3.8,9.5-9.5A47.038,47.038,0,0,0,313.5,380H247V361H389.5A47.038,47.038,0,0,0,437,313.5V47.5A47.039,47.039,0,0,0,389.5,0Zm-76,399c13.3,0,22.8,7.6,26.6,19H96.9c3.8-11.4,15.2-19,26.6-19ZM209,380V361h19v19Zm209-66.5c0,15.2-13.3,28.5-28.5,28.5H47.5C32.3,342,19,328.7,19,313.5V304H418Zm0-28.5H19V47.5C19,32.3,32.3,19,47.5,19h342C404.7,19,418,32.3,418,47.5Z" fill="#00a69c"/>
    </g>
  </g>
  <g id="Group_14" data-name="Group 14" transform="translate(247 209.001)">
    <g id="Group_13" data-name="Group 13">
      <path id="Path_7" data-name="Path 7" d="M305.833,234.667c-15.2,0-28.5,13.3-28.5,28.5s13.3,28.5,28.5,28.5,28.5-13.3,28.5-28.5S321.033,234.667,305.833,234.667Zm0,38c-5.7,0-9.5-3.8-9.5-9.5s3.8-9.5,9.5-9.5,9.5,3.8,9.5,9.5S311.533,272.666,305.833,272.666Z" transform="translate(-277.333 -234.667)" fill="#00a69c"/>
    </g>
  </g>
  <g id="Group_16" data-name="Group 16" transform="translate(74.1 57)">
    <g id="Group_15" data-name="Group 15">
      <path id="Path_8" data-name="Path 8" d="M345.4,88.7c1.9-3.8,0-5.7-3.8-5.7H144l-3.8-11.4c-1.9-3.8-5.7-7.6-9.5-7.6h-38c-5.7,0-9.5,3.8-9.5,9.5S87,83,92.7,83h30.4l36.1,144.4c1.9,3.8,5.7,7.6,9.5,7.6h1.9c5.7-1.9,7.6-5.7,7.6-11.4L170.6,197l150.1-17.1a8.173,8.173,0,0,0,7.6-7.6l19-76C347.3,94.4,347.3,90.6,345.4,88.7ZM315,159,168.7,176.1l-19-76H330.2Z" transform="translate(-83.2 -64)" fill="#00a69c"/>
    </g>
  </g>
  <g id="Group_18" data-name="Group 18" transform="translate(171 209.001)">
    <g id="Group_17" data-name="Group 17">
      <path id="Path_9" data-name="Path 9" d="M220.5,234.667c-15.2,0-28.5,13.3-28.5,28.5s13.3,28.5,28.5,28.5,28.5-13.3,28.5-28.5S235.7,234.667,220.5,234.667Zm0,38c-5.7,0-9.5-3.8-9.5-9.5s3.8-9.5,9.5-9.5,9.5,3.8,9.5,9.5S226.2,272.666,220.5,272.666Z" transform="translate(-192 -234.667)" fill="#00a69c"/>
    </g>
  </g>
</svg>
