<svg xmlns="http://www.w3.org/2000/svg" width="272.58" height="272.58" viewBox="0 0 272.58 272.58">
  <g id="graphity_logo" data-name="graphity logo" transform="translate(-49.57 -247.82)">
    <path id="Path_271" data-name="Path 271" d="M316.28,406.6a74.53,74.53,0,0,0-143.2,29,14.81,14.81,0,1,0,29.61,0,44.928,44.928,0,1,1,89.855,0l-.005,55.12H185.86A106.68,106.68,0,1,1,271,319.8,14.8,14.8,0,1,0,294.64,302,136.29,136.29,0,1,0,185.86,520.4H322.15V435.62a74,74,0,0,0-5.87-29.02Z" fill="#00a69c"/>
  </g>
</svg>
