<svg xmlns="http://www.w3.org/2000/svg" width="182" height="181.912" viewBox="0 0 182 181.912">
  <g id="Group_806" data-name="Group 806" transform="translate(-830 -2487)">
    <g id="Group_802" data-name="Group 802" transform="translate(830 2487)">
      <path id="Path_230" data-name="Path 230" d="M99.1,152.775A14.251,14.251,0,0,1,86.421,144.6a13.358,13.358,0,0,1-.478-10.329,13.7,13.7,0,0,1,7.117-7.932,5.393,5.393,0,0,0,3.4-4.827,68.649,68.649,0,0,1,22.66-45.188c1.8-1.647,3.748-3.146,5.807-4.728.972-.75,10.1-6.688,10.1-6.688h-33.3v7.059c-.016,2.726-1.046,3.789-3.69,3.8q-5.226.012-10.453.016-5.078,0-10.148-.016c-2.52-.008-3.608-1.112-3.608-3.682-.008-2.142.008-4.283.016-6.425.025-4.25.041-8.641-.074-12.973-.008-.288-.008-.568.008-.824A4.182,4.182,0,0,1,77.97,47.87h19.6a4.192,4.192,0,0,1,4.193,4.02c.025.61.025,1.3.008,2.092s-.033,1.631.008,2.463l.1,2.364h22.511q11.5,0,23,.033h0a4.818,4.818,0,0,0,5.041-3.254,11.309,11.309,0,0,1,1.746-2.71c1.936-2.438,4.712-4.036,8.731-5.008h3.731l1.919.568a13.08,13.08,0,0,1,8.7,7.314,4.888,4.888,0,0,0,4.934,3.1q11.552-.037,23.03-.033h22.511l.1-2.364c.033-.84.016-1.664,0-2.463s-.016-1.491.008-2.092a4.192,4.192,0,0,1,4.193-4.02h19.357a4.377,4.377,0,0,1,3.1,1.285h0a4.377,4.377,0,0,1,1.285,3.1V72.268a3.422,3.422,0,0,1-2.471,3.352,7.857,7.857,0,0,1-1.993.214c-.115,0-.239,0-.354-.008-2.29-.066-4.769-.091-7.8-.091-1.763,0-3.534.008-5.3.016s-3.517.016-5.272.016h-.848c-2.8-.008-3.847-1.038-3.863-3.805-.008-1,0-2.01,0-3.048V64.9H194.473s9.118,5.931,10.09,6.68c2.084,1.606,4.053,3.122,5.889,4.786a68.335,68.335,0,0,1,22.7,45.328,5.121,5.121,0,0,0,3.27,4.563,13.729,13.729,0,0,1,7.932,13.714c-.807,6.408-5.23,11.425-11,12.471a15.708,15.708,0,0,1-2.759.255,13.685,13.685,0,0,1-12.215-7.174,13.735,13.735,0,0,1,6.252-19.266,4.155,4.155,0,0,0,2.545-4.563,63.781,63.781,0,0,0-46.926-54.948l-1.837-.5-.955,1.656c-3.031,5.263-7.166,7.825-12.627,7.825-5.478-.008-9.588-2.553-12.6-7.784l-.931-1.614-1.812.453a59.332,59.332,0,0,0-18.648,8.237,63.5,63.5,0,0,0-26.7,37.363,55.49,55.49,0,0,0-1.145,6.038c-.157,1.038-.313,2.076-.5,3.105a4.1,4.1,0,0,0,2.5,4.736c5.222,2.595,7.907,6.738,7.99,12.322s-2.413,9.794-7.421,12.528A13.394,13.394,0,0,1,99.1,152.775ZM99,130.9a7.932,7.932,0,0,0,.091,15.864h.091a7.932,7.932,0,0,0-.091-15.864H99Zm131.42,0a7.97,7.97,0,1,0,.074,0h-.074ZM164.795,53.891a7.928,7.928,0,1,0,7.932,7.932,7.987,7.987,0,0,0-7.924-7.94h-.008Zm69.165,15.8h15.658V54.023H233.96ZM79.955,69.624H95.621V53.957H79.955Z" transform="translate(-73.763 -47.87)" fill="#00a19a"/>
    </g>
    <g id="Group_803" data-name="Group 803" transform="translate(874.213 2531.142)">
      <path id="Path_231" data-name="Path 231" d="M155.544,239.231H142.39a4.616,4.616,0,0,1-3.2-.931,4.256,4.256,0,0,1-.75-3.146,24.622,24.622,0,0,1,8.122-17.446,5.779,5.779,0,0,0,1.919-5.7,72.555,72.555,0,0,0-19.365-38.878c-2.125-2.232-2.191-3.081-.445-5.7q21.239-31.852,42.486-63.7c.972-1.458,2.067-2.265,3.081-2.265,1.03,0,2.142.824,3.138,2.315q21.14,31.7,42.28,63.4c1.969,2.957,1.927,3.649-.437,6.137a72.59,72.59,0,0,0-19.217,38.746,5.8,5.8,0,0,0,1.977,5.675,24.686,24.686,0,0,1,8.1,17.8,3.83,3.83,0,0,1-.783,2.768,4.067,4.067,0,0,1-2.875.923q-6.808.012-13.624.008ZM134.3,169.81l1.26,1.425a78.134,78.134,0,0,1,18.558,37.989l.379,2.059,2.092-.033q2.829-.049,5.585-.107c4.176-.082,8.113-.156,12.117-.156s7.932.074,12.1.156c1.829.033,3.682.074,5.552.1l2.092.033.379-2.059a78.063,78.063,0,0,1,18.541-37.989l1.252-1.425-36.943-55.434c0,7.224.008,31.679-.041,39.027a4.279,4.279,0,0,0,2.891,4.184,13.949,13.949,0,0,1,6.977,18,14.289,14.289,0,0,1-12.594,8.533,10.309,10.309,0,0,1-1.343-.082c-6.524-.8-11.688-5.412-12.561-11.227-1.013-6.754,1.993-12.586,7.842-15.222a4.387,4.387,0,0,0,2.833-4.423c-.033-7.389-.033-14.9-.025-22.166V114.367Zm39.9-7.57a7.988,7.988,0,0,0-7.874,7.99,7.91,7.91,0,0,0,13.566,5.494,7.846,7.846,0,0,0,2.3-5.609,7.956,7.956,0,0,0-7.932-7.874H174.2Z" transform="translate(-127.44 -101.46)" fill="#00a19a"/>
    </g>
  </g>
</svg>
