<?xml version="1.0" encoding="utf-8"?>
<!-- Generator: Adobe Illustrator 24.1.0, SVG Export Plug-In . SVG Version: 6.00 Build 0)  -->
<svg version="1.1" xmlns="http://www.w3.org/2000/svg" xmlns:xlink="http://www.w3.org/1999/xlink" x="0px" y="0px"
	 viewBox="0 0 613.75 500" style="enable-background:new 0 0 613.75 500;" xml:space="preserve">
<style type="text/css">
	.st0{fill:none;stroke:#5DA39A;stroke-miterlimit:10;}
	.st1{fill:#E0E0E0;}
	.st2{fill:#EBEBEB;}
	.st3{fill:#00A69C;}
	.st4{opacity:0.8;}
	.st5{fill:#FFFFFF;}
	.st6{opacity:0.3;}
	.st7{fill:#56354D;}
	.st8{fill:#FFBE9D;}
	.st9{fill:#EB996E;}
	.st10{opacity:0.6;}
	.st11{fill:#263238;}
	.st12{fill:#455A64;}
	.st13{fill:#771055;}
	.st14{fill:#F5F5F5;}
	.st15{fill:#00A79D;}
</style>
<g id="Layer_6">
	<path class="st0" d="M370.82,144.58H557.4c-1.65-14.18-13.69-25.19-28.32-25.19c-2.46,0-4.85,0.31-7.12,0.9
		c-7.12-20.81-26.84-35.77-50.06-35.77"/>
	<path class="st0" d="M355.09,50.41c1.23,0,2.42,0.16,3.56,0.45c3.56-10.4,13.42-17.88,25.03-17.88c9.37,0,17.61,4.88,22.31,12.23
		c2.58-1.23,5.46-1.92,8.5-1.92c10.89,0,19.73,8.83,19.73,19.73h-93.29C341.75,55.92,347.77,50.41,355.09,50.41z"/>
	<path class="st0" d="M76.69,136.83c0-21.61,17.66-39.12,39.45-39.12c9.36,0,17.96,3.24,24.72,8.64c9.53-9.2,22.54-14.87,36.9-14.87
		c16.38,0,31.02,7.38,40.72,18.97c4.65-3.27,10.33-5.2,16.47-5.2c15.75,0,28.52,12.66,28.52,28.28c0,1.12-0.07,2.21-0.2,3.3H76.69z"
		/>
</g>
<g id="Background_Complete">
	<g>
		<g>
			<path class="st1" d="M431.38,364.56c1.99-2.11,4.95-2.9,7.68-3.9c11.95-4.4,21.59-14.66,25.24-26.87
				c3.65-12.21,1.22-26.07-6.36-36.31l0.41-2.12c0.93-9.85,12.83-16.92,21.92-13.02c9.09,3.9,12.18,17.39,5.68,24.86
				c10.67,0.88,17.73,13.05,16.22,23.65c-1.5,10.6-9.26,19.31-17.9,25.64c-14.17,10.38-31.65,16.16-49.21,16.26
				c-1.2,0.01-2.46-0.03-3.49-0.63C429.06,370.66,429.38,366.66,431.38,364.56z"/>
		</g>
	</g>
	<g>
		<g>
			<path class="st1" d="M134.03,321.42c-2.45-3.98-2.8-9.35-0.31-13.31c2.49-3.96,7.95-5.96,12.2-4c-2.38-3.97-0.99-9.73,2.94-12.17
				c3.93-2.45,9.71-1.16,12.22,2.73c2.84,4.39,1.34,10.28-1.1,14.9c-2.44,4.62-4.33,8.4-5.13,13.57c-0.82,5.28-0.25,11.25,2.9,15.55
				c3.16,4.31,7.37,7.7,11.54,11.05l0.79,0.77c-7.47,2.59-16.03,1.85-22.95-1.97c-3.92-2.17-7.55-5.76-7.81-10.23
				c-0.14-2.5,0.79-5,0.41-7.47C139.17,327.17,135.97,324.58,134.03,321.42z"/>
		</g>
	</g>
	<g>
		<g>
			<path class="st1" d="M349.08,484.91c3.89-0.48,7.79-2.19,10.08-5.37c1.46-2.04,2.17-4.52,3.44-6.68
				c1.27-2.16,3.48-4.11,5.97-3.87c3.87,0.38,6.47,5.72,10.24,4.78c2.26-0.57,3.34-3.23,3.36-5.56c0.02-2.33-0.67-4.66-0.38-6.98
				c0.82-6.51,9.17-9.71,15.41-7.67c6.23,2.03,15.71,9.56,19.77,14.7c-4.27,7.11-13.05,9.87-21.09,11.88
				c-13.5,3.39-27.13,6.26-40.85,8.61c-3.22,0.55-6.5,1.08-9.73,0.57c-3.22-0.51-6.43-2.22-7.92-5.12
				C341.26,484.8,345.19,485.39,349.08,484.91z"/>
		</g>
	</g>
	<g>
		<g>
			<path class="st1" d="M194.26,434.15c0.99-4.51,6.54-8.48,12.04-7.44c-4.56-3.05-4.59-9.18-0.98-12.98
				c3.61-3.8,9.87-5.44,15.78-5.29c5.91,0.14,11.58,1.83,17.07,3.61c-2.69-2.78,1.25-7.1,5.59-7.34c4.35-0.23,8.23,2.01,11.75,4.09
				c3.52,2.07,7.59,4.19,11.9,3.64l-4.04,1.31c-9.65,1.18-19.38,3.01-27.73,7.1c-8.35,4.09-15.23,10.75-16.68,18.58
				c-1.44,7.83,3.64,16.59,12.79,19.33c-12.34,0.62-24.9-3.98-32.49-11.89C195.79,443.24,193.27,438.66,194.26,434.15z"/>
		</g>
	</g>
	<g>
		<g>
			<g>
				<g>
					<path class="st1" d="M511.3,290.57c0.14,0,0.26-4.17,0.26-9.31c0-5.14-0.12-9.31-0.26-9.31s-0.26,4.17-0.26,9.31
						C511.04,286.4,511.15,290.57,511.3,290.57z"/>
				</g>
			</g>
		</g>
		<g>
			<g>
				<g>
					<path class="st1" d="M501.67,281.25c0,0.14,4.31,0.26,9.63,0.26c5.32,0,9.63-0.12,9.63-0.26s-4.31-0.26-9.63-0.26
						C505.98,280.99,501.67,281.11,501.67,281.25z"/>
				</g>
			</g>
		</g>
	</g>
	<g>
		<g>
			<g>
				<g>
					<path class="st1" d="M139.81,386.3c0.14,0,0.26-4.17,0.26-9.31c0-5.14-0.12-9.31-0.26-9.31s-0.26,4.17-0.26,9.31
						C139.55,382.13,139.67,386.3,139.81,386.3z"/>
				</g>
			</g>
		</g>
		<g>
			<g>
				<g>
					<path class="st1" d="M130.19,376.99c0,0.14,4.31,0.26,9.63,0.26c5.32,0,9.63-0.12,9.63-0.26c0-0.14-4.31-0.26-9.63-0.26
						C134.5,376.73,130.19,376.84,130.19,376.99z"/>
				</g>
			</g>
		</g>
	</g>
	<g>
		<g>
			<g>
				<g>
					<path class="st1" d="M249.9,66.63c0.14,0,0.26-4.17,0.26-9.31c0-5.15-0.12-9.31-0.26-9.31c-0.14,0-0.26,4.17-0.26,9.31
						C249.64,62.46,249.76,66.63,249.9,66.63z"/>
				</g>
			</g>
		</g>
		<g>
			<g>
				<g>
					<path class="st1" d="M240.27,57.32c0,0.14,4.31,0.26,9.63,0.26c5.32,0,9.63-0.12,9.63-0.26c0-0.14-4.31-0.26-9.63-0.26
						C244.58,57.06,240.27,57.18,240.27,57.32z"/>
				</g>
			</g>
		</g>
	</g>
	<g>
		<g>
			<circle class="st1" cx="500.58" cy="203.06" r="5.69"/>
		</g>
	</g>
	<g>
		<g>
			<path class="st1" d="M273.48,445.46c0,3.14,2.55,5.69,5.69,5.69s5.69-2.55,5.69-5.69c0-3.14-2.55-5.69-5.69-5.69
				S273.48,442.31,273.48,445.46z"/>
		</g>
	</g>
	<g>
		<g>
			<path class="st1" d="M220.51,337.89c0,3.14,2.55,5.69,5.69,5.69c3.14,0,5.69-2.55,5.69-5.69c0-3.14-2.55-5.69-5.69-5.69
				C223.06,332.2,220.51,334.75,220.51,337.89z"/>
		</g>
	</g>
	<g>
		<g>
			<path class="st1" d="M389.62,54.47c0,3.14,2.55,5.69,5.69,5.69c3.14,0,5.69-2.55,5.69-5.69c0-3.14-2.55-5.69-5.69-5.69
				C392.17,48.78,389.62,51.33,389.62,54.47z"/>
		</g>
	</g>
	<g>
		<g>
			<circle class="st1" cx="365.5" cy="391.18" r="2.85"/>
		</g>
	</g>
	<g>
		<g>
			<path class="st1" d="M431.32,376.99c0,1.57,1.27,2.85,2.85,2.85c1.57,0,2.85-1.27,2.85-2.85c0-1.57-1.27-2.85-2.85-2.85
				C432.6,374.14,431.32,375.42,431.32,376.99z"/>
		</g>
	</g>
	<g>
		<g>
			<path class="st1" d="M362.74,57.45c0,1.57,1.27,2.85,2.85,2.85c1.57,0,2.85-1.27,2.85-2.85c0-1.57-1.27-2.85-2.85-2.85
				C364.02,54.6,362.74,55.88,362.74,57.45z"/>
		</g>
	</g>
	<g>
		<g>
			<path class="st1" d="M235.8,214.15c0,1.57,1.27,2.85,2.85,2.85s2.85-1.27,2.85-2.85s-1.27-2.85-2.85-2.85
				S235.8,212.58,235.8,214.15z"/>
		</g>
	</g>
	<g>
		<g>
			<g>
				<g>
					<path class="st2" d="M494.56,41.68c0,0,6.34,3.27-2.54,16.55c-8.88,13.28-14.7,19.68-14.7,19.68s-1.67,3.13,1.03,3.96
						c2.7,0.84,8.89,0.59,9.73,4.11c0.86,3.65-2.08,6.66-7.58,8.95c-5.5,2.29-17.38,7.75-18.45,8.24c-1.05,0.49-2.22,1.9-0.47,2.76
						c1.75,0.86,15.25,3.91,13.43,10.23c-1.83,6.32-18.21,10.18-19.99,10.64c-1.78,0.46-2.28,1.13-2.25,2.08
						c0.03,0.95,4.66,1.55,8.47,2.57c3.81,1.02,8.04,2.88,6.68,6.44c-1.36,3.56-11.57,10.17-34.42,9.71l-10.57-0.91l-4.68-9.58
						c-8.77-21.11-6.34-33.03-3.52-35.59c2.82-2.57,6.09,0.7,8.43,3.87c2.34,3.17,4.59,7.27,5.48,6.95c0.9-0.32,1.34-1.03,1.12-2.85
						c-0.23-1.83-2.61-18.48,2.61-22.49c5.22-4.01,12.98,7.45,14.43,8.77c1.44,1.31,2.33-0.29,2.4-1.44
						c0.07-1.18,0.82-14.23,0.94-20.19c0.12-5.96,1.85-9.79,5.57-10.32c3.58-0.51,5.61,5.35,7.38,7.55
						c1.76,2.21,4.07-0.48,4.07-0.48s3.84-7.76,12.96-20.87c9.12-13.11,14.59-8.26,14.59-8.26"/>
				</g>
			</g>
		</g>
		<g>
			<g>
				<g>
					<g>
						<path class="st1" d="M422.08,149.11c6.66-9.66,18.21-27.02,28.2-41.87c9.99-14.85,19.04-28.28,25.65-37.97
							c3.3-4.83,5.98-8.75,7.84-11.47c0.92-1.35,1.63-2.39,2.13-3.12c0.23-0.35,0.42-0.62,0.55-0.82c0.12-0.18,0.18-0.28,0.18-0.28
							s-0.07,0.09-0.2,0.27c-0.14,0.19-0.33,0.46-0.57,0.8c-0.51,0.72-1.24,1.75-2.18,3.08c-1.89,2.68-4.6,6.58-7.93,11.41
							c-6.66,9.66-15.75,23.07-25.73,37.92c-9.99,14.85-21.51,32.23-28.12,41.92"/>
					</g>
				</g>
			</g>
		</g>
		<g>
			<g>
				<g>
					<g>
						<path class="st1" d="M479.42,86.68c-0.01-0.02-0.28,0.02-0.76,0.12c-0.48,0.09-1.18,0.25-2.04,0.45
							c-1.72,0.41-4.07,1.03-6.66,1.77c-2.55,0.74-4.85,1.4-6.61,1.91c-0.8,0.22-1.47,0.41-2.01,0.57
							c-0.47,0.13-0.73,0.21-0.73,0.24c0.01,0.02,0.28-0.02,0.76-0.11c0.48-0.1,1.18-0.25,2.04-0.47c1.71-0.43,4.06-1.08,6.64-1.82
							c2.55-0.72,4.86-1.37,6.62-1.86c0.8-0.22,1.47-0.41,2.01-0.56C479.17,86.79,479.43,86.71,479.42,86.68z"/>
					</g>
				</g>
			</g>
		</g>
		<g>
			<g>
				<g>
					<g>
						<path class="st1" d="M459.98,90.98c0.09-0.02-0.99-4.93-2.4-10.97c-1.41-6.04-2.63-10.92-2.72-10.89
							c-0.09,0.02,0.99,4.93,2.4,10.97C458.67,86.12,459.89,91,459.98,90.98z"/>
					</g>
				</g>
			</g>
		</g>
		<g>
			<g>
				<g>
					<g>
						<path class="st1" d="M445.66,114.48c0.02-0.01-0.11-0.26-0.35-0.7c-0.28-0.5-0.63-1.12-1.05-1.86
							c-0.88-1.57-2.09-3.74-3.33-6.18c-1.25-2.44-2.3-4.69-3.05-6.32c-0.35-0.77-0.65-1.42-0.89-1.93c-0.21-0.46-0.34-0.7-0.36-0.7
							c-0.02,0.01,0.07,0.27,0.24,0.75c0.18,0.47,0.45,1.15,0.8,1.98c0.7,1.66,1.72,3.93,2.97,6.38c1.25,2.45,2.49,4.61,3.42,6.15
							c0.47,0.77,0.86,1.39,1.14,1.8C445.48,114.26,445.65,114.49,445.66,114.48z"/>
					</g>
				</g>
			</g>
		</g>
		<g>
			<g>
				<g>
					<g>
						<path class="st1" d="M464.11,114.46c0-0.02-0.26-0.05-0.72-0.07c-0.54-0.02-1.19-0.05-1.97-0.08
							c-1.66-0.05-3.96-0.1-6.49-0.13c-2.54-0.03-4.83-0.04-6.5-0.03c-0.78,0.01-1.43,0.02-1.97,0.03
							c-0.46,0.01-0.72,0.03-0.72,0.06c0,0.02,0.26,0.05,0.72,0.07c0.54,0.02,1.19,0.05,1.97,0.08c1.66,0.05,3.96,0.1,6.49,0.13
							c2.54,0.03,4.83,0.04,6.49,0.03c0.78-0.01,1.43-0.02,1.97-0.03C463.85,114.5,464.11,114.48,464.11,114.46z"/>
					</g>
				</g>
			</g>
		</g>
		<g>
			<g>
				<g>
					<g>
						<path class="st1" d="M454.11,136.81c0-0.02-0.33-0.05-0.92-0.08c-0.66-0.03-1.5-0.06-2.52-0.11
							c-2.13-0.08-5.07-0.16-8.32-0.23c-3.25-0.07-6.19-0.12-8.32-0.13c-1.02,0-1.87,0-2.52,0c-0.6,0.01-0.93,0.02-0.93,0.04
							c0,0.02,0.33,0.05,0.92,0.08c0.66,0.03,1.5,0.06,2.52,0.11c2.13,0.08,5.07,0.16,8.32,0.23c3.25,0.07,6.19,0.12,8.32,0.13
							c1.02,0,1.87,0,2.52,0C453.78,136.85,454.11,136.83,454.11,136.81z"/>
					</g>
				</g>
			</g>
		</g>
		<g>
			<g>
				<g>
					<g>
						<path class="st1" d="M431.13,136.16c0.02-0.01-0.13-0.33-0.42-0.9c-0.32-0.62-0.74-1.43-1.24-2.4
							c-1.05-2.03-2.48-4.83-3.97-7.97c-1.5-3.14-2.78-6.02-3.7-8.11c-0.44-1-0.8-1.84-1.08-2.47c-0.26-0.58-0.41-0.9-0.43-0.89
							c-0.02,0.01,0.09,0.34,0.31,0.94c0.22,0.6,0.56,1.46,0.99,2.52c0.86,2.12,2.11,5.01,3.61,8.16c1.5,3.15,2.97,5.94,4.07,7.94
							c0.55,1,1.01,1.8,1.33,2.35C430.92,135.87,431.11,136.17,431.13,136.16z"/>
					</g>
				</g>
			</g>
		</g>
	</g>
</g>
<g id="Back_Screens">
	<g>
		<g>
			<g>
				<g>
					<g>
						<path class="st3" d="M352.52,85.51c37.08,2.69,77.55,7.6,107.23,19l-9.37,63.43c0,0-57.53-20.59-104.33-19.16L352.52,85.51z"
							/>
					</g>
				</g>
			</g>
			<g class="st4">
				<g>
					<g>
						<path class="st5" d="M352.52,85.51c37.08,2.69,77.55,7.6,107.23,19l-9.37,63.43c0,0-57.53-20.59-104.33-19.16L352.52,85.51z"
							/>
					</g>
				</g>
			</g>
		</g>
		<g>
			<g>
				<g>
					<path class="st3" d="M355.19,140.41c0,0.01,0.12,0.03,0.36,0.07c0.26,0.04,0.61,0.08,1.05,0.14c0.96,0.12,2.31,0.29,4.05,0.51
						c1.76,0.21,3.91,0.47,6.4,0.83c2.49,0.36,5.33,0.71,8.45,1.23c12.51,1.93,29.72,5.13,48.43,9.96c6.5,1.68,12.77,3.41,18.5,5.21
						l0.28,0.09l0.04-0.29c2-14.54,3.94-27.08,5.43-35.97c0.76-4.42,1.37-7.95,1.79-10.41c0.21-1.19,0.37-2.12,0.49-2.78
						c0.05-0.3,0.09-0.53,0.12-0.72c0.02-0.16,0.03-0.25,0.02-0.25c-0.01,0-0.03,0.08-0.07,0.24c-0.04,0.18-0.09,0.42-0.16,0.71
						c-0.14,0.66-0.33,1.58-0.57,2.77c-0.48,2.42-1.15,5.95-1.93,10.39c-1.57,8.88-3.58,21.41-5.62,35.96l0.33-0.2
						c-5.75-1.82-12.01-3.55-18.53-5.23c-18.72-4.84-35.97-7.98-48.5-9.82c-3.13-0.5-5.98-0.83-8.47-1.16
						c-2.49-0.34-4.65-0.57-6.41-0.74c-1.74-0.18-3.1-0.31-4.06-0.41c-0.44-0.04-0.79-0.07-1.06-0.09
						C355.31,140.41,355.19,140.4,355.19,140.41z"/>
				</g>
			</g>
		</g>
		<g>
			<g>
				<g>
					<path class="st3" d="M353.93,124.99c0.03,0.01,0.14-0.44,0.43-1.26c0.32-0.81,0.89-1.97,1.91-3.28c1.02-1.3,2.49-2.73,4.5-3.94
						c0.49-0.33,1.05-0.56,1.6-0.85c0.58-0.22,1.17-0.5,1.81-0.65c1.26-0.38,2.67-0.59,4.12-0.4c1.44,0.17,2.92,0.69,4.2,1.65
						c1.29,0.94,2.41,2.21,3.36,3.65c1.95,2.89,3.22,6.41,4.71,10.06c0.79,1.8,1.81,3.67,3.49,5c0.83,0.66,1.81,1.19,2.89,1.39
						c1.09,0.21,2.24,0.05,3.26-0.38c4.22-1.67,6.1-6.54,10.37-8.02c2.09-0.71,4.42-0.43,6.33,0.52c0.96,0.48,1.82,1.14,2.51,1.94
						c0.69,0.8,1.2,1.74,1.67,2.69c0.95,1.88,1.67,3.97,3.28,5.44c0.79,0.72,1.81,1.22,2.88,1.3c1.06,0.09,2.11-0.19,3.01-0.65
						c1.81-0.94,3.16-2.46,4.14-4.07c0.96-1.65,1.55-3.37,2.19-4.99c0.63-1.63,1.29-3.18,2.17-4.51c0.88-1.33,2.02-2.41,3.32-3.08
						c2.6-1.38,5.51-1.22,7.6-0.22c2.16,0.92,3.77,2.22,4.83,3.48c1.06,1.27,1.56,2.48,1.81,3.31c0.26,0.83,0.29,1.3,0.33,1.29
						c0,0,0-0.47-0.23-1.32c-0.22-0.85-0.7-2.1-1.75-3.41c-1.05-1.31-2.68-2.65-4.87-3.62c-2.14-1.05-5.17-1.26-7.89,0.16
						c-1.36,0.69-2.56,1.81-3.48,3.18c-0.92,1.37-1.6,2.95-2.24,4.58c-0.65,1.62-1.25,3.34-2.18,4.91
						c-0.95,1.55-2.27,3.01-3.97,3.88c-0.85,0.43-1.8,0.67-2.75,0.59c-0.95-0.07-1.87-0.52-2.59-1.18c-1.48-1.34-2.2-3.39-3.16-5.3
						c-0.48-0.96-1-1.94-1.74-2.8c-0.73-0.86-1.65-1.55-2.66-2.06c-2.03-1.01-4.49-1.31-6.73-0.55c-2.27,0.75-3.9,2.5-5.41,4.08
						c-1.5,1.6-3.05,3.17-4.98,3.96c-0.95,0.4-1.99,0.54-2.97,0.35c-0.99-0.18-1.9-0.66-2.68-1.28c-1.58-1.25-2.58-3.03-3.36-4.8
						c-1.49-3.61-2.79-7.18-4.79-10.11c-0.98-1.47-2.14-2.77-3.48-3.74c-1.33-0.99-2.89-1.53-4.4-1.69
						c-1.51-0.18-2.97,0.05-4.26,0.45c-0.66,0.16-1.25,0.46-1.85,0.69c-0.56,0.3-1.13,0.55-1.62,0.89c-2.03,1.26-3.5,2.73-4.51,4.07
						c-1.01,1.34-1.55,2.54-1.85,3.37c-0.15,0.41-0.2,0.75-0.26,0.97C353.95,124.88,353.92,124.99,353.93,124.99z"/>
				</g>
			</g>
		</g>
		<g>
			<g>
				<g>
					<path class="st3" d="M452.18,116.66c-0.03,0.14,0.46,0.35,1.08,0.47c0.62,0.12,1.15,0.1,1.18-0.04
						c0.03-0.14-0.46-0.35-1.08-0.47C452.73,116.5,452.21,116.52,452.18,116.66z"/>
				</g>
			</g>
		</g>
		<g>
			<g>
				<g>
					<path class="st3" d="M450.54,128.25c-0.06,0.13,0.3,0.43,0.81,0.67c0.51,0.24,0.97,0.32,1.03,0.19
						c0.06-0.13-0.3-0.43-0.81-0.67C451.06,128.21,450.6,128.12,450.54,128.25z"/>
				</g>
			</g>
		</g>
		<g>
			<g>
				<g>
					<path class="st3" d="M448.49,140.91c-0.05,0.14,0.33,0.39,0.84,0.57c0.51,0.18,0.96,0.21,1.01,0.08
						c0.05-0.14-0.33-0.39-0.84-0.57C448.99,140.8,448.54,140.77,448.49,140.91z"/>
				</g>
			</g>
		</g>
		<g>
			<g>
				<g>
					<path class="st3" d="M446.04,153.35c-0.04,0.14,0.38,0.39,0.95,0.57c0.57,0.18,1.06,0.21,1.1,0.07
						c0.04-0.14-0.38-0.39-0.95-0.57C446.57,153.24,446.08,153.21,446.04,153.35z"/>
				</g>
			</g>
		</g>
		<g>
			<g>
				<g>
					<g>
						<path class="st3" d="M376.12,93.57c0.03-0.02-0.43-0.15-1.21-0.27c-0.8-0.14-1.96-0.31-3.45-0.52
							c-2.97-0.42-7.21-0.97-12.26-1.59l-0.24-0.03l-0.02,0.24c-0.39,4.26-0.85,9.16-1.33,14.36l-0.02,0.22l-0.02,0.25l0.25,0.03
							c6.1,0.75,11.79,1.44,16.58,2.03l0.22,0.03l0.02-0.22c0.46-4.35,0.85-7.98,1.13-10.59c0.12-1.21,0.21-2.19,0.28-2.92
							C376.11,93.91,376.14,93.56,376.12,93.57c-0.02,0.01-0.08,0.38-0.18,1.07c-0.1,0.74-0.24,1.72-0.4,2.95
							c-0.33,2.58-0.78,6.16-1.33,10.45l0.25-0.19c-4.78-0.61-10.46-1.33-16.57-2.11l0.23,0.28l0.02-0.22
							c0.46-5.2,0.89-10.11,1.27-14.36l-0.26,0.21C368.67,92.73,374.24,93.36,376.12,93.57z"/>
					</g>
				</g>
			</g>
			<g>
				<g>
					<g>
						<path class="st3" d="M360.72,96.1c0,0.15,2.85,0.15,6.33,0.53c3.48,0.36,6.27,0.96,6.3,0.81c0.04-0.13-2.72-0.96-6.25-1.32
							C363.59,95.73,360.71,95.96,360.72,96.1z"/>
					</g>
				</g>
			</g>
			<g>
				<g>
					<g>
						<path class="st3" d="M360.54,99.81c0,0.15,2.66,0.25,5.91,0.57c3.26,0.31,5.88,0.72,5.91,0.57c0.03-0.13-2.58-0.78-5.86-1.09
							C363.22,99.54,360.54,99.67,360.54,99.81z"/>
					</g>
				</g>
			</g>
			<g>
				<g>
					<g>
						<path class="st3" d="M364.51,103.06c-0.02,0.14,1.49,0.45,3.37,0.69c1.88,0.24,3.42,0.32,3.44,0.17
							c0.02-0.14-1.49-0.45-3.37-0.69C366.07,102.99,364.53,102.92,364.51,103.06z"/>
					</g>
				</g>
			</g>
		</g>
	</g>
	<g>
		<g>
			<g>
				<g>
					<g>
						<path class="st3" d="M171.8,104.17c36.3-11.06,66.93-20.51,108.05-20.25l6.29,64.63c-42.71,3.78-56.98,6.58-96.42,20.85
							L171.8,104.17z"/>
					</g>
				</g>
			</g>
			<g class="st4">
				<g>
					<g>
						<path class="st5" d="M171.8,104.17c36.3-11.06,66.93-20.51,108.05-20.25l6.29,64.63c-42.71,3.78-56.98,6.58-96.42,20.85
							L171.8,104.17z"/>
					</g>
				</g>
			</g>
		</g>
		<g>
			<g>
				<g>
					<g>
						<g>
							<g>
								<g>
									<path class="st3" d="M253.98,115.29l-1.6-13.71c3.81-0.44,7.88,0.67,11.19,3.1c3.91,2.85,6.76,7.52,6.88,13.56
										c0.01,0.66,0,1.34-0.06,2.03c0,0.02,0,0.03,0,0.05l0,0l-16.02-1.8L253.98,115.29z"/>
								</g>
							</g>
						</g>
					</g>
					<g>
						<g>
							<g>
								<g>
									<path class="st3" d="M237.43,113.04c1.58-5.09,5.39-9.47,11.41-10.87c0.16-0.04,0.32-0.07,0.49-0.11
										c0.1-0.02,0.21-0.04,0.31-0.06c0.31-0.06,0.62-0.1,0.93-0.14c0.01,0,0.03,0,0.04-0.01c0,0,0,0,0,0c0.01,0,0.03,0,0.04-0.01
										l0,0v0l1.6,13.71l0.38,3.22l-15.12,5.52l-0.02,0.01v0c-0.38-1.13-0.64-2.31-0.78-3.51
										C236.41,118.22,236.65,115.55,237.43,113.04z"/>
								</g>
							</g>
						</g>
					</g>
					<g class="st6">
						<g>
							<g>
								<g>
									<path d="M237.43,113.04c1.58-5.09,5.39-9.47,11.41-10.87c0.16-0.04,0.32-0.07,0.49-0.11c0.1-0.02,0.21-0.04,0.31-0.06
										c0.31-0.06,0.62-0.1,0.93-0.14c0.01,0,0.03,0,0.04-0.01c0,0,0,0,0,0c0.01,0,0.03,0,0.04-0.01l0,0v0l1.6,13.71l0.38,3.22
										l-15.12,5.52l-0.02,0.01v0c-0.38-1.13-0.64-2.31-0.78-3.51C236.41,118.22,236.65,115.55,237.43,113.04z"/>
								</g>
							</g>
						</g>
					</g>
				</g>
				<g>
					<g>
						<g>
							<g>
								<path class="st3" d="M253.75,120.32l16.02,1.8c-0.67,7.76-6.33,14.19-13.93,15.12c-7.64,0.94-14.73-3.98-17.22-11.4
									l15.12-5.52"/>
							</g>
						</g>
					</g>
				</g>
			</g>
		</g>
		<g>
			<g>
				<g>
					<path class="st3" d="M185.83,116.49c0.02,0.03,0.52-0.17,1.41-0.57c0.89-0.4,2.19-0.97,3.8-1.65
						c3.23-1.35,7.75-3.06,12.88-4.53c5.13-1.46,9.88-2.4,13.33-2.95c1.73-0.28,3.13-0.48,4.1-0.61c0.97-0.13,1.51-0.22,1.5-0.26
						c0-0.04-0.55-0.01-1.52,0.06c-0.98,0.07-2.39,0.21-4.13,0.45c-3.48,0.46-8.26,1.35-13.42,2.82c-5.16,1.48-9.69,3.24-12.89,4.69
						c-1.6,0.72-2.88,1.34-3.75,1.8C186.29,116.19,185.81,116.46,185.83,116.49z"/>
				</g>
			</g>
		</g>
		<g>
			<g>
				<g>
					<path class="st3" d="M186.93,123.24c0.02,0.03,0.52-0.17,1.41-0.57c0.89-0.4,2.19-0.97,3.81-1.65
						c3.23-1.35,7.75-3.06,12.88-4.53c5.13-1.46,9.88-2.4,13.33-2.95c1.73-0.28,3.13-0.48,4.1-0.61c0.97-0.13,1.51-0.22,1.5-0.26
						c0-0.04-0.55-0.01-1.52,0.06c-0.98,0.07-2.39,0.21-4.13,0.45c-3.48,0.46-8.26,1.35-13.42,2.82c-5.16,1.48-9.69,3.24-12.89,4.69
						c-1.6,0.72-2.88,1.34-3.75,1.8C187.39,122.94,186.91,123.21,186.93,123.24z"/>
				</g>
			</g>
		</g>
		<g>
			<g>
				<g>
					<path class="st3" d="M188.03,129.99c0.02,0.03,0.52-0.17,1.41-0.57c0.89-0.4,2.19-0.97,3.81-1.65
						c3.23-1.35,7.75-3.06,12.88-4.53c5.13-1.46,9.88-2.4,13.33-2.95c1.73-0.28,3.13-0.48,4.1-0.61c0.97-0.13,1.51-0.22,1.5-0.26
						c0-0.04-0.55-0.01-1.52,0.06c-0.98,0.07-2.39,0.21-4.13,0.45c-3.48,0.46-8.26,1.35-13.42,2.82c-5.16,1.48-9.69,3.24-12.89,4.69
						c-1.6,0.72-2.88,1.34-3.75,1.8C188.48,129.69,188.01,129.95,188.03,129.99z"/>
				</g>
			</g>
		</g>
		<g>
			<g>
				<g>
					<path class="st3" d="M190.23,136.73c0.02,0.03,0.5-0.17,1.37-0.57c0.86-0.4,2.12-0.97,3.68-1.64
						c3.12-1.35,7.51-3.05,12.49-4.52c4.98-1.46,9.59-2.41,12.95-2.96c1.68-0.28,3.04-0.48,3.99-0.61c0.94-0.13,1.46-0.22,1.46-0.26
						c0-0.04-0.53-0.01-1.48,0.06c-0.95,0.07-2.33,0.22-4.02,0.45c-3.38,0.46-8.03,1.35-13.04,2.82c-5,1.48-9.4,3.25-12.49,4.69
						c-1.55,0.72-2.79,1.34-3.62,1.8C190.67,136.43,190.21,136.7,190.23,136.73z"/>
				</g>
			</g>
		</g>
		<g>
			<g>
				<g>
					<path class="st3" d="M195.01,142.11c0.02,0.03,0.46-0.14,1.24-0.49c0.87-0.39,1.98-0.88,3.31-1.47c2.8-1.21,6.7-2.82,11.17-4.1
						c4.47-1.27,8.64-1.97,11.65-2.41c1.43-0.2,2.63-0.36,3.58-0.5c0.85-0.12,1.31-0.2,1.31-0.23c0-0.04-0.48-0.02-1.33,0.03
						c-0.85,0.05-2.09,0.16-3.61,0.33c-3.04,0.35-7.24,1-11.75,2.28c-4.51,1.29-8.41,2.96-11.18,4.27
						c-1.38,0.66-2.49,1.21-3.24,1.62C195.4,141.84,194.99,142.08,195.01,142.11z"/>
				</g>
			</g>
		</g>
		<g>
			<g>
				<g>
					<path class="st3" d="M211.14,142.87c0.02,0.07,1-0.17,2.58-0.53c1.58-0.37,3.77-0.84,6.21-1.26c2.44-0.43,4.67-0.73,6.28-0.96
						c1.61-0.22,2.61-0.38,2.6-0.45c-0.01-0.07-1.02-0.05-2.64,0.09c-1.62,0.14-3.87,0.38-6.32,0.81c-2.46,0.42-4.65,0.96-6.22,1.42
						C212.06,142.44,211.12,142.81,211.14,142.87z"/>
				</g>
			</g>
		</g>
		<g>
			<g>
				<g>
					<path class="st3" d="M273.55,91.58c0,0-0.27-0.02-0.83-0.04c-0.59-0.02-1.42-0.05-2.5-0.08c-2.21-0.05-5.4-0.02-9.48,0.21
						c-8.13,0.55-19.81,1.92-33.3,5.96l-0.18,0.06l0.03,0.19c2.5,14.32,5.48,31.35,8.66,49.58c0.13,0.74,0.26,1.47,0.39,2.2
						l0.05,0.28l0.27-0.07c7.59-1.99,15.07-3.48,22.23-4.59c7.16-1.1,14.01-1.88,20.38-2.28l0.24-0.02l-0.03-0.24
						c-1.75-15.29-3.22-28.09-4.25-37.1c-0.52-4.46-0.94-7.97-1.22-10.4c-0.14-1.18-0.25-2.09-0.33-2.73
						c-0.04-0.29-0.07-0.52-0.09-0.69C273.56,91.65,273.55,91.58,273.55,91.58c0,0,0,0.09,0.01,0.25c0.02,0.18,0.04,0.42,0.07,0.72
						c0.07,0.65,0.16,1.58,0.28,2.78c0.26,2.44,0.63,5.98,1.1,10.46c0.97,8.98,2.36,21.75,4.01,37l0.22-0.25
						c-6.39,0.39-13.25,1.15-20.43,2.24c-7.18,1.1-14.68,2.58-22.29,4.58l0.32,0.21c-0.13-0.72-0.26-1.46-0.39-2.2
						c-3.21-18.22-6.21-35.24-8.73-49.56l-0.15,0.25c13.41-4.06,25.07-5.51,33.18-6.12c4.06-0.27,7.28-0.34,9.44-0.34
						c1.07,0,1.9,0,2.48,0.01C273.24,91.59,273.55,91.58,273.55,91.58z"/>
				</g>
			</g>
		</g>
	</g>
</g>
<g id="Character">
	<g>
		<g>
			<g>
				<polyline class="st3" points="313.19,223.66 277.79,231.49 272.38,223.66 273.25,213.56 278.63,208.65 297.18,208.65 
					314.49,224.24 				"/>
			</g>
		</g>
		<g>
			<g>
				<polyline class="st7" points="313.19,223.66 277.79,231.49 272.38,223.66 273.25,213.56 278.63,208.65 297.18,208.65 
					314.49,224.24 				"/>
			</g>
		</g>
		<g>
			<g>
				<g>
					<g>
						<g>
							<g>
								<g>
									<g>
										<g>
											<g>
												<g>
													<path class="st8" d="M259.21,150.75l-44.68-6.02l-7.03-1.98c0,0-16.11-3.54-17.61-4.07c-1.74-0.62-2.45,0.07-2.64,0.72
														c-0.29,1.02,0.69,2.17,2.17,2.75c0.51,0.2,8.68,3.03,8.68,3.03s-0.81,0.13-2.76,0.8c-1.95,0.66-3.83,3.18-4.77,6.12
														c-0.94,2.94-0.94,3.84,0.18,4.26c0.45,0.17,0.91,0.04,1.3-0.18c0.64-0.36,1.11-0.98,1.34-1.68
														c1.57-4.68,4.5-5.05,4.5-5.05l0.92,0.26c0,0-3.02,2.11-2.97,4.66c0.01,0.42,0.1,0.78,0.23,1.1
														c-0.43,1.24-0.18,2.69,0.65,3.71c0.86,1.06,2.32,1.6,3.66,1.37c0.64-0.11,1.34-0.49,1.43-1.14
														c0.05-0.34-0.08-0.68-0.21-1c-0.06-0.17-0.13-0.35-0.16-0.52l2.68,0.37c0,0,6.06,0.5,8.68,1.02l41.84,12.6
														c5.8,1.75,11.91-1.6,13.55-7.43l0,0C269.98,158.09,265.74,151.63,259.21,150.75z"/>
												</g>
											</g>
										</g>
									</g>
								</g>
							</g>
						</g>
					</g>
				</g>
				<g>
					<g>
						<g>
							<g>
								<g>
									<g>
										<g>
											<g>
												<g>
													<g>
														<path class="st8" d="M213.49,145.87c-0.07,0.94-1.01,1.59-1.93,1.78c-0.92,0.19-1.88,0.07-2.81,0.19
															c-2.78,0.38-4.95,2.91-7.75,3.15c-0.39,0.03-0.88-0.05-1-0.42c-0.11-0.35,0.19-0.68,0.46-0.92
															c2.32-2.05,4.65-4.11,6.97-6.16"/>
													</g>
												</g>
											</g>
										</g>
									</g>
								</g>
							</g>
						</g>
					</g>
					<g>
						<g>
							<g>
								<g>
									<g>
										<g>
											<g>
												<g>
													<g>
														<g>
															<path class="st9" d="M207.44,143.5c-0.02-0.03-0.32,0.18-0.82,0.59c-0.51,0.41-1.23,1-2.11,1.75
																c-0.91,0.79-1.95,1.68-3.09,2.65c-0.29,0.25-0.59,0.51-0.89,0.77c-0.26,0.27-0.72,0.5-0.81,1.14
																c-0.03,0.32,0.22,0.64,0.48,0.74c0.26,0.12,0.51,0.13,0.75,0.12c0.46-0.04,0.91-0.12,1.35-0.27
																c1.76-0.57,3.11-1.63,4.47-2.27c0.67-0.33,1.34-0.56,1.99-0.66c0.65-0.1,1.28-0.08,1.87-0.12
																c1.19-0.03,2.16-0.54,2.55-1.1c0.41-0.57,0.33-0.99,0.31-0.98c-0.05-0.01-0.05,0.38-0.47,0.84
																c-0.41,0.47-1.26,0.87-2.4,0.86c-0.57,0.02-1.21-0.03-1.91,0.06c-0.71,0.09-1.43,0.33-2.14,0.65
																c-1.42,0.64-2.79,1.68-4.42,2.2c-0.4,0.13-0.82,0.21-1.21,0.25c-0.39,0.03-0.72-0.11-0.68-0.32
																c0-0.23,0.32-0.51,0.62-0.77c0.3-0.27,0.59-0.53,0.88-0.79c1.11-1.01,2.12-1.93,3.01-2.74
																c0.85-0.79,1.54-1.43,2-1.88C207.22,143.79,207.47,143.53,207.44,143.5z"/>
														</g>
													</g>
												</g>
											</g>
										</g>
									</g>
								</g>
							</g>
						</g>
					</g>
				</g>
				<g>
					<g>
						<g>
							<g>
								<g>
									<g>
										<g>
											<g>
												<g>
													<g>
														<path class="st9" d="M198.88,149.6c-0.01,0.07-0.69-0.3-1.76-0.02c-0.52,0.14-1.08,0.49-1.53,1.05
															c-0.45,0.56-0.8,1.29-1.1,2.09c-0.31,0.8-0.6,1.58-1.02,2.23c-0.42,0.64-0.92,1.14-1.46,1.41
															c-0.54,0.27-1.09,0.19-1.37,0.03c-0.29-0.16-0.4-0.3-0.39-0.31c0.02-0.03,0.16,0.08,0.44,0.19
															c0.28,0.1,0.74,0.14,1.2-0.12c0.47-0.26,0.93-0.75,1.31-1.36c0.38-0.62,0.66-1.38,0.97-2.18
															c0.31-0.81,0.67-1.58,1.18-2.17c0.49-0.6,1.14-0.97,1.72-1.08c0.58-0.12,1.06-0.05,1.37,0.04
															C198.74,149.48,198.89,149.59,198.88,149.6z"/>
													</g>
												</g>
											</g>
										</g>
									</g>
								</g>
							</g>
						</g>
					</g>
				</g>
				<g>
					<g>
						<g>
							<g>
								<g>
									<g>
										<g>
											<g>
												<g>
													<g>
														<path class="st9" d="M188.84,141.91c0.02-0.04,0.64,0.18,1.63,0.55c1.11,0.41,2.43,0.89,3.88,1.43
															c1.47,0.51,2.79,0.98,3.9,1.37c1,0.35,1.62,0.56,1.61,0.61c-0.01,0.04-0.66-0.09-1.68-0.38
															c-1.02-0.29-2.42-0.73-3.95-1.28c-1.52-0.55-2.89-1.1-3.86-1.53C189.4,142.26,188.82,141.95,188.84,141.91z"/>
													</g>
												</g>
											</g>
										</g>
									</g>
								</g>
							</g>
						</g>
					</g>
				</g>
				<g>
					<g>
						<g>
							<g>
								<g>
									<g>
										<g>
											<g>
												<g>
													<g>
														<path class="st9" d="M200.06,152.09c0.02,0.02-0.12,0.16-0.35,0.41c-0.22,0.24-0.57,0.66-0.5,1.23
															c0.03,0.28,0.22,0.52,0.53,0.66c0.3,0.15,0.67,0.21,1.08,0.3c0.4,0.08,0.89,0.23,1.21,0.65
															c0.3,0.41,0.37,0.97,0.2,1.47c-0.17,0.51-0.57,0.88-1,1.08c-0.44,0.2-0.9,0.27-1.35,0.2
															c-0.84-0.17-1.52-0.48-2.07-0.77c-0.55-0.3-0.96-0.62-1.19-0.89c-0.23-0.27-0.29-0.47-0.28-0.47
															c0.03-0.01,0.12,0.15,0.37,0.38c0.25,0.23,0.66,0.5,1.21,0.77c0.55,0.26,1.24,0.54,2.01,0.68
															c0.72,0.11,1.7-0.26,1.98-1.07c0.13-0.4,0.08-0.85-0.15-1.16c-0.23-0.31-0.62-0.45-1.01-0.54
															c-0.39-0.09-0.79-0.16-1.14-0.35c-0.35-0.17-0.62-0.53-0.64-0.89c-0.04-0.71,0.41-1.13,0.65-1.35
															C199.88,152.18,200.05,152.08,200.06,152.09z"/>
													</g>
												</g>
											</g>
										</g>
									</g>
								</g>
							</g>
						</g>
					</g>
				</g>
				<g>
					<g>
						<g>
							<g>
								<g>
									<g>
										<g>
											<g>
												<g>
													<g>
														<path class="st9" d="M201.02,157.66c0-0.02,0.19,0,0.44,0.21c0.24,0.2,0.54,0.64,0.5,1.24
															c-0.04,0.59-0.47,1.26-1.18,1.59c-0.71,0.33-1.6,0.32-2.43,0.03c-0.83-0.29-1.5-0.84-1.93-1.47
															c-0.43-0.63-0.61-1.31-0.65-1.87c-0.04-0.57,0.05-1.02,0.14-1.32c0.1-0.3,0.19-0.45,0.21-0.44
															c0.07,0.01-0.24,0.66-0.11,1.73c0.07,0.52,0.26,1.15,0.67,1.71c0.4,0.56,1.03,1.06,1.78,1.33
															c0.75,0.27,1.56,0.28,2.18,0c0.62-0.27,1.01-0.83,1.07-1.33c0.06-0.51-0.16-0.91-0.35-1.12
															C201.17,157.75,201,157.69,201.02,157.66z"/>
													</g>
												</g>
											</g>
										</g>
									</g>
								</g>
							</g>
						</g>
					</g>
				</g>
				<g>
					<g>
						<g>
							<g>
								<g>
									<g>
										<g>
											<g>
												<g>
													<g>
														<path class="st9" d="M208.45,153.99c-0.03-0.01,0.01-0.32,0.29-0.77c0.27-0.44,0.8-1.02,1.63-1.33l-0.02,0.3
															c-0.33-0.16-0.68-0.35-1.02-0.57c-1.93-1.22-2.88-2.86-2.8-2.89c0.08-0.07,1.13,1.43,2.99,2.6
															c0.33,0.21,0.67,0.4,0.98,0.56l0.35,0.18l-0.37,0.13c-0.75,0.26-1.27,0.75-1.57,1.14
															C208.61,153.73,208.5,154.01,208.45,153.99z"/>
													</g>
												</g>
											</g>
										</g>
									</g>
								</g>
							</g>
						</g>
					</g>
				</g>
				<g>
					<g>
						<g>
							<g>
								<g>
									<g>
										<g>
											<g>
												<g>
													<g>
														<path class="st9" d="M194.54,149.22c0.07-0.06,0.54,0.46,0.59,1.28c0.06,0.82-0.34,1.4-0.41,1.35
															c-0.09-0.04,0.13-0.61,0.07-1.33C194.74,149.81,194.45,149.27,194.54,149.22z"/>
													</g>
												</g>
											</g>
										</g>
									</g>
								</g>
							</g>
						</g>
					</g>
				</g>
			</g>
		</g>
		<g>
			<g>
				<g>
					<g>
						<g>
							<path class="st8" d="M403.05,164.77c0,0,6.53-10.58,7.68-11.47c1.16-0.9,11.49-4.68,12.37-4.4c0.88,0.28,13.4,2.42,11.97,3.9
								c-1.44,1.49-10.17-0.13-10.17-0.13l-1.17,0.59c0,0,7.54,1.2,9.13,2.12c1.46,0.84,0.96,2.63-0.42,2.49
								c-1.38-0.14-7.94-1.41-8.33-1.14c-0.39,0.27,7.13,1.77,7.94,2.25c1.09,0.64,1.2,2.58-0.18,2.49c-0.81-0.06-7.9-1.89-7.9-1.89
								s5.62,2.17,6.14,2.66c0.85,0.81,0.18,2.03-1.04,1.76c-0.84-0.18-4.81-2.08-5.93-2.32c0,0-1.05,0.28-2,2.4
								c-0.44,0.99-2.46,7.15-6.15,7.07c-3.27-0.07-6.48,2.62-6.48,2.62L403.05,164.77z"/>
						</g>
					</g>
				</g>
				<g>
					<g>
						<g>
							<g>
								<path class="st9" d="M435.04,152.83c0.02,0.07-0.82,0.42-2.28,0.63c-0.73,0.1-1.61,0.16-2.58,0.11
									c-0.96-0.11-2-0.25-3.1-0.41c-0.81-0.12-1.59-0.23-2.34-0.34l0.14-0.01c-3.09,1.1-5.35,1.82-5.4,1.69
									c-0.05-0.12,2.14-1.05,5.21-2.22l0.06-0.02l0.08,0.01c0.73,0.1,1.51,0.2,2.32,0.31c1.07,0.16,2.09,0.31,3.07,0.45
									c0.94,0.08,1.79,0.07,2.5,0.02C434.14,152.94,435.02,152.74,435.04,152.83z"/>
							</g>
						</g>
					</g>
				</g>
			</g>
			<g>
				<g>
					<g>
						<g>
							<g>
								<path class="st8" d="M407.94,163.51c0.76,0.71,2.02,0.53,2.91,0c0.89-0.54,1.58-1.36,2.43-1.96
									c2.55-1.79,6.21-1.37,8.67-3.28c0.34-0.27,0.68-0.7,0.49-1.09c-0.17-0.36-0.67-0.4-1.07-0.39
									c-3.44,0.08-6.88,0.17-10.31,0.25"/>
							</g>
						</g>
					</g>
					<g>
						<g>
							<g>
								<g>
									<path class="st9" d="M411.06,157.03c0-0.04,0.4-0.09,1.11-0.14c0.72-0.05,1.76-0.11,3.04-0.17
										c1.34-0.05,2.85-0.11,4.51-0.17c0.43-0.01,0.86-0.03,1.3-0.04c0.41,0.02,0.96-0.14,1.51,0.31c0.26,0.24,0.3,0.68,0.17,0.96
										c-0.12,0.29-0.31,0.49-0.52,0.67c-0.41,0.31-0.83,0.58-1.29,0.8c-1.86,0.86-3.76,1.02-5.34,1.53
										c-0.79,0.24-1.52,0.55-2.12,0.96c-0.6,0.41-1.1,0.9-1.61,1.31c-0.99,0.87-2.16,1.19-2.9,1.03
										c-0.76-0.15-1.01-0.56-0.99-0.56c0.03-0.05,0.33,0.27,1.02,0.34c0.69,0.07,1.68-0.24,2.6-1.12
										c0.48-0.41,0.96-0.93,1.6-1.39c0.64-0.46,1.41-0.81,2.23-1.08c1.64-0.55,3.54-0.74,5.25-1.54
										c0.43-0.19,0.82-0.45,1.17-0.72c0.33-0.27,0.5-0.63,0.32-0.77c-0.18-0.18-0.65-0.17-1.09-0.16
										c-0.44,0.01-0.88,0.01-1.3,0.02c-1.66,0.02-3.18,0.03-4.51,0.05c-1.28,0-2.32,0-3.04-0.02
										C411.46,157.1,411.06,157.07,411.06,157.03z"/>
								</g>
							</g>
						</g>
					</g>
				</g>
			</g>
		</g>
		<g>
			<g>
				<g>
					<g>
						<g>
							<path class="st3" d="M352.22,398.99l2.38,26.23l7.87,20.21c0.57,1.46-0.22,3.09-1.71,3.55l0,0
								c-0.84,0.26-1.74,0.11-2.43-0.42c-4.43-3.38-20.67-15.87-20.73-17.8c-0.08-2.23-4.35-27.5-4.35-27.5L352.22,398.99z"/>
						</g>
					</g>
				</g>
			</g>
			<g class="st10">
				<g>
					<g>
						<g>
							<path class="st5" d="M360.76,448.99L337.39,429l0.13,1.11c0.11,0.96,0.55,1.85,1.26,2.51c1.88,1.76,7.19,6.52,19.47,15.96
								C358.96,449.12,359.91,449.28,360.76,448.99L360.76,448.99z"/>
						</g>
					</g>
				</g>
			</g>
			<g class="st10">
				<g>
					<g>
						<g>
							<g>
								<path class="st5" d="M341.8,419.94c0.71,0.38,1.03,1.35,0.69,2.07c-0.35,0.72-1.33,1.06-2.04,0.7
									c-0.71-0.37-1.14-1.52-0.71-2.19c0.43-0.68,1.6-1.02,2.21-0.49"/>
							</g>
						</g>
					</g>
				</g>
			</g>
			<g>
				<g>
					<g>
						<g>
							<g>
								<path class="st11" d="M353.47,438.23c0.16,0.06,0.59-1.38,2.06-2.3c1.44-0.96,2.93-0.75,2.95-0.92
									c0.02-0.07-0.34-0.23-0.96-0.25c-0.62-0.02-1.49,0.17-2.3,0.68c-0.8,0.52-1.34,1.24-1.58,1.81
									C353.4,437.83,353.41,438.22,353.47,438.23z"/>
							</g>
						</g>
					</g>
				</g>
			</g>
			<g>
				<g>
					<g>
						<g>
							<g>
								<path class="st11" d="M355.74,441.53c0.14,0.1,0.88-0.85,2.19-1.39c1.3-0.57,2.49-0.45,2.52-0.62
									c0.06-0.14-1.26-0.55-2.75,0.09C356.21,440.23,355.59,441.47,355.74,441.53z"/>
							</g>
						</g>
					</g>
				</g>
			</g>
			<g>
				<g>
					<g>
						<g>
							<g>
								<path class="st11" d="M349.49,434.14c0.14,0.11,1.27-1.35,3.23-2.37c1.95-1.05,3.79-1.17,3.78-1.35
									c0.03-0.14-1.96-0.29-4.05,0.84C350.35,432.36,349.36,434.08,349.49,434.14z"/>
							</g>
						</g>
					</g>
				</g>
			</g>
			<g>
				<g>
					<g>
						<g>
							<g>
								<path class="st11" d="M348.1,426.22c0.09,0.15,1.46-0.62,3.34-0.9c1.87-0.31,3.42,0,3.45-0.17c0.06-0.14-1.53-0.73-3.54-0.4
									C349.34,425.06,348,426.11,348.1,426.22z"/>
							</g>
						</g>
					</g>
				</g>
			</g>
			<g>
				<g>
					<g>
						<g>
							<g>
								<path class="st11" d="M347.21,418.54c0.1,0.14,1.45-0.9,3.45-1.03c1.99-0.18,3.5,0.63,3.57,0.48
									c0.04-0.06-0.29-0.36-0.93-0.64c-0.64-0.28-1.61-0.5-2.69-0.42c-1.07,0.09-2,0.46-2.59,0.83
									C347.43,418.14,347.16,418.49,347.21,418.54z"/>
							</g>
						</g>
					</g>
				</g>
			</g>
			<g>
				<g>
					<g>
						<g>
							<g>
								<path class="st11" d="M350.44,416.05c0.03,0,0.05-0.36-0.08-0.99c-0.13-0.63-0.42-1.54-1.08-2.5
									c-0.34-0.45-0.7-1.05-1.47-1.31c-0.38-0.13-0.92,0-1.19,0.38c-0.27,0.37-0.32,0.81-0.28,1.23c0.22,1.66,1.83,3.1,3.72,3.13
									c1.9-0.01,3.48-1.27,4.06-2.79c0.12-0.39,0.18-0.86-0.07-1.28c-0.25-0.42-0.8-0.54-1.17-0.43c-0.76,0.2-1.2,0.71-1.62,1.09
									c-0.82,0.83-1.29,1.65-1.55,2.24c-0.26,0.59-0.33,0.94-0.3,0.95c0.1,0.06,0.51-1.36,2.14-2.89c0.41-0.36,0.88-0.8,1.44-0.92
									c0.27-0.06,0.52,0.02,0.64,0.23c0.12,0.2,0.11,0.53,0,0.84c-0.49,1.25-1.94,2.4-3.54,2.38c-1.6-0.01-3.01-1.28-3.2-2.61
									c-0.04-0.32,0.01-0.66,0.16-0.87c0.15-0.21,0.4-0.29,0.65-0.22c0.53,0.15,0.94,0.66,1.27,1.08
									C350.27,414.59,350.33,416.09,350.44,416.05z"/>
							</g>
						</g>
					</g>
				</g>
			</g>
		</g>
		<g>
			<g>
				<g>
					<path class="st11" d="M328.09,414.38l-19.63-155.45l6.28-36.14l37.02,1.96l4.61,186.76c0.04,1.39-0.94,2.61-2.3,2.88
						l-21.56,3.32C330.36,418.04,328.37,416.54,328.09,414.38z"/>
				</g>
			</g>
			<g>
				<g>
					<path class="st11" d="M309.03,264.14l-35.7,35.34l51.37,12.49l-3.66,25.92l-69.54-9.46c-5.94-0.81-11.29-4.02-14.8-8.89v0
						c-5.38-7.47-5.52-17.51-0.33-25.12l54.17-79.52l24.2,7.89L309.03,264.14z"/>
				</g>
			</g>
			<g>
				<g>
					<g>
						<path class="st12" d="M311,255.15c-0.14-0.03-0.7,1.96-1.24,4.44c-0.54,2.48-0.87,4.52-0.73,4.55
							c0.14,0.03,0.7-1.96,1.24-4.44C310.81,257.22,311.14,255.18,311,255.15z"/>
					</g>
				</g>
			</g>
			<g>
				<g>
					<g>
						<path class="st12" d="M316.2,315.24c0,0-0.29-0.11-0.85-0.28c-0.58-0.18-1.41-0.44-2.5-0.78c-2.22-0.67-5.45-1.66-9.58-2.91
							c-8.32-2.5-20.27-6.1-34.86-10.49l0.09,0.33c12.09-12.87,26.76-28.5,42.86-45.64l-0.44-0.15c0.85,7.17,1.74,14.66,2.64,22.3
							c4.42,37.03,8.57,70.52,11.79,94.75c1.6,12.11,3,21.9,4.03,28.65c0.57,3.37,0.95,5.99,1.34,7.75c0.19,0.87,0.33,1.53,0.43,2
							c0.1,0.45,0.16,0.68,0.16,0.68s-0.03-0.24-0.11-0.69c-0.09-0.47-0.21-1.14-0.38-2.01c-0.36-1.76-0.7-4.39-1.24-7.76
							c-0.97-6.76-2.32-16.55-3.86-28.67c-3.12-24.23-7.22-57.73-11.64-94.76c-0.91-7.64-1.8-15.13-2.65-22.3l-0.07-0.55l-0.38,0.4
							c-16.07,17.17-30.72,32.83-42.78,45.72l-0.22,0.24l0.31,0.09c14.62,4.32,26.58,7.86,34.91,10.32
							c4.15,1.21,7.39,2.16,9.61,2.81c1.09,0.31,1.93,0.55,2.52,0.72C315.9,315.17,316.2,315.24,316.2,315.24z"/>
					</g>
				</g>
			</g>
			<g>
				<g>
					<g>
						<path class="st12" d="M327.76,411.45c0.14-0.02-3.94-33.01-9.11-73.68c-5.17-40.69-9.48-73.64-9.62-73.63
							c-0.14,0.02,3.93,33,9.11,73.69C323.31,378.5,327.61,411.47,327.76,411.45z"/>
					</g>
				</g>
			</g>
			<g>
				<g>
					<g>
						<path class="st12" d="M314.83,238.7c-0.07-0.02-0.39,0.9-0.83,2.41c-0.44,1.51-0.98,3.61-1.49,5.96
							c-0.51,2.34-0.89,4.48-1.12,6.04c-0.23,1.55-0.32,2.52-0.25,2.54c0.07,0.01,0.29-0.94,0.61-2.47
							c0.36-1.72,0.79-3.75,1.27-5.99c0.5-2.24,0.96-4.26,1.34-5.98C314.7,239.67,314.9,238.72,314.83,238.7z"/>
					</g>
				</g>
			</g>
			<g>
				<g>
					<g>
						<path class="st12" d="M312.53,235.65c0.06-0.03-0.5-0.49-1.45-0.16c-0.44,0.16-0.97,0.6-1.08,1.28
							c-0.12,0.64,0.12,1.46,0.81,1.89c0.71,0.41,1.55,0.23,2.05-0.2c0.54-0.45,0.62-1.17,0.46-1.62c-0.14-0.47-0.44-0.76-0.67-0.89
							c-0.23-0.13-0.39-0.13-0.39-0.1c-0.05,0.07,0.55,0.28,0.7,1.08c0.08,0.38-0.02,0.86-0.41,1.16c-0.37,0.3-1.01,0.41-1.48,0.13
							c-0.47-0.28-0.68-0.89-0.61-1.37c0.06-0.49,0.41-0.84,0.76-1.02C311.96,235.48,312.51,235.74,312.53,235.65z"/>
					</g>
				</g>
			</g>
			<g>
				<g>
					<g>
						<path class="st12" d="M262.81,305.53c0.11,0.12,2.12-1.73,5.01-3.4c2.88-1.69,5.49-2.52,5.44-2.67
							c-0.02-0.13-2.75,0.49-5.7,2.22C264.6,303.39,262.71,305.45,262.81,305.53z"/>
					</g>
				</g>
			</g>
		</g>
		<g>
			<g>
				<g>
					<path class="st13" d="M339.98,116.83l20.5,9.9l-8.84,61.68l3.47,27.68c0.45,3.57-0.91,7.12-3.61,9.49l0,0l-33.11-0.65
						l-23.19-12.75l-10.65-1.8l4.36-21.07l-1.95-29.89l-24.23,12.94c-1.87,1-4.04,1.26-6.09,0.73l-44.43-11.49l2.31-17.12
						l40.22,4.55l30.63-27.06l22.8-5.13l4.06-6.72h23.33l1.63,1.22c0.78,0.58,1.37,1.39,1.69,2.31L339.98,116.83z"/>
				</g>
			</g>
			<g>
				<g>
					<g>
						<path class="st13" d="M360.48,126.72c0,0,6.72,4.26,9.23,12.04c2.34,7.28,7.63,36.71,7.63,36.71l23.29-14.45l13.42,14.11
							L383,202.51c-4.76,4.2-11.57,5.14-17.29,2.38h0c-4.77-2.3-8.07-6.84-8.79-12.09l-3.81-27.91L360.48,126.72z"/>
					</g>
				</g>
				<g>
					<g>
						<polygon class="st8" points="290.54,214.9 291.98,212.78 307.31,215.61 310.13,222.15 						"/>
					</g>
				</g>
				<g>
					<g>
						<path class="st13" d="M351.5,225.57c-13.7,5.51-28.32,3.49-41.37-3.43c-3.94-2.09-7.59-4.68-11.54-6.74
							c-3.95-2.06-8.34-3.58-12.79-3.27c-4.45,0.31-8.93,2.77-10.71,6.85c-1.78,4.09,0,9.65,4.19,11.18
							c-0.49,0.44-0.99,0.88-1.48,1.32c-6.15-2.86-9.07-11.14-6.07-17.23c2.3-4.67,7.14-7.45,10.68-11.26
							c5.21-5.6,5.75-16.45,5.79-24.88"/>
					</g>
				</g>
				<g>
					<g>
						<g>
							<path class="st11" d="M321.45,128.75c0,0.03,0.36,0.05,1.01,0.06c0.62,0.11,1.63,0.24,2.43,1.12
								c0.79,0.85,1.23,2.29,1.21,3.91c0,1.61-0.32,3.47-1.11,5.24l-0.39,0.86l0.75-0.56c1.71-1.27,3.48-2.81,5.16-4.57
								c3.96-4.13,6.61-8.67,7.94-12.16c0.7-1.74,1.06-3.21,1.29-4.23c0.18-1.03,0.27-1.6,0.23-1.6c-0.12-0.03-0.41,2.28-1.86,5.69
								c-1.4,3.41-4.07,7.86-7.98,11.94c-1.66,1.74-3.4,3.26-5.08,4.53l0.37,0.3c0.43-0.94,0.68-1.89,0.85-2.8
								c0.17-0.92,0.26-1.81,0.23-2.65c-0.01-1.68-0.5-3.21-1.41-4.12c-0.91-0.93-2-1.01-2.64-1.07
								C321.8,128.69,321.45,128.72,321.45,128.75z"/>
						</g>
					</g>
				</g>
				<g>
					<g>
						<g>
							<path class="st13" d="M320.22,128.75c-1.69-0.73-4.19,0.35-5.4,1.73c-0.8,0.91-1.25,2.18-2.31,2.78
								c-1.06,0.6-4.39,1.06-5.36,0.32c0,0-0.59-2.85-0.9-4.03c-1.23-4.67-1.76-8.92-2.28-13.68c3.23-1.56,2.34-3.62,8.14-3.23
								c0,0-1.45,4.28-0.2,8.18"/>
						</g>
					</g>
					<g>
						<g>
							<g>
								<path class="st11" d="M311.91,120.82c0.05-0.02-0.21-0.77-0.34-2.19c-0.1-1.41-0.03-3.52,0.72-5.93l0.07-0.24l-0.24-0.01
									c-1.28-0.07-2.76-0.19-4.28,0.39c-0.76,0.29-1.39,0.88-1.98,1.42c-0.59,0.55-1.24,1.03-2,1.39l-0.16,0.07l0.02,0.18
									c0.26,2.43,0.55,5.08,1.01,7.82c0.3,1.79,0.66,3.52,1.08,5.17c0.42,1.65,0.75,3.24,1.1,4.74l0.02,0.1l0.07,0.04
									c0.58,0.37,1.16,0.39,1.71,0.42c0.55,0.01,1.09-0.03,1.61-0.1c0.52-0.07,1.02-0.18,1.5-0.33c0.47-0.14,0.96-0.37,1.31-0.72
									c0.71-0.68,1.08-1.49,1.54-2.11c0.45-0.63,1.02-1.09,1.58-1.43c1.12-0.69,2.17-0.9,2.88-0.9c0.71,0.01,1.07,0.19,1.08,0.15
									c0,0-0.34-0.25-1.08-0.31c-0.73-0.06-1.84,0.12-3.03,0.8c-0.59,0.34-1.21,0.81-1.71,1.47c-0.5,0.65-0.89,1.44-1.53,2.03
									c-0.63,0.58-1.62,0.75-2.6,0.9c-0.5,0.06-1.01,0.1-1.53,0.08c-0.51-0.02-1.07-0.09-1.44-0.34l0.09,0.14
									c-0.34-1.51-0.67-3.13-1.08-4.77c-0.41-1.64-0.76-3.36-1.06-5.14c-0.46-2.72-0.76-5.36-1.03-7.78l-0.14,0.25
									c0.8-0.38,1.51-0.92,2.11-1.48c0.6-0.56,1.15-1.09,1.83-1.36c1.36-0.54,2.82-0.47,4.08-0.42l-0.17-0.25
									c-0.73,2.51-0.74,4.64-0.57,6.07c0.1,0.72,0.23,1.27,0.34,1.63C311.82,120.64,311.9,120.83,311.91,120.82z"/>
							</g>
						</g>
					</g>
				</g>
				<g>
					<g>
						<g>
							<path class="st11" d="M277.75,215.25c0.04,0-0.05-0.4,0.01-1.15c0.05-0.74,0.26-1.86,0.99-3.08
								c0.72-1.22,1.93-2.53,3.68-3.55c1.74-1.03,4.02-1.59,6.56-1.8c2.54-0.23,5.36-0.09,8.39-0.3c3.02-0.21,6.27-0.74,9.46-2.01
								c3.18-1.25,6.28-3.35,8.53-6.37c1.11-1.51,1.97-3.26,2.45-5.14c0.5-1.88,0.63-3.85,0.56-5.83
								c-0.16-3.96-1.07-7.71-1.61-11.35c-0.57-3.64-0.89-7.18-1-10.57c-0.19-6.77,0.41-12.87,1.32-17.91
								c0.91-5.04,2.07-9.04,2.95-11.76c0.43-1.37,0.81-2.41,1.07-3.13c0.11-0.33,0.21-0.6,0.28-0.81c0.06-0.18,0.09-0.28,0.08-0.28
								c-0.01,0-0.05,0.09-0.13,0.26c-0.08,0.21-0.19,0.47-0.33,0.8c-0.28,0.7-0.7,1.74-1.16,3.1c-0.95,2.71-2.16,6.71-3.12,11.76
								c-0.96,5.05-1.6,11.18-1.43,17.99c0.1,3.4,0.4,6.97,0.98,10.63c0.55,3.66,1.45,7.4,1.6,11.29c0.2,3.87-0.69,7.73-2.9,10.64
								c-2.17,2.93-5.19,4.99-8.3,6.23c-3.12,1.26-6.32,1.79-9.31,2.02c-2.99,0.22-5.82,0.1-8.39,0.36
								c-2.56,0.23-4.9,0.83-6.67,1.92c-1.77,1.07-2.99,2.44-3.7,3.7c-0.72,1.27-0.9,2.43-0.92,3.18c-0.02,0.38,0.02,0.67,0.05,0.86
								C277.72,215.15,277.74,215.25,277.75,215.25z"/>
						</g>
					</g>
				</g>
				<g>
					<g>
						<g>
							<path class="st11" d="M292.71,197.01c-0.02,0.03,0.39,0.45,1.15,1.19c0.38,0.38,0.86,0.83,1.44,1.31
								c0.58,0.49,1.22,1.08,1.99,1.65c1.5,1.2,3.37,2.5,5.53,3.83c2.18,1.29,4.65,2.59,7.35,3.73c2.7,1.12,5.36,1.97,7.81,2.62
								c2.46,0.61,4.71,1.03,6.61,1.26c0.95,0.15,1.81,0.19,2.57,0.26c0.76,0.07,1.41,0.1,1.95,0.1c1.07,0.02,1.66,0.02,1.66-0.02
								c0-0.04-0.59-0.1-1.65-0.19c-0.53-0.04-1.18-0.09-1.93-0.19c-0.75-0.09-1.61-0.17-2.55-0.33c-1.88-0.27-4.1-0.73-6.54-1.36
								c-2.42-0.66-5.05-1.52-7.73-2.63c-2.67-1.13-5.13-2.4-7.3-3.66c-2.16-1.29-4.04-2.55-5.55-3.71
								c-0.78-0.55-1.43-1.11-2.02-1.58c-0.6-0.46-1.09-0.89-1.49-1.24C293.19,197.35,292.73,196.98,292.71,197.01z"/>
						</g>
					</g>
				</g>
				<g>
					<g>
						<g>
							<path class="st11" d="M299.15,164.16c-0.02,0,0.01,0.19,0.09,0.55c0.09,0.41,0.21,0.93,0.35,1.56
								c0.15,0.68,0.35,1.5,0.66,2.44c0.3,0.94,0.59,2.03,1.07,3.18c0.22,0.58,0.46,1.19,0.7,1.82c0.25,0.63,0.56,1.26,0.86,1.93
								c0.57,1.35,1.34,2.71,2.11,4.16c1.64,2.85,3.65,5.87,6.08,8.79c2.46,2.9,5.08,5.41,7.6,7.52c1.3,1.01,2.51,2,3.73,2.8
								c0.61,0.41,1.17,0.83,1.75,1.18c0.58,0.35,1.14,0.68,1.67,1.01c1.05,0.67,2.07,1.14,2.94,1.6c0.87,0.47,1.65,0.81,2.29,1.08
								c0.6,0.25,1.08,0.45,1.47,0.62c0.34,0.14,0.52,0.2,0.53,0.18s-0.16-0.11-0.49-0.28c-0.38-0.19-0.85-0.42-1.43-0.7
								c-0.63-0.29-1.39-0.66-2.24-1.15c-0.86-0.48-1.86-0.98-2.89-1.66c-0.52-0.33-1.07-0.67-1.64-1.03
								c-0.57-0.36-1.13-0.79-1.72-1.2c-1.21-0.81-2.4-1.8-3.68-2.82c-2.49-2.11-5.07-4.61-7.51-7.48c-2.4-2.9-4.41-5.88-6.06-8.69
								c-0.78-1.43-1.55-2.78-2.14-4.11c-0.3-0.66-0.63-1.28-0.88-1.91c-0.25-0.62-0.49-1.22-0.73-1.8
								c-0.49-1.13-0.81-2.21-1.13-3.13c-0.34-0.92-0.57-1.74-0.74-2.41c-0.18-0.62-0.33-1.13-0.44-1.53
								C299.23,164.34,299.17,164.16,299.15,164.16z"/>
						</g>
					</g>
				</g>
				<g>
					<g>
						<g>
							<path class="st11" d="M341.32,230.6c0.03,0.05,0.8-0.38,1.82-1.36c1.02-0.97,2.24-2.55,3.09-4.54c0.84-2,1.11-3.98,1.09-5.39
								c-0.02-1.42-0.25-2.26-0.31-2.25c-0.09,0.01,0.01,0.87-0.06,2.24c-0.07,1.37-0.39,3.26-1.2,5.19
								c-0.82,1.93-1.94,3.48-2.87,4.49C341.95,230,341.27,230.53,341.32,230.6z"/>
						</g>
					</g>
				</g>
				<g>
					<g>
						<g>
							<path class="st11" d="M342.05,222.81c-0.15,0.04,0.13,1.32-0.02,2.9c-0.13,1.58-0.61,2.8-0.47,2.86
								c0.11,0.07,0.86-1.13,0.99-2.82C342.71,224.06,342.18,222.76,342.05,222.81z"/>
						</g>
					</g>
				</g>
				<g>
					<g>
						<g>
							<path class="st11" d="M351.92,187c0.02,0,0.06-0.16,0.12-0.47c0.07-0.37,0.15-0.82,0.25-1.36c0.21-1.26,0.5-2.96,0.84-5.01
								c0.7-4.23,1.7-10.07,2.9-16.5c1.2-6.43,2.38-12.24,3.25-16.44c0.42-2.04,0.76-3.72,1.02-4.98c0.1-0.54,0.19-0.99,0.26-1.36
								c0.05-0.31,0.07-0.48,0.06-0.48c-0.02,0-0.07,0.15-0.16,0.46c-0.1,0.36-0.21,0.8-0.35,1.34c-0.3,1.16-0.7,2.85-1.18,4.94
								c-0.96,4.18-2.2,9.98-3.4,16.42c-1.2,6.44-2.14,12.29-2.75,16.54c-0.31,2.12-0.54,3.85-0.68,5.04
								c-0.06,0.55-0.11,1-0.15,1.37C351.91,186.84,351.9,187,351.92,187z"/>
						</g>
					</g>
				</g>
				<g>
					<g>
						<g>
							<path class="st11" d="M287.92,187c0.02,0,0.03-0.17,0.05-0.49c0.01-0.38,0.03-0.85,0.04-1.42c0.03-1.23,0.03-3.02,0.02-5.22
								c-0.04-4.41-0.23-10.5-0.74-17.22c-0.51-6.71-1.19-12.77-1.71-17.15c-0.27-2.13-0.49-3.88-0.66-5.18
								c-0.08-0.56-0.15-1.02-0.21-1.4c-0.05-0.32-0.09-0.49-0.11-0.49c-0.02,0-0.02,0.17,0,0.5c0.03,0.38,0.07,0.85,0.11,1.42
								c0.12,1.31,0.29,3.06,0.49,5.2c0.43,4.39,1.05,10.44,1.55,17.15c0.51,6.7,0.76,12.78,0.9,17.19c0.06,2.14,0.11,3.9,0.15,5.22
								c0.02,0.57,0.04,1.03,0.06,1.42C287.88,186.83,287.9,187,287.92,187z"/>
						</g>
					</g>
				</g>
				<g>
					<g>
						<g>
							<path class="st11" d="M367.88,189.58c0.18,0.08,1.49-3.57,4.04-7.53c2.57-3.96,5.55-6.45,5.42-6.58
								c-0.04-0.05-0.82,0.52-1.96,1.6c-1.13,1.08-2.59,2.7-3.9,4.7c-1.3,2.01-2.22,3.97-2.81,5.42
								C368.09,188.63,367.82,189.56,367.88,189.58z"/>
						</g>
					</g>
				</g>
				<g>
					<g>
						<g>
							<path class="st11" d="M366.16,185.23c0.08,0.03,0.42-0.76,1.12-1.95c0.7-1.18,1.84-2.72,3.46-4.05
								c1.62-1.32,3.33-2.2,4.58-2.79c1.25-0.58,2.05-0.91,2.03-0.98c-0.02-0.06-0.86,0.14-2.17,0.65c-1.3,0.51-3.08,1.35-4.76,2.72
								c-1.68,1.37-2.82,3.02-3.45,4.27C366.32,184.37,366.11,185.22,366.16,185.23z"/>
						</g>
					</g>
				</g>
				<g class="st6">
					<g>
						<g>
							<path d="M329.85,203.3c0.98-1.51,0.32-3.63-0.95-4.9c-1.27-1.28-3.01-1.95-4.62-2.75c-5.89-2.9-10.73-7.88-13.48-13.84
								c-1.82-3.94-3.2-8.77-7.22-10.39c2.05,13.89,12.39,26.22,25.71,30.66"/>
						</g>
					</g>
				</g>
				<g class="st6">
					<g>
						<g>
							<path d="M358.24,151.45c-1.01,10.92-0.23,22.01,2.3,32.68c0.54,2.27,1.16,4.56,1.12,6.89c-0.04,2.33-1.49,5.03-3.33,6.47
								c-1.66-3.82-1.69-7.51-2.39-11.63c-0.63-3.72-1.69-12.38-1.69-12.51c-0.15-7.59,1.64-14.08,4.56-20.91"/>
						</g>
					</g>
				</g>
				<g class="st6">
					<g>
						<g>
							<path d="M339.39,118.63c-1.46,8.02-5.48,15.55-11.32,21.24c-2.21,2.15-4.96,4.15-8.05,4.05c1.77-3.62,2.32-7.83,1.54-11.79
								c-2.65,1.67-5.32,3.35-8.24,4.48c-2.92,1.13-6.14,1.69-9.2,1.05c-0.64-5.54-1.28-11.08-1.92-16.62
								c-0.07-0.63-0.14-1.3,0.17-1.86c0.31-0.55,1.15-0.84,1.58-0.38c0.18,0.19,0.25,0.47,0.31,0.73c1.13,4.86,1.75,9.2,2.88,14.06
								c0.81,0.8,3.3,0.47,4.94-0.13c1.43-0.53,1.98-1.71,2.92-2.9c0.95-1.19,0.78-0.98,2.18-1.58c2.58-1.09,7.53-0.22,8.61,2.09
								c1.08,2.32,0.26,5.36-0.46,7.64c7.15-4.62,12.46-11.99,14.59-20.24"/>
						</g>
					</g>
				</g>
				<g class="st6">
					<g>
						<path d="M284.86,142.08c0.2,0.4-6.23,22.08-6.23,22.08l8.33-4.75L284.86,142.08z"/>
					</g>
				</g>
			</g>
		</g>
		<g>
			<g>
				<g>
					<g>
						<g>
							<g>
								<g>
									<g>
										<g>
											<g>
												<g>
													<g>
														<g>
															<g>
																<g>
																	<path class="st8" d="M336.62,79.18l0,34.52c0,1.97-0.7,3.88-1.97,5.39l0,0c-1.95,2.31-4.3,4.26-6.93,5.74
																		l-6.96,3.92l-5.76-5.14c-1.69-1.51-2.7-3.65-2.79-5.92c-0.1-2.51-0.1-5.05-0.1-5.05s-9.76-0.7-10.67-10.32
																		c-0.43-4.53-0.57-13.81-0.59-22.36c-0.03-9.76,7.45-17.89,17.18-18.7l0.27-0.02
																		C328.37,60.99,336.66,69.11,336.62,79.18z"/>
																</g>
															</g>
														</g>
													</g>
												</g>
											</g>
										</g>
									</g>
								</g>
							</g>
							<g>
								<g>
									<g>
										<g>
											<g>
												<g>
													<g>
														<g>
															<g>
																<g>
																	<path class="st9" d="M312.12,112.64c0,0,6.1-0.15,12.23-4.75c0,0-2.52,7.3-12.21,7.23L312.12,112.64z"/>
																</g>
															</g>
														</g>
													</g>
												</g>
											</g>
										</g>
									</g>
								</g>
							</g>
						</g>
					</g>
				</g>
				<g>
					<g>
						<g>
							<g>
								<g>
									<g>
										<g>
											<g>
												<g>
													<g>
														<g>
															<g>
																<g>
																	<g>
																		<g>
																			<g>
																				<path class="st11" d="M303.7,86.14c0.03,0.73,0.68,1.3,1.44,1.28c0.76-0.02,1.35-0.63,1.32-1.36
																					c-0.03-0.73-0.68-1.3-1.44-1.28C304.25,84.81,303.66,85.41,303.7,86.14z"/>
																			</g>
																		</g>
																	</g>
																</g>
															</g>
														</g>
													</g>
												</g>
											</g>
										</g>
										<g>
											<g>
												<g>
													<g>
														<g>
															<g>
																<g>
																	<g>
																		<g>
																			<g>
																				<g>
																					<path class="st11" d="M303.31,83.84c0.19,0.17,1.16-0.69,2.64-0.81c1.48-0.14,2.63,0.53,2.77,0.34
																						c0.07-0.09-0.13-0.4-0.63-0.7c-0.49-0.3-1.32-0.57-2.24-0.49c-0.92,0.08-1.67,0.48-2.09,0.87
																						C303.35,83.43,303.22,83.77,303.31,83.84z"/>
																				</g>
																			</g>
																		</g>
																	</g>
																</g>
															</g>
														</g>
													</g>
												</g>
											</g>
										</g>
									</g>
									<g>
										<g>
											<g>
												<g>
													<g>
														<g>
															<g>
																<g>
																	<g>
																		<g>
																			<g>
																				<path class="st11" d="M317.66,85.44c0.03,0.73,0.68,1.3,1.44,1.28c0.76-0.02,1.35-0.63,1.32-1.36
																					c-0.03-0.73-0.68-1.3-1.44-1.28C318.22,84.1,317.63,84.71,317.66,85.44z"/>
																			</g>
																		</g>
																	</g>
																</g>
															</g>
														</g>
													</g>
												</g>
											</g>
										</g>
										<g>
											<g>
												<g>
													<g>
														<g>
															<g>
																<g>
																	<g>
																		<g>
																			<g>
																				<g>
																					<path class="st11" d="M317.88,82.91c0.19,0.17,1.17-0.69,2.64-0.81c1.48-0.14,2.63,0.53,2.77,0.34
																						c0.07-0.09-0.13-0.4-0.63-0.7c-0.49-0.3-1.32-0.57-2.24-0.49c-0.92,0.08-1.67,0.49-2.09,0.87
																						C317.92,82.5,317.79,82.84,317.88,82.91z"/>
																				</g>
																			</g>
																		</g>
																	</g>
																</g>
															</g>
														</g>
													</g>
												</g>
											</g>
										</g>
									</g>
									<g>
										<g>
											<g>
												<g>
													<g>
														<g>
															<g>
																<g>
																	<g>
																		<g>
																			<g>
																				<path class="st11" d="M313.42,94.33c0-0.08-0.93-0.17-2.44-0.23c-0.38-0.01-0.75-0.05-0.83-0.31
																					c-0.11-0.27,0.01-0.69,0.16-1.14c0.28-0.94,0.57-1.93,0.88-2.97c1.21-4.23,2.06-7.69,1.89-7.74
																					c-0.17-0.05-1.29,3.34-2.51,7.57c-0.29,1.04-0.57,2.03-0.83,2.98c-0.11,0.44-0.31,0.95-0.07,1.5
																					c0.13,0.27,0.42,0.46,0.67,0.5c0.25,0.05,0.46,0.04,0.65,0.04C312.49,94.49,313.42,94.42,313.42,94.33z"/>
																			</g>
																		</g>
																	</g>
																</g>
															</g>
														</g>
													</g>
												</g>
											</g>
										</g>
									</g>
									<g>
										<g>
											<g>
												<g>
													<g>
														<g>
															<g>
																<g>
																	<g>
																		<g>
																			<g>
																				<path class="st11" d="M317.86,95c-0.24,0.01-0.11,1.61-1.39,2.87c-1.28,1.26-3.01,1.22-3,1.44
																					c-0.01,0.1,0.41,0.28,1.13,0.24c0.71-0.03,1.73-0.35,2.51-1.12c0.78-0.77,1.06-1.73,1.06-2.4
																					C318.18,95.36,317.97,94.98,317.86,95z"/>
																			</g>
																		</g>
																	</g>
																</g>
															</g>
														</g>
													</g>
												</g>
											</g>
										</g>
									</g>
								</g>
							</g>
						</g>
						<g>
							<g>
								<g>
									<g>
										<g>
											<g>
												<g>
													<g>
														<g>
															<g>
																<path class="st11" d="M317.02,77.14c0.18,0.39,1.64,0.08,3.4,0.14c1.76,0.03,3.2,0.42,3.4,0.04
																	c0.09-0.18-0.19-0.54-0.79-0.88c-0.59-0.34-1.52-0.64-2.57-0.67c-1.05-0.03-1.99,0.22-2.6,0.53
																	C317.24,76.61,316.94,76.96,317.02,77.14z"/>
															</g>
														</g>
													</g>
												</g>
											</g>
										</g>
									</g>
								</g>
							</g>
						</g>
						<g>
							<g>
								<g>
									<g>
										<g>
											<g>
												<g>
													<g>
														<g>
															<g>
																<path class="st11" d="M303.5,79.51c0.29,0.31,1.28-0.12,2.5-0.24c1.22-0.16,2.28,0.04,2.49-0.33
																	c0.09-0.18-0.1-0.5-0.58-0.78c-0.47-0.28-1.24-0.48-2.08-0.38c-0.84,0.1-1.55,0.46-1.94,0.84
																	C303.48,79,303.37,79.36,303.5,79.51z"/>
															</g>
														</g>
													</g>
												</g>
											</g>
										</g>
									</g>
								</g>
							</g>
						</g>
					</g>
				</g>
				<g>
					<g>
						<g>
							<g>
								<path class="st11" d="M325.29,69.48c0.02,0.01,0.04,0.03,0.06,0.04c1.63,1.08,2.79,2.75,3.22,4.67
									c0.02,0.07,0.03,0.13,0.04,0.19c0.6,2.72,0.77,5.52,1.4,8.23c0.63,2.71,0.51,4.78,3.23,5.39c1.71,0.39,3.17-0.57,3.78-1.54
									c0.24-0.37,0.24-0.84,0.24-1.29c-0.04-6.68,1.31-9.27,0.72-16.2c-0.16-1.89-1.2-3.59-2.82-4.56
									c-1.54-0.92-3.4-1.85-4.95-0.96c-1.55,0.9-3.39,4.09-4.54,5.48"/>
							</g>
						</g>
					</g>
				</g>
				<g>
					<g>
						<g>
							<g>
								<g>
									<g>
										<g>
											<g>
												<g>
													<g>
														<g>
															<path class="st8" d="M333.74,83.81c0.16-0.08,6.46-2.51,6.79,4.1c0.33,6.6-6.36,5.58-6.38,5.39
																C334.12,93.1,333.74,83.81,333.74,83.81z"/>
														</g>
													</g>
												</g>
											</g>
										</g>
									</g>
								</g>
							</g>
						</g>
					</g>
					<g>
						<g>
							<g>
								<g>
									<g>
										<g>
											<g>
												<g>
													<g>
														<g>
															<g>
																<path class="st9" d="M336.03,90.69c0.03-0.02,0.12,0.07,0.32,0.15c0.19,0.08,0.52,0.12,0.86-0.03
																	c0.68-0.29,1.22-1.43,1.19-2.62c-0.01-0.6-0.17-1.17-0.41-1.63c-0.23-0.47-0.56-0.79-0.91-0.84
																	c-0.35-0.06-0.59,0.16-0.66,0.35c-0.08,0.19-0.03,0.32-0.06,0.33c-0.02,0.02-0.15-0.1-0.11-0.38
																	c0.02-0.13,0.09-0.29,0.24-0.43c0.15-0.14,0.38-0.21,0.63-0.2c0.51,0.01,0.99,0.45,1.25,0.96
																	c0.29,0.51,0.48,1.14,0.49,1.82c0.03,1.33-0.59,2.61-1.53,2.94c-0.46,0.14-0.85,0.02-1.06-0.12
																	C336.05,90.85,336.01,90.7,336.03,90.69z"/>
															</g>
														</g>
													</g>
												</g>
											</g>
										</g>
									</g>
								</g>
							</g>
						</g>
					</g>
				</g>
				<g>
					<g>
						<g>
							<g>
								<path class="st11" d="M330.51,64.46c1.4-2.77-3.35-6.18-6.69-6.94c-3.34-0.76-7.49,1.18-10.63,2.52
									c-1.98,0.85-3.94,1.96-6.1,2.05c-1.45,0.06-2.86-0.35-4.26-0.72c-1.4-0.37-2.85-0.7-4.28-0.48
									c-1.43,0.22-2.85,1.1-3.28,2.48c-0.44,1.38,0.5,3.14,1.94,3.22c-1.91-0.85-4.43,0.68-4.56,2.77
									c-0.13,2.08,2.2,3.91,4.19,3.3c-1-0.63-2.33,0.66-2.12,1.82c0.21,1.16,1.34,1.92,2.46,2.31c2.85,0.98,6.02,0.33,8.78-0.86
									c2.76-1.19,5.28-2.9,8.01-4.16c2.73-1.26,7.3-3.49,10.21-2.73c2.14,0.56,3.8,2.95,4.93,2.3c1.09-0.63,1.71-1.88,1.84-3.13
									C331.08,66.94,330.79,65.69,330.51,64.46"/>
							</g>
						</g>
					</g>
				</g>
				<g>
					<g>
						<g>
							<g>
								<g>
									<path class="st12" d="M296.4,66.48c0.05-0.04,0.38,0.46,1.15,1.17c0.77,0.7,2.05,1.59,3.85,2.05
										c1.78,0.46,4.14,0.46,6.26-0.77c2.16-1.19,3.91-3.35,5.96-5.43c2.04-2.09,4.52-3.72,7.11-4.17
										c2.57-0.46,5.04,0.29,6.48,1.66c1.45,1.38,1.86,3.06,1.85,4.13c0,0.55-0.11,0.96-0.18,1.23c-0.1,0.27-0.16,0.4-0.18,0.39
										c-0.06-0.02,0.17-0.58,0.11-1.62c-0.06-1.01-0.52-2.57-1.9-3.8c-1.36-1.22-3.66-1.87-6.06-1.41
										c-2.41,0.45-4.76,2-6.75,4.04c-2.01,2.03-3.82,4.25-6.13,5.49c-2.3,1.29-4.83,1.23-6.67,0.69
										c-1.88-0.54-3.17-1.54-3.91-2.32c-0.37-0.4-0.63-0.72-0.77-0.97C296.45,66.62,296.38,66.49,296.4,66.48z"/>
								</g>
							</g>
						</g>
					</g>
				</g>
				<g>
					<g>
						<g>
							<g>
								<g>
									<path class="st12" d="M335.39,83.38c-0.02,0.02-0.3-0.16-0.59-0.66c-0.29-0.49-0.56-1.33-0.53-2.36
										c-0.03-2.13,1.66-4.57,1.65-7.52c0.03-1.46-0.34-2.85-1.05-3.87c-0.7-1.02-1.73-1.63-2.62-1.91
										c-0.91-0.29-1.7-0.23-2.22-0.12c-0.52,0.13-0.8,0.27-0.83,0.22c-0.02-0.03,0.21-0.25,0.75-0.47
										c0.53-0.2,1.41-0.35,2.42-0.08c1,0.25,2.16,0.87,2.99,2.01c0.82,1.12,1.24,2.66,1.22,4.23c0,1.57-0.46,3.03-0.93,4.26
										c-0.47,1.23-0.85,2.32-0.92,3.28C334.55,82.35,335.48,83.34,335.39,83.38z"/>
								</g>
							</g>
						</g>
					</g>
				</g>
			</g>
		</g>
	</g>
</g>
<g id="Lines">
	<g>
		<g>
			<g>
				<g>
					<path class="st13" d="M308.23,274.09c0,0,0.5,0.02,1.49,0.04c0.99,0.01,2.45,0.03,4.37,0.06c3.84,0.06,9.5,0.21,16.78,0.56
						c7.28,0.38,16.18,1.02,26.47,2.19c5.14,0.62,10.63,1.32,16.42,2.29c5.8,0.93,11.9,2.08,18.25,3.53
						c6.35,1.44,12.96,3.17,19.72,5.38c6.74,2.22,13.68,4.86,20.45,8.44c3.38,1.78,6.69,3.85,9.81,6.26
						c3.09,2.42,6.01,5.27,8.03,8.78c0.24,0.44,0.51,0.88,0.74,1.33l0.57,1.41l0.28,0.71c0.08,0.24,0.12,0.49,0.19,0.74l0.36,1.49
						c0.23,2.01,0.31,4.11-0.3,6.1c-0.98,4.05-3.65,7.55-6.72,10.49c-6.27,5.88-14.26,9.98-22.54,13.42
						c-8.33,3.42-17.17,6.08-26.27,8.31c-18.21,4.44-37.51,7.05-57.34,8.44c-19.84,1.35-39.3,1.34-58.01,0.23
						c-18.71-1.14-36.71-3.4-53.56-6.99c-8.42-1.81-16.55-3.96-24.28-6.55c-7.74-2.57-15.06-5.67-21.71-9.46
						c-3.29-1.95-6.4-4.08-9.15-6.52c-2.74-2.44-5.14-5.23-6.63-8.44l-0.49-1.22c-0.16-0.41-0.35-0.8-0.42-1.23l-0.31-1.26
						c-0.05-0.21-0.11-0.42-0.14-0.63l-0.05-0.64c-0.24-1.71-0.06-3.42,0.38-5.04c0.45-1.63,1.25-3.11,2.11-4.51
						c0.94-1.36,1.95-2.65,3.1-3.8c2.25-2.33,4.77-4.29,7.32-6.03c2.56-1.74,5.16-3.27,7.76-4.63c5.18-2.75,10.3-4.88,15.13-6.73
						c9.68-3.65,18.29-6.05,25.36-7.82c7.07-1.77,12.62-2.88,16.39-3.6c1.88-0.38,3.33-0.62,4.29-0.8c0.97-0.18,1.46-0.28,1.46-0.28
						s-1.99,0.29-5.77,0.98c-3.78,0.69-9.34,1.77-16.42,3.51c-7.08,1.74-15.7,4.11-25.41,7.74c-4.84,1.84-9.98,3.96-15.18,6.71
						c-2.61,1.36-5.23,2.88-7.8,4.63c-2.57,1.75-5.1,3.71-7.39,6.07c-1.16,1.16-2.19,2.47-3.15,3.85c-0.88,1.43-1.7,2.94-2.17,4.62
						c-0.46,1.67-0.64,3.44-0.4,5.19l0.05,0.66c0.03,0.22,0.1,0.43,0.14,0.65l0.31,1.3c0.08,0.44,0.27,0.85,0.43,1.26l0.5,1.25
						c1.51,3.28,3.95,6.11,6.71,8.58c2.78,2.47,5.91,4.62,9.21,6.58c6.68,3.81,14.02,6.93,21.78,9.52c7.75,2.6,15.9,4.76,24.33,6.58
						c16.88,3.6,34.89,5.88,53.63,7.03c18.74,1.12,38.21,1.14,58.08-0.22c19.85-1.4,39.17-4.01,57.42-8.47
						c9.12-2.23,17.97-4.91,26.33-8.34c8.32-3.46,16.34-7.57,22.69-13.53c3.1-2.98,5.83-6.54,6.84-10.72
						c0.62-2.05,0.55-4.22,0.3-6.29l-0.37-1.53c-0.07-0.25-0.11-0.51-0.19-0.76l-0.29-0.73l-0.58-1.45c-0.24-0.46-0.5-0.9-0.75-1.35
						c-2.07-3.58-5.03-6.46-8.15-8.91c-3.15-2.43-6.48-4.51-9.88-6.29c-6.8-3.58-13.76-6.22-20.52-8.44
						c-6.78-2.2-13.4-3.92-19.76-5.35c-6.36-1.44-12.47-2.58-18.27-3.49c-5.8-0.95-11.3-1.64-16.44-2.25
						c-10.3-1.15-19.2-1.76-26.49-2.11c-7.29-0.33-12.95-0.44-16.79-0.47c-1.91,0-3.38-0.01-4.37-0.01
						C308.73,274.08,308.23,274.09,308.23,274.09z"/>
				</g>
			</g>
		</g>
		<g>
			<g>
				<g>
					<path class="st13" d="M389.95,198.33c0,0,0.57,0.13,1.68,0.35c1.11,0.23,2.77,0.53,4.94,1c4.34,0.9,10.73,2.29,18.84,4.51
						c8.09,2.26,17.98,5.26,28.87,10.2c2.71,1.25,5.49,2.61,8.26,4.19c2.77,1.57,5.58,3.3,8.29,5.32c2.7,2.03,5.36,4.3,7.65,7.03
						c2.27,2.72,4.29,5.88,5.19,9.51c0.96,3.6,0.69,7.6-0.82,11.2c-1.48,3.63-3.99,6.85-6.92,9.68C460,267,452.49,271.3,444.5,275
						c-16.11,7.32-34.5,12.23-54.02,15.89c-19.55,3.62-40.36,5.86-61.98,6.84c-21.62,0.95-44.07,0.68-66.94-1.19
						c-22.87-1.9-45.11-5.26-66.05-10.76c-10.45-2.77-20.59-6.08-30.08-10.33c-4.74-2.14-9.33-4.49-13.59-7.25
						c-4.26-2.76-8.25-5.89-11.45-9.66c-3.19-3.73-5.54-8.3-5.68-13.13c-0.05-0.6,0.02-1.19,0.06-1.79c0.07-0.59,0.03-1.2,0.19-1.77
						l0.39-1.74c0.1-0.59,0.39-1.12,0.57-1.68c0.78-2.24,2.09-4.23,3.43-6.13c2.87-3.71,6.43-6.74,10.14-9.37
						c3.73-2.62,7.67-4.8,11.61-6.79c7.93-3.91,15.95-6.89,23.78-9.34c7.83-2.45,15.48-4.39,22.82-6.02
						c29.43-6.35,53.83-8.07,70.61-9.01c8.4-0.44,14.94-0.45,19.37-0.57c2.21-0.05,3.9-0.09,5.04-0.11
						c1.14-0.03,1.72-0.06,1.72-0.06s-0.58-0.01-1.72,0c-1.14,0.01-2.83,0.03-5.04,0.06c-4.43,0.08-10.97,0.06-19.38,0.47
						c-16.79,0.87-41.2,2.54-70.68,8.85c-7.35,1.62-15.01,3.55-22.86,6c-7.85,2.44-15.9,5.42-23.85,9.33
						c-3.96,1.99-7.92,4.17-11.68,6.81c-3.74,2.65-7.34,5.7-10.25,9.46c-1.37,1.93-2.7,3.95-3.5,6.25
						c-0.19,0.57-0.48,1.12-0.58,1.72l-0.4,1.78c-0.16,0.59-0.12,1.21-0.2,1.82c-0.04,0.61-0.12,1.22-0.06,1.84
						c0.07,2.46,0.71,4.9,1.73,7.15c1.01,2.27,2.43,4.35,4.05,6.26c3.25,3.83,7.27,6.98,11.55,9.76c4.29,2.78,8.9,5.15,13.65,7.3
						c9.53,4.26,19.68,7.59,30.16,10.37c20.97,5.52,43.24,8.88,66.14,10.79c22.9,1.87,45.37,2.14,67.01,1.18
						c21.64-0.98,42.46-3.23,62.04-6.87c19.55-3.68,37.96-8.61,54.11-15.97c8.02-3.72,15.56-8.05,21.52-13.78
						c2.96-2.86,5.5-6.13,7-9.83c1.54-3.67,1.81-7.77,0.82-11.44c-0.92-3.71-2.98-6.9-5.28-9.65c-2.32-2.75-5-5.04-7.72-7.07
						c-2.73-2.03-5.55-3.76-8.33-5.32c-2.78-1.57-5.57-2.94-8.29-4.18c-10.92-4.93-20.82-7.91-28.93-10.14
						c-8.13-2.19-14.53-3.55-18.88-4.42C392.25,198.7,389.95,198.33,389.95,198.33z"/>
				</g>
			</g>
		</g>
		<g>
			<g>
				<g>
					<path class="st13" d="M354.89,349.23c0.34,0.05,1.82,0.29,4.99,0.79c3.27,0.52,8.08,1.35,14.22,2.7
						c6.13,1.37,13.62,3.2,22.03,6.21c4.19,1.53,8.63,3.32,13.1,5.69c2.24,1.17,4.47,2.52,6.65,4.06c2.17,1.55,4.28,3.32,6.11,5.44
						c0.89,1.07,1.75,2.21,2.41,3.48c0.71,1.24,1.2,2.62,1.49,4.04c0.06,0.36,0.14,0.72,0.18,1.08l0.06,1.1
						c-0.01,0.73-0.09,1.47-0.16,2.21c-0.2,0.72-0.3,1.47-0.57,2.17l-0.42,1.05l-0.21,0.53l-0.28,0.5c-1.43,2.7-3.59,5.02-6.01,7.07
						c-2.42,2.07-5.18,3.8-8.06,5.41c-5.77,3.21-12.17,5.69-18.85,7.87c-6.7,2.16-13.74,3.89-21.02,5.37
						c-14.57,2.93-30.1,4.73-46.25,5.53c-16.15,0.78-32.93,0.59-50.02-0.87c-17.08-1.48-33.7-4.09-49.27-8.49
						c-7.76-2.24-15.28-4.92-22.2-8.46c-3.44-1.8-6.73-3.82-9.66-6.24c-0.76-0.57-1.4-1.27-2.11-1.89
						c-0.69-0.64-1.27-1.38-1.91-2.06c-1.13-1.48-2.22-3.02-2.84-4.75c-1.49-3.41-1.12-7.33,0.44-10.54
						c1.63-3.21,4.17-5.82,6.89-8.02c5.51-4.38,11.76-7.33,17.87-9.78c6.14-2.45,12.26-4.29,18.19-5.83
						c5.94-1.53,11.71-2.74,17.24-3.71c22.16-3.87,40.42-4.58,52.97-4.85c12.46-0.07,18.82-0.1,19.53-0.11c0,0-6.95-0.09-19.53-0.01
						c-12.56,0.23-30.82,0.9-53.01,4.75c-5.54,0.97-11.31,2.17-17.26,3.7c-5.95,1.53-12.08,3.37-18.23,5.82
						c-6.13,2.46-12.4,5.4-17.95,9.81c-2.74,2.21-5.3,4.84-6.97,8.11c-1.59,3.27-1.97,7.3-0.46,10.77c0.64,1.77,1.75,3.33,2.89,4.83
						c0.64,0.69,1.24,1.44,1.93,2.09c0.71,0.63,1.36,1.34,2.13,1.91c2.95,2.44,6.25,4.47,9.71,6.28c6.95,3.56,14.47,6.24,22.25,8.49
						c15.59,4.41,32.23,7.03,49.32,8.51c17.1,1.46,33.9,1.65,50.06,0.87c16.16-0.8,31.71-2.61,46.3-5.55
						c7.29-1.49,14.34-3.23,21.05-5.39c6.7-2.19,13.11-4.67,18.9-7.91c2.89-1.61,5.66-3.36,8.09-5.44c2.43-2.06,4.61-4.41,6.06-7.15
						l0.28-0.5l0.22-0.54l0.43-1.07c0.27-0.71,0.38-1.48,0.58-2.21c0.07-0.75,0.15-1.51,0.16-2.26l-0.07-1.12
						c-0.04-0.37-0.12-0.73-0.18-1.1c-0.3-1.45-0.8-2.85-1.52-4.11c-0.67-1.28-1.54-2.43-2.44-3.51c-1.85-2.14-3.98-3.91-6.16-5.47
						c-2.19-1.55-4.43-2.9-6.68-4.07c-4.49-2.37-8.93-4.16-13.13-5.68c-8.43-3-15.93-4.81-22.06-6.17
						c-6.15-1.33-10.97-2.13-14.24-2.64C356.62,349.45,354.89,349.23,354.89,349.23z"/>
				</g>
			</g>
		</g>
		<g>
			<g>
				<g>
					<path class="st13" d="M224.31,440.68c0.08,0.02-0.13-1.35,0.83-3.64c0.93-2.29,3.41-5.14,7.32-7.72
						c7.86-5.17,20.99-9.52,37.53-12.17c8.28-1.35,17.43-2.27,27.28-2.67c9.85-0.4,20.4-0.3,31.46,0.58
						c5.53,0.44,11.17,1.07,16.9,1.99c5.73,0.92,11.55,2.06,17.36,3.66c2.91,0.78,5.82,1.69,8.69,2.75c2.88,1.06,5.73,2.25,8.49,3.7
						c2.74,1.45,5.41,3.15,7.69,5.32c2.27,2.12,4.12,4.99,4.16,8.2c-0.04,3.21-1.89,6.08-4.15,8.21c-2.28,2.17-4.95,3.88-7.69,5.33
						c-2.75,1.45-5.61,2.65-8.49,3.7c-2.88,1.06-5.78,1.96-8.7,2.75c-5.82,1.6-11.64,2.75-17.37,3.66
						c-5.73,0.91-11.38,1.55-16.91,1.99c-11.05,0.88-21.61,0.98-31.46,0.58c-9.85-0.4-19.01-1.33-27.28-2.67
						c-16.54-2.66-29.67-7-37.53-12.17c-3.91-2.58-6.39-5.43-7.32-7.72C224.19,442.03,224.39,440.66,224.31,440.68
						c0.01,0.15,0.03,0.4,0.07,0.96c0,0.32,0.09,0.7,0.21,1.16c0.08,0.47,0.28,0.97,0.52,1.54c0.92,2.31,3.4,5.18,7.31,7.77
						c7.86,5.2,21,9.57,37.55,12.25c8.28,1.36,17.44,2.29,27.3,2.7c9.86,0.41,20.42,0.31,31.48-0.56
						c5.53-0.43,11.19-1.07,16.92-1.98c5.73-0.92,11.57-2.06,17.39-3.66c2.92-0.79,5.83-1.69,8.71-2.75
						c2.88-1.06,5.75-2.26,8.51-3.71c2.76-1.46,5.44-3.17,7.74-5.36c1.14-1.1,2.2-2.32,2.95-3.74c0.77-1.4,1.26-2.99,1.27-4.61
						c-0.01-1.63-0.51-3.21-1.28-4.61c-0.75-1.42-1.81-2.64-2.95-3.74c-2.3-2.19-4.98-3.9-7.74-5.36c-2.76-1.45-5.63-2.65-8.51-3.71
						c-2.88-1.06-5.79-1.97-8.71-2.75c-5.82-1.6-11.65-2.74-17.39-3.66c-5.74-0.91-11.39-1.55-16.92-1.98
						c-11.06-0.87-21.62-0.97-31.48-0.56c-9.86,0.41-19.02,1.34-27.3,2.7c-16.54,2.68-29.69,7.04-37.55,12.25
						c-3.91,2.59-6.39,5.46-7.32,7.77c-0.24,0.57-0.44,1.08-0.52,1.55c-0.11,0.46-0.21,0.84-0.21,1.16
						C224.34,440.27,224.33,440.53,224.31,440.68z"/>
				</g>
			</g>
		</g>
		<g>
			<g>
				<path class="st3" d="M445.25,285.58c0,1.76,1.43,3.19,3.19,3.19s3.19-1.43,3.19-3.19c0-1.76-1.43-3.19-3.19-3.19
					S445.25,283.82,445.25,285.58z"/>
			</g>
		</g>
		<g>
			<g>
				<circle class="st3" cx="159.71" cy="287.74" r="3.19"/>
			</g>
		</g>
		<g>
			<g>
				<path class="st3" d="M286.73,405.38c0,1.76,1.43,3.19,3.19,3.19c1.76,0,3.19-1.43,3.19-3.19c0-1.76-1.43-3.19-3.19-3.19
					C288.16,402.19,286.73,403.62,286.73,405.38z"/>
			</g>
		</g>
		<g>
			<g>
				<path class="st3" d="M383.68,323.34c0,0.88,0.71,1.6,1.6,1.6c0.88,0,1.6-0.71,1.6-1.6c0-0.88-0.71-1.6-1.6-1.6
					C384.4,321.74,383.68,322.46,383.68,323.34z"/>
			</g>
		</g>
		<g>
			<g>
				<path class="st3" d="M185.17,362.03c0,0.88,0.71,1.6,1.6,1.6c0.88,0,1.6-0.71,1.6-1.6c0-0.88-0.71-1.6-1.6-1.6
					C185.88,360.43,185.17,361.14,185.17,362.03z"/>
			</g>
		</g>
		<g>
			<g>
				<path class="st3" d="M311.19,435.86c0,0.88,0.71,1.6,1.6,1.6s1.6-0.71,1.6-1.6c0-0.88-0.71-1.6-1.6-1.6
					S311.19,434.97,311.19,435.86z"/>
			</g>
		</g>
	</g>
	<g>
		<g>
			<circle class="st3" cx="394.51" cy="156.38" r="0.8"/>
		</g>
	</g>
	<g>
		<g>
			<g>
				<g>
					<g>
						<g>
							<g>
								<path class="st14" d="M180.22,228c11.27-9.83,12.34-25.94,10.32-40.1c-0.34-2.36-0.34-4.89-1.7-6.85
									c-1.35-1.96-4.14-3.1-6.16-1.87c-1.67,1.02-2.22,3.15-3.02,4.95c-1.07,2.4-2.82,4.47-4.99,5.91
									c-1.43,0.95-3.24,1.63-4.82,0.97c-2.17-0.91-2.71-3.71-2.95-6.07c-0.45-4.4-0.89-8.8-1.34-13.2
									c-0.24-2.36-0.49-4.77-1.47-6.93c-0.98-2.16-2.82-4.07-5.13-4.45c-2.31-0.39-4.95,1.21-5.17,3.57
									c-0.09,0.98,0.21,1.96,0.25,2.95c0.04,0.99-0.3,2.12-1.2,2.49c-0.91,0.38-1.93-0.19-2.71-0.8c-2.69-2.12-4.68-5.01-6.55-7.9
									c-1.87-2.89-3.71-5.85-6.2-8.21c-2.49-2.36-5.77-4.09-9.17-3.92c-3.4,0.17-6.77,2.65-7.27,6.06
									c-0.5,3.42,1.81,6.58,4.21,9.05c3.56,3.66,7.65,6.79,12.09,9.27c0.8,0.45,1.67,0.93,2.05,1.77
									c0.68,1.52-0.64,3.24-2.14,3.92c-1.7,0.78-3.62,0.8-5.44,1.21c-1.82,0.41-3.72,1.44-4.23,3.25
									c-0.71,2.52,1.58,4.83,3.75,6.27c4.33,2.89,9.15,5.02,14.18,6.27c1.8,0.45,3.69,0.81,5.22,1.88c1.53,1.07,2.6,3.1,1.94,4.85
									c-0.67,1.76-2.78,2.52-4.63,2.38c-1.85-0.14-3.59-0.95-5.39-1.42c-3.37-0.87-7.54-0.2-9.31,2.83
									c-1.17,1.99-1.01,4.57-0.08,6.69c0.93,2.12,2.53,3.86,4.21,5.45c5.85,5.54,13.04,9.73,20.84,11.53
									C165.99,231.59,173.04,231.54,180.22,228"/>
							</g>
						</g>
					</g>
				</g>
			</g>
		</g>
		<g>
			<g>
				<g>
					<g>
						<g>
							<g>
								<g>
									<path class="st1" d="M175.59,219.49c-2.86-6.95-6.64-14.3-10.85-21.86c-1.06-1.88-2.11-3.75-3.14-5.58
										c-1.03-1.83-2.06-3.65-3.17-5.36c-2.21-3.44-4.6-6.57-6.96-9.48c-2.36-2.91-4.7-5.58-6.91-8.07
										c-2.22-2.48-4.33-4.75-6.34-6.74c-4.01-3.99-7.62-6.83-10.18-8.67c-1.28-0.93-2.29-1.61-2.99-2.07
										c-0.33-0.22-0.6-0.39-0.79-0.51c-0.18-0.11-0.27-0.17-0.28-0.16c0,0.01,0.08,0.07,0.25,0.2c0.19,0.14,0.45,0.32,0.77,0.55
										c0.68,0.48,1.67,1.19,2.94,2.13c2.52,1.88,6.09,4.74,10.06,8.76c1.99,2,4.08,4.28,6.28,6.76c2.2,2.49,4.53,5.17,6.87,8.08
										c2.34,2.91,4.71,6.04,6.91,9.46c1.1,1.71,2.12,3.51,3.15,5.34c1.03,1.83,2.08,3.7,3.13,5.58
										c4.21,7.55,7.98,14.88,10.86,21.8"/>
								</g>
							</g>
						</g>
					</g>
				</g>
			</g>
		</g>
		<g>
			<g>
				<g>
					<g>
						<g>
							<g>
								<g>
									<path class="st1" d="M158.31,186.69c0.03,0,0.07-0.37,0.12-1.03c0.05-0.67,0.1-1.63,0.14-2.82
										c0.08-2.39,0.08-5.68,0.06-9.32c-0.02-3.64,0.03-6.93,0.15-9.3c0.06-1.19,0.11-2.15,0.15-2.81
										c0.04-0.67,0.05-1.03,0.02-1.04c-0.03,0-0.1,0.36-0.19,1.02c-0.1,0.66-0.2,1.62-0.29,2.81c-0.2,2.38-0.29,5.68-0.28,9.32
										c0.02,3.59,0.05,6.83,0.06,9.31c0,1.12,0,2.06,0,2.82C158.27,186.32,158.28,186.69,158.31,186.69z"/>
								</g>
							</g>
						</g>
					</g>
				</g>
			</g>
		</g>
		<g>
			<g>
				<g>
					<g>
						<g>
							<g>
								<g>
									<path class="st1" d="M127.37,184.29c0,0.03,0.44,0.03,1.23,0.01c0.79-0.01,1.92-0.04,3.33-0.03
										c2.81,0,6.69,0.14,10.97,0.48c4.28,0.35,8.14,0.82,10.92,1.25c1.39,0.2,2.51,0.4,3.29,0.53c0.78,0.13,1.21,0.19,1.22,0.16
										c0.01-0.03-0.42-0.15-1.18-0.33c-0.77-0.18-1.88-0.42-3.27-0.67c-2.78-0.51-6.64-1.03-10.93-1.38
										c-4.29-0.34-8.19-0.43-11.01-0.35c-1.41,0.03-2.55,0.1-3.33,0.17C127.8,184.2,127.36,184.26,127.37,184.29z"/>
								</g>
							</g>
						</g>
					</g>
				</g>
			</g>
		</g>
		<g>
			<g>
				<g>
					<g>
						<g>
							<g>
								<g>
									<path class="st1" d="M175.16,218.97c0.01,0,0.07-0.13,0.17-0.39c0.11-0.31,0.24-0.69,0.4-1.15c0.34-1,0.8-2.47,1.35-4.28
										c1.09-3.63,2.44-8.7,3.85-14.31c1.41-5.61,2.71-10.68,3.72-14.33c0.5-1.77,0.91-3.24,1.21-4.32
										c0.13-0.47,0.24-0.86,0.32-1.18c0.07-0.27,0.1-0.41,0.08-0.42c-0.01,0-0.07,0.13-0.17,0.39c-0.11,0.31-0.24,0.69-0.4,1.15
										c-0.34,1-0.8,2.47-1.35,4.28c-1.09,3.63-2.44,8.7-3.85,14.31c-1.41,5.61-2.71,10.68-3.72,14.33
										c-0.5,1.77-0.91,3.23-1.21,4.32c-0.13,0.47-0.24,0.86-0.32,1.18C175.17,218.82,175.14,218.97,175.16,218.97z"/>
								</g>
							</g>
						</g>
					</g>
				</g>
			</g>
		</g>
		<g>
			<g>
				<g>
					<g>
						<g>
							<g>
								<g>
									<path class="st1" d="M133.45,210.33c0,0.02,0.14,0.06,0.42,0.12c0.33,0.07,0.73,0.16,1.21,0.27
										c1.12,0.23,2.63,0.55,4.47,0.93c3.77,0.79,8.97,1.94,14.71,3.22c5.74,1.28,10.96,2.38,14.75,3.09
										c1.89,0.36,3.43,0.63,4.5,0.8c0.49,0.07,0.9,0.13,1.23,0.18c0.28,0.04,0.43,0.05,0.43,0.03c0-0.01-0.14-0.06-0.42-0.12
										c-0.33-0.07-0.73-0.16-1.21-0.27c-1.12-0.23-2.63-0.55-4.47-0.93c-3.77-0.79-8.97-1.94-14.71-3.22
										c-5.74-1.28-10.95-2.38-14.74-3.09c-1.89-0.36-3.43-0.63-4.5-0.8c-0.49-0.07-0.9-0.14-1.23-0.18
										C133.6,210.32,133.45,210.31,133.45,210.33z"/>
								</g>
							</g>
						</g>
					</g>
				</g>
			</g>
		</g>
	</g>
</g>
<g id="Front_Screens">
	<g>
		<g>
			<g>
				<path class="st3" d="M250.58,279.18c38.77,10.26,76.14,9.49,116.87,0l4.76-74.45c-42.09,8.19-84.34,7.16-121.63-1.76V279.18z"/>
			</g>
		</g>
		<g>
			<g class="st4">
				<g>
					<path class="st5" d="M250.58,279.18c38.77,10.26,76.14,9.49,116.87,0l4.76-74.45c-42.09,8.19-84.34,7.16-121.63-1.76V279.18z"
						/>
				</g>
			</g>
			<g>
				<g>
					<g>
						<path class="st3" d="M256.59,267.86c0,0.01,0.08,0.05,0.24,0.12c0.19,0.08,0.43,0.18,0.73,0.31c0.65,0.26,1.59,0.68,2.84,1.12
							c2.48,0.94,6.13,2.16,10.73,3.37c9.17,2.45,22.27,4.4,36.78,4.2c14.52-0.19,27.54-2.18,36.86-3.94c4.66-0.89,8.42-1.7,11-2.3
							c1.29-0.29,2.29-0.55,2.97-0.71c0.31-0.08,0.57-0.15,0.77-0.2c0.17-0.05,0.26-0.08,0.26-0.09c0-0.01-0.09,0-0.27,0.03
							c-0.21,0.04-0.46,0.09-0.78,0.15c-0.72,0.15-1.72,0.36-2.99,0.62c-2.6,0.54-6.36,1.3-11.02,2.14
							c-9.32,1.67-22.33,3.6-36.8,3.79c-14.46,0.2-27.52-1.68-36.69-4.03c-4.59-1.15-8.25-2.32-10.75-3.2
							c-1.26-0.42-2.21-0.81-2.87-1.03c-0.31-0.11-0.55-0.19-0.75-0.26C256.69,267.88,256.6,267.85,256.59,267.86z"/>
					</g>
				</g>
			</g>
			<g>
				<g>
					<path class="st3" d="M313.56,270.9c4.86,1.44,9.86,1.06,14.93-0.5v-26.5c-4.98-1-9.95-1-14.93,0V270.9z"/>
				</g>
			</g>
			<g>
				<g>
					<g>
						<path class="st3" d="M289.46,269.32c0.01,0,0.01-0.07,0.02-0.2c0.01-0.16,0.01-0.34,0.02-0.58c0.01-0.54,0.03-1.28,0.06-2.21
							c0.04-1.96,0.09-4.74,0.16-8.23c0.11-7.03,0.25-16.87,0.43-28.28l-0.2,0.24c4.75-0.98,10.1-1.02,15.45,0.01l-0.21-0.26
							c0,0.17,0,0.35-0.01,0.53c-0.16,15.66-0.3,29.81-0.4,39.91l0.14-0.18c-2.39,0.5-4.58,0.76-6.51,0.79
							c-1.93,0.04-3.58-0.15-4.91-0.4c-1.33-0.25-2.34-0.58-3.01-0.79c-0.31-0.11-0.56-0.19-0.76-0.26
							C289.56,269.34,289.47,269.32,289.46,269.32s0.07,0.04,0.24,0.12c0.2,0.08,0.45,0.19,0.76,0.32c0.67,0.25,1.67,0.6,3.01,0.89
							c1.34,0.28,3.01,0.5,4.96,0.49c1.95,0,4.17-0.24,6.58-0.72l0.14-0.03l0-0.15c0.14-10.1,0.34-24.24,0.56-39.9
							c0-0.18,0-0.36,0.01-0.53l0-0.22l-0.21-0.04c-5.41-1.04-10.83-0.99-15.65,0.01l-0.2,0.04l0,0.2
							c-0.09,11.46-0.16,21.35-0.21,28.41c-0.01,3.47-0.02,6.24-0.02,8.19c0,0.92,0.01,1.64,0.01,2.17c0,0.22,0.01,0.4,0.01,0.55
							C289.45,269.26,289.45,269.32,289.46,269.32z"/>
					</g>
				</g>
			</g>
			<g>
				<g>
					<path class="st3" d="M266.52,266.2c4,2.16,9.26,2.45,14.93,2.12v-43.77c-5.08-1.08-10.08-1.28-14.93,0V266.2z"/>
				</g>
			</g>
			<g>
				<g>
					<g>
						<path class="st3" d="M337.26,268.73c0.02-0.02,0.03-0.41,0.05-1.12c0.01-0.77,0.03-1.79,0.06-3.06
							c0.03-2.66,0.07-6.35,0.12-10.75l-0.15,0.21c4-1.47,9-2.86,14.37-2.39l0.03,0l-0.24-0.26c0.01,5.46,0.03,10.58,0.04,14.93
							l0.14-0.21c-2.02,0.86-4,1.31-5.76,1.64c-1.77,0.32-3.32,0.5-4.61,0.63c-1.24,0.11-2.24,0.19-2.99,0.25
							C337.66,268.67,337.28,268.72,337.26,268.73c-0.02,0.01,0.34,0.03,1.06,0.02c0.69-0.01,1.71-0.04,3-0.13
							c1.29-0.09,2.86-0.24,4.65-0.53c1.78-0.31,3.79-0.74,5.87-1.59l0.14-0.06l0-0.15c0.01-4.35,0.02-9.47,0.04-14.93l0-0.24
							l-0.24-0.02l-0.03,0c-5.5-0.48-10.56,0.96-14.58,2.48l-0.15,0.06l0,0.16c0.05,4.46,0.09,8.19,0.12,10.89
							c0.02,1.25,0.04,2.25,0.06,3.01C337.23,268.39,337.24,268.75,337.26,268.73z"/>
					</g>
				</g>
			</g>
			<g>
				<g>
					<g>
						<g>
							<path class="st3" d="M330.24,230c0,0.07,1.11,0.15,2.92,0.18c1.81,0.03,4.3-0.01,7.05-0.17c2.75-0.16,5.24-0.42,7.03-0.66
								c1.79-0.24,2.89-0.45,2.88-0.52c-0.01-0.07-1.12,0.01-2.92,0.15c-1.8,0.15-4.27,0.34-7.02,0.51
								c-2.74,0.16-5.23,0.25-7.03,0.32C331.35,229.88,330.24,229.93,330.24,230z"/>
						</g>
					</g>
				</g>
				<g>
					<g>
						<g>
							<path class="st3" d="M332.46,233.26c0,0.07,0.98,0.06,2.56-0.01c1.58-0.07,3.76-0.21,6.17-0.4c2.41-0.18,4.59-0.38,6.16-0.55
								c1.57-0.17,2.54-0.31,2.53-0.38c-0.01-0.07-0.99-0.06-2.57,0.01c-1.58,0.07-3.76,0.21-6.16,0.4
								c-2.4,0.18-4.58,0.38-6.15,0.55C333.43,233.05,332.46,233.19,332.46,233.26z"/>
						</g>
					</g>
				</g>
				<g>
					<g>
						<g>
							<path class="st3" d="M327,237.53c0.01-0.01,0.01-0.33-0.01-0.93c-0.03-0.64-0.06-1.5-0.1-2.58
								c-0.11-2.26-0.26-5.44-0.44-9.35l-0.19,0.2c7.18,0.09,16.96-0.25,27.63-1.53c0.26,0.22-0.35-0.3-0.29-0.24l0,0l0,0.01l0,0.01
								l0,0.03l0,0.05l0.01,0.11l0.01,0.21l0.02,0.42l0.05,0.84c0.03,0.56,0.07,1.11,0.1,1.67c0.06,1.1,0.13,2.2,0.19,3.27
								c0.13,2.15,0.25,4.23,0.37,6.22l0.22-0.26c-7.99,0.98-14.89,1.4-19.79,1.59c-2.41,0.07-4.34,0.13-5.73,0.17
								c-0.62,0.02-1.12,0.04-1.51,0.05C327.2,237.51,327.01,237.52,327,237.53c-0.01,0.01,0.16,0.02,0.51,0.04
								c0.34,0.01,0.88,0.04,1.55,0.04c1.33,0.02,3.28,0.02,5.74-0.03c4.9-0.1,11.82-0.46,19.84-1.41l0.23-0.03l-0.01-0.23
								c-0.11-1.99-0.23-4.07-0.35-6.22c-0.06-1.07-0.12-2.17-0.19-3.27c-0.03-0.55-0.06-1.11-0.1-1.67l-0.05-0.84l-0.02-0.42
								l-0.01-0.21l-0.01-0.11l0-0.05l0-0.03l0-0.01l0-0.01l0,0c0.06,0.05-0.55-0.46-0.29-0.24c-10.64,1.28-20.39,1.67-27.56,1.67
								l-0.2,0l0.01,0.2c0.27,3.95,0.49,7.16,0.65,9.44c0.08,1.06,0.15,1.91,0.19,2.53C326.95,237.25,326.98,237.55,327,237.53z"/>
						</g>
					</g>
				</g>
			</g>
			<g>
				<g>
					<g>
						<path class="st3" d="M323.59,243.15c0.13,0.07,0.96-1.14,1.92-2.67c0.97-1.54,1.61-2.88,1.48-2.95
							c-0.13-0.07-0.96,1.14-1.92,2.67C324.1,241.74,323.47,243.08,323.59,243.15z"/>
					</g>
				</g>
			</g>
		</g>
	</g>
	<g>
		<g>
			<g>
				<path class="st3" d="M485.59,146.2l-12.67,76.67c0,0-19.34,36.22-70.75,44.39l8.3-68.44C410.46,198.81,458,184.11,485.59,146.2z
					"/>
			</g>
		</g>
		<g class="st4">
			<g>
				<path class="st5" d="M485.59,146.2l-12.67,76.67c0,0-19.34,36.22-70.75,44.39l8.3-68.44C410.46,198.81,458,184.11,485.59,146.2z
					"/>
			</g>
		</g>
		<g>
			<g>
				<g>
					<path class="st3" d="M408.8,261.79c0,0.01,0.11-0.02,0.33-0.08c0.24-0.07,0.55-0.16,0.95-0.27c0.86-0.26,2.07-0.63,3.62-1.1
						c1.57-0.5,3.52-1.02,5.68-1.9c1.09-0.42,2.26-0.86,3.5-1.33c1.24-0.47,2.55-0.96,3.88-1.6c2.68-1.23,5.65-2.48,8.67-4.18
						c3.09-1.56,6.23-3.52,9.52-5.62c6.5-4.29,13.16-9.79,19.1-16.55c2.65-3.07,5.04-6.24,6.89-9.61l0.02-0.03l0.01-0.04
						c2.31-14.94,4.34-28.07,5.8-37.5c0.7-4.68,1.27-8.44,1.66-11.06c0.18-1.27,0.32-2.27,0.42-2.98c0.04-0.32,0.07-0.57,0.1-0.77
						c0.02-0.17,0.03-0.26,0.02-0.27c-0.01,0-0.03,0.09-0.06,0.26c-0.04,0.2-0.08,0.45-0.14,0.77c-0.12,0.71-0.29,1.7-0.51,2.97
						c-0.43,2.62-1.05,6.37-1.81,11.04c-1.5,9.42-3.6,22.54-5.98,37.47l0.02-0.08c-1.81,3.29-4.2,6.46-6.83,9.5
						c-5.91,6.72-12.52,12.21-18.97,16.49c-3.26,2.09-6.38,4.07-9.45,5.63c-3,1.71-5.96,2.98-8.61,4.23
						c-1.32,0.65-2.62,1.15-3.86,1.63c-1.23,0.48-2.39,0.94-3.48,1.37c-2.15,0.91-4.09,1.45-5.64,1.98
						c-1.53,0.51-2.74,0.91-3.59,1.2c-0.39,0.13-0.69,0.24-0.93,0.32C408.9,261.74,408.8,261.78,408.8,261.79z"/>
				</g>
			</g>
		</g>
		<g>
			<g>
				<g>
					<path class="st3" d="M413.32,239.54c0,0.01,0.05,0.06,0.18,0.16c0.14,0.11,0.32,0.26,0.54,0.44c0.51,0.4,1.22,0.95,2.14,1.66
						c1.9,1.46,4.64,3.55,8.07,6.18l0.13,0.1l0.09-0.13c2.72-3.76,6.07-8.39,9.87-13.66l-0.3,0.05c2.38,1.69,4.92,3.5,7.57,5.39
						l0.25,0.18l0.11-0.29c2.95-8.01,6.27-17,9.76-26.47c0.47-1.28,0.94-2.55,1.4-3.81l-0.48,0.03c2.12,4.21,4.19,8.31,6.17,12.24
						l0.27,0.53l0.19-0.56c5.36-15.46,9.92-28.6,12.88-37.13l-0.27-0.02c0.81,3.41,1.45,6.11,1.89,7.99c0.22,0.9,0.39,1.6,0.52,2.1
						c0.06,0.22,0.1,0.4,0.14,0.54c0.03,0.12,0.05,0.18,0.06,0.18c0.01,0,0-0.06-0.02-0.19c-0.03-0.15-0.06-0.32-0.11-0.55
						c-0.11-0.51-0.26-1.22-0.45-2.12c-0.41-1.88-1.01-4.59-1.76-8.02l-0.11-0.49l-0.17,0.47c-3,8.51-7.64,21.62-13.08,37.06
						l0.46-0.03c-1.98-3.93-4.03-8.03-6.15-12.25l-0.27-0.54l-0.21,0.56c-0.46,1.26-0.93,2.53-1.4,3.81
						c-3.48,9.47-6.77,18.47-9.72,26.49l0.36-0.11c-2.66-1.88-5.21-3.68-7.59-5.36l-0.18-0.13l-0.13,0.18
						c-3.77,5.29-7.09,9.95-9.78,13.73l0.22-0.03c-3.47-2.58-6.24-4.64-8.16-6.07c-0.93-0.68-1.66-1.22-2.19-1.6
						c-0.23-0.17-0.42-0.3-0.57-0.4C413.39,239.57,413.32,239.53,413.32,239.54z"/>
				</g>
			</g>
		</g>
		<g>
			<g>
				<g>
					<path class="st3" d="M415.09,202.76c0.01,0.03,0.39-0.05,1.08-0.24c0.69-0.18,1.67-0.49,2.87-0.88c2.41-0.8,5.7-2.03,9.23-3.62
						c3.53-1.6,6.63-3.25,8.82-4.53c1.1-0.64,1.97-1.18,2.56-1.57c0.59-0.39,0.91-0.62,0.89-0.65c-0.02-0.03-0.37,0.14-1,0.48
						c-0.72,0.39-1.6,0.86-2.64,1.42c-2.23,1.2-5.34,2.79-8.86,4.38c-3.52,1.59-6.77,2.87-9.14,3.75c-1.1,0.41-2.04,0.75-2.81,1.04
						C415.44,202.58,415.08,202.73,415.09,202.76z"/>
				</g>
			</g>
		</g>
		<g>
			<g>
				<g>
					<path class="st3" d="M413.05,205.94c0.02,0.07,0.97-0.08,2.48-0.44c1.51-0.36,3.59-0.94,5.82-1.74
						c2.24-0.8,4.21-1.66,5.61-2.35c1.4-0.68,2.23-1.17,2.2-1.24c-0.03-0.07-0.92,0.31-2.35,0.9c-1.43,0.59-3.41,1.4-5.64,2.19
						c-2.22,0.79-4.26,1.43-5.75,1.88C413.95,205.6,413.03,205.87,413.05,205.94z"/>
				</g>
			</g>
		</g>
		<g>
			<g>
				<path class="st3" d="M433.31,234.31c0,0.63,0.39,1.15,0.86,1.15s0.86-0.51,0.86-1.15c0-0.63-0.39-1.15-0.86-1.15
					S433.31,233.67,433.31,234.31z"/>
			</g>
		</g>
		<g>
			<g>
				<ellipse class="st3" cx="452.97" cy="210.07" rx="0.86" ry="1.15"/>
			</g>
		</g>
		<g>
			<g>
				<path class="st3" d="M471.1,184.77c0,0.63,0.39,1.15,0.86,1.15s0.86-0.51,0.86-1.15s-0.39-1.15-0.86-1.15
					S471.1,184.14,471.1,184.77z"/>
			</g>
		</g>
	</g>
	<g>
		<g>
			<g>
				<path class="st3" d="M150.26,159.86l6.35,77.9c0,0,18.54,33.31,69.6,34.58l-6.31-78.43C219.89,193.9,175.35,192.1,150.26,159.86
					z"/>
			</g>
		</g>
		<g>
			<g>
				<path class="st3" d="M151.2,155.79c1.66-5.39,5.7-13.08,15.3-14.68l11.35,104.78c0,0-21.31-4.25-21.88-15.93
					c-0.05-1.01-4.31-53.09-5.38-65.98C150.36,161.16,150.37,158.5,151.2,155.79z"/>
			</g>
		</g>
		<g class="st4">
			<g>
				<path class="st5" d="M150.26,159.86l6.35,77.9c0,0,18.54,33.31,69.6,34.58l-6.31-78.43C219.89,193.9,175.35,192.1,150.26,159.86
					z"/>
			</g>
		</g>
		<g>
			<g>
				<path class="st3" d="M151.78,179.71c5.09,7.36,7.96,16.24,8.14,25.19c0.05,2.58-0.1,5.26,0.88,7.65
					c0.98,2.39,3.55,4.39,6.04,3.7c2.6-0.71,3.77-3.79,6.05-5.23c2.03-1.28,4.78-1.06,6.85,0.14c2.07,1.21,3.54,3.27,4.5,5.47
					c1.86,4.27,1.98,9.09,3.35,13.54c1.37,4.45,4.72,8.94,9.37,9.14c1.7,0.07,3.38-0.44,5.08-0.39c3.59,0.11,6.71,2.78,8.39,5.96
					c1.68,3.18,2.18,6.83,2.65,10.39c0,0-27.22,2.59-57.77-33.49L151.78,179.71z"/>
			</g>
		</g>
		<g>
			<g>
				<path class="st3" d="M195.05,226.97c0,0.97,0.48,1.75,1.07,1.75c0.59,0,1.07-0.78,1.07-1.75s-0.48-1.75-1.07-1.75
					C195.53,225.22,195.05,226,195.05,226.97z"/>
			</g>
		</g>
		<g>
			<g>
				<path class="st3" d="M182.23,194.58c0,0.97,0.48,1.75,1.07,1.75c0.59,0,1.07-0.78,1.07-1.75s-0.48-1.75-1.07-1.75
					C182.71,192.83,182.23,193.61,182.23,194.58z"/>
			</g>
		</g>
		<g>
			<g>
				<g>
					<path class="st3" d="M152.39,183.47c-0.01,0.01,0.05,0.16,0.18,0.44c0.15,0.32,0.34,0.74,0.58,1.26
						c0.54,1.14,1.29,2.74,2.24,4.76c1.98,4.12,4.77,9.94,8.12,16.91l0.11,0.23l0.22-0.14c5.66-3.58,12.24-7.74,19.25-12.18
						l-0.38-0.12c0.25,0.62,0.53,1.29,0.8,1.97c4.76,11.66,9.12,22.33,12.43,30.44l0.09,0.21l0.19-0.11
						c4.8-2.7,8.72-4.87,11.44-6.35c1.36-0.74,2.43-1.31,3.15-1.67c0.34-0.17,0.62-0.3,0.83-0.41c0.19-0.07,0.29-0.12,0.29-0.13
						c-0.03-0.1-1.63,0.59-4.38,2.02c-2.76,1.42-6.7,3.54-11.53,6.2l0.28,0.1c-3.28-8.12-7.6-18.81-12.32-30.49
						c-0.27-0.67-0.55-1.35-0.8-1.97l-0.12-0.29l-0.26,0.17c-7.01,4.46-13.57,8.64-19.22,12.24l0.33,0.09
						c-3.41-6.93-6.27-12.72-8.29-16.82c-1-2-1.79-3.58-2.36-4.7c-0.27-0.51-0.48-0.92-0.64-1.23
						C152.48,183.61,152.4,183.47,152.39,183.47z"/>
				</g>
			</g>
		</g>
	</g>
	<path class="st15" d="M297.21,66.6"/>
</g>
</svg>
