<svg xmlns="http://www.w3.org/2000/svg" width="69.441" height="69.441" viewBox="0 0 69.441 69.441">
  <path id="Icon_awesome-facebook-square" data-name="Icon awesome-facebook-square" d="M62,2.25H7.44A7.44,7.44,0,0,0,0,9.69V64.251a7.44,7.44,0,0,0,7.44,7.44H28.714V48.083H18.949V36.97h9.765V28.5c0-9.633,5.735-14.955,14.519-14.955a59.159,59.159,0,0,1,8.606.75v9.455H46.992c-4.776,0-6.265,2.964-6.265,6V36.97H51.388L49.683,48.083H40.727V71.691H62a7.44,7.44,0,0,0,7.44-7.44V9.69A7.44,7.44,0,0,0,62,2.25Z" transform="translate(0 -2.25)" fill="#707070"/>
</svg>
