<svg xmlns="http://www.w3.org/2000/svg" width="69.77" height="69.76" viewBox="0 0 69.77 69.76">
  <path id="Icon_awesome-instagram" data-name="Icon awesome-instagram" d="M34.888,19.232A17.886,17.886,0,1,0,52.772,37.118,17.857,17.857,0,0,0,34.888,19.232Zm0,29.514A11.628,11.628,0,1,1,46.515,37.118,11.649,11.649,0,0,1,34.888,48.746ZM57.675,18.5A4.171,4.171,0,1,1,53.5,14.329,4.162,4.162,0,0,1,57.675,18.5ZM69.52,22.735c-.265-5.588-1.541-10.538-5.635-14.617C59.807,4.039,54.857,2.763,49.27,2.483c-5.759-.327-23.021-.327-28.78,0C14.918,2.747,9.968,4.024,5.874,8.1S.52,17.131.24,22.719c-.327,5.76-.327,23.022,0,28.782C.5,57.089,1.781,62.039,5.874,66.118S14.9,71.472,20.49,71.753c5.759.327,23.021.327,28.78,0,5.588-.265,10.537-1.541,14.616-5.635,4.078-4.078,5.354-9.028,5.635-14.617.327-5.759.327-23.007,0-28.766ZM62.08,57.681a11.772,11.772,0,0,1-6.631,6.631c-4.592,1.821-15.487,1.4-20.561,1.4s-15.985.4-20.561-1.4A11.772,11.772,0,0,1,7.7,57.681c-1.821-4.592-1.4-15.488-1.4-20.563s-.4-15.987,1.4-20.563a11.772,11.772,0,0,1,6.631-6.631c4.592-1.821,15.487-1.4,20.561-1.4s15.985-.4,20.561,1.4a11.772,11.772,0,0,1,6.631,6.631c1.821,4.592,1.4,15.488,1.4,20.563S63.9,53.1,62.08,57.681Z" transform="translate(0.005 -2.238)" fill="#707070"/>
</svg>
