<svg xmlns="http://www.w3.org/2000/svg" width="72.352" height="54.274" viewBox="0 0 72.352 54.274">
  <path id="Icon_ionic-logo-youtube" data-name="Icon ionic-logo-youtube" d="M71.881,16.485c0-6.36-4.678-11.476-10.458-11.476-7.83-.367-15.815-.509-23.97-.509H34.909c-8.141,0-16.14.141-23.97.509C5.173,5.009.5,10.153.5,16.513.142,21.545-.014,26.576,0,31.607q-.021,7.547.481,15.108c0,6.36,4.678,11.518,10.444,11.518,8.225.382,16.663.551,25.242.537q12.889.042,25.242-.537c5.78,0,10.458-5.159,10.458-11.518.339-5.046.495-10.077.481-15.122Q72.39,24.046,71.881,16.485ZM29.256,45.472V17.7L49.749,31.579Z" transform="translate(0 -4.5)" fill="#707070"/>
</svg>
