<svg xmlns="http://www.w3.org/2000/svg" width="69" height="69" viewBox="0 0 69 69">
  <path id="Icon_awesome-twitter-square" data-name="Icon awesome-twitter-square" d="M61.607,2.25H7.393A7.4,7.4,0,0,0,0,9.643V63.857A7.4,7.4,0,0,0,7.393,71.25H61.607A7.4,7.4,0,0,0,69,63.857V9.643A7.4,7.4,0,0,0,61.607,2.25ZM54.076,26.708c.031.431.031.878.031,1.309,0,13.353-10.165,28.74-28.74,28.74a28.607,28.607,0,0,1-15.51-4.528,21.28,21.28,0,0,0,2.433.123A20.252,20.252,0,0,0,24.828,48.04a10.115,10.115,0,0,1-9.441-7.008,10.887,10.887,0,0,0,4.559-.185,10.1,10.1,0,0,1-8.086-9.919V30.8a10.1,10.1,0,0,0,4.559,1.278,10.08,10.08,0,0,1-4.5-8.409,9.975,9.975,0,0,1,1.371-5.1A28.682,28.682,0,0,0,34.115,29.142,10.123,10.123,0,0,1,51.35,19.916a19.794,19.794,0,0,0,6.407-2.433,10.075,10.075,0,0,1-4.436,5.56,20.1,20.1,0,0,0,5.822-1.571A21.262,21.262,0,0,1,54.076,26.708Z" transform="translate(0 -2.25)" fill="#707070"/>
</svg>
