<svg xmlns="http://www.w3.org/2000/svg" width="69.5" height="69.5" viewBox="0 0 69.5 69.5">
  <path id="Icon_awesome-behance-square" data-name="Icon awesome-behance-square" d="M28.932,42.74c0,2.994-2.172,3.94-4.84,3.94h-7V38.474h7.136C27.117,38.489,28.932,39.684,28.932,42.74ZM27.738,29.972c0-2.746-2.125-3.4-4.483-3.4H17.111v6.95h6.624c2.343,0,4-1.024,4-3.553Zm20.524,3.6a4.624,4.624,0,0,0-4.918,4.607h9.649C52.73,35.309,51.241,33.572,48.262,33.572ZM69.5,9.7V64.3a7.448,7.448,0,0,1-7.446,7.446H7.446A7.448,7.448,0,0,1,0,64.3V9.7A7.448,7.448,0,0,1,7.446,2.25H62.054A7.448,7.448,0,0,1,69.5,9.7ZM42.15,25.985H54.219V23.053H42.15ZM35.479,43.1c0-3.739-1.769-6.966-5.43-8,2.668-1.272,4.065-2.746,4.065-5.74,0-5.926-4.421-7.369-9.525-7.369H10.549V51.769H24.992C30.406,51.738,35.479,49.147,35.479,43.1Zm23.472-2.3c0-6.376-3.739-11.7-10.487-11.7-6.578,0-11.03,4.933-11.03,11.418,0,6.717,4.235,11.325,11.03,11.325,5.15,0,8.486-2.311,10.1-7.26H53.335c-.574,1.846-2.885,2.808-4.685,2.808-3.475,0-5.29-2.032-5.29-5.476H58.9C58.92,41.561,58.951,41.173,58.951,40.8Z" transform="translate(0 -2.25)" fill="#707070"/>
</svg>
