<svg xmlns="http://www.w3.org/2000/svg" width="69.99" height="69.99" viewBox="0 0 69.99 69.99">
  <path id="Icon_ionic-logo-linkedin" data-name="Icon ionic-logo-linkedin" d="M68.893,4.5H10.48A5.71,5.71,0,0,0,4.5,9.951V68.492a6.158,6.158,0,0,0,5.98,6H68.875a5.846,5.846,0,0,0,5.615-6V9.951A5.367,5.367,0,0,0,68.893,4.5ZM26.2,62.84H16.168V31.665H26.2ZM21.528,26.925h-.073a5.146,5.146,0,0,1-5.287-5.378,5.178,5.178,0,0,1,5.415-5.378,5.165,5.165,0,0,1,5.36,5.378A5.178,5.178,0,0,1,21.528,26.925ZM62.84,62.84H52.813V45.794c0-4.084-1.459-6.873-5.087-6.873a5.486,5.486,0,0,0-5.141,3.7,6.751,6.751,0,0,0-.346,2.461V62.84H32.212V31.665H42.239V36c1.459-2.078,3.737-5.068,9.043-5.068,6.581,0,11.559,4.339,11.559,13.692V62.84Z" transform="translate(-4.5 -4.5)" fill="#707070"/>
</svg>
