<svg xmlns="http://www.w3.org/2000/svg" width="182.238" height="180.55" viewBox="0 0 182.238 180.55">
  <g id="web-06" transform="translate(-79.207 -58.39)">
    <path id="Path_220" data-name="Path 220" d="M193.25,216.08v-1.61a68.87,68.87,0,0,1,14.42-41.89,45.219,45.219,0,1,0-71.95-.21,69.774,69.774,0,0,1,14.57,42.1v1.61" fill="none" stroke="#00a19a" stroke-linecap="round" stroke-miterlimit="10" stroke-width="9"/>
    <path id="Path_221" data-name="Path 221" d="M187.56,229.37H155.73a2.147,2.147,0,0,1-2.15-2.15h0a2.147,2.147,0,0,1,2.15-2.15h31.83a2.147,2.147,0,0,1,2.15,2.15h0A2.16,2.16,0,0,1,187.56,229.37Z" fill="#00a19a"/>
    <path id="Path_222" data-name="Path 222" d="M169.49,79.33V59.9A1.515,1.515,0,0,1,171,58.39h0a1.515,1.515,0,0,1,1.51,1.51V79.33A1.515,1.515,0,0,1,171,80.84h0A1.509,1.509,0,0,1,169.49,79.33Z" fill="#00a19a"/>
    <path id="Path_223" data-name="Path 223" d="M126.09,93.13,114.95,77.21a1.507,1.507,0,0,1,.37-2.1h0a1.507,1.507,0,0,1,2.1.37L128.56,91.4a1.507,1.507,0,0,1-.37,2.1h0A1.508,1.508,0,0,1,126.09,93.13Z" fill="#00a19a"/>
    <path id="Path_224" data-name="Path 224" d="M98.46,129.32,80.2,122.67a1.512,1.512,0,0,1-.9-1.94h0a1.512,1.512,0,0,1,1.94-.9l18.26,6.65a1.512,1.512,0,0,1,.9,1.94h0A1.516,1.516,0,0,1,98.46,129.32Z" fill="#00a19a"/>
    <path id="Path_225" data-name="Path 225" d="M215.49,94.58l11.66-15.55a1.514,1.514,0,0,0-.3-2.12h0a1.514,1.514,0,0,0-2.12.3L213.07,92.76a1.514,1.514,0,0,0,.3,2.12h0A1.514,1.514,0,0,0,215.49,94.58Z" fill="#00a19a"/>
    <path id="Path_226" data-name="Path 226" d="M241.94,131.65l18.46-6.05a1.517,1.517,0,0,0,.97-1.91h0a1.517,1.517,0,0,0-1.91-.97L241,128.78a1.517,1.517,0,0,0-.97,1.91h0A1.516,1.516,0,0,0,241.94,131.65Z" fill="#00a19a"/>
    <path id="Path_227" data-name="Path 227" d="M187.56,238.94H155.73a2.147,2.147,0,0,1-2.15-2.15h0a2.147,2.147,0,0,1,2.15-2.15h31.83a2.147,2.147,0,0,1,2.15,2.15h0A2.16,2.16,0,0,1,187.56,238.94Z" fill="#00a19a"/>
  </g>
</svg>
