<svg id="Layer_1" data-name="Layer 1" xmlns="http://www.w3.org/2000/svg" viewBox="0 0 769.92 769.92"><defs><style>.cls-1{fill:#00a69c;}.cls-2{fill:#fff;}.cls-3{fill:#dadada;}</style></defs><path class="cls-1" d="M507.8,296.87a74.54,74.54,0,0,0-143.21,29,14.81,14.81,0,0,0,29.62,0,44.92,44.92,0,0,1,89.84,0V381H377.38a106.68,106.68,0,1,1,85.16-170.94,14.81,14.81,0,0,0,23.62-17.86,136.69,136.69,0,0,0-47.05-39.42,136.32,136.32,0,1,0-61.73,257.83H513.67V325.88A74.09,74.09,0,0,0,507.8,296.87Z"/><path class="cls-2" d="M262.5,555.27a4.78,4.78,0,0,1-1.43,3.55,5.22,5.22,0,0,1-3.86,1.43,5.35,5.35,0,0,1-4.77-2.65l-18.22-29.23H218.76v26.37a5.39,5.39,0,0,1-1.54,3.92,5.26,5.26,0,0,1-4,1.59,5.41,5.41,0,0,1-5.5-5.51V483a5.25,5.25,0,0,1,1.58-4,5.41,5.41,0,0,1,3.92-1.54h19.07a29.61,29.61,0,0,1,14,3.28A23.79,23.79,0,0,1,256,490a26.54,26.54,0,0,1,3.44,13.56,23.63,23.63,0,0,1-14.19,22.13l16.2,26.06A6.46,6.46,0,0,1,262.5,555.27ZM232.32,518.2a17.35,17.35,0,0,0,11.86-4.08,13.33,13.33,0,0,0,4.66-10.53,15.08,15.08,0,0,0-4.66-11.44,16.47,16.47,0,0,0-11.86-4.45H218.76v30.5Z"/><path class="cls-2" d="M337.07,554.85a5.2,5.2,0,0,1-1.59,3.81,5.33,5.33,0,0,1-3.92,1.59,5.57,5.57,0,0,1-3-.9,5.09,5.09,0,0,1-2.06-2.49L320.54,542h-38l-6,14.83a5.86,5.86,0,0,1-2.11,2.49,5.34,5.34,0,0,1-3,.9,5.11,5.11,0,0,1-3.87-1.64,5.49,5.49,0,0,1-1.53-3.87,6.77,6.77,0,0,1,.53-2.43l29.76-71.07q1.59-3.71,5.19-3.71a5.15,5.15,0,0,1,5.19,3.71l29.87,71.28A6.79,6.79,0,0,1,337.07,554.85Zm-20.23-21.93-15.15-37.7-15.46,37.7Z"/><path class="cls-2" d="M350.73,558.66a5.32,5.32,0,0,1-1.59-3.92V483a5.26,5.26,0,0,1,1.59-4,5.39,5.39,0,0,1,3.92-1.54h21.18a27.93,27.93,0,0,1,14,3.5,24.48,24.48,0,0,1,9.64,9.74A28.89,28.89,0,0,1,403,505a27.23,27.23,0,0,1-3.45,13.77,24.17,24.17,0,0,1-9.64,9.43,28.72,28.72,0,0,1-14,3.39H360.16v23.19a5.43,5.43,0,0,1-1.54,3.92,5.69,5.69,0,0,1-7.89,0Zm25.1-37.28a16.18,16.18,0,0,0,11.86-4.61A15.87,15.87,0,0,0,392.35,505a17.19,17.19,0,0,0-4.66-12.39,15.7,15.7,0,0,0-11.86-4.87H360.16v33.68Z"/><path class="cls-2" d="M416.71,558.66a5.32,5.32,0,0,1-1.59-3.92V483a5.26,5.26,0,0,1,1.59-4,5.41,5.41,0,0,1,3.92-1.54,5.28,5.28,0,0,1,5.51,5.51v30.4h49.14V483a5.26,5.26,0,0,1,1.59-4,5.41,5.41,0,0,1,3.92-1.54,5.25,5.25,0,0,1,3.87,1.54,5.37,5.37,0,0,1,1.53,4v71.7a5.37,5.37,0,0,1-1.53,4,5.25,5.25,0,0,1-3.87,1.54,5.43,5.43,0,0,1-5.51-5.51V523.18H426.14v31.56a5.39,5.39,0,0,1-1.54,3.92,5.26,5.26,0,0,1-4,1.59A5.33,5.33,0,0,1,416.71,558.66Z"/><path class="cls-2" d="M509,558.66a5.31,5.31,0,0,1-1.58-3.92V483a5.25,5.25,0,0,1,1.58-4,5.41,5.41,0,0,1,3.92-1.54,5.28,5.28,0,0,1,5.51,5.51v71.7a5.39,5.39,0,0,1-1.54,3.92,5.26,5.26,0,0,1-4,1.59A5.33,5.33,0,0,1,509,558.66Z"/><path class="cls-2" d="M596,479a5.09,5.09,0,0,1-3.65,8.74H569.55v67a5.51,5.51,0,1,1-11,0v-67H535.65a5.09,5.09,0,1,1,0-10.17h56.67A5,5,0,0,1,596,479Z"/><path class="cls-2" d="M668.1,479a5.23,5.23,0,0,1,1.32,3.6,6.47,6.47,0,0,1-1.06,3.5l-28.49,43.95v24.68a5.43,5.43,0,0,1-5.5,5.51,5.2,5.2,0,0,1-3.82-1.59,5.32,5.32,0,0,1-1.59-3.92V530.06l-28.28-43.95a6.35,6.35,0,0,1-1.16-3.39,4.81,4.81,0,0,1,1.64-3.71,5.61,5.61,0,0,1,3.87-1.48,4.73,4.73,0,0,1,2.75.74,8.76,8.76,0,0,1,2.12,2.33l24.78,39.3,25.21-39.72a5.43,5.43,0,0,1,4.87-2.65A4.31,4.31,0,0,1,668.1,479Z"/><path class="cls-2" d="M193.62,522.65a24.45,24.45,0,0,0-5.27-7.83,24.58,24.58,0,0,0-17.43-7.22,24.63,24.63,0,0,0-24.64,24.64,4.9,4.9,0,0,0,9.79,0,14.85,14.85,0,0,1,29.7,0v18.22H150.51A35.27,35.27,0,1,1,178.66,494a4.89,4.89,0,1,0,7.81-5.9,45.07,45.07,0,1,0-36,72.2h45.05v-28A24.42,24.42,0,0,0,193.62,522.65Z"/><path class="cls-3" d="M346.74,610.1a2.45,2.45,0,0,1-.1.79,2.57,2.57,0,0,1-.94,1.53,3,3,0,0,1-1.73.45,18.09,18.09,0,0,1-2.32-.2,18.73,18.73,0,0,0-2.43-.2,18.3,18.3,0,0,0-8.8,2.08,15.32,15.32,0,0,0-6,5.74,15.78,15.78,0,0,0-2.18,8.21v30.09a3,3,0,0,1-.79,2.12,2.85,2.85,0,0,1-2.18.84,2.87,2.87,0,0,1-3-3v-48.2a2.84,2.84,0,0,1,.84-2.17,3,3,0,0,1,2.13-.8,2.75,2.75,0,0,1,3,3v6.14a21.14,21.14,0,0,1,7.32-7.13,19.1,19.1,0,0,1,9.7-2.57Q346.74,606.83,346.74,610.1Z"/><path class="cls-3" d="M366.23,658.54a26.24,26.24,0,0,1-9.94-9.95,29.34,29.34,0,0,1,0-28.2,26.24,26.24,0,0,1,9.94-9.95,29.36,29.36,0,0,1,28.21,0,26.24,26.24,0,0,1,9.94,9.95,29.34,29.34,0,0,1,0,28.2,26.24,26.24,0,0,1-9.94,9.95,29.36,29.36,0,0,1-28.21,0Zm25.24-4.8a20.67,20.67,0,0,0,7.77-7.92,24,24,0,0,0,0-22.56,20.94,20.94,0,0,0-7.77-8,21.74,21.74,0,0,0-30,8,23.6,23.6,0,0,0,0,22.56,21.08,21.08,0,0,0,7.82,7.92,22.84,22.84,0,0,0,22.17,0Z"/><path class="cls-3" d="M470.83,608.22a2.92,2.92,0,0,1,.79,2.17v48.2a3,3,0,0,1-.79,2.12,3,3,0,0,1-5.15-2.12v-5.15a23.51,23.51,0,0,1-8.21,6.48,24.16,24.16,0,0,1-10.59,2.33,27.48,27.48,0,0,1-12.91-3,21.48,21.48,0,0,1-8.91-8.66A27.26,27.26,0,0,1,421.85,637V610.39a3,3,0,1,1,5.93,0V637q0,9.4,5.3,14.35t13.8,4.95a22.15,22.15,0,0,0,9.55-2,16.54,16.54,0,0,0,6.78-5.64,13.78,13.78,0,0,0,2.47-8V610.39a2.84,2.84,0,0,1,.84-2.17,3.3,3.3,0,0,1,4.31,0Z"/><path class="cls-3" d="M531.19,610.44a26.17,26.17,0,0,1,9.94,9.95,29.27,29.27,0,0,1,0,28.2,26.17,26.17,0,0,1-9.94,9.95A28,28,0,0,1,517,662.15a26.75,26.75,0,0,1-12.72-3,23.09,23.09,0,0,1-8.95-8.26v30.87a3.05,3.05,0,0,1-5.1,2.18,2.86,2.86,0,0,1-.84-2.18V634a27.66,27.66,0,0,1,3.76-13.86,26.14,26.14,0,0,1,9.95-9.74,29.37,29.37,0,0,1,28.05.09Zm-3.07,43.3a21.08,21.08,0,0,0,7.82-7.92,23.6,23.6,0,0,0,0-22.56,22,22,0,0,0-30-8,20.94,20.94,0,0,0-7.77,8,24,24,0,0,0,0,22.56,20.67,20.67,0,0,0,7.77,7.92,22.82,22.82,0,0,0,22.16,0Z"/><path class="cls-3" d="M267.48,661.55a37.34,37.34,0,1,1,0-74.68,37.42,37.42,0,0,1,8.83,1,36.88,36.88,0,0,1,8.08,3,37.56,37.56,0,0,1,12.89,10.8,2.85,2.85,0,0,1-4.54,3.43,31.66,31.66,0,1,0-25.26,50.73h31.65v-17a14.12,14.12,0,0,0-28.23,0,2.85,2.85,0,1,1-5.69,0,19.81,19.81,0,1,1,39.61,0v22.7Z"/></svg>