<svg id="Layer_1" data-name="Layer 1" xmlns="http://www.w3.org/2000/svg" viewBox="0 0 1062.46 769.92"><defs><style>.cls-1{fill:#00a69c;}.cls-2{fill:#fff;}.cls-3{fill:#dadada;}</style></defs><path class="cls-1" d="M316.28,433.91a74.53,74.53,0,0,0-143.2,29,14.81,14.81,0,1,0,29.61,0,44.93,44.93,0,0,1,89.85,0v55.12H185.86A106.68,106.68,0,1,1,271,347.11a14.8,14.8,0,1,0,23.62-17.85,136,136,0,0,0-108.78-54.18,136.29,136.29,0,1,0,0,272.58H322.15V462.93A74,74,0,0,0,316.28,433.91Z"/><path class="cls-2" d="M558.25,407.07a5.37,5.37,0,0,1-1.59,3.95,5.8,5.8,0,0,1-4.31,1.6,6,6,0,0,1-5.31-2.95L526.75,377.1H509.52v29.38a6.05,6.05,0,0,1-1.71,4.37,6.17,6.17,0,0,1-10.57-4.37V326.59a5.91,5.91,0,0,1,1.77-4.43,6.09,6.09,0,0,1,4.37-1.71h21.24a32.91,32.91,0,0,1,15.64,3.66A26.51,26.51,0,0,1,551,334.38a29.61,29.61,0,0,1,3.83,15.1A26.36,26.36,0,0,1,539,374.15l18.05,29A7.21,7.21,0,0,1,558.25,407.07Zm-33.63-41.3q8,0,13.22-4.55A14.87,14.87,0,0,0,543,349.48a16.83,16.83,0,0,0-5.19-12.74,18.35,18.35,0,0,0-13.22-5h-15.1v34Z"/><path class="cls-2" d="M641.33,406.6a5.8,5.8,0,0,1-1.77,4.25,5.94,5.94,0,0,1-4.37,1.77,6.19,6.19,0,0,1-3.36-1,5.64,5.64,0,0,1-2.3-2.77l-6.61-16.52H580.56l-6.73,16.52a6.48,6.48,0,0,1-2.36,2.77,5.9,5.9,0,0,1-3.3,1,5.64,5.64,0,0,1-4.31-1.83,6.11,6.11,0,0,1-1.71-4.31,7.51,7.51,0,0,1,.59-2.71l33.16-79.19c1.18-2.75,3.1-4.13,5.78-4.13a5.73,5.73,0,0,1,5.78,4.13L640.74,404A7.62,7.62,0,0,1,641.33,406.6Zm-22.54-24.43-16.87-42-17.23,42Z"/><path class="cls-2" d="M656.55,410.85a5.94,5.94,0,0,1-1.77-4.37V326.59a5.91,5.91,0,0,1,1.77-4.43,6.09,6.09,0,0,1,4.37-1.71h23.6a31.2,31.2,0,0,1,15.63,3.9,27.34,27.34,0,0,1,10.74,10.85A32.24,32.24,0,0,1,714.73,351a30.41,30.41,0,0,1-3.84,15.34,27.06,27.06,0,0,1-10.74,10.5,32,32,0,0,1-15.63,3.78H667.05v25.84a6.05,6.05,0,0,1-1.71,4.37,6.34,6.34,0,0,1-8.79,0Zm28-41.54a18,18,0,0,0,13.21-5.14,17.7,17.7,0,0,0,5.2-13.15,19.18,19.18,0,0,0-5.2-13.81,17.48,17.48,0,0,0-13.21-5.43H667.05v37.53Z"/><path class="cls-2" d="M730.07,410.85a5.94,5.94,0,0,1-1.77-4.37V326.59a5.91,5.91,0,0,1,1.77-4.43,6.11,6.11,0,0,1,10.5,4.43v33.87h54.75V326.59a5.91,5.91,0,0,1,1.77-4.43,6.09,6.09,0,0,1,4.37-1.71,5.89,5.89,0,0,1,4.31,1.71,6,6,0,0,1,1.71,4.43v79.89a6,6,0,0,1-1.71,4.43,5.85,5.85,0,0,1-4.31,1.71,6,6,0,0,1-6.14-6.14V371.31H740.57v35.17a6.05,6.05,0,0,1-1.71,4.37,6.34,6.34,0,0,1-8.79,0Z"/><path class="cls-2" d="M832.85,410.85a5.94,5.94,0,0,1-1.77-4.37V326.59a5.91,5.91,0,0,1,1.77-4.43,6.11,6.11,0,0,1,10.5,4.43v79.89a6.05,6.05,0,0,1-1.71,4.37,6.34,6.34,0,0,1-8.79,0Z"/><path class="cls-2" d="M929.79,322.05a5.66,5.66,0,0,1-4.07,9.73H900.35v74.7a6.14,6.14,0,1,1-12.28,0v-74.7H862.58a5.67,5.67,0,1,1,0-11.33h63.14A5.48,5.48,0,0,1,929.79,322.05Z"/><path class="cls-2" d="M1010.15,322.11a5.81,5.81,0,0,1,1.48,4,7.22,7.22,0,0,1-1.19,3.89L978.7,379v27.5a6,6,0,0,1-6.13,6.14,5.79,5.79,0,0,1-4.25-1.77,5.94,5.94,0,0,1-1.77-4.37V379L935,330a7,7,0,0,1-1.3-3.77,5.32,5.32,0,0,1,1.83-4.13,6.2,6.2,0,0,1,4.31-1.66,5.28,5.28,0,0,1,3.07.83,10,10,0,0,1,2.36,2.59l27.61,43.79L1001,323.4a6.09,6.09,0,0,1,5.43-2.95A4.74,4.74,0,0,1,1010.15,322.11Z"/><path class="cls-2" d="M481.51,370.72a27.45,27.45,0,0,0-52.74,10.69,5.45,5.45,0,1,0,10.9,0,16.55,16.55,0,1,1,33.09,0v20.3H433.47a39.29,39.29,0,1,1,31.37-63,5.45,5.45,0,1,0,8.7-6.58,50.72,50.72,0,0,0-7.82-8.22,50.08,50.08,0,0,0-9.51-6.29,49.58,49.58,0,0,0-10.86-4,50.25,50.25,0,0,0-58.13,29.24,50.19,50.19,0,0,0,46.25,69.74h50.2V381.41A27.34,27.34,0,0,0,481.51,370.72Z"/><path class="cls-3" d="M513.2,464.33a3,3,0,0,1-.11.88,2.9,2.9,0,0,1-1.05,1.71,3.35,3.35,0,0,1-1.93.49,19.23,19.23,0,0,1-2.59-.22,19.9,19.9,0,0,0-2.7-.22,20.26,20.26,0,0,0-9.81,2.32,17,17,0,0,0-6.73,6.39,17.53,17.53,0,0,0-2.42,9.15v33.52a3.34,3.34,0,0,1-.89,2.37,3.18,3.18,0,0,1-2.42.94,3.21,3.21,0,0,1-3.31-3.31V464.66a3.16,3.16,0,0,1,.94-2.43,3.3,3.3,0,0,1,2.37-.88,3.06,3.06,0,0,1,3.31,3.31v6.83a23.52,23.52,0,0,1,8.15-7.94,21.24,21.24,0,0,1,10.81-2.86Q513.19,460.69,513.2,464.33Z"/><path class="cls-3" d="M534.92,518.29a29,29,0,0,1-11.08-11.08,32.64,32.64,0,0,1,0-31.42,29.12,29.12,0,0,1,11.08-11.08,32.71,32.71,0,0,1,31.42,0,29.26,29.26,0,0,1,11.08,11.08,32.71,32.71,0,0,1,0,31.42,29.19,29.19,0,0,1-11.08,11.08,32.64,32.64,0,0,1-31.42,0ZM563,513a23,23,0,0,0,8.65-8.82,26.66,26.66,0,0,0,0-25.14,23.35,23.35,0,0,0-8.65-8.88A24.21,24.21,0,0,0,529.62,479a26.36,26.36,0,0,0,0,25.14,23.49,23.49,0,0,0,8.71,8.82,25.5,25.5,0,0,0,24.7,0Z"/><path class="cls-3" d="M651.45,462.23a3.28,3.28,0,0,1,.88,2.43v53.69a3.33,3.33,0,0,1-.88,2.37,3.2,3.2,0,0,1-2.43.94,3.2,3.2,0,0,1-3.3-3.31v-5.74a26.25,26.25,0,0,1-9.15,7.23,27.07,27.07,0,0,1-11.8,2.59,30.71,30.71,0,0,1-14.39-3.31,23.89,23.89,0,0,1-9.92-9.65,30.3,30.3,0,0,1-3.58-15.16V464.66a3.31,3.31,0,1,1,6.61,0v29.65q0,10.49,5.9,16t15.38,5.51a24.63,24.63,0,0,0,10.64-2.26,18.42,18.42,0,0,0,7.55-6.28,15.35,15.35,0,0,0,2.76-8.88V464.66a3.19,3.19,0,0,1,.93-2.43,3.33,3.33,0,0,1,2.37-.88A3.28,3.28,0,0,1,651.45,462.23Z"/><path class="cls-3" d="M718.7,464.71a29.19,29.19,0,0,1,11.08,11.08,32.64,32.64,0,0,1,0,31.42,29.12,29.12,0,0,1-11.08,11.08,31.18,31.18,0,0,1-15.77,4A29.64,29.64,0,0,1,688.77,519a25.69,25.69,0,0,1-10-9.2v34.4a3,3,0,0,1-3.31,3.3,3.31,3.31,0,0,1-2.37-.88,3.19,3.19,0,0,1-.93-2.42V490.9a30.69,30.69,0,0,1,4.18-15.44,29.17,29.17,0,0,1,11.08-10.86,32.79,32.79,0,0,1,31.26.11ZM715.28,513a23.42,23.42,0,0,0,8.71-8.82A26.29,26.29,0,0,0,724,479a24.57,24.57,0,0,0-33.4-8.88,23.37,23.37,0,0,0-8.66,8.88,26.73,26.73,0,0,0,0,25.14,23.07,23.07,0,0,0,8.66,8.82,25.48,25.48,0,0,0,24.69,0Z"/><path class="cls-3" d="M424.88,521.66a41.61,41.61,0,1,1,0-83.22,41.66,41.66,0,0,1,9.84,1.18,41.19,41.19,0,0,1,9,3.33,41.66,41.66,0,0,1,14.36,12,3.14,3.14,0,0,1,.61,2.35,3.17,3.17,0,0,1-5.66,1.48,35.27,35.27,0,1,0-28.16,56.51h35.27v-19a15.73,15.73,0,1,0-31.46,0,3.17,3.17,0,0,1-6.34,0,22.07,22.07,0,1,1,44.14,0v25.3Z"/></svg>