<?xml version="1.0" encoding="utf-8"?>
<!-- Generator: Adobe Illustrator 24.1.0, SVG Export Plug-In . SVG Version: 6.00 Build 0)  -->
<svg version="1.1" id="Layer_1" xmlns="http://www.w3.org/2000/svg" xmlns:xlink="http://www.w3.org/1999/xlink" x="0px" y="0px"
	 viewBox="0 0 500 500" style="enable-background:new 0 0 500 500;" xml:space="preserve">
<style type="text/css">
	.st0{fill:#F5F5F5;}
	.st1{fill:#E0E0E0;}
	.st2{fill:#EBEBEB;}
	.st3{fill:#00A69C;}
	.st4{opacity:0.15;}
	.st5{fill:#FFFFFF;}
	.st6{fill:#37474F;}
	.st7{fill:#263238;}
	.st8{fill:#455A64;}
	.st9{fill:#FAFAFA;}
	.st10{fill:#771055;}
	.st11{opacity:0.3;fill:#FFFFFF;enable-background:new    ;}
	.st12{opacity:0.15;enable-background:new    ;}
	.st13{opacity:0.2;enable-background:new    ;}
	.st14{fill:#F28F8F;}
	.st15{opacity:0.1;enable-background:new    ;}
	.st16{opacity:0.35;fill:#FFFFFF;enable-background:new    ;}
	.st17{opacity:5.000000e-02;enable-background:new    ;}
	.st18{opacity:0.95;fill:#FFFFFF;enable-background:new    ;}
	.st19{opacity:0.8;fill:#FFFFFF;enable-background:new    ;}
	.st20{opacity:0.7;fill:#FFFFFF;enable-background:new    ;}
	.st21{fill:#FFA8A7;}
	.st22{fill:#B16668;}
	.st23{opacity:0.4;fill:#FFFFFF;enable-background:new    ;}
	.st24{opacity:0.3;enable-background:new    ;}
	.st25{opacity:0.4;}
	.st26{opacity:0.7;}
	.st27{opacity:0.3;}
	.st28{opacity:0.5;fill:#FFFFFF;enable-background:new    ;}
	.st29{opacity:0.25;enable-background:new    ;}
	.st30{fill:none;stroke:#B0B0B0;stroke-linecap:round;stroke-miterlimit:10;}
	.st31{fill:none;stroke:#B0B0B0;stroke-linecap:round;stroke-miterlimit:10;stroke-dasharray:4.9485,4.9485;}
</style>
<g id="freepik--Floor--inject-49">
	<ellipse id="freepik--floor--inject-49" class="st0" cx="286.6" cy="366.5" rx="185.3" ry="113.4"/>
</g>
<g id="freepik--Shadows--inject-49">
	<path id="freepik--Shadow--inject-49" class="st1" d="M380.3,413.6c-1,0-1.9-0.2-2.8-0.7l-32.8-19c-1.7-0.8-2.4-2.9-1.5-4.6
		c0.3-0.7,0.9-1.2,1.5-1.5l54.3-31.3c1.7-0.9,3.8-0.9,5.5,0l32.8,18.9c1.7,0.8,2.4,2.9,1.5,4.6c-0.3,0.7-0.9,1.2-1.5,1.5L383.1,413
		C382.3,413.4,381.3,413.6,380.3,413.6z"/>
	<path id="freepik--shadow--inject-49" class="st1" d="M311.5,455.1c-4.1,0-8.3-0.5-12.3-1.4c-3.8-0.9-7.4-2.2-10.8-4l-0.1,0
		c-0.7-0.4-1.5-0.9-2.6-1.6c-1.1-0.7-2.1-1.3-3.1-2c-1.1-0.7-2.1-1.4-3-2c-0.9-0.7-1.7-1.2-2.3-1.7c-2.6-2-4.8-4.5-6.3-7.5
		c-1.5-3-2-6.3-1.3-9.6c0.8-3.5,2.5-6.7,5-9.3c2.6-2.9,6.1-5.5,10.9-8c4.9-2.6,10-4.7,15.3-6.2c4.5-1.2,9.2-1.9,13.9-2h0.4
		c4.1,0,8.1,0.5,12.1,1.6c3.7,1,7.3,2.4,10.7,4.3c1.3,0.7,2.7,1.6,4.2,2.6c1.5,1,2.8,1.9,3.9,2.7c1.8,1.3,3.3,3,4.3,5
		c0.7,1.7,1,3.5,0.7,5.3h0.4h0.2c1.5,0,2.9,0.4,4.1,1.3c1.6,1.1,2.4,3,2.1,4.9c-0.2,1.4-0.6,2.8-1,4.2c-0.7,2-1.7,3.8-3,5.4
		c-1.6,2-3.5,3.7-5.5,5.3c-6.8,5.1-14.6,8.8-22.9,11c-4.4,1.1-9,1.7-13.5,1.7L311.5,455.1z M308.6,427c0.1,0.1,0.3,0.2,0.5,0.3
		c1.3,0.9,2.8,1.5,4.3,1.7c0.3,0,0.5,0,0.8,0c0.6,0,1.2-0.1,1.8-0.3c-0.1-0.1-0.3-0.2-0.4-0.3c-1.3-0.9-2.8-1.5-4.4-1.7
		c-0.3,0-0.5,0-0.8,0C309.7,426.7,309.1,426.8,308.6,427z"/>
	<path id="freepik--shadow--inject-49_1_" class="st1" d="M214.3,440l-106.6-61.4c-2.2-1.3-2.2-3.4,0-4.7l216.3-124.8
		c2.6-1.3,5.6-1.3,8.1,0l106.6,61.4c2.3,1.3,2.3,3.4,0,4.7L222.5,440C219.9,441.3,216.9,441.3,214.3,440z"/>
</g>
<g id="freepik--Clouds--inject-49">
	<g id="freepik--clouds--inject-49">
		<path class="st2" d="M197.1,71.6l-8.6,4.9c0-0.4,0.1-0.7,0.1-1.1V73c0-4.4-3.1-6.2-6.9-4c-1.6,1-3.1,2.3-4.1,3.9
			c-0.6-5.6-5-7.6-10.3-4.6c-6.1,4-10,10.7-10.4,18V90c0,1.5,0.3,3,0.9,4.3l-7.1,4.1c-2.3,1.5-3.7,4-3.8,6.8c0,2.4,1.7,3.4,3.8,2.2
			l46.5-26.8c2.3-1.5,3.7-4,3.8-6.7C201,71.4,199.3,70.4,197.1,71.6z"/>
		<path class="st2" d="M140.4,48.9l-4.7,1.8V40.3c0-8.3-6.5-10.2-13.7-6.1l0,0c-7.2,4.1-13,14.2-13,22.4v1.5c-2-0.6-4.3-0.3-6,0.9
			l0,0c-5.5,3.6-9,9.6-9.3,16.2v0.7l-6.5,3.8C83.5,82,81.2,86,81,90.3c0,3.9,2.7,5.5,6.1,3.5L140.5,63c3.6-2.4,5.9-6.3,6.1-10.6
			C146.6,48.5,143.8,46.9,140.4,48.9z"/>
	</g>
</g>
<g id="freepik--Plant--inject-49">
	<g id="freepik--Plants--inject-49">
		<path class="st3" d="M126.7,354.6l5.6-3.3c0,0,3.4-13.9,2-26.5c-1.9-17.6-13.5-24.3-17.9-22.7c-4.4,1.5-5.7,6.6,1.6,17.2
			C122.3,325.5,127.6,338.4,126.7,354.6z"/>
		<g class="st4">
			<path d="M126.7,354.6l5.6-3.3c0,0,3.4-13.9,2-26.5c-1.9-17.6-13.5-24.3-17.9-22.7c-4.4,1.5-5.7,6.6,1.6,17.2
				C122.3,325.5,127.6,338.4,126.7,354.6z"/>
		</g>
		<path class="st5" d="M129,347.8L129,347.8c-0.3,0-0.4-0.2-0.4-0.5c0,0,0,0,0,0c3.1-16.3-2.6-34.5-9.6-42.1c-0.2-0.2-0.2-0.4,0-0.6
			c0,0,0,0,0,0c0.2-0.2,0.4-0.2,0.6,0c7.2,7.8,12.9,26.4,9.8,42.8C129.4,347.7,129.2,347.8,129,347.8z"/>
		<path class="st3" d="M111.1,365.6c-0.9,0.5-3.3-1.6-3.9-2.1c-1.1-0.9-2-2-2.6-3.3c-0.6-1.5-0.8-3.1-0.5-4.7
			c0.2-0.8,0.4-1.6,0.7-2.4c0.3-0.8,0.5-1.6,0.8-2.4c0.3-0.8,0.5-1.6,0.5-2.4c-0.1-1.7-1.5-2.9-2.8-3.9c-1.4-1.2-2.9-2.7-2.7-4.7
			c0.2-1.5,0.9-3,1.9-4c1-1.2,2.2-2.2,3.1-3.4c0.7-0.8,1.1-1.9,1.1-3c-0.1-0.7-0.2-1.3-0.6-1.9c-0.7-1.3-1.4-2.6-1.9-3.9
			c-0.4-1.4-0.3-3.1,0.8-4.1c1-0.7,2.3-0.9,3.4-0.7c1.1,0.2,2.2,0.6,3.1,1.3c3,1.9,4.6,5.7,7.9,7.2c1.3,0.5,2.6,0.9,4,1.2
			c1.4,0.3,2.5,1.2,3.2,2.4c1.1,2.5-1.3,5.4-0.6,8c0.6,2.3,2.8,3.3,4,5.4c0.5,0.9,0.6,2,0.4,3c-0.2,1.7-0.7,3.4-1.5,5
			c-0.9,1.6-1.9,3.1-3,4.6C126.1,356.9,111.2,365.6,111.1,365.6z"/>
		<path class="st5" d="M119.7,361.1L119.7,361.1c-0.2,0-0.4-0.2-0.4-0.4c0,0,0,0,0,0c1.4-15.5-5-33-10.1-38.2
			c-0.2-0.2-0.2-0.4,0-0.6c0.2-0.2,0.4-0.2,0.6,0c0,0,0,0,0,0c5.2,5.4,11.7,23.1,10.2,38.8C120.1,361,119.9,361.1,119.7,361.1z"/>
		<path class="st5" d="M118.2,342.1c0,0-0.1,0-0.1,0c-3.6-1.2-7.4-2-11.2-2.4c-0.2,0-0.4-0.2-0.4-0.4c0-0.2,0.2-0.4,0.4-0.4
			c0,0,0,0,0,0c3.9,0.4,7.7,1.2,11.4,2.4c0.2,0.1,0.3,0.3,0.2,0.5C118.5,342,118.3,342.1,118.2,342.1L118.2,342.1z"/>
	</g>
</g>
<g id="freepik--Device--inject-49">
	<g id="freepik--device--inject-49">
		<g id="freepik--Mobile--inject-49">
			<path class="st6" d="M114.8,374.7l99.1,57.2c3.2,1.8,7.1,1.9,10.3,0.2l199.5-115.2c3.1-1.8,5.7-5.9,5.7-9.1s-2.6-7.3-5.7-9.1
				l-98.7-57c-3.6-1.8-7.8-1.8-11.4,0L114.8,356.5c-3.1,1.8-5.7,5.9-5.7,9.1S111.7,372.9,114.8,374.7z"/>
			<path class="st7" d="M213.9,431.9l-99.1-57.2c-3.1-1.8-5.7-5.9-5.7-9.1c0-3.2,2.6-7.2,5.7-9.1l104.5-60.3v137.1
				C217.4,433.3,215.5,432.8,213.9,431.9z"/>
			<path class="st8" d="M216.3,421.7c3.2,1.6,6.9,1.6,10,0l197.5-114c4.2-2.5,4.2-6.5,0-8.9l-98.7-57c-3.6-1.8-7.8-1.8-11.4,0
				L114.8,356.5c-3.1,1.8-3.1,4.8,0,6.6L216.3,421.7z"/>
			<path class="st6" d="M225.8,410.2c3.4,1.7,7.4,1.7,10.8,0l169.9-98.1c3-1.7,3-4.5,0-6.2l-92.9-53.6c-3.4-1.7-7.4-1.7-10.8,0
				L133,350.3c-3,1.7-3,4.5,0,6.3L225.8,410.2z"/>
			<path class="st7" d="M308.6,251c1.8,0,3.5,0.4,5.1,1.3l92.9,53.6c3,1.7,3,4.5,0,6.2l-18.4,10.6l-79.6-50.8V251z"/>
			<path class="st9" d="M302.8,256.3c3.4-1.7,7.4-1.7,10.8,0l92.9,53.6c0.5,0.3,1,0.7,1.4,1.1c-0.4,0.4-0.8,0.8-1.3,1.1l-169.9,98.1
				c-3.4,1.7-7.4,1.7-10.8,0L133,356.6c-0.5-0.3-1-0.7-1.4-1.1c0.4-0.4,0.8-0.8,1.3-1.1L302.8,256.3z"/>
			<path class="st7" d="M372.6,280.8l-16.5-9.5c-1-0.6-1-1.5-0.1-2c1.1-0.5,2.4-0.5,3.5,0.1l16.4,9.5c1,0.6,1,1.5,0.1,2
				C375,281.4,373.7,281.3,372.6,280.8z"/>
			<path class="st7" d="M344.4,264.5c-0.5-0.2-0.8-0.8-0.6-1.3c0.1-0.3,0.3-0.5,0.6-0.6c1-0.5,2.3-0.5,3.3,0
				c0.5,0.2,0.8,0.8,0.6,1.3c-0.1,0.3-0.3,0.5-0.6,0.6C346.6,265,345.4,265,344.4,264.5z"/>
			<path class="st7" d="M337.7,260.6c-0.5-0.2-0.8-0.8-0.6-1.3c0.1-0.3,0.3-0.5,0.6-0.6c1-0.5,2.3-0.5,3.3,0
				c0.5,0.2,0.8,0.8,0.6,1.3c-0.1,0.3-0.3,0.5-0.6,0.6C340,261.1,338.7,261.1,337.7,260.6z"/>
			<path class="st7" d="M391.1,291.5c-0.5-0.2-0.8-0.8-0.6-1.3c0.1-0.3,0.3-0.5,0.6-0.6c1-0.5,2.3-0.5,3.3,0
				c0.5,0.2,0.8,0.8,0.6,1.3c-0.1,0.3-0.3,0.5-0.6,0.6C393.3,292,392.1,292,391.1,291.5z"/>
			<path class="st7" d="M384.4,287.6c-0.5-0.2-0.8-0.8-0.6-1.3c0.1-0.3,0.3-0.5,0.6-0.6c1-0.5,2.3-0.5,3.3,0
				c0.5,0.2,0.8,0.8,0.6,1.3c-0.1,0.3-0.3,0.5-0.6,0.6C386.7,288.1,385.4,288.1,384.4,287.6z"/>
		</g>
		<g id="freepik--mail-notification--inject-49">
			<path class="st10" d="M221.7,382.8v0.3c0,0.6,0.4,1.2,0.9,1.6l19.3,11.2c0.6,0.3,1.2,0.3,1.8,0l32-18.5c0.5-0.4,0.9-0.9,0.9-1.6
				v-0.4c0-0.6-0.4-1.2-0.9-1.6l-19.3-11.2c-0.6-0.3-1.2-0.3-1.8,0l-32,18.5C222.1,381.6,221.7,382.2,221.7,382.8z"/>
			<path class="st10" d="M221.7,382.8v0.3c0,0.6,0.4,1.2,0.9,1.6l19.3,11.2c0.6,0.3,1.2,0.3,1.8,0l32-18.5c0.5-0.4,0.9-0.9,0.9-1.6
				v-0.4c0-0.6-0.4-1.2-0.9-1.6l-19.3-11.2c-0.6-0.3-1.2-0.3-1.8,0l-32,18.5C222.1,381.6,221.7,382.2,221.7,382.8z"/>
			<path class="st11" d="M275.7,373.9l-19.3-11.2c-0.6-0.3-1.2-0.3-1.8,0l-11.8,6.8v26.5l0,0c0.3,0,0.6-0.1,0.9-0.2l32-18.4
				c0.5-0.4,0.9-0.9,0.9-1.6v-0.4C276.6,374.9,276.3,374.3,275.7,373.9z"/>
			<path class="st12" d="M275.7,373.9l-19.3-11.2c-0.6-0.3-1.2-0.3-1.8,0l-11.8,6.8v26.5l0,0c0.3,0,0.6-0.1,0.9-0.2l32-18.4
				c0.5-0.4,0.9-0.9,0.9-1.6v-0.4C276.6,374.9,276.3,374.3,275.7,373.9z"/>
			<path class="st11" d="M242.8,369.6l-20.2,11.7c-0.5,0.3-0.9,0.9-0.9,1.6v0.3c0,0.6,0.4,1.2,0.9,1.6l19.3,11.2
				c0.3,0.1,0.6,0.2,0.9,0.2l0,0V369.6z"/>
			<path class="st13" d="M242.8,369.6l-20.2,11.7c-0.5,0.3-0.9,0.9-0.9,1.6v0.3c0,0.6,0.4,1.2,0.9,1.6l19.3,11.2
				c0.3,0.1,0.6,0.2,0.9,0.2l0,0V369.6z"/>
			<path class="st10" d="M238.8,391.7l-16.2-9.3c-0.3-0.1-0.4-0.4-0.3-0.7c0.1-0.2,0.2-0.3,0.3-0.3l32-18.5c0.6-0.3,1.2-0.3,1.8,0
				l19.3,11.1c0.3,0.1,0.4,0.4,0.3,0.7c-0.1,0.2-0.2,0.3-0.3,0.3l-5.3,3.1l-1.9,1.1l-24.8,14.3c-0.6,0.3-1.2,0.3-1.8,0l-1.6-0.9
				L238.8,391.7z"/>
			<path class="st11" d="M238.8,391.7l-16.2-9.3c-0.3-0.1-0.4-0.4-0.3-0.7c0.1-0.2,0.2-0.3,0.3-0.3l32-18.5c0.6-0.3,1.2-0.3,1.8,0
				l19.3,11.1c0.3,0.1,0.4,0.4,0.3,0.7c-0.1,0.2-0.2,0.3-0.3,0.3l-5.3,3.1l-1.9,1.1l-24.8,14.3c-0.6,0.3-1.2,0.3-1.8,0l-1.6-0.9
				L238.8,391.7z"/>
			<path class="st12" d="M253.6,376.1l22.2-2.2l-22,1.2l2.6-12.4c-0.3-0.2-0.6-0.2-1-0.2l-4.1,16.8l-29.1,2.4c0,0.2,0.1,0.5,0.4,0.6
				l23.5-1.4l-3.2,12.7l4.1-12.8l0,0l4-0.2c0.5,0,1-0.2,1.3-0.6l0,0c0.3-0.3,0.6-0.7,0.7-1.2L253.6,376.1z"/>
			<path class="st11" d="M229.2,381.2l22.1-1.8l0.8-3.2l0.4-1.8l2.9-11.8c-0.3,0-0.6,0.1-0.8,0.2l-16,9.2l-16,9.2
				c-0.2,0.1-0.3,0.3-0.4,0.5l4.4-0.4L229.2,381.2z"/>
			<path class="st14" d="M251.8,360.1c2.3-1.2,5-1.2,7.3,0c2,1.2,2,3.1,0,4.2c-2.3,1.2-5,1.2-7.3,0
				C249.8,363.2,249.8,361.3,251.8,360.1z"/>
			<path class="st9" d="M252.9,362.9c-0.1,0-0.1,0-0.1,0c0,0,0-0.1,0-0.1l0.3-1.3c0,0,0-0.1,0-0.1c0-0.1,0.1-0.1,0.1-0.1l0.7-0.4
				c0,0,0.1,0,0.2,0c0.1,0,0.1,0,0.2,0l3.9,2.3c0.1,0,0.1,0.1,0.1,0.1c0,0,0,0.1-0.1,0.1l-0.8,0.5c-0.1,0-0.1,0-0.2,0
				c-0.1,0-0.1,0-0.2,0l-2.6-1.5l-0.2,0.7c0,0,0,0.1-0.1,0.1c-0.1,0-0.1,0-0.2,0L252.9,362.9z"/>
		</g>
		<g id="freepik--Notification--inject-49">
			<path class="st10" d="M289,368.7l-21.7-12.6c-0.5-0.3-0.5-0.8,0-1l78.9-45.5c0.6-0.3,1.2-0.3,1.8,0l21.7,12.6
				c0.5,0.3,0.5,0.7,0,1l-78.9,45.5C290.2,369,289.6,369,289,368.7z"/>
			<path class="st9" d="M284.9,354.5c-0.1,0-0.1,0.1-0.2,0.1h-0.2l-4.5-0.5l2.7,1.5c0.1,0,0.1,0.1,0.1,0.1c0,0,0,0-0.1,0.1l-0.5,0.3
				c-0.1,0-0.1,0-0.2,0c-0.1,0-0.1,0-0.2,0l-4.2-2.4c0,0-0.1-0.1-0.1-0.1c0,0,0-0.1,0.1-0.1l0.5-0.3c0.1,0,0.1-0.1,0.2-0.1h0.2
				l4.5,0.5l-2.7-1.5c-0.1,0-0.1-0.1-0.1-0.1c0,0,0,0,0.1-0.1l0.5-0.3c0.1,0,0.1,0,0.2,0c0.1,0,0.1,0,0.2,0l4.2,2.4
				c0.1,0,0.1,0,0.1,0.1c0,0.1,0,0.1-0.1,0.1L284.9,354.5z"/>
			<path class="st9" d="M284.6,352.7c-0.2-0.1-0.4-0.3-0.6-0.5c-0.1-0.1-0.2-0.3-0.2-0.5c0-0.2,0-0.4,0.1-0.5
				c0.1-0.2,0.3-0.4,0.5-0.5c0.2-0.1,0.5-0.2,0.8-0.3c0.3-0.1,0.6-0.1,0.9-0.1c0.3,0,0.6,0,0.8,0.1c0.3,0.1,0.5,0.2,0.7,0.3l0.3,0.2
				c0.1,0,0.1,0.1,0.1,0.1c0,0,0,0-0.1,0.1l-2.2,1.3c0.1,0.1,0.2,0.1,0.3,0.1c0.1,0,0.2,0,0.4,0c0.1,0,0.2,0,0.4-0.1
				c0.1,0,0.2-0.1,0.3-0.1c0.1-0.1,0.2-0.1,0.3-0.2c0.1-0.1,0.1-0.1,0.1-0.2c0,0,0-0.1,0-0.1c0,0,0.1-0.1,0.1-0.1l0.5-0.3
				c0.1,0,0.1,0,0.2,0c0.1,0,0.1,0,0.2,0c0.1,0,0.1,0.1,0.1,0.2c0,0.1,0,0.2,0,0.3c0,0.2-0.1,0.3-0.2,0.4c-0.2,0.2-0.3,0.3-0.5,0.4
				c-0.2,0.1-0.5,0.2-0.8,0.3c-0.3,0.1-0.6,0.1-0.9,0.1c-0.3,0-0.6-0.1-0.8-0.1C285.1,353,284.8,352.9,284.6,352.7z M285.2,351.2
				c-0.1,0.1-0.2,0.1-0.3,0.2c0,0.1-0.1,0.1-0.1,0.2c0,0.1,0,0.1,0.1,0.2c0,0.1,0.1,0.1,0.1,0.2l1.5-0.8c-0.1,0-0.2-0.1-0.2-0.1
				c-0.1,0-0.2,0-0.3,0c-0.1,0-0.2,0-0.4,0C285.4,351.1,285.3,351.2,285.2,351.2z"/>
			<path class="st9" d="M292,348.8l-1.3-1.4c0,0,0-0.1,0-0.1c0,0,0-0.1,0.1-0.1l0.5-0.3c0.1,0,0.1,0,0.2,0c0.1,0,0.1,0,0.2,0l0,0
				l2,2.3c0,0,0,0.1,0,0.1c0,0,0,0.1-0.1,0.1l-0.5,0.3c-0.1,0-0.1,0-0.2,0h-0.2l-2.4-0.6l1.1,1.4c0,0,0,0.1,0,0.1c0,0,0,0.1-0.1,0.1
				L291,351c-0.1,0-0.1,0-0.2,0c-0.1,0-0.1,0-0.2,0l-4-1.2c0,0,0,0,0,0c-0.1,0-0.1,0-0.1-0.1c0-0.1,0-0.1,0.1-0.1l0.5-0.3
				c0.1,0,0.1,0,0.2,0h0.2l2.4,0.7l-1.2-1.4c0,0,0-0.1,0-0.1c0,0,0-0.1,0.1-0.1l0.5-0.3c0.1,0,0.1,0,0.2,0c0.1,0,0.1,0,0.2,0
				L292,348.8z"/>
			<path class="st9" d="M294.9,346.7c-0.2-0.1-0.4-0.3-0.6-0.5c-0.1-0.1-0.2-0.3-0.2-0.5c0-0.2,0-0.4,0.1-0.5
				c0.1-0.2,0.3-0.4,0.5-0.5c0.3-0.1,0.5-0.2,0.8-0.3c0.3-0.1,0.5-0.1,0.8-0.1c0.3,0,0.6,0.1,0.8,0.1c0.3,0.1,0.5,0.2,0.7,0.3
				l0.3,0.2c0,0,0.1,0.1,0.1,0.1c0,0,0,0.1-0.1,0.1l-2.2,1.3c0.1,0.1,0.2,0.1,0.3,0.1c0.1,0,0.2,0,0.4,0c0.1,0,0.2,0,0.4-0.1
				c0.1,0,0.2-0.1,0.3-0.1c0.1-0.1,0.2-0.1,0.3-0.2c0-0.1,0.1-0.1,0.1-0.2c0,0,0-0.1,0-0.1c0,0,0.1-0.1,0.1-0.1l0.5-0.3
				c0.1-0.1,0.2-0.1,0.3,0c0.1,0.1,0.1,0.1,0.1,0.2c0,0.1,0,0.2,0,0.3c-0.1,0.1-0.1,0.3-0.2,0.4c-0.2,0.2-0.3,0.3-0.5,0.4
				c-0.2,0.1-0.5,0.2-0.8,0.3c-0.3,0.1-0.5,0.1-0.8,0.1c-0.3,0-0.6-0.1-0.9-0.1C295.5,347,295.2,346.9,294.9,346.7z M295.6,345.2
				c-0.1,0-0.2,0.1-0.3,0.2c-0.1,0.1-0.1,0.1-0.1,0.2c0,0.1,0,0.1,0,0.2c0,0.1,0.1,0.1,0.1,0.1l1.5-0.8c-0.1,0-0.2-0.1-0.3-0.1
				c-0.1,0-0.2,0-0.3,0c-0.1,0-0.2,0-0.4,0C295.8,345.1,295.7,345.2,295.6,345.2L295.6,345.2z"/>
			<path class="st9" d="M298.3,343.2c0-0.1,0-0.3,0.1-0.4c0.1-0.1,0.2-0.2,0.4-0.3c0.3-0.2,0.5-0.3,0.8-0.3c0.3,0,0.6,0,0.8,0
				c0-0.1,0-0.2,0-0.2c0-0.1,0-0.2,0.1-0.3c0-0.1,0.1-0.2,0.2-0.2c0.1-0.1,0.2-0.1,0.3-0.2c0.2-0.1,0.5-0.2,0.7-0.3
				c0.2,0,0.5-0.1,0.7,0c0.2,0,0.5,0.1,0.7,0.2c0.2,0.1,0.4,0.2,0.6,0.3l1.8,1c0.1,0,0.1,0.1,0.1,0.2c0,0,0,0-0.1,0.1l-0.5,0.3
				c-0.1,0-0.1,0-0.2,0c-0.1,0-0.1,0-0.2,0l-1.7-1c-0.2-0.1-0.5-0.2-0.8-0.3c-0.2,0-0.4,0.1-0.6,0.2c-0.1,0.1-0.3,0.2-0.3,0.4
				c0,0.1,0.1,0.3,0.4,0.5l1.7,1c0.1,0,0.1,0,0.1,0.1c0,0.1,0,0.1-0.1,0.1l-0.5,0.3c-0.1,0-0.1,0-0.2,0c-0.1,0-0.1,0-0.2,0l-1.7-1
				c-0.2-0.2-0.5-0.2-0.8-0.3c-0.2,0-0.5,0.1-0.6,0.2c-0.2,0.1-0.3,0.2-0.3,0.4c0,0.1,0.1,0.3,0.4,0.5l1.7,1c0,0,0.1,0.1,0.1,0.1
				c0,0,0,0.1-0.1,0.1l-0.5,0.3c-0.1,0.1-0.2,0.1-0.3,0l-3-1.7c-0.1,0-0.1,0-0.1-0.1c0-0.1,0-0.1,0.1-0.1l0.5-0.3c0.1,0,0.1,0,0.2,0
				C298.1,343.1,298.2,343.1,298.3,343.2L298.3,343.2z"/>
			<path class="st9" d="M303.9,340.6c-0.1-0.1-0.1-0.1-0.2-0.2c0-0.1,0-0.2,0-0.3c0-0.1,0.1-0.3,0.2-0.4c0.1-0.2,0.3-0.3,0.5-0.4
				c0.2-0.1,0.4-0.2,0.7-0.3c0.2-0.1,0.5-0.1,0.7-0.1c0.2,0,0.5,0,0.7,0.1c0.2,0.1,0.5,0.2,0.7,0.3l1.9,1.1c0,0,0.1,0.1,0.1,0.1
				c0,0,0,0.1-0.1,0.1l-0.5,0.3c-0.1,0-0.1,0-0.2,0c-0.1,0-0.1,0-0.2,0l-0.2-0.1c0,0.1,0,0.3-0.1,0.4c-0.1,0.2-0.3,0.4-0.5,0.5
				c-0.2,0.1-0.4,0.2-0.6,0.2c-0.2,0.1-0.4,0.1-0.6,0.1c-0.2,0-0.4,0-0.6,0c-0.2,0-0.3-0.1-0.5-0.2c-0.3-0.2-0.4-0.4-0.4-0.6
				c0.1-0.3,0.3-0.5,0.5-0.7l0.9-0.7c-0.2-0.1-0.4-0.1-0.6-0.1c-0.2,0-0.4,0.1-0.5,0.2c-0.1,0-0.2,0.1-0.2,0.2c0,0.1,0,0.1,0,0.2
				c0,0,0,0.1,0,0.1c0,0-0.1,0.1-0.1,0.1l-0.6,0.4c0,0-0.1,0-0.1,0C304.1,340.6,304,340.6,303.9,340.6z M306.9,341
				c0.1-0.1,0.2-0.2,0.3-0.3c0.1-0.1,0.1-0.2,0.1-0.3c0-0.1,0-0.2-0.1-0.2c-0.1-0.1-0.1-0.1-0.2-0.2l-0.1,0l-0.7,0.6
				c-0.1,0.1-0.2,0.2-0.2,0.3c0,0.1,0,0.1,0.1,0.2c0.1,0,0.2,0,0.3,0C306.6,341.1,306.7,341,306.9,341L306.9,341z"/>
			<path class="st9" d="M306.3,336.8c0.1-0.1,0.2-0.1,0.3,0l0.5,0.3c0,0,0.1,0.1,0.1,0.1c0,0,0,0.1-0.1,0.1l-0.6,0.3
				c-0.1,0-0.1,0-0.2,0c-0.1,0-0.1,0-0.2,0l-0.5-0.3c-0.1,0-0.1-0.1-0.1-0.1c0,0,0,0,0.1-0.1L306.3,336.8z M310.9,339.3
				c0,0,0.1,0.1,0.1,0.1s0,0.1-0.1,0.1l-0.5,0.3c-0.1,0-0.1,0-0.2,0c-0.1,0-0.1,0-0.2,0l-3-1.7c0,0-0.1-0.1-0.1-0.1
				c0,0,0-0.1,0.1-0.1l0.5-0.3c0.1,0,0.1,0,0.2,0c0.1,0,0.1,0,0.2,0L310.9,339.3z"/>
			<path class="st9" d="M312.6,338.3c0.1,0,0.1,0.1,0.1,0.1c0,0,0,0-0.1,0.1l-0.5,0.3c-0.1,0-0.1,0-0.2,0c-0.1,0-0.1,0-0.2,0
				l-4.3-2.5c0,0-0.1-0.1-0.1-0.1c0,0,0-0.1,0.1-0.1l0.5-0.3c0.1,0,0.1,0,0.2,0c0.1,0,0.1,0,0.2,0L312.6,338.3z"/>
			<path class="st9" d="M286.8,358l64.4-37.2c0.8-0.5,1.7-0.5,2.6-0.2c0.6,0.4,0.5,1-0.3,1.5l-64.4,37.2c-0.8,0.5-1.8,0.5-2.6,0.2
				C285.9,359.1,286,358.5,286.8,358z"/>
			<path class="st9" d="M291.4,360.6l64.4-37.2c0.8-0.5,1.7-0.5,2.6-0.2c0.6,0.4,0.5,1-0.3,1.5L293.7,362c-0.8,0.5-1.7,0.5-2.6,0.2
				C290.4,361.8,290.6,361.1,291.4,360.6z"/>
		</g>
	</g>
</g>
<g id="freepik--Character--inject-49">
	<g id="freepik--character-envelope--inject-49">
		<polygon id="freepik--shadow--inject-49_2_" class="st1" points="195.8,384.8 162.1,365.3 312.8,278.4 347.1,297.4 		"/>
		<g id="freepik--Back--inject-49">
			<path class="st10" d="M186.7,263.7L329.9,181l5.7,3.3c1.6,1,2.6,2.8,2.7,4.7v105.7c-0.1,1.9-1.1,3.6-2.7,4.7l-137.9,79.6
				c-1.7,0.9-3.7,0.9-5.4,0l-3-1.8c-1.6-1-2.6-2.8-2.7-4.7L186.7,263.7z"/>
			<path class="st13" d="M186.7,263.7L329.9,181l5.7,3.3c1.6,1,2.6,2.8,2.7,4.7v105.7c-0.1,1.9-1.1,3.6-2.7,4.7l-137.9,79.6
				c-1.7,0.9-3.7,0.9-5.4,0l-3-1.8c-1.6-1-2.6-2.8-2.7-4.7L186.7,263.7z"/>
			<path class="st10" d="M329.1,171.7l0.6-0.3l-2.2-1.3l0,0c-0.2-0.1-0.4-0.2-0.6-0.3l-63.1-23.4c-1.8-0.6-3.7,0-4.8,1.5l-70.5,103
				c-1.1,1.8-1.7,3.8-1.8,5.9v6.8l2.2,1.3l141.1-84v-6.8C329.9,173.3,329.6,172.4,329.1,171.7z"/>
			<path class="st15" d="M261.9,148.5c-0.3,0.2-0.5,0.5-0.7,0.8l-70.5,103c-0.6,0.9-1,1.9-1.3,2.9l-2.2-1.3c0.2-0.5,0.3-1.1,0.6-1.6
				c0,0,0,0,0,0c0.1-0.2,0.2-0.4,0.3-0.6c0,0,0-0.1,0-0.1c0.1-0.2,0.2-0.4,0.4-0.6L259,148c0.1-0.2,0.2-0.3,0.3-0.4
				c0.1-0.1,0.2-0.2,0.4-0.3L261.9,148.5z"/>
			<path class="st16" d="M329.7,171.4c-0.2-0.1-0.4-0.2-0.6-0.3L266,147.7c-1.4-0.5-3-0.2-4.1,0.8l-2.2-1.3c1.2-0.9,2.7-1.2,4.1-0.8
				l63,23.4c0.2,0.1,0.4,0.2,0.6,0.3L329.7,171.4z"/>
			<path class="st10" d="M188.1,251.6c0.1-0.2,0.2-0.4,0.4-0.6C188.3,251.2,188.2,251.4,188.1,251.6z"/>
			<path class="st10" d="M259.4,147.5c0.1-0.1,0.2-0.2,0.4-0.3C259.6,147.3,259.5,147.4,259.4,147.5z"/>
			<path class="st10" d="M187.2,253.9c0.2-0.5,0.4-1.1,0.6-1.6C187.5,252.9,187.3,253.4,187.2,253.9z"/>
			<path class="st10" d="M187.7,252.3c0.1-0.2,0.2-0.4,0.3-0.6C188,251.9,187.8,252.1,187.7,252.3z"/>
			<path class="st13" d="M187.7,252.3C187.7,252.3,187.7,252.3,187.7,252.3C187.7,252.3,187.7,252.3,187.7,252.3z"/>
			<polygon class="st13" points="187.2,253.9 187.2,253.9 187.2,253.9 			"/>
			<polygon class="st13" points="259.7,147.2 259.7,147.2 259.7,147.2 			"/>
			<path class="st13" d="M188,251.7C188.1,251.7,188.1,251.6,188,251.7C188.1,251.6,188.1,251.7,188,251.7z"/>
			<path class="st13" d="M259,148c0.1-0.2,0.2-0.3,0.4-0.4C259.2,147.7,259.1,147.8,259,148z"/>
			<path class="st10" d="M261.2,149.2l-70.5,103c-1.1,1.8-1.7,3.8-1.8,5.9v6.8l143.3-82.7v-6.8c-0.1-1.9-1.3-3.6-3-4.3l-63-23.4
				C264.3,147.1,262.3,147.7,261.2,149.2z"/>
			<path class="st17" d="M332.1,175.4c0-0.9-0.3-1.7-0.8-2.4l-142,82.2l0,0c-0.3,0.9-0.5,1.9-0.5,2.9v6.8l143.3-82.7L332.1,175.4z"
				/>
		</g>
		<g id="freepik--Paper--inject-49">
			<path class="st10" d="M326,146.4c0.1-0.6-0.2-1.2-0.7-1.5l-4.4-2.5c-0.5-0.2-1.2-0.2-1.7,0.2l-117.6,67.9c-1.4,0.9-2.2,2.4-2.3,4
				v140.7c-0.1,0.6,0.2,1.2,0.7,1.5l4.4,2.5c0.5,0.2,1.2,0.2,1.7-0.2l117.6-67.8c1.4-0.9,2.3-2.4,2.3-4.1V146.4z"/>
			<path class="st18" d="M326,146.4c0.1-0.6-0.2-1.2-0.7-1.5l-4.4-2.5c-0.5-0.2-1.2-0.2-1.7,0.2l-117.6,67.9c-1.4,0.9-2.2,2.4-2.3,4
				v140.7c-0.1,0.6,0.2,1.2,0.7,1.5l4.4,2.5c0.5,0.2,1.2,0.2,1.7-0.2l117.6-67.8c1.4-0.9,2.3-2.4,2.3-4.1V146.4z"/>
			<path class="st10" d="M206.2,359l117.6-67.8c1.4-0.9,2.2-2.4,2.3-4V146.4c0-1.5-1-2.1-2.3-1.3l-117.5,67.9
				c-1.4,0.9-2.2,2.4-2.3,4v140.7C203.8,359.1,204.9,359.7,206.2,359z"/>
			<path class="st19" d="M206.2,359l117.6-67.8c1.4-0.9,2.2-2.4,2.3-4V146.4c0-1.5-1-2.1-2.3-1.3l-117.5,67.9
				c-1.4,0.9-2.2,2.4-2.3,4v140.7C203.8,359.1,204.9,359.7,206.2,359z"/>
			<path class="st10" d="M203.8,357.7c0,0.5,0.2,1.1,0.5,1.4c-0.8-0.4-3.8-2.2-4.2-2.4c-0.5-0.3-0.8-0.9-0.7-1.5V214.4
				c0-0.8,0.3-1.6,0.7-2.3l4.4,2.5c-0.4,0.7-0.7,1.5-0.7,2.3V357.7z"/>
			<path class="st20" d="M203.8,357.7c0,0.5,0.2,1.1,0.5,1.4c-0.8-0.4-3.8-2.2-4.2-2.4c-0.5-0.3-0.8-0.9-0.7-1.5V214.4
				c0-0.8,0.3-1.6,0.7-2.3l4.4,2.5c-0.4,0.7-0.7,1.5-0.7,2.3V357.7z"/>
			<path class="st17" d="M203.8,357.7c0,0.5,0.2,1.1,0.5,1.4c-0.8-0.4-3.8-2.2-4.2-2.4c-0.5-0.3-0.8-0.9-0.7-1.5V214.4
				c0-0.8,0.3-1.6,0.7-2.3l4.4,2.5c-0.4,0.7-0.7,1.5-0.7,2.3V357.7z"/>
		</g>
		<g id="freepik--character--inject-49">
			<path class="st6" d="M246.7,251.3c-0.5,13.1,0.4,41.2,0.4,41.2s13.9,4.2,23.3,2.6s29.6-15.9,29.6-15.9l-3.4-30.4L246.7,251.3z"/>
			<path class="st7" d="M278.9,292l2.3-21.4c8.9-5.3,11.7-12.6,11.7-12.6c-8,10.5-16.4,8.8-16.4,8.8v26.3
				C277.3,292.7,278.1,292.4,278.9,292z"/>
			<path class="st8" d="M302.2,211.8c2.3-11.4,3.3-26.5-6.6-29.3c-2.6-0.7-9.2-0.2-9.2-0.2l-10.7,0.5c-6,0.8-14.3,1.9-16.5,2.5
				c-5.7,1.4-7.5,10.8-10,31.6c-1.6,13-3,23.2-3,35.8c10.5,9.4,43.3,5.7,50.8-0.4C297.3,237.9,298.1,232.6,302.2,211.8z"/>
			<path class="st6" d="M273.9,178.9c-0.1,2.1,2.3,5.6,6,8.1s6.8,3.5,7.2,4.5c-1.7,0.3-3.3,1.2-4.6,4.1c-1.2,2.8-1.2,2.9-5.5,0
				c-4.2-2.9-8-9.7-8-11.9c0-2.3,3.3-6.6,5-6.2L273.9,178.9z"/>
			<path class="st6" d="M287.1,191.5c1.2-1.4,2.4-4.8,2.6-6.2l0.5-5.3c0.6,0.2,1.1,0.5,1.5,1c0.5,0.7,2.7,5.3,2.6,7.9
				c-0.1,2.6-0.7,6.1-1.6,7.6c-0.9,1.5-1.5-1.1-2-2.1C289.9,193,288.9,191.5,287.1,191.5z"/>
			<path class="st6" d="M285.4,194.5c0,0,0.2,9.4-0.7,14.4c1.9,0.3,3.8,0.2,5.6-0.1c0,0-1.4,1.8-6.7,1
				C283.6,209.6,285.2,199.9,285.4,194.5z"/>
			<path class="st7" d="M307.6,151.1c-0.3-8.2-7.1-14.7-15.4-14.4c-7.4,0.2-13.6,5.9-14.4,13.3l-6.8-4.8c-1.6-0.2-3.2,0.4-4.4,1.6
				c-1.9,2-0.7,8,1.7,13.8c0,0,2.4,10.7,3.4,12.4c0.6,1.1,1.6,1.9,2.8,2.2l-0.2-6.5l27-1.9l-2.7-1.9
				C304.2,162.5,307.7,157.1,307.6,151.1z"/>
			<path class="st21" d="M274.1,161c-0.8,0.5-1.7-1.3-3.2-2.2c-1.3-0.8-4.3-2.2-6.3,1.1c-2.1,3.5,1.7,8.4,4.4,9.4
				c4,1.5,5.4-1.7,5.4-1.7l-0.8,16.6c5.4,9.9,21.5,9.3,16,1l0.7-6.4c0,0,4.3,0.6,6.4,0.2c3.5-0.6,5.6-3.3,6.6-7.1
				c1.6-6.1,2.2-10.9,0.6-22.8c-1.8-13-16.9-12.9-25-7.6C270.8,146.9,274.1,161,274.1,161z"/>
			<path class="st7" d="M307.1,137.1c-1.1-0.5-2.4-0.7-3.7-0.4c0.2-1.9-0.9-3.7-2.6-4.4c-1.8-0.9-4.1-0.6-5.6,0.8
				c0.4-1.3-0.8-2.7-2.2-3c-1.4-0.2-2.7,0.1-4,0.7c-1.9,0.7-3.8,1.5-5.7,2.2c-3.4,1.1-7,1.8-10.1,3.6c-0.7,0.4-1.4,1-1.9,1.7
				c-0.6,1-0.9,2.2-0.8,3.4c0,0.4,0.1,0.8,0.2,1.2c-0.2-0.3-0.5-0.5-0.8-0.6c-1.4-0.7-3.1-0.2-3.9,1.2c0,0,0,0.1-0.1,0.1l5.1,2.6
				c-0.1,1-0.3,2.1-0.4,3.1c-0.3,2.7-0.8,5.9-0.2,8.6c0,0.3,0.1,0.6,0.3,0.9c1,0.8,1.9,1.6,2.7,2.6c0.4,0.5,0.9,1.3,1.5,1.4
				c0.7,0.2,1.5-0.2,1.8-0.8c0.1-0.4,0.1-0.8,0.1-1.2l-0.5-5.1c-0.1-0.4,0-0.9,0.1-1.3c0.3-0.5,0.7-1,1.2-1.3c1.2-1,1.9-2.5,2-4
				c0-0.5,0-1,0.1-1.4c0.1-0.4,0.4-0.9,0.8-0.9c0.8,0,5.1,0.9,6.2,1.1c5.6,0.8,11.6,0.9,16.6-1.8c1.9-1.1,5.2-3.3,5.5-5.7
				C308.9,138.9,308.2,137.7,307.1,137.1z"/>
			<path class="st14" d="M290.3,178.9c0,0-7.8-1.4-10.5-2.8c-1.6-0.8-2.9-2.1-3.8-3.6c0.4,1.6,1.2,3,2.2,4.3
				c2,2.5,11.9,4.2,11.9,4.2L290.3,178.9z"/>
			<path class="st7" d="M289.9,159.6c0,0.8-0.7,1.4-1.5,1.4c-0.8,0-1.4-0.7-1.4-1.5c0-0.8,0.7-1.4,1.4-1.4
				C289.3,158.1,289.9,158.8,289.9,159.6C289.9,159.6,289.9,159.6,289.9,159.6z"/>
			<path class="st7" d="M287.1,154.2l-3.4,1.7c-0.4-1,0-2.1,0.9-2.6C285.5,152.8,286.7,153.2,287.1,154.2
				C287.1,154.2,287.1,154.2,287.1,154.2z"/>
			<path class="st22" d="M287.2,168.7l6.2,2.2c-0.5,1.7-2.3,2.7-4,2.1c0,0-0.1,0-0.1,0C287.5,172.4,286.6,170.5,287.2,168.7z"/>
			<path class="st14" d="M291,173.1c-0.2-1.7-1.8-3-3.6-2.7c-0.1,0-0.3,0.1-0.4,0.1c0.2,1.2,1,2.2,2.1,2.6
				C289.8,173.2,290.4,173.3,291,173.1z"/>
			<path class="st7" d="M303.3,155.3l-3.3-1.7c0.4-0.9,1.5-1.3,2.4-0.8c0,0,0.1,0,0.1,0C303.3,153.3,303.7,154.4,303.3,155.3z"/>
			<path class="st7" d="M301.6,159.4c0,0.8-0.6,1.5-1.4,1.5c0,0,0,0,0,0c-0.8,0-1.5-0.7-1.5-1.5c-0.1-0.8,0.5-1.5,1.3-1.6
				s1.5,0.5,1.6,1.3C301.6,159.3,301.6,159.4,301.6,159.4L301.6,159.4z"/>
			<polygon class="st14" points="294.2,158.5 294.5,167.9 300,166.6 			"/>
		</g>
		<g id="freepik--Front--inject-49">
			<path class="st10" d="M334.7,296.1c0,0.1-0.1,0.1-0.1,0.2l-59.7-18.9c-4.7-2.1-10.2-0.4-12.9,4l-63.8,94.9l-2.4,1.4l0,0
				c-0.5,0.4-1.2,0.4-1.8,0.2l65.6-97.8c2.7-4.4,8.2-6,12.9-4L334.7,296.1z"/>
			<path class="st23" d="M256.1,290.6l0.1-0.1l-58.1,85.7l-2.4,1.4l0,0c-0.5,0.4-1.2,0.4-1.8,0.2l59.9-88.5L256.1,290.6z"/>
			<path class="st23" d="M334.7,296.1c0,0.1-0.1,0.1-0.1,0.2l-59.7-18.9c-4.7-2.1-10.2-0.4-12.9,4l-2.4-1.4c2.7-4.3,8.2-6,12.9-4
				L334.7,296.1z"/>
			<path class="st10" d="M338.3,188.3L338.3,188.3c-0.1-0.8-0.5-1-1.1-0.6c-0.3,0.2-0.5,0.4-0.7,0.7l-0.3,0.4l-58.9,89.6l-8.8,12.3
				c-1.2,1.5-3,2.2-4.9,1.8l-7.6-1.8l-58-21.3c-0.4-0.1-0.8-0.1-1.2,0c-0.1,0-0.3,0.1-0.4,0.1l2.2-1.3l55.6,20.4l7.3,2.6
				c1.8,0.3,3.7-0.4,4.8-1.8l8.8-12.2l59.2-90c0.2-0.2,0.4-0.5,0.7-0.6l-5.1-3l2.2-1.2l3.5,2C337.1,185.2,338,186.7,338.3,188.3z"/>
			<path class="st23" d="M277.3,278.4l-8.8,12.3c-1.2,1.5-3,2.2-4.8,1.8l-7.6-1.8l0.1-0.1l0.4-0.6l5,1.2c1.8,0.3,3.7-0.3,4.8-1.8
				l8.7-12.1L277.3,278.4z"/>
			<path class="st15" d="M335.7,184.3l-3.5-2l-2.1,1.2l5.1,3l0,0c-0.3,0.2-0.5,0.4-0.7,0.6l-59.2,90l-0.1,0.1l0,0l2.2,1.2l58.9-89.6
				l0.3-0.4c0.2-0.3,0.4-0.5,0.7-0.7c0.5-0.4,0.9-0.2,1.1,0.6l0,0C338,186.6,337,185.2,335.7,184.3z"/>
			<path class="st10" d="M199.3,271l-12.6-7.3v108.8c0.1,1.9,1.1,3.6,2.7,4.7l3,1.8c1.7,0.9,3.7,0.9,5.4,0l1.5-0.9L199.3,271z"/>
			<path class="st12" d="M199.3,271l-12.6-7.3v108.8c0.1,1.9,1.1,3.6,2.7,4.7l3,1.8c1.7,0.9,3.7,0.9,5.4,0l1.5-0.9L199.3,271z"/>
			<path class="st10" d="M338.4,189v105.7c0,1-0.3,1.9-0.8,2.7c-0.4,0.7-0.9,1.3-1.6,1.8l-0.1,0l-0.2,0.1l-137.9,79.6l0,0
				c-0.5,0.4-1.2,0.5-1.8,0.2c-0.5-0.3-0.8-0.8-0.8-1.3c0-0.2,0-0.3,0-0.5V271.7c-0.1-1.3,0.9-2.4,2.2-2.5c0.3,0,0.6,0,0.8,0.1
				l58,21.3l7.6,1.8c1.8,0.3,3.7-0.4,4.9-1.8l8.8-12.3l58.9-89.6l0.3-0.4C337.6,187,338.4,187.2,338.4,189z"/>
			<path class="st10" d="M335.7,299.3c0.1,0,0.1-0.1,0.2-0.1l0.1-0.1c0.6-0.5,1.2-1.1,1.6-1.8c0.5-0.8,0.8-1.7,0.8-2.7l-61-16.3
				l40.9,31L335.7,299.3z"/>
			<path class="st13" d="M335.7,299.3c0.1,0,0.1-0.1,0.2-0.1l0.1-0.1c0.6-0.5,1.2-1.1,1.6-1.8c0.5-0.8,0.8-1.7,0.8-2.7l-61-16.3
				l40.9,31L335.7,299.3z"/>
			<path class="st10" d="M195.1,377.4c-0.1,0.7,0.2,1.4,0.8,1.8c0.6,0.2,1.3,0.2,1.8-0.2l0,0l47.5-27.4l10.8-60.9l-61,85
				L195.1,377.4z"/>
			<path class="st12" d="M261.9,281.3l-66,97.8c-0.6-0.4-0.9-1.1-0.8-1.8v-1.8l64.5-95.6l0,0L261.9,281.3z"/>
			<path class="st10" d="M337.5,297.4c-0.4,0.7-0.9,1.3-1.6,1.8l-0.1,0.1l-138.1,79.7l0,0c-0.5,0.4-1.2,0.5-1.8,0.2l66-97.8
				c2.7-4.4,8.2-6.1,13-4L337.5,297.4z"/>
			<path class="st12" d="M187.2,253.9l2.2,1.3c-0.3,0.9-0.5,1.9-0.5,2.9v6.8l-2.2-1.3v-6.8C186.7,255.9,186.8,254.9,187.2,253.9z"/>
			<polygon class="st10" points="198.7,268.1 196.5,269.4 194.3,268.1 188.8,265 191,263.7 			"/>
			<path class="st15" d="M198.8,268.2l-7.8-4.5l-2.1,1.3l5.4,3.1l2.2,1.3l0,0c0.1-0.1,0.3-0.1,0.4-0.1c0.4-0.1,0.8-0.1,1.2,0
				l4.4,1.7l50.6,18.6l0.8-1.2L198.8,268.2z"/>
		</g>
		<g id="freepik--Arm--inject-49">
			<path class="st21" d="M259.2,185.3c-7,0.5-11.8,2.2-16.4,13.1c-2.9,7-14.4,32.3-15.5,36.5c-1.3,4.9-4.2,42.2-4.2,42.2l6.7,2.5
				c0,0-2.3,8-4.2,12.6c-2.2,5.3,8.7,4.2,12.2-0.6c3.5-4.8,5.9-11.2,4-13.5c-1.6-1.8-3.4-3.5-5.3-4.9l7.3-33.3l15.4-32.7
				C259.1,207.1,266.9,191.1,259.2,185.3z"/>
			<path class="st14" d="M236.4,273.1c-2.1-1.2-4.4-1.9-6.8-1.9c2.3-0.7,4.8-0.7,7.1,0L236.4,273.1z"/>
			<path class="st6" d="M260.8,185c-3.9,0-11.3-0.2-16.1,8.4c-4.8,8.6-11.5,25-11.5,25s2.8,6.9,17.8,8.3l11.5-24.5
				C262.5,202.2,265.3,191,260.8,185z"/>
		</g>
		<g id="freepik--arm--inject-49">
			<path class="st21" d="M311.7,190.6c5.9,4.7,15.5,12,20.2,15c3.5-4.3,10-12.9,11.6-14.8c2-2.4,8.4-6.3,8.4-6.3l2.4,9.6
				c0,0-12,22.2-16.4,26.3c-4.6,4.3-7.9,2.5-16.9-1.6c-8.5-3.9-17.7-8.7-17.7-8.7c1.8-16.1,0.6-24.8-7.1-27.6
				C301.4,183.1,306.7,186.7,311.7,190.6z"/>
			<path class="st6" d="M327.2,202.3c-3.1,0.8-9.5,9.9-8.3,15.7l-16.3-8.1c2-11.1,2.4-24.8-7-27.5c-0.9-0.2-1.8-0.3-2.7-0.3l0,0
				c4.7-0.5,7.7-0.3,12.6,3.4S327.2,202.3,327.2,202.3z"/>
			<path class="st14" d="M331.9,205.6c-2.3,2.1-3.1,5.7-3.5,7.2c-0.2-2.9,0.6-5.7,2.2-8.1L331.9,205.6z"/>
			<path class="st6" d="M354.6,173.7l5.6-3.4c0,0,0.6,30.2,0.7,31.2c0.2,0.8,0.6,1.4,1.2,1.9l-5.6,3.4c-0.6-0.5-1-1.2-1.2-1.9
				C355.3,203.8,354.6,173.7,354.6,173.7z"/>
			<path class="st21" d="M360.5,182.8c0,0,1.6,0.4,2.2,2.9s0.9,7.3-0.5,8.8c-1.4,1.6-3.4,2.3-4.7,1.7c-2.4-1.1-1.7-6,0.3-7.1
				c3.1-1.8,2.7-3.8,2.7-3.8L360.5,182.8z"/>
			<path class="st8" d="M347.8,173.8l2.5,3l0.4,21.3l-2.5,4.1l8.3,4.6c-0.6-0.5-1-1.2-1.2-1.9l-0.6-27.2L347.8,173.8z"/>
			<polygon class="st10" points="348.2,202.2 348.2,203.5 356.5,208.1 356.5,206.8 			"/>
			<polygon class="st10" points="356.5,208.1 362.1,204.7 362.1,203.4 356.5,206.8 			"/>
			<polygon class="st15" points="356.5,208.1 362.1,204.7 362.1,203.4 356.5,206.8 			"/>
			<path class="st10" d="M349.4,159L349.4,159c-1.1-0.3-2.4,0.2-3.5,1.4l0,0c-2.4,2.9-3.3,6.7-2.4,10.3v0.1c0.5,1.7,1.5,2.6,2.6,2.9
				l0,0l4.8,1.2l3-14.8L349.4,159z"/>
			<path class="st20" d="M349.4,159L349.4,159c-1.1-0.3-2.4,0.2-3.5,1.4l0,0c-2.4,2.9-3.3,6.7-2.4,10.3v0.1c0.5,1.7,1.5,2.6,2.6,2.9
				l0,0l4.8,1.2l3-14.8L349.4,159z"/>
			<path class="st17" d="M346.1,173.7L346.1,173.7l4.8,1.2l1-4.9l-8.8-2c0,1,0.1,1.9,0.4,2.9v0.1C344,172.5,344.9,173.5,346.1,173.7
				z"/>
			<path class="st10" d="M359.2,159.4L359.2,159.4c-1.5-0.2-2.9,0.3-3.9,1.4c-0.1,0.1-0.3,0.3-0.4,0.4c-0.1,0.1-0.3,0.3-0.5,0.5
				c-0.3,0.3-0.5,0.7-0.7,1c-0.4,0.7-0.8,1.4-1.1,2.1c-0.8,2-1.2,4.2-1.2,6.3c0,1,0.2,2,0.5,3c0.6,2,1.7,3.2,3,3.5l-4.6-1.1l0,0
				c-1.8-0.5-3.1-1.9-3.6-3.7c-0.3-0.9-0.4-1.9-0.4-2.9c-0.1-2.2,0.4-4.4,1.2-6.5c0.3-0.7,0.7-1.4,1.1-2.1c0.2-0.3,0.5-0.7,0.7-1
				c0.1-0.2,0.3-0.4,0.5-0.5c0.1-0.1,0.3-0.3,0.4-0.4c1.2-1.1,2.9-1.6,4.5-1.3l0,0h0.1h0.2L359.2,159.4z"/>
			<path class="st15" d="M350.3,176.6L350.3,176.6c-1.8-0.5-3.1-1.9-3.6-3.7c-0.3-0.9-0.4-1.9-0.4-2.9l5.2,1.1c0,1,0.2,2,0.5,3
				c0.6,2,1.7,3.2,3,3.5L350.3,176.6z"/>
			<path class="st10" d="M362.3,163c1.2,4.1-0.1,9.9-3,12.9c-1.4,1.6-3,2.1-4.4,1.8h-0.1c-1.3-0.3-2.4-1.5-3-3.5
				c-1.2-4.1,0.1-9.9,3-12.9c1.4-1.5,3-2.1,4.4-1.8C360.5,159.7,361.7,160.9,362.3,163z"/>
			<path class="st13" d="M362.3,163c1.2,4.1-0.1,9.9-3,12.9c-1.4,1.6-3,2.1-4.4,1.8h-0.1c-1.3-0.3-2.4-1.5-3-3.5
				c-1.2-4.1,0.1-9.9,3-12.9c1.4-1.5,3-2.1,4.4-1.8C360.5,159.7,361.7,160.9,362.3,163z"/>
			<path class="st10" d="M381.5,156c0,0-5.4,5.2-8,16.4c-0.5,2-0.8,4-1,6.1c-0.7,7.6,1,12.2,1,12.2c-3.3-4.1-7.2-8.2-12.3-10.8
				c-2-1-4-1.8-6.1-2.6l0,0c-1.2-0.3-2.3-1.4-2.8-3.2c-0.4-1.3-0.5-2.6-0.4-4c0-0.9,0.2-1.8,0.4-2.7c0.5-2.2,1.5-4.2,2.9-5.9
				c1.3-1.4,2.7-2,3.9-1.7l0,0c2.2,0.2,4.4,0.4,6.6,0.4C371.4,160.2,376.7,158.2,381.5,156z"/>
			<path class="st20" d="M381.5,156c0,0-5.4,5.2-8,16.4c-0.5,2-0.8,4-1,6.1c-0.7,7.6,1,12.2,1,12.2c-3.3-4.1-7.2-8.2-12.3-10.8
				c-2-1-4-1.8-6.1-2.6l0,0c-1.2-0.3-2.3-1.4-2.8-3.2c-0.4-1.3-0.5-2.6-0.4-4c0-0.9,0.2-1.8,0.4-2.7c0.5-2.2,1.5-4.2,2.9-5.9
				c1.3-1.4,2.7-2,3.9-1.7l0,0c2.2,0.2,4.4,0.4,6.6,0.4C371.4,160.2,376.7,158.2,381.5,156z"/>
			<path class="st17" d="M372.5,178.5c-0.7,7.6,1,12.2,1,12.2c-3.3-4.1-7.2-8.2-12.3-10.8c-2-1-4-1.8-6.1-2.6l0,0
				c-1.2-0.3-2.3-1.4-2.8-3.2c-0.4-1.3-0.5-2.6-0.4-4C357.4,171.1,366.6,173.1,372.5,178.5z"/>
			<path class="st10" d="M396.4,161.4c1.3,4.6,1.5,9.5,0.5,14.2l0,0c-1.1,6.3-3.8,12.5-7.7,16.6c-6.9,7.4-14.8,5.5-17.8-4.1
				c-0.7-2.3-1-4.7-1.1-7.1c-0.1-6.4,1.4-12.7,4.4-18.3c0.4-0.8,0.8-1.5,1.3-2.2l0.6-0.8l0,0c0.3-0.4,0.6-0.8,0.9-1.2
				c0.3-0.4,0.6-0.8,1-1.1C385.4,149.9,393.4,151.8,396.4,161.4z"/>
			<path class="st15" d="M396.9,175.6c-1.1,6.3-3.8,12.5-7.7,16.6c-6.9,7.4-14.8,5.5-17.8-4.1c-0.7-2.3-1-4.7-1.1-7.1l0,0
				c0.9,1.1,3.5,2.2,4,0.7c0,2.1,0.4,4.3,1,6.3c0.8,2.8,2.1,4.8,3.8,5.9c1.4,0.9,3.1,1.2,4.6,0.6c1.9-0.7,3.7-1.9,5-3.5
				c3.3-3.5,5.7-8.8,6.9-14.3C395.7,176.9,396.3,177.2,396.9,175.6z"/>
			<path class="st10" d="M395.5,162.3c1.3,4.3,1.3,9.5,0.2,14.6c-1.2,5.5-3.6,10.8-6.9,14.3c-1.4,1.6-3.1,2.7-5,3.5
				c-1.6,0.5-3.3,0.3-4.6-0.6c-1.7-1.1-2.9-3.2-3.8-5.9c-0.6-2.1-0.9-4.2-1-6.3c0-0.8,0-1.7,0-2.6c0.1-1.5,0.3-3.1,0.5-4.6
				c0.1-0.3,0.1-0.6,0.2-0.9c0.1-0.5,0.2-1,0.4-1.6c0.4-1.7,1-3.4,1.7-5.1v-0.1c0.5-1.1,1-2.1,1.5-3.1c0.4-0.7,0.8-1.4,1.3-2
				l0.6-0.8c0.2-0.3,0.5-0.6,0.7-0.9c0.2-0.3,0.5-0.6,0.7-0.8c1.4-1.6,3.1-2.8,5-3.5C390.7,154.6,393.9,157.1,395.5,162.3z"/>
			<path class="st24" d="M395.5,162.3c1.3,4.3,1.3,9.5,0.2,14.6c-1.2,5.5-3.6,10.8-6.9,14.3c-1.4,1.6-3.1,2.7-5,3.5
				c-1.6,0.5-3.3,0.3-4.6-0.6c-1.7-1.1-2.9-3.2-3.8-5.9c-0.6-2.1-0.9-4.2-1-6.3c0-0.8,0-1.7,0-2.6c0.1-1.5,0.3-3.1,0.5-4.6
				c0.1-0.3,0.1-0.6,0.2-0.9c0.1-0.5,0.2-1,0.4-1.6c0.4-1.7,1-3.4,1.7-5.1v-0.1c0.5-1.1,1-2.1,1.5-3.1c0.4-0.7,0.8-1.4,1.3-2
				l0.6-0.8c0.2-0.3,0.5-0.6,0.7-0.9c0.2-0.3,0.5-0.6,0.7-0.8c1.4-1.6,3.1-2.8,5-3.5C390.7,154.6,393.9,157.1,395.5,162.3z"/>
			<path class="st10" d="M383.4,168.6l-2.3,11.5c-1.7-0.1-4.5-0.2-6.7-0.1c0-0.3,0-0.6,0-0.8c0.1-1.5,0.3-3.1,0.5-4.6
				c0.1-0.3,0.1-0.6,0.2-0.9c0.1-0.5,0.2-1,0.4-1.5c0.4-1.7,1-3.5,1.7-5.1c0,0,0,0,0-0.1c0.1-0.2,0.2-0.5,0.3-0.7
				C379.4,167.2,381.4,168,383.4,168.6z"/>
			<g class="st25">
				<path class="st5" d="M383.4,168.6l-2.3,11.5c-1.7-0.1-4.5-0.2-6.7-0.1c0-0.3,0-0.6,0-0.8c0.1-1.5,0.3-3.1,0.5-4.6
					c0.1-0.3,0.1-0.6,0.2-0.9c0.1-0.5,0.2-1,0.4-1.5c0.4-1.7,1-3.5,1.7-5.1c0,0,0,0,0-0.1c0.1-0.2,0.2-0.5,0.3-0.7
					C379.4,167.2,381.4,168,383.4,168.6z"/>
			</g>
			<path class="st10" d="M381.5,180c-1.2,0.4-2.2-0.4-2.7-2v0c-0.7-2.9,0-5.9,1.9-8.2l0,0c0.4-0.5,0.9-0.8,1.5-1
				c1.2-0.4,2.2,0.4,2.7,2v0c0.7,2.9,0,5.9-1.9,8.2l0,0C382.6,179.4,382.1,179.7,381.5,180L381.5,180z"/>
			<g class="st26">
				<path class="st5" d="M381.5,180c-1.2,0.4-2.2-0.4-2.7-2v0c-0.7-2.9,0-5.9,1.9-8.2l0,0c0.4-0.5,0.9-0.8,1.5-1
					c1.2-0.4,2.2,0.4,2.7,2v0c0.7,2.9,0,5.9-1.9,8.2l0,0C382.6,179.4,382.1,179.7,381.5,180L381.5,180z"/>
			</g>
			<path class="st1" d="M378.7,150.3c-0.6,0.2-1.3-0.2-1.5-0.8c0,0,0,0,0,0l-3.5-11.5c-0.2-0.7,0.3-1.3,0.9-1.5
				c0.6-0.1,1.2,0.2,1.4,0.8l3.5,11.5C379.7,149.4,379.4,150.1,378.7,150.3C378.7,150.3,378.7,150.3,378.7,150.3z"/>
			<path class="st1" d="M369.1,156.3c-0.4,0.1-0.9,0-1.2-0.3l-8.8-8.3c-0.5-0.4-0.6-1.2-0.2-1.8c0.4-0.5,1.2-0.6,1.8-0.2
				c0,0,0.1,0.1,0.1,0.1l8.8,8.3c0.5,0.5,0.5,1.3,0.1,1.8c0,0,0,0,0,0C369.5,156.1,369.3,156.2,369.1,156.3z"/>
			<path class="st1" d="M375.1,215.3c-0.2,0.1-0.4,0.1-0.6,0c-0.7-0.2-1.1-0.8-0.9-1.5l2.7-11.8c0.1-0.7,0.8-1.1,1.5-1
				s1.1,0.8,1,1.5c0,0,0,0.1,0,0.1l-2.7,11.8C375.8,214.8,375.5,215.1,375.1,215.3z"/>
			<path class="st1" d="M397,210.3c-0.7,0.2-1.4-0.2-1.6-0.8l-3.5-11.5c-0.3-0.6,0.1-1.4,0.7-1.6s1.4,0.1,1.6,0.7
				c0,0.1,0,0.1,0.1,0.2l3.5,11.5C398,209.4,397.7,210.1,397,210.3z"/>
			<path class="st1" d="M410,194.5c-0.4,0.1-0.9,0-1.2-0.3L400,186c-0.5-0.5-0.5-1.3,0-1.8c0.5-0.4,1.2-0.5,1.7-0.1l8.8,8.2
				c0.5,0.5,0.5,1.3,0.1,1.8c0,0,0,0,0,0C410.4,194.3,410.2,194.5,410,194.5z"/>
			<path class="st1" d="M418.3,179c-0.2,0.1-0.4,0.1-0.6,0l-11.8-2.7c-0.7-0.2-1.1-0.8-0.9-1.5c0.2-0.7,0.8-1.1,1.5-0.9c0,0,0,0,0,0
				l11.8,2.7c0.7,0.2,1.1,0.8,0.9,1.5C419,178.5,418.7,178.8,418.3,179L418.3,179z"/>
			<path class="st1" d="M417.7,161.4l-11.5,3.5c-0.7,0.2-1.4-0.2-1.6-0.8c0,0,0,0,0,0c-0.2-0.7,0.2-1.4,0.8-1.6L417,159
				c0.7-0.2,1.3,0.3,1.5,0.9C418.6,160.5,418.3,161.1,417.7,161.4L417.7,161.4z"/>
			<path class="st1" d="M400.1,155.2c-0.7,0.2-1.4-0.2-1.6-0.8c-0.1-0.4,0-0.9,0.3-1.2l8.2-8.8c0.5-0.5,1.3-0.5,1.8-0.1
				c0.5,0.5,0.5,1.3,0.1,1.8l-8.2,8.8C400.5,155.1,400.3,155.2,400.1,155.2z"/>
			<path class="st1" d="M390.1,149.9c-0.2,0.1-0.4,0.1-0.6,0c-0.7-0.2-1.1-0.8-0.9-1.5c0,0,0,0,0,0l2.7-11.8c0.1-0.7,0.8-1.1,1.5-1
				s1.1,0.8,1,1.5c0,0,0,0.1,0,0.1l-2.7,11.8C390.8,149.4,390.5,149.8,390.1,149.9z"/>
			<path class="st21" d="M343.5,190.8c2.4-3,2.5-4.9,4.3-6.4c1.8-1.5,3.7-1.6,6.5-0.8c2.1,0.6,4.5,0.3,5.4,1.1
				c0.2,0.2-0.1,1.5-1.1,2c-1.2,0.6-3.1,0.4-4.5,0.4c-3.2,0-0.6,3.1-3.7,6.3C349.2,195.7,343.5,190.8,343.5,190.8z"/>
		</g>
	</g>
</g>
<g id="freepik--Icon--inject-49">
	<g id="freepik--At--inject-49">
		<path class="st3" d="M353.6,422.4c0-0.3-0.2-0.6-0.4-0.7c-0.5-0.4-1.2-0.6-1.8-0.5c-0.7,0-1.3,0.2-1.9,0.5l-3.3,1.8
			c0.3-0.5,0.5-1,0.6-1.5c0.1-0.4,0.1-0.8,0.1-1.2c0-0.7,0-4.6,0-4.9c0-0.8-0.2-1.6-0.5-2.3c-0.7-1.4-1.7-2.5-3-3.4
			c-1-0.8-2.2-1.7-3.7-2.6c-1.4-0.9-2.7-1.7-3.9-2.4c-3.1-1.7-6.4-3-9.8-3.9c-3.7-1-7.5-1.5-11.3-1.4c-4.4,0.1-8.7,0.7-12.9,1.8
			c-5,1.4-9.9,3.3-14.4,5.8c-4.3,2.3-7.6,4.7-9.8,7.1c-2,2-3.4,4.5-4,7.3c-0.1,0.7-0.2,1.5-0.2,2.2c0,0.8,0,4.3,0,5
			c0,1.7,0.4,3.3,1.2,4.8c1.2,2.4,3,4.4,5.1,6c0.5,0.4,1.2,0.9,2.1,1.5c0.9,0.6,1.9,1.3,3,2c1.1,0.7,2.1,1.3,3.1,2
			c1,0.6,1.8,1.1,2.4,1.5c3.1,1.6,6.4,2.8,9.8,3.6c3.8,0.9,7.7,1.3,11.6,1.3c4.2,0,8.5-0.6,12.6-1.6c7.7-2,14.9-5.5,21.3-10.2
			c1.8-1.3,3.4-2.9,4.8-4.6c1-1.2,1.8-2.6,2.3-4.1c0.4-1.2,0.7-2.4,0.9-3.6c0-0.1,0-0.1,0-0.2C353.6,427.1,353.6,422.4,353.6,422.4z
			 M341.2,428.3c-0.6,0.8-1.2,1.5-1.9,2.2c-1,0.9-2.1,1.7-3.2,2.5c-1.6,1.1-3.3,2.1-5,3c-2.8,1.5-5.7,2.6-8.8,3.4
			c-2.9,0.7-5.8,1.2-8.7,1.3c-2.8,0.1-5.6-0.2-8.3-0.7c-2.6-0.5-5-1.4-7.4-2.5c-0.8-0.4-1.6-0.9-2.4-1.4c-0.9-0.6-1.9-1.2-2.9-1.8
			s-1.9-1.3-2.7-1.8c-0.7-0.5-1.3-1-2-1.5c-1.5-1.3-2.8-2.8-3.6-4.6c-0.1-0.2-0.1-0.4-0.2-0.6c0.6-1.6,1.6-3.1,2.8-4.3
			c2-1.9,4.2-3.5,6.7-4.8c3.1-1.7,6.4-3.1,9.8-4.1c1.6-0.5,3.3-0.9,5-1.2l-0.8,0.5c-0.5,0.2-0.8,0.6-0.9,1.1
			c-0.1,0.4,0.2,0.9,0.6,1.1l0.6,0.4c-1.5-0.2-2.9-0.2-4.4,0c-1.9,0.3-3.7,1-5.3,1.9c-1.6,0.7-2.9,1.9-4,3.2c-0.7,0.9-1.1,2-1.1,3.2
			c0,0.2,0,4.2,0,5.1c0,0.2,0,0.3,0,0.5c0.2,1.4,0.8,2.7,1.7,3.8c1.2,1.5,2.7,2.8,4.4,3.8c1.9,1.2,3.9,2.2,6,2.9
			c2.1,0.7,4.3,1.1,6.4,1.3c2.1,0.2,4.3,0.1,6.4-0.3c2.1-0.4,4-1.1,5.9-2.1c1.3-0.6,2.4-1.4,3.6-2.3c0.7-0.5,1.3-1.2,1.8-1.9
			c0.3-0.5,0.5-1.1,0.6-1.7c0-0.5,0-1,0-1.5c1.7,0.1,3.4,0,5-0.4c2.3-0.5,4.6-1.3,6.6-2.5l0.4-0.2
			C341.6,427.6,341.4,428,341.2,428.3z M311.6,423.4c2.2,0.3,4.3,1.1,6.1,2.4c0.7,0.4,1.3,0.9,1.8,1.4c-0.3,0.2-0.6,0.4-1,0.6
			c-1.7,0.9-3.7,1.3-5.7,1c-2.2-0.3-4.3-1.1-6.1-2.3c-0.7-0.4-1.3-0.9-1.9-1.5c0.3-0.2,0.6-0.4,0.9-0.5
			C307.6,423.5,309.6,423.2,311.6,423.4L311.6,423.4z M334.7,418.5c-0.9,0.4-1.9,0.6-3,0.7c-1.2,0.1-2.4-0.2-3.4-0.9l-11.2-7.3
			c1.1,0.1,2.2,0.3,3.4,0.6c2.7,0.7,5.4,1.6,7.9,2.9c1.3,0.6,2.5,1.4,3.7,2.1C333,417.3,333.9,417.9,334.7,418.5L334.7,418.5z"/>
		<path class="st13" d="M353.6,422.4c0-0.3-0.2-0.6-0.4-0.7c-0.5-0.4-1.2-0.6-1.8-0.5c-0.7,0-1.3,0.2-1.9,0.5l-3.3,1.8
			c0.3-0.5,0.5-1,0.6-1.5c0.1-0.4,0.1-0.8,0.1-1.2c0-0.7,0-4.6,0-4.9c0-0.8-0.2-1.6-0.5-2.3c-0.7-1.4-1.7-2.5-3-3.4
			c-1-0.8-2.2-1.7-3.7-2.6c-1.4-0.9-2.7-1.7-3.9-2.4c-3.1-1.7-6.4-3-9.8-3.9c-3.7-1-7.5-1.5-11.3-1.4c-4.4,0.1-8.7,0.7-12.9,1.8
			c-5,1.4-9.9,3.3-14.4,5.8c-4.3,2.3-7.6,4.7-9.8,7.1c-2,2-3.4,4.5-4,7.3c-0.1,0.7-0.2,1.5-0.2,2.2c0,0.8,0,4.3,0,5
			c0,1.7,0.4,3.3,1.2,4.8c1.2,2.4,3,4.4,5.1,6c0.5,0.4,1.2,0.9,2.1,1.5c0.9,0.6,1.9,1.3,3,2c1.1,0.7,2.1,1.3,3.1,2
			c1,0.6,1.8,1.1,2.4,1.5c3.1,1.6,6.4,2.8,9.8,3.6c3.8,0.9,7.7,1.3,11.6,1.3c4.2,0,8.5-0.6,12.6-1.6c7.7-2,14.9-5.5,21.3-10.2
			c1.8-1.3,3.4-2.9,4.8-4.6c1-1.2,1.8-2.6,2.3-4.1c0.4-1.2,0.7-2.4,0.9-3.6c0-0.1,0-0.1,0-0.2C353.6,427.1,353.6,422.4,353.6,422.4z
			 M341.2,428.3c-0.6,0.8-1.2,1.5-1.9,2.2c-1,0.9-2.1,1.7-3.2,2.5c-1.6,1.1-3.3,2.1-5,3c-2.8,1.5-5.7,2.6-8.8,3.4
			c-2.9,0.7-5.8,1.2-8.7,1.3c-2.8,0.1-5.6-0.2-8.3-0.7c-2.6-0.5-5-1.4-7.4-2.5c-0.8-0.4-1.6-0.9-2.4-1.4c-0.9-0.6-1.9-1.2-2.9-1.8
			s-1.9-1.3-2.7-1.8c-0.7-0.5-1.3-1-2-1.5c-1.5-1.3-2.8-2.8-3.6-4.6c-0.1-0.2-0.1-0.4-0.2-0.6c0.6-1.6,1.6-3.1,2.8-4.3
			c2-1.9,4.2-3.5,6.7-4.8c3.1-1.7,6.4-3.1,9.8-4.1c1.6-0.5,3.3-0.9,5-1.2l-0.8,0.5c-0.5,0.2-0.8,0.6-0.9,1.1
			c-0.1,0.4,0.2,0.9,0.6,1.1l0.6,0.4c-1.5-0.2-2.9-0.2-4.4,0c-1.9,0.3-3.7,1-5.3,1.9c-1.6,0.7-2.9,1.9-4,3.2c-0.7,0.9-1.1,2-1.1,3.2
			c0,0.2,0,4.2,0,5.1c0,0.2,0,0.3,0,0.5c0.2,1.4,0.8,2.7,1.7,3.8c1.2,1.5,2.7,2.8,4.4,3.8c1.9,1.2,3.9,2.2,6,2.9
			c2.1,0.7,4.3,1.1,6.4,1.3c2.1,0.2,4.3,0.1,6.4-0.3c2.1-0.4,4-1.1,5.9-2.1c1.3-0.6,2.4-1.4,3.6-2.3c0.7-0.5,1.3-1.2,1.8-1.9
			c0.3-0.5,0.5-1.1,0.6-1.7c0-0.5,0-1,0-1.5c1.7,0.1,3.4,0,5-0.4c2.3-0.5,4.6-1.3,6.6-2.5l0.4-0.2
			C341.6,427.6,341.4,428,341.2,428.3z M311.6,423.4c2.2,0.3,4.3,1.1,6.1,2.4c0.7,0.4,1.3,0.9,1.8,1.4c-0.3,0.2-0.6,0.4-1,0.6
			c-1.7,0.9-3.7,1.3-5.7,1c-2.2-0.3-4.3-1.1-6.1-2.3c-0.7-0.4-1.3-0.9-1.9-1.5c0.3-0.2,0.6-0.4,0.9-0.5
			C307.6,423.5,309.6,423.2,311.6,423.4L311.6,423.4z M334.7,418.5c-0.9,0.4-1.9,0.6-3,0.7c-1.2,0.1-2.4-0.2-3.4-0.9l-11.2-7.3
			c1.1,0.1,2.2,0.3,3.4,0.6c2.7,0.7,5.4,1.6,7.9,2.9c1.3,0.6,2.5,1.4,3.7,2.1C333,417.3,333.9,417.9,334.7,418.5L334.7,418.5z"/>
		<path class="st15" d="M284.1,425.6c0.6-1.6,1.6-3.1,2.8-4.3c2-1.9,4.2-3.5,6.7-4.8c3.1-1.7,6.4-3.1,9.8-4.1c1.6-0.5,3.3-0.9,5-1.2
			l3-1.6c0.6-0.3,1.2-0.4,1.9-0.4c0.6,0,1.2,0.1,1.8,0.5l2,1.3c1.1,0.1,2.2,0.3,3.4,0.6c2.7,0.7,5.4,1.6,7.9,2.9
			c1.3,0.6,2.5,1.4,3.7,2.1c1,0.6,1.9,1.3,2.7,1.9c0.2-0.1,0.3-0.1,0.5-0.2c0.8-0.3,1.5-1,1.7-1.9c0.2-0.7-0.4-1.6-1.6-2.5
			c-1-0.8-2.1-1.6-3.3-2.4c-1.2-0.8-2.4-1.5-3.7-2.1c-2.5-1.3-5.1-2.3-7.9-2.9c-2.7-0.6-5.5-0.9-8.2-0.8c-3,0.2-6,0.7-8.8,1.7
			c-3.4,1.1-6.6,2.5-9.8,4.1c-2.5,1.2-4.7,2.8-6.7,4.8c-1.4,1.4-2.5,3.1-3,5c-0.4,1.7-0.3,3.4,0.4,5c0.4,0.9,0.9,1.7,1.4,2.4
			c-0.6-0.7-1-1.5-1.4-2.4C284.3,426,284.2,425.8,284.1,425.6z"/>
		<path class="st15" d="M317.7,420.7c-1.8-1.3-3.9-2.1-6.1-2.4c-2-0.3-4,0.1-5.8,1.1c-1.7,0.9-2.5,2-2.3,3.2
			c0.2,0.9,0.7,1.8,1.4,2.4l0,0c0.3-0.2,0.6-0.4,0.9-0.5c1.8-1,3.8-1.3,5.8-1.1c2.2,0.3,4.3,1.1,6.1,2.4c0.7,0.4,1.3,0.9,1.8,1.4
			l-0.4,0.3c1.5-0.9,2.1-1.9,2-3C320.9,423.4,319.8,422.1,317.7,420.7z"/>
		<path class="st15" d="M311.5,434.9c-4.4-0.4-8.7-1.8-12.5-4.3c-1.7-1-3.1-2.3-4.4-3.8c-0.9-1.1-1.5-2.4-1.7-3.8c0-0.2,0-0.5,0-0.7
			c0,0.1,0,0.2,0,0.3c0,0.1,0,4.2,0,5.1c0,0.2,0,0.3,0,0.5c0.2,1.4,0.8,2.7,1.7,3.8c1.2,1.5,2.7,2.8,4.4,3.8c1.9,1.2,3.9,2.2,6,2.9
			c2.1,0.7,4.3,1.1,6.4,1.3V434.9z"/>
		<path class="st15" d="M329.7,425.2c0,0.5,0,1,0,1.5v3.6c1.7,0.1,3.4,0,5-0.4v-5.1C333.1,425.2,331.4,425.3,329.7,425.2z"/>
		<path class="st15" d="M300.2,445.4c-3.4-0.8-6.7-2-9.8-3.6c-0.6-0.3-1.4-0.8-2.4-1.5s-2-1.3-3.1-2s-2-1.4-3-2s-1.7-1.1-2.1-1.5
			c-2.1-1.6-3.9-3.7-5.1-6.1c-0.8-1.5-1.2-3.2-1.2-4.9c0,0,0,0.1,0,0.1c0,0.8,0,4.3,0,5c0,1.7,0.4,3.3,1.2,4.8c1.2,2.4,3,4.4,5.1,6
			c0.5,0.4,1.2,0.9,2.1,1.5c0.9,0.6,1.9,1.3,3,2s2.1,1.3,3.1,2c1,0.6,1.8,1.1,2.4,1.5c3.1,1.6,6.4,2.8,9.8,3.6
			c3.8,0.9,7.7,1.3,11.6,1.3v-5.1C307.9,446.7,304,446.2,300.2,445.4z"/>
		<path class="st3" d="M343.4,410c1.3,0.8,2.3,2,3,3.4c0.5,1.1,0.6,2.2,0.4,3.4c-0.3,1.2-0.9,2.2-1.8,3.1c-1,1-2.2,1.9-3.5,2.6
			c-2.1,1.2-4.3,2-6.6,2.5c-1.7,0.3-3.4,0.4-5,0.4c0,0.5,0,1,0,1.5c-0.1,0.6-0.3,1.2-0.6,1.7c-0.5,0.7-1.1,1.4-1.8,1.9
			c-1.1,0.9-2.3,1.6-3.6,2.3c-1.8,1-3.8,1.7-5.9,2.1c-2.1,0.4-4.3,0.5-6.4,0.3c-4.4-0.4-8.7-1.8-12.5-4.3c-1.7-1-3.1-2.3-4.4-3.8
			c-0.9-1.1-1.5-2.4-1.7-3.8c-0.1-1.3,0.3-2.6,1.1-3.7c1.1-1.4,2.4-2.5,4-3.2c1.6-0.9,3.4-1.6,5.3-1.9c1.5-0.2,2.9-0.2,4.4,0
			l-0.6-0.4c-0.4-0.2-0.6-0.6-0.6-1.1c0.1-0.5,0.5-0.9,0.9-1.1l3.9-2.1c0.6-0.3,1.2-0.4,1.9-0.4c0.6,0,1.2,0.1,1.8,0.5l13.2,8.6
			c1,0.7,2.2,1,3.4,0.9c1.2,0,2.4-0.3,3.4-0.9c0.8-0.3,1.5-1,1.7-1.9c0.2-0.7-0.4-1.6-1.6-2.5c-1-0.8-2.1-1.6-3.3-2.4
			c-1.2-0.8-2.4-1.5-3.7-2.1c-2.5-1.3-5.1-2.3-7.9-2.9c-2.7-0.6-5.4-0.9-8.2-0.8c-3,0.2-6,0.7-8.8,1.7c-3.4,1.1-6.6,2.5-9.8,4.1
			c-2.5,1.2-4.7,2.8-6.7,4.8c-1.4,1.4-2.5,3.1-3,5c-0.4,1.7-0.3,3.4,0.4,5c0.8,1.8,2.1,3.4,3.6,4.6c0.6,0.5,1.3,1,2,1.5
			c0.8,0.6,1.8,1.2,2.7,1.8c1,0.6,1.9,1.2,2.9,1.8c0.8,0.5,1.6,1,2.4,1.4c2.3,1.2,4.8,2,7.4,2.5c2.7,0.6,5.5,0.8,8.3,0.7
			c2.9-0.1,5.9-0.5,8.7-1.3c3-0.8,6-1.9,8.8-3.4c1.7-0.9,3.4-1.9,5-3c1.1-0.7,2.2-1.6,3.2-2.5c1.2-1.1,2.3-2.5,3-4
			c0.2-0.4,0.4-0.8,0.6-1.2c0.3-0.4,0.7-0.6,1.1-0.8l5.3-3.1c0.6-0.3,1.3-0.5,1.9-0.5c0.7,0,1.3,0.1,1.8,0.5
			c0.3,0.2,0.5,0.5,0.4,0.9c-0.2,1.2-0.5,2.4-0.9,3.6c-0.5,1.5-1.3,2.9-2.3,4.1c-1.4,1.7-3,3.3-4.8,4.6c-2.6,2-5.4,3.7-8.3,5.2
			c-4.1,2.2-8.4,3.9-13,5c-4.1,1-8.3,1.6-12.6,1.6c-3.9,0-7.8-0.4-11.6-1.3c-3.4-0.8-6.7-2-9.8-3.6c-0.6-0.3-1.4-0.8-2.4-1.5
			s-2-1.3-3.1-2c-1.1-0.7-2-1.4-3-2s-1.7-1.1-2.1-1.5c-2.1-1.6-3.9-3.7-5.1-6.1c-1.1-2.1-1.4-4.6-1-6.9c0.6-2.7,2-5.3,4-7.3
			c2.2-2.5,5.5-4.8,9.8-7.1c4.6-2.5,9.4-4.4,14.4-5.8c4.2-1.1,8.5-1.8,12.8-1.9c3.8-0.1,7.6,0.4,11.3,1.4c3.4,0.9,6.7,2.2,9.8,3.9
			c1.2,0.7,2.5,1.4,3.9,2.4C341.2,408.4,342.4,409.2,343.4,410z M306.8,426.5c1.8,1.3,3.9,2.1,6.1,2.3c2,0.2,3.9-0.1,5.7-1
			c1.8-1,2.7-2.1,2.5-3.3s-1.3-2.5-3.4-3.8c-1.8-1.3-3.9-2.1-6.1-2.4c-2-0.3-4,0.1-5.8,1.1c-1.7,0.9-2.5,2-2.3,3.2
			C303.7,423.9,304.8,425.2,306.8,426.5z"/>
	</g>
</g>
<g id="freepik--Envelope--inject-49">
	<g id="freepik--Mail--inject-49">
		<path class="st3" d="M344.5,387.5v0.6c0.1,1.1,0.6,2.1,1.5,2.6l32.8,18.9c1,0.5,2.1,0.5,3.1,0l54.3-31.3c0.9-0.6,1.5-1.6,1.5-2.6
			v-0.6c-0.1-1.1-0.6-2.1-1.5-2.6l-32.8-18.9c-1-0.5-2.1-0.5-3.1,0l-54.3,31.3C345.2,385.4,344.6,386.4,344.5,387.5z"/>
		<path class="st3" d="M344.5,387.5v0.6c0.1,1.1,0.6,2.1,1.5,2.6l32.8,18.9c1,0.5,2.1,0.5,3.1,0l54.3-31.3c0.9-0.6,1.5-1.6,1.5-2.6
			v-0.6c-0.1-1.1-0.6-2.1-1.5-2.6l-32.8-18.9c-1-0.5-2.1-0.5-3.1,0l-54.3,31.3C345.2,385.4,344.6,386.4,344.5,387.5z"/>
		<path class="st13" d="M380.3,365l-34.3,19.8c-0.9,0.6-1.5,1.6-1.5,2.6v0.6c0.1,1.1,0.6,2.1,1.5,2.6l32.8,18.9
			c0.5,0.2,1,0.4,1.5,0.4l0,0V365z"/>
		<path class="st12" d="M380.3,365l-34.3,19.8c-0.9,0.6-1.5,1.6-1.5,2.6v0.6c0.1,1.1,0.6,2.1,1.5,2.6l32.8,18.9
			c0.5,0.2,1,0.4,1.5,0.4l0,0V365z"/>
		<path class="st13" d="M436.1,372.4l-32.8-18.9c-1-0.5-2.1-0.5-3.1,0l-20,11.5v45l0,0c0.5,0,1.1-0.1,1.5-0.4l54.3-31.3
			c0.9-0.6,1.5-1.6,1.5-2.6V375C437.6,374,437,373,436.1,372.4z"/>
		<path class="st3" d="M373.6,402.5l-27.5-15.9c-0.5-0.2-0.8-0.7-0.6-1.2c0.1-0.3,0.3-0.5,0.6-0.6l54.3-31.3c1-0.5,2.1-0.5,3.1,0
			l32.8,18.9c0.5,0.2,0.8,0.7,0.6,1.2c-0.1,0.3-0.3,0.5-0.6,0.6l-9,5.2l-3.1,1.8l-42.1,24.3c-1,0.5-2.1,0.5-3.1,0l-2.7-1.5
			L373.6,402.5z"/>
		<path class="st12" d="M398.6,376.1l37.6-3.7l-37.3,2.1l4.5-21c-0.5-0.3-1.1-0.4-1.7-0.3l-7,28.4l-49.2,4.1c0,0.4,0.2,0.8,0.6,1
			l39.7-2.3l-5.5,21.6l7-21.7l0,0l6.8-0.4c0.8-0.1,1.6-0.4,2.2-0.9l0,0c0.6-0.5,1-1.2,1.1-2L398.6,376.1z"/>
		<path class="st11" d="M357.2,384.6l37.5-3.1l1.3-5.4l0.7-3l5-20.1c-0.5,0-1,0.1-1.4,0.3l-27.1,15.7l-27.2,15.7
			c-0.3,0.2-0.6,0.5-0.6,0.8l7.5-0.6L357.2,384.6z"/>
	</g>
</g>
<g id="freepik--Icons--inject-12">
	<g id="freepik--like-icon--inject-12">
		<path class="st3" d="M222.2,117.5c0-0.4,0-0.7-0.1-1.1l3.9-4.5l-5.1-2.8c-0.5-0.3-1.2-0.4-2.1,0.2l-8.8,5.1l-1.2,0.7
			c0.2-1,0.3-2,0.4-3.1c0-0.4,0-0.8,0-1.3l0.2,0.1l3-3.5l-5.1-2.8l0,0c-1.7-1-4.6,1-4.6,1.8c0,1,0.4,6.2,0,7.7s-4.9,11.8-4.9,11.8
			v0.7v20.8l16.5-9.5c2.2-1.3,3.7-3.9,3.7-5.7c0-0.8-0.1-1.6-0.4-2.4c1.4-0.8,2.8-3.7,2.8-5c0-1.9-0.6-2.4-0.6-2.4
			C221.2,121.1,222,119.4,222.2,117.5z"/>
		<path class="st15" d="M222.2,117.5c0-0.4,0-0.7-0.1-1.1l3.9-4.5l-5.1-2.8c-0.5-0.3-1.2-0.4-2.1,0.2l-8.8,5.1l-1.2,0.7
			c0.2-1,0.3-2,0.4-3.1c0-0.4,0-0.8,0-1.3l0.2,0.1l3-3.5l-5.1-2.8l0,0c-1.7-1-4.6,1-4.6,1.8c0,1,0.4,6.2,0,7.7s-4.9,11.8-4.9,11.8
			v0.7v20.8l16.5-9.5c2.2-1.3,3.7-3.9,3.7-5.7c0-0.8-0.1-1.6-0.4-2.4c1.4-0.8,2.8-3.7,2.8-5c0-1.9-0.6-2.4-0.6-2.4
			C221.2,121.1,222,119.4,222.2,117.5z"/>
		<polygon class="st1" points="203.1,150.3 197.9,147.3 197.9,125.8 203.1,128.8 		"/>
		<polygon class="st3" points="203.1,150.3 197.9,147.3 197.9,125.8 203.1,128.8 		"/>
		<polygon class="st24" points="203.1,150.3 197.9,147.3 197.9,125.8 203.1,128.8 		"/>
		<path class="st3" d="M225.8,128.1c0,2.8-1.6,3.8-3,4.6c0.3,0.8,0.4,1.6,0.4,2.4c0,1.8-1.5,4.5-3.7,5.7l-16.5,9.5v-20.6v-0.9
			c0,0,4.5-10.3,5-11.8c0.4-1.5,0-6.7,0-7.7c0-1,4.1-3.7,5.4-0.9c1.3,2.9,1.4,5.8,0.7,9.6l10-5.8c2.1-1.2,3,0.5,3,1.9
			c0,1.9-0.9,3.8-2.1,4.6c0,0,2.3,0.1,2.3,2.8c0,1.7-0.9,3.3-2.2,4.3C225,125.8,225.8,126.2,225.8,128.1z"/>
		<polygon class="st6" points="193.6,158.7 200.7,154.5 200.7,129.5 193.6,133.7 		"/>
		<polygon class="st7" points="193.6,158.7 188.3,155.7 188.3,130.7 193.6,133.7 		"/>
		<polygon class="st8" points="195.5,126.5 200.7,129.5 193.6,133.7 188.3,130.7 		"/>
		<path class="st3" d="M208,117c-0.4,1.5-5,11.8-5,11.8l-5.2-2.9c0,0,4.5-10.3,4.9-11.8s0-6.7,0-7.7l5.2,2.9
			C208,110.3,208.5,115.5,208,117z"/>
		<path class="st13" d="M208,117c-0.4,1.5-5,11.8-5,11.8l-5.2-2.9c0,0,4.5-10.3,4.9-11.8s0-6.7,0-7.7l5.2,2.9
			C208,110.3,208.5,115.5,208,117z"/>
	</g>
	<g id="freepik--heart-icon--inject-12">
		<path class="st3" d="M337.3,63.9L337.3,63.9l-5-3.1l0,0c-1.8-1.2-4.6-1.1-7.8,0.7c-4.4,2.3-8.2,8.2-9.9,13.2l-3.5-2.2l0,0
			c-1.8-1.3-4.3-1.6-7.2-0.1c-0.4,0.2-0.7,0.4-1.1,0.6l-0.5,0.4c-0.2,0.1-0.3,0.2-0.5,0.3s-0.5,0.4-0.7,0.6l-0.3,0.2
			c-0.3,0.2-0.6,0.5-0.8,0.7l-0.1,0.1c-0.3,0.3-0.6,0.6-0.9,0.9l0,0c-0.9,0.9-1.7,1.9-2.4,3l0,0c-2,2.9-3.3,6.1-3.4,9
			c-0.2,5.3,3,8.9,7,11.2l0,0l3.9,2.4l0,0c2.3,1.5,4.9,2.6,7.5,3.4l6.5,2l6.9-9.1c6.6-8.7,14.4-20.7,14.7-28.8
			C339.8,66.7,338.9,64.8,337.3,63.9z"/>
		<path class="st3" d="M304.1,101.8l-3.9-2.4c-4-2.3-7.2-5.8-7-11.2c0.1-2.9,1.4-6.1,3.4-9l5.1,3.2c-2,2.9-3.3,6.1-3.4,9
			C298.2,96.2,300.7,99.5,304.1,101.8z"/>
		<g class="st27">
			<path d="M304.1,101.8l-3.9-2.4c-4-2.3-7.2-5.8-7-11.2c0.1-2.9,1.4-6.1,3.4-9l5.1,3.2c-2,2.9-3.3,6.1-3.4,9
				C298.2,96.2,300.7,99.5,304.1,101.8z"/>
		</g>
		<path class="st3" d="M337.3,63.9c-1.8-1.1-4.6-0.9-7.6,0.7c-5.3,2.8-9.8,10.8-10.7,16.2c-0.5-4.7-4.7-8-10-5.2
			c-2.9,1.6-5.4,4-7.3,6.7l-5.1-3.2l0.3-0.4c0.1-0.1,0.1-0.2,0.2-0.3l0.6-0.7c0.5-0.7,1.1-1.3,1.8-1.9c0.1-0.2,0.3-0.3,0.5-0.5
			l0.3-0.3c1.1-1,2.4-1.9,3.7-2.7c1.2-0.7,2.6-1,4-1c1.2,0,2.3,0.4,3.2,1.1l3.5,2.2c1.7-5,5.5-10.9,9.9-13.2
			c3.2-1.7,5.9-1.8,7.8-0.7l0,0L337.3,63.9z"/>
		<path class="st15" d="M337.3,63.9c-1.8-1.1-4.6-0.9-7.6,0.7c-5.3,2.8-9.8,10.8-10.7,16.2c-0.5-4.7-4.7-8-10-5.2
			c-2.9,1.6-5.4,4-7.3,6.7l-5.1-3.2l0.3-0.4c0.1-0.1,0.1-0.2,0.2-0.3l0.6-0.7c0.5-0.7,1.1-1.3,1.8-1.9c0.1-0.2,0.3-0.3,0.5-0.5
			l0.3-0.3c1.1-1,2.4-1.9,3.7-2.7c1.2-0.7,2.6-1,4-1c1.2,0,2.3,0.4,3.2,1.1l3.5,2.2c1.7-5,5.5-10.9,9.9-13.2
			c3.2-1.7,5.9-1.8,7.8-0.7l0,0L337.3,63.9z"/>
	</g>
	<g id="freepik--twitter-icon--inject-12">
		<path class="st3" d="M279.3,39.2l-5-3.1l-1.9,3.9l2.7,2.9c0,0,0.2,0.6,1.5-0.4C277.6,41.5,278.5,40.4,279.3,39.2z"/>
		<path class="st24" d="M279.3,39.2l-5-3.1l-1.9,3.9l2.7,2.9c0,0,0.2,0.6,1.5-0.4C277.6,41.5,278.5,40.4,279.3,39.2z"/>
		<path class="st3" d="M275.5,46c0,6.1-1.7,13.5-5,20.3c-3.7,7.8-9.3,14.9-16.4,18.7c-4.1,2.2-7.8,2.6-10.9,1.7l-5-3.1
			c3.2-1.2,6.5-3.9,9.3-7.6l-3.1-1.9c-1.1-0.7-1.8-1.8-2-3.1c0.7-0.2,1.4-0.6,2.1-1l-2-1.3c-1.5-0.9-2.4-3.1-2.2-5.9
			c1.1,0.2,2.2,0,3.2-0.6c-0.3-0.1-0.6-0.3-0.9-0.5c-2.4-1.7-2.8-6.2-0.9-11l5,3.1c2.7,0.7,6.1,0.5,9.6-1.2
			c-0.9-5.3,2.7-12.9,7.4-15.3c2.1-1.1,3.9-1,5.2,0.2c1.7-1.4,3.3-3,4.7-4.7l5,3.1c-0.6,2.5-1.8,4.9-3.4,6.9
			c1.5-1.1,2.9-2.3,4.2-3.7C278.2,41.6,277,43.8,275.5,46z"/>
		<path class="st3" d="M275.5,46c0,6.1-1.7,13.5-5,20.3c-3.7,7.8-9.3,14.9-16.4,18.7c-4.1,2.2-7.8,2.6-10.9,1.7
			c3.8-1.5,7.7-4.9,10.8-9.6c-3.2,1.6-5.7,0.3-6.5-3c1.2-0.4,2.3-1,3.3-1.9c-3.4,0.9-5.7-1.9-5.5-6.3c1.1,0.2,2.2,0,3.2-0.6
			c-0.3-0.1-0.5-0.2-0.7-0.4c-2.5-1.6-3-6.2-1.1-11.1c0.5,2.5,5.2,4.5,9.2,4.4c3.9-0.1,5.2-2.3,5.3-2.5l0,0
			c-0.9-5.3,2.8-12.9,7.4-15.3c2.1-1.1,3.9-1,5.2,0.2c1.7-1.4,3.3-3,4.7-4.7c-0.6,2.5-1.8,4.9-3.4,6.9c1.5-1.1,2.9-2.3,4.2-3.7
			C278.2,41.6,277,43.8,275.5,46z"/>
		<path class="st15" d="M278.4,35.9L278.4,35.9c-1.4,1.7-2.9,3.3-4.6,4.7c-0.3-0.3-0.7-0.5-1.1-0.7l-3.9-2.4c1.7-1.4,3.3-3,4.7-4.7
			L278.4,35.9z"/>
		<path class="st24" d="M250.7,72.2c-0.9,0.9-2,1.5-3.3,1.9l-5-3.1c0.7-0.2,1.4-0.6,2.1-1l2.8,1.8l0.1,0.1l0.1,0.1
			C248.5,72.4,249.7,72.5,250.7,72.2z"/>
		<path class="st15" d="M261.2,55.9L261.2,55.9L261.2,55.9c-0.1,0.3-1.5,2.4-5.3,2.4c-4,0.1-8.7-1.9-9.2-4.4l0,0
			c0.9,0.2,1.7,0.4,2.6,0.4c2.4,0,4.8-0.5,7-1.6L261.2,55.9z"/>
		<path class="st13" d="M246.6,53.9L246.6,53.9l-5-3.1c-1.8,4.7-1.4,9.3,0.9,11l0.3,0.2l0.5,0.3l4.4,2.7
			C245.3,63.4,244.8,58.8,246.6,53.9z"/>
		<path class="st24" d="M248.5,65.3c-1,0.5-2.1,0.7-3.2,0.6l-5-3.1c1.1,0.2,2.2,0,3.1-0.5l4.4,2.7C248,65.1,248.2,65.3,248.5,65.3z"
			/>
		<path class="st24" d="M254,77c-3.1,4.7-7,8.2-10.8,9.6l-5-3.1c3.2-1.2,6.5-3.9,9.3-7.6l1.9,1.2C250.7,77.9,252.2,77.9,254,77z"/>
		<path class="st13" d="M272.7,40c-1.1-0.5-2.6-0.3-4.1,0.5c-4.7,2.5-8.3,10-7.4,15.3l-5-3.1c-0.9-5.3,2.7-12.9,7.4-15.3
			c2.1-1.1,3.9-1,5.2,0.2L272.7,40z"/>
		<path class="st13" d="M247.4,71.7l-2.8-1.8l-2-1.3c-1.5-0.9-2.4-3.1-2.2-5.9l5,3.1C245.1,68.6,245.9,70.8,247.4,71.7z"/>
		<path class="st13" d="M249.3,77.1l-1.8-1.1l-3.1-1.9c-1.1-0.7-1.8-1.8-2-3.1l5,3.1C247.7,75.3,248.3,76.4,249.3,77.1z"/>
	</g>
</g>
<g id="freepik--speech-bubbles--inject-12">
	<g id="freepik--speech-bubble--inject-12_1_">
		<g id="freepik--speech-bubble--inject-12">
			<path class="st3" d="M424.3,281.2l-3.2-8.3l2.6-7.5v-4.7l-8,4.6v4.6l3.4,8.2c0.1,0.1,0.1,0.2,0.2,0.2l0,0L424.3,281.2z"/>
			<path class="st13" d="M424.3,281.2l-3.2-8.3l2.6-7.5v-4.7l-8,4.6v4.6l3.4,8.2c0.1,0.1,0.1,0.2,0.2,0.2l0,0L424.3,281.2z"/>
			<path class="st3" d="M443.6,245.9c-0.1-1.7-1-3.2-2.4-4.1l-0.9-0.6c-1.5-0.8-3.3-0.8-4.8,0L403,260c-1.4,0.9-2.3,2.5-2.4,4.1v11
				c0.1,1.7,1,3.2,2.4,4.1l0.9,0.6c1.5,0.8,3.3,0.8,4.8,0l12-7l3.4,8.2c0.1,0.2,0.5,0.3,0.7,0.2c0.1-0.1,0.2-0.2,0.2-0.3l3.6-12.7
				l12.5-7.2c1.4-0.9,2.3-2.5,2.4-4.1V245.9z"/>
			<path class="st13" d="M400.6,275.1c0.1,1.7,1,3.2,2.4,4.1l0.9,0.6c1.4,0.7,3,0.8,4.4,0.2c-1.1,0.4-2-0.2-2-1.6v-11
				c0-0.8,0.3-1.6,0.7-2.4l-5.7-3.3c-0.4,0.7-0.7,1.5-0.7,2.4V275.1z"/>
			<path class="st28" d="M443.6,245.2c-0.3-1-1.2-1.3-2.3-0.7l-32.6,18.8c-0.7,0.4-1.3,1-1.7,1.8l-5.7-3.3c0.4-0.7,1-1.3,1.7-1.8
				l32.6-18.8c1.5-0.8,3.3-0.8,4.8,0l0.9,0.6C442.5,242.5,443.3,243.8,443.6,245.2z"/>
		</g>
		<path class="st5" d="M410.7,274.8c-0.3,0.1-0.6,0.1-0.9,0c-0.1-0.1-0.2-0.2-0.2-0.3c0-0.3,0.1-0.6,0.2-0.8
			c0.1-0.2,0.2-0.5,0.4-0.6c0.1,0,0.2-0.1,0.3-0.1h0.3c0.3,0,0.6-0.1,0.9-0.3c0.3-0.2,0.5-0.4,0.7-0.6c0.2-0.2,0.3-0.5,0.3-0.8
			c0-0.2,0-0.4-0.2-0.5c-0.1-0.1-0.2-0.2-0.4-0.2c-0.2,0-0.4,0-0.6,0c-0.5,0.1-1-0.1-1.4-0.3c-0.3-0.4-0.5-0.9-0.4-1.4
			c0-0.8,0.3-1.6,0.8-2.2c0.5-0.7,1.2-1.3,1.9-1.8c0.3-0.2,0.6-0.3,0.9-0.4c0.2-0.1,0.5-0.1,0.8-0.1c0.2,0,0.2,0.1,0.2,0.3
			c0,0.3-0.1,0.5-0.2,0.8c0,0.2-0.2,0.4-0.4,0.6c-0.1,0.1-0.2,0.1-0.4,0.1c-0.3,0-0.6,0.1-0.8,0.3c-0.3,0.1-0.5,0.4-0.7,0.6
			c-0.1,0.2-0.2,0.4-0.2,0.6c0,0.3,0.1,0.5,0.2,0.6c0.2,0.1,0.5,0.1,0.8,0.1h0.3c0.5,0,0.9,0.1,1.3,0.4c0.3,0.4,0.4,0.8,0.4,1.3
			c0,0.5-0.1,1-0.3,1.5c-0.2,0.6-0.5,1.1-0.9,1.5c-0.4,0.5-1,0.9-1.5,1.3C411.6,274.5,411.2,274.7,410.7,274.8z"/>
		<path class="st5" d="M415.6,271.7v-8.1c0-0.3,0.2-0.5,0.8-0.8l0.5-0.3c0.5-0.3,0.8-0.3,0.8,0v3.1l2.2-1.3v-3.1
			c0-0.3,0.2-0.5,0.8-0.8l0.5-0.3c0.5-0.3,0.8-0.3,0.8,0v8.1c0,0.3-0.2,0.5-0.8,0.8l-0.5,0.3c-0.5,0.3-0.8,0.3-0.8,0V266l-2.2,1.3
			v3.3c0,0.3-0.2,0.5-0.8,0.8l-0.5,0.3C415.9,271.9,415.6,271.9,415.6,271.7z"/>
		<path class="st5" d="M422.5,267.8c0-0.1,0-0.2,0-0.2l2-9.2c0.1-0.3,0.3-0.5,0.8-0.8l0.8-0.5c0.5-0.3,0.8-0.3,0.8-0.1l2,6.9
			c0,0.1,0,0.2,0,0.2c0,0.2-0.2,0.4-0.5,0.6l-0.7,0.4c-0.4,0.2-0.6,0.3-0.7,0.1l-0.3-1.4l-1.9,1.1l-0.3,1.7c0,0.2-0.2,0.4-0.6,0.6
			l-0.7,0.4C422.7,268,422.5,268,422.5,267.8z M426.5,262.4l-0.6-2.4c-0.1-0.3-0.1-0.6-0.2-0.9l-0.1,0c0,0.4-0.1,0.7-0.2,1.1l-0.6,3
			L426.5,262.4z"/>
		<path class="st5" d="M429.6,263.6v-8c0-0.2,0-0.3,0.1-0.5c0.1-0.1,0.2-0.3,0.4-0.3l2.1-1.2c0.5-0.4,1.2-0.6,1.9-0.5
			c0.5,0.1,0.7,0.6,0.7,1.5c0,1.1-0.5,2.1-1.2,2.8v0.1c0.2,0,0.4,0.1,0.5,0.2c0.2,0.2,0.3,0.4,0.3,0.6l0.8,2l0,0.1
			c0,0.2-0.3,0.5-0.8,0.8l-0.4,0.3c-0.4,0.3-0.7,0.3-0.8,0.1l-0.7-2c0-0.1-0.1-0.2-0.3-0.2c-0.2,0-0.3,0.1-0.5,0.2l-0.3,0.2v2.9
			c0,0.3-0.3,0.6-0.8,0.9l-0.4,0.2C429.9,263.8,429.6,263.8,429.6,263.6z M432.3,257.3c0.2-0.1,0.4-0.3,0.5-0.6
			c0.1-0.3,0.2-0.6,0.2-0.9c0-0.4-0.1-0.6-0.2-0.7c-0.2-0.1-0.4-0.1-0.5,0l-0.7,0.4v2.1L432.3,257.3z"/>
		<path class="st5" d="M436.3,260c-0.1,0-0.1-0.2-0.1-0.3v-7.8c0-0.2,0-0.3,0.1-0.5c0.1-0.1,0.2-0.2,0.4-0.3l3.8-2.2
			c0.1-0.1,0.2-0.1,0.3,0c0.1,0.1,0.1,0.3,0.1,0.4v0.4c0,0.2,0,0.4-0.1,0.5c-0.1,0.1-0.2,0.2-0.3,0.3l-2.3,1.3v1.8l2-1.1
			c0.1-0.1,0.2-0.1,0.3,0c0.1,0.1,0.1,0.3,0.1,0.4v0.4c0,0.2,0,0.4-0.1,0.5c-0.1,0.1-0.2,0.2-0.3,0.3l-2,1.1v2.1l2.3-1.3
			c0.1-0.1,0.2-0.1,0.3,0c0.1,0.1,0.1,0.3,0.1,0.4v0.4c0,0.2,0,0.4-0.1,0.5c-0.1,0.1-0.1,0.2-0.3,0.3l-3.8,2.2
			C436.5,260,436.4,260,436.3,260z"/>
	</g>
	<g id="freepik--speech-bubble--inject-12_3_">
		<g id="freepik--speech-bubble--inject-12_2_">
			<path class="st3" d="M390.7,258.8l-3.2-8.3l2.6-7.5v-4.6l-8,4.6v4.6l3.4,8.2c0.1,0.1,0.1,0.2,0.2,0.2l0,0L390.7,258.8z"/>
			<path class="st13" d="M390.7,258.8l-3.2-8.3l2.6-7.5v-4.6l-8,4.6v4.6l3.4,8.2c0.1,0.1,0.1,0.2,0.2,0.2l0,0L390.7,258.8z"/>
			<path class="st3" d="M412.4,222c-0.1-1.7-1-3.2-2.4-4.1l-0.9-0.6c-1.5-0.8-3.3-0.8-4.8,0L366.8,239c-1.4,0.9-2.3,2.5-2.4,4.1v11
				c0.1,1.7,1,3.2,2.4,4.2l0.9,0.6c1.5,0.8,3.3,0.8,4.8,0l14.6-8.4l3.4,8.2c0.1,0.2,0.5,0.3,0.7,0.2c0.1-0.1,0.2-0.2,0.2-0.3
				l3.6-12.7l15.1-8.7c1.4-0.9,2.3-2.5,2.4-4.1L412.4,222z"/>
			<path class="st13" d="M364.4,254.2c0.1,1.7,1,3.2,2.4,4.2l0.9,0.6c1.4,0.7,3,0.8,4.4,0.2c-1.1,0.4-2-0.2-2-1.6v-11
				c0-0.8,0.3-1.6,0.7-2.4l-5.7-3.3c-0.4,0.7-0.7,1.5-0.7,2.4L364.4,254.2z"/>
			<path class="st28" d="M412.4,221.4c-0.3-1-1.2-1.3-2.3-0.7l-37.6,21.7c-0.7,0.4-1.3,1.1-1.7,1.8l-5.7-3.3c0.4-0.7,1-1.3,1.7-1.8
				l37.6-21.7c1.5-0.8,3.3-0.8,4.8,0l0.9,0.6C411.3,218.7,412.1,219.9,412.4,221.4z"/>
		</g>
		<path class="st5" d="M374,253.1v-7.2c0-0.1,0-0.3,0.1-0.4c0.1-0.1,0.2-0.2,0.3-0.3l3.1-1.8c0.1-0.1,0.2-0.1,0.2,0
			c0.1,0.1,0.1,0.3,0.1,0.4v0.4c0,0.2,0,0.3-0.1,0.5c-0.1,0.1-0.1,0.2-0.2,0.3l-1.8,1v1.7l1.7-1c0.1-0.1,0.2-0.1,0.3,0
			c0.1,0.1,0.1,0.3,0.1,0.4v0.4c0,0.2,0,0.3-0.1,0.5c-0.1,0.1-0.1,0.2-0.3,0.3l-1.7,1v3c0,0.2-0.2,0.5-0.7,0.8l-0.5,0.3
			C374.2,253.4,374,253.4,374,253.1z"/>
		<path class="st5" d="M378.6,246.8c0-2.7,1-4.7,3-5.8c1-0.6,1.7-0.7,2.2-0.3c0.5,0.4,0.8,1.3,0.8,2.7c0,1.2-0.2,2.4-0.8,3.5
			c-0.5,0.9-1.3,1.7-2.2,2.3C379.6,250.3,378.6,249.5,378.6,246.8z M382.3,247.1c0.2-0.3,0.3-0.7,0.4-1c0.1-0.5,0.1-1.1,0.1-1.6
			c0-0.5,0-1-0.1-1.5c-0.1-0.3-0.2-0.5-0.4-0.6c-0.2,0-0.5,0-0.7,0.2c-0.3,0.2-0.5,0.4-0.7,0.6c-0.2,0.3-0.3,0.7-0.4,1
			c-0.1,0.5-0.1,1.1-0.1,1.6c0,0.5,0,1,0.1,1.5c0.1,0.3,0.2,0.5,0.4,0.6c0.2,0,0.5,0,0.7-0.2C381.9,247.5,382.1,247.3,382.3,247.1
			L382.3,247.1z"/>
		<path class="st5" d="M385.8,246.6c-0.1,0-0.1-0.1-0.1-0.3v-7.2c0-0.2,0.2-0.5,0.7-0.8l0.5-0.3c0.4-0.3,0.7-0.3,0.7,0v6.2l1.7-1
			c0.1-0.1,0.2-0.1,0.3,0c0.1,0.1,0.1,0.3,0.1,0.4v0.4c0,0.2,0,0.3-0.1,0.5c-0.1,0.1-0.1,0.2-0.3,0.3l-3.1,1.8
			C385.9,246.6,385.8,246.6,385.8,246.6z"/>
		<path class="st5" d="M390.4,243.9c-0.1,0-0.1-0.1-0.1-0.3v-7.2c0-0.2,0.2-0.5,0.7-0.8l0.5-0.3c0.4-0.3,0.7-0.3,0.7,0v6.2l1.7-1
			c0.1-0.1,0.2-0.1,0.3,0c0.1,0.1,0.1,0.3,0.1,0.4v0.4c0,0.2,0,0.3-0.1,0.5c-0.1,0.1-0.1,0.2-0.3,0.3l-3.1,1.8
			C390.6,243.9,390.5,243.9,390.4,243.9z"/>
		<path class="st5" d="M394.6,237.6c0-2.7,1-4.7,3-5.8c1-0.6,1.7-0.7,2.2-0.3c0.5,0.4,0.8,1.3,0.8,2.7c0,1.2-0.2,2.4-0.8,3.5
			c-0.5,0.9-1.3,1.7-2.2,2.3C395.6,241.1,394.6,240.3,394.6,237.6z M398.2,237.8c0.2-0.3,0.3-0.7,0.4-1c0.1-0.5,0.1-1.1,0.1-1.6
			c0-0.5,0-1-0.1-1.5c-0.1-0.3-0.2-0.5-0.4-0.6c-0.2,0-0.5,0-0.7,0.2c-0.3,0.1-0.5,0.4-0.7,0.6c-0.2,0.3-0.3,0.7-0.4,1
			c-0.1,0.5-0.1,1.1-0.1,1.6c0,0.5,0,1,0.1,1.5c0.1,0.3,0.2,0.5,0.4,0.6c0.2,0,0.5,0,0.7-0.2C397.8,238.3,398,238.1,398.2,237.8
			L398.2,237.8z"/>
		<path class="st5" d="M402.5,237c-0.1,0-0.1,0-0.1-0.1c0,0,0,0,0,0l-1.5-6.5c0,0,0-0.1,0-0.1c0,0,0-0.1,0-0.1
			c0-0.2,0.2-0.4,0.7-0.7l0.3-0.2c0.5-0.3,0.7-0.3,0.8-0.1l0.5,3.9l0.1,0.8l0.1,0.8l0.2-1.5c0-0.1,0-0.2,0.1-0.4l0.7-4.7
			c0-0.1,0.1-0.2,0.1-0.3c0.1-0.1,0.3-0.2,0.4-0.3l0.6-0.3c0.1-0.1,0.3-0.1,0.4-0.2c0.1,0,0.1,0,0.1,0.1l0.7,3.9l0.3,1.6l0.2-1.3
			l0.1-0.6l0.5-4.5c0-0.3,0.3-0.5,0.8-0.8l0.3-0.2c0.5-0.3,0.7-0.3,0.7-0.1c0,0.1,0,0.1,0,0.2l-1.5,8.2c0,0.2-0.2,0.4-0.5,0.5
			l-0.8,0.4c-0.3,0.2-0.5,0.2-0.5,0.1l-0.8-3.6l-0.1-1.2l-0.2,1.3l-0.8,4.5c0,0.2-0.2,0.4-0.5,0.5l-0.8,0.4
			C402.8,236.9,402.6,237,402.5,237z"/>
	</g>
</g>
<g id="freepik--Target--inject-12">
	<g id="freepik--target--inject-12">
		<path class="st3" d="M159.3,167.8l2.1-3.4l-10.8-7.1c-9.3-6.6-22.7-6.3-37.7,2.4c-27.9,16.2-50.4,55.5-50.3,87.7
			c0,15.3,5.2,26.2,13.5,31.8l0,0l10.7,7.1l1.8-2.9c7.3,0.5,15.7-1.7,24.7-6.9c27.9-16.2,50.4-55.5,50.4-87.7
			C163.8,181.5,162.3,174.4,159.3,167.8z"/>
		<path class="st13" d="M159.3,167.8l2.1-3.4l-10.8-7.1c-9.3-6.6-22.7-6.3-37.7,2.4c-27.9,16.2-50.4,55.5-50.3,87.7
			c0,15.3,5.2,26.2,13.5,31.8l0,0l10.7,7.1l1.8-2.9c7.3,0.5,15.7-1.7,24.7-6.9c27.9-16.2,50.4-55.5,50.4-87.7
			C163.8,181.5,162.3,174.4,159.3,167.8z"/>
		<path class="st3" d="M174.6,195.9c0.1,32.2-22.4,71.5-50.4,87.7s-50.5,3.2-50.6-29.1s22.4-71.5,50.3-87.7S174.5,163.7,174.6,195.9
			z"/>
		<path class="st5" d="M166.3,200.9c0,26.9-18.7,59.6-41.9,73.1s-42.1,2.7-42.2-24.2s18.7-59.6,41.9-73.1
			C147.3,163.2,166.1,174,166.3,200.9z"/>
		<path class="st3" d="M157.8,205.7c0,21.5-15,47.7-33.5,58.5c-18.6,10.8-33.7,2.2-33.7-19.4c-0.1-21.5,14.9-47.7,33.5-58.5
			C142.6,175.5,157.7,184.3,157.8,205.7z"/>
		<path class="st5" d="M149.4,210.6c0,16.1-11.2,35.8-25.2,43.9c-14,8.1-25.2,1.6-25.3-14.5s11.2-35.8,25.2-43.9
			S149.3,194.5,149.4,210.6z"/>
		<path class="st3" d="M124.1,205.8c-9.3,5.4-16.8,18.5-16.8,29.2s7.6,15.1,16.9,9.7s16.8-18.5,16.8-29.2
			C141,204.8,133.4,200.4,124.1,205.8z"/>
		<path class="st5" d="M124.1,215.6c-5,3.3-8.1,8.7-8.4,14.6c0,5.4,3.8,7.5,8.4,4.8c5-3.3,8.1-8.7,8.4-14.6
			C132.6,215.1,128.8,212.9,124.1,215.6z"/>
		<polygon class="st3" points="208.4,268.7 197.1,264 190.2,263.7 190.2,265 200.8,271.1 208.4,270 		"/>
		<polygon class="st3" points="190.2,263.7 197.1,264 208.4,268.7 200.8,269.9 		"/>
		<polygon class="st13" points="200.8,271.1 200.8,269.9 208.4,268.7 208.4,270 		"/>
		<polygon class="st15" points="200.8,269.9 190.2,263.7 190.2,265 200.8,271.1 		"/>
		<polygon class="st6" points="142.3,230 125,225.3 125,227.7 132.6,238 136.8,234 136.8,234 142.3,232.4 		"/>
		<polygon class="st8" points="125,225.3 132.6,235.6 136.8,231.6 136.8,231.6 142.3,230 		"/>
		<polygon class="st7" points="132.6,235.6 132.6,238 136.8,234 136.8,231.6 		"/>
		<polygon class="st7" points="136.8,231.6 142.3,230 142.3,232.4 136.8,234 		"/>
		<path class="st8" d="M137.5,231.6c-0.2-0.2-0.6-0.2-0.8,0c-0.7,0.4-1.1,1.1-1.2,1.9c0,0.3,0.1,0.6,0.3,0.8l0,0l70.3,40.7l1.6-2.9
			L137.5,231.6z"/>
		<path class="st6" d="M135.8,232.8c-0.2,0.3-0.2,0.6-0.3,1c0,0.3,0.1,0.6,0.3,0.8l0,0l70.3,40.7l0.7-1.3L135.8,232.8z"/>
		<path class="st7" d="M207,272.3c-0.7,0.4-1.1,1.1-1.1,1.9c0,0.7,0.5,1,1.1,0.7c0.7-0.4,1.1-1.1,1.1-1.9
			C208.1,272.3,207.6,271.9,207,272.3z"/>
		<polygon class="st3" points="200.1,271.6 200.1,271.6 200.1,270.3 189.4,264.1 189.4,265.4 190,269.4 198,275.9 200.1,271.6 		"/>
		<polygon class="st13" points="189.4,264.1 190,268.2 190,269.4 189.4,265.4 		"/>
		<polygon class="st13" points="200.1,270.3 198,274.7 198,275.9 200.1,271.6 		"/>
		<polygon class="st15" points="190,268.2 198,274.7 198,275.9 190,269.4 		"/>
		<polygon class="st3" points="207.9,179.4 196.7,184 189.7,184.4 189.7,183.1 200.3,177 207.9,178.1 		"/>
		<polygon class="st3" points="189.7,184.4 196.7,184 207.9,179.4 200.3,178.2 		"/>
		<polygon class="st13" points="200.3,177 200.3,178.2 207.9,179.4 207.9,178.1 		"/>
		<polygon class="st15" points="200.3,178.2 189.7,184.4 189.7,183.1 200.3,177 		"/>
		<polygon class="st6" points="141.8,218.1 124.6,222.8 124.6,220.4 132.1,210.1 136.3,214.1 136.3,214.1 141.8,215.7 		"/>
		<polygon class="st8" points="124.6,222.8 132.1,212.5 136.3,216.5 136.3,216.5 141.8,218.1 		"/>
		<polygon class="st7" points="132.1,212.5 132.1,210.1 136.3,214.1 136.3,216.5 		"/>
		<polygon class="st7" points="136.3,216.5 141.8,218.1 141.8,215.7 136.3,214.1 		"/>
		<path class="st8" d="M137,216.5c-0.2,0.2-0.6,0.2-0.8,0c-0.7-0.4-1.1-1.1-1.2-1.9c0-0.3,0.1-0.6,0.3-0.8l0,0l70.3-40.7l1.6,2.8
			L137,216.5z"/>
		<path class="st6" d="M135.3,215.3c-0.2-0.3-0.3-0.6-0.3-1c0-0.3,0.1-0.6,0.3-0.8l0,0l70.3-40.7l0.7,1.3L135.3,215.3z"/>
		<path class="st7" d="M206.5,175.8c-0.7-0.4-1.1-1.1-1.1-1.9c0-0.7,0.5-1,1.1-0.7c0.7,0.4,1.1,1.1,1.1,1.9
			C207.7,175.8,207.1,176.1,206.5,175.8z"/>
		<polygon class="st3" points="199.6,176.5 199.6,176.5 199.6,177.8 189,183.9 189,182.7 189.5,178.7 197.6,172.1 199.6,176.5 		"/>
		<polygon class="st13" points="189,183.9 189.5,179.9 189.5,178.7 189,182.7 		"/>
		<polygon class="st13" points="199.6,177.8 197.6,173.4 197.6,172.2 199.6,176.5 		"/>
		<polygon class="st15" points="189.5,179.9 197.6,173.4 197.6,172.2 189.5,178.7 		"/>
	</g>
</g>
<g>
	<g id="freepik--paper-planes--inject-49">
		<g id="freepik--paper-plane--inject-49_1_">
			<polygon class="st10" points="63.8,159 106.3,133.7 75.7,169.1 			"/>
			<polygon class="st10" points="106.3,133.7 59.5,152.4 47.7,142.3 			"/>
			<polygon class="st10" points="59.5,152.4 61.3,166.8 63.8,159 106.3,133.7 			"/>
			<polygon class="st29" points="59.5,152.4 61.3,166.8 63.8,159 106.3,133.7 			"/>
			<polygon class="st10" points="61.3,166.8 67.8,162.3 63.8,159 			"/>
			<polygon class="st29" points="63.8,159 67.8,162.3 66.7,163 			"/>
		</g>
	</g>
	<g>
		<g>
			<path class="st30" d="M57.6,168.3c0,0-0.5,0.7-1.5,2"/>
			<path class="st31" d="M53.4,174.4c-9.5,14.5-30.5,52.8-17.9,91.7"/>
			<path class="st30" d="M36.3,268.4c0.3,0.8,0.6,1.6,0.9,2.3"/>
		</g>
	</g>
</g>
</svg>
