<svg id="Group_804" data-name="Group 804" xmlns="http://www.w3.org/2000/svg" width="187.712" height="177.554" viewBox="0 0 187.712 177.554">
  <path id="Path_232" data-name="Path 232" d="M56.358,154.805a73.183,73.183,0,0,1,2.728-8.674c2.269-5.061,6.191-8.682,10.991-11.426q14.47-8.279,28.869-16.668a8.385,8.385,0,0,0,2.317-2q23.354-29.664,46.621-59.4c2.934-3.756,6.413-5.994,11.284-5.282a11.021,11.021,0,0,1,8.192,5.843c4.041,7.037,8.16,14.043,12.122,21.12a2.827,2.827,0,0,0,3.155,1.692c3.772-.332,7.559-.467,11.339-.743a4.367,4.367,0,0,1,4.491,2.475q3.238,5.741,6.595,11.418a4.334,4.334,0,0,1-.2,5.116c-2.135,3.123-4.128,6.349-6.3,9.449a2.68,2.68,0,0,0-.15,3.384c3.8,6.4,7.559,12.833,11.181,19.341,3.906,7.022-.087,15.079-7.978,16.463-4.744.838-9.473,1.8-14.2,2.72q-27.493,5.373-54.979,10.754c-.538.1-1.06.261-1.858.451,1.344,2.348,2.641,4.6,3.93,6.863,2.016,3.519,1.6,5.1-1.929,7.14l-7.757,4.507c-.095.055-.142.182-.293.387q5.219,9.05,10.493,18.179c2.53,4.381,3.195,8.951,1.162,13.679a14.6,14.6,0,0,1-24.947,3.329,24.543,24.543,0,0,1-2.016-3.052q-8.3-14.34-16.581-28.7c-.332-.577-.688-1.139-.941-1.558a69.5,69.5,0,0,1-8.382,1.376c-13.426.561-24.251-8.271-26.624-21.523a3.574,3.574,0,0,0-.34-.807Q56.362,157.739,56.358,154.805Zm134.249-13.284c-14.178-24.552-28.229-48.89-42.3-73.252-.253.2-.372.253-.451.34q-19.985,25.441-39.916,50.907a2.231,2.231,0,0,0-.04,2.016c5.962,10.445,12,20.843,17.981,31.273a1.663,1.663,0,0,0,2.127,1.02c11.608-2.333,23.231-4.562,34.847-6.84C172.025,145.2,181.181,143.379,190.607,141.521Zm-70.841,15.316c-6.168-10.683-12.232-21.176-18.361-31.787-10.05,5.859-20.045,11.481-29.8,17.467-4.91,3.013-7.417,7.891-7.812,13.624a17.314,17.314,0,0,0,7.591,16.131,17.488,17.488,0,0,0,18.867,1.494c4.468-2.222,8.706-4.91,13.039-7.409C108.719,163.226,114.152,160.079,119.766,156.837ZM184.66,87.222l8.714,15.087c1.5-2.261,2.839-4.215,4.08-6.231a1.727,1.727,0,0,0-.071-1.447c-1.289-2.348-2.633-4.665-4.009-6.966-.229-.38-.672-.9-1-.894C189.895,86.851,187.42,87.04,184.66,87.222Zm-61.249,75.965c-2.246,1.313-4.262,2.5-6.318,3.693,1.289,2.222,2.443,4.207,3.669,6.31,2.159-1.249,4.222-2.443,6.334-3.661C125.791,167.283,124.645,165.3,123.411,163.187Z" transform="translate(-56.35 -42.99)" fill="#00a19a"/>
  <path id="Path_233" data-name="Path 233" d="M261.877,79.5A13.4,13.4,0,0,1,259.1,77a3.089,3.089,0,0,1,.577-3.867,6.451,6.451,0,0,1,1.605-1.186q9.489-5.314,19-10.572c2.522-1.392,4.792-.838,5.756,1.313.846,1.882.19,3.693-1.906,4.9-2.578,1.494-5.211,2.918-7.82,4.365-3.724,2.072-7.441,4.167-11.181,6.207A34.036,34.036,0,0,1,261.877,79.5Z" transform="translate(-98.688 -44.955)" fill="#00a19a"/>
  <path id="Path_234" data-name="Path 234" d="M264.8,104.289c.324.071,1.044.213,1.74.4,4.056,1.083,8.121,2.143,12.161,3.281,2.467.7,3.614,2.507,3.044,4.6s-2.459,3.06-4.95,2.42c-4.42-1.139-8.832-2.293-13.229-3.519-2.23-.625-3.353-2.254-3.068-4.135C260.8,105.411,262.341,104.194,264.8,104.289Z" transform="translate(-99.065 -54.094)" fill="#00a19a"/>
  <path id="Path_235" data-name="Path 235" d="M245.259,45.088c-.237.909-.569,2.206-.909,3.495-.941,3.527-1.827,7.069-2.839,10.572-.688,2.388-2.412,3.448-4.5,2.957-2.008-.474-3.147-2.364-2.562-4.729,1.139-4.6,2.38-9.188,3.677-13.751a3.616,3.616,0,0,1,4.159-2.76A3.823,3.823,0,0,1,245.259,45.088Z" transform="translate(-93.59 -40.811)" fill="#00a19a"/>
</svg>
