<?xml version="1.0" encoding="utf-8"?>
<!-- Generator: Adobe Illustrator 24.1.0, SVG Export Plug-In . SVG Version: 6.00 Build 0)  -->
<svg version="1.1" id="Layer_1" xmlns="http://www.w3.org/2000/svg" xmlns:xlink="http://www.w3.org/1999/xlink" x="0px" y="0px"
	 viewBox="0 0 500 500" style="enable-background:new 0 0 500 500;" xml:space="preserve">
<style type="text/css">
	.st0{fill:#FAFAFA;}
	.st1{fill:#E0E0E0;}
	.st2{fill:#263238;}
	.st3{fill:#455A64;}
	.st4{fill:#37474F;}
	.st5{fill:#00A69C;}
	.st6{opacity:0.7;fill:#FFFFFF;enable-background:new    ;}
	.st7{fill:#F0F0F0;}
	.st8{opacity:0.1;enable-background:new    ;}
	.st9{opacity:0.35;enable-background:new    ;}
	.st10{fill:#8B0756;}
	.st11{opacity:0.5;fill:#FFFFFF;enable-background:new    ;}
	.st12{fill:#FFFFFF;}
	.st13{opacity:0.3;enable-background:new    ;}
	.st14{opacity:0.6;fill:#FFFFFF;enable-background:new    ;}
	.st15{fill:#771055;}
	.st16{fill:#E6E6E6;}
	.st17{opacity:0.22;enable-background:new    ;}
	.st18{fill:#A66868;}
	.st19{fill:#854848;}
	.st20{fill:#FFA8A7;}
	.st21{fill:#F28F8F;}
	.st22{opacity:0.8;fill:#FFFFFF;enable-background:new    ;}
	.st23{fill:#A8A8A8;}
	.st24{fill:#BA68C8;}
	.st25{fill:#7ACEC6;}
	.st26{fill:none;stroke:#FFFFFF;stroke-linecap:round;stroke-linejoin:round;}
	.st27{opacity:0.15;enable-background:new    ;}
	.st28{fill:none;stroke:#E0E0E0;stroke-miterlimit:10;}
</style>
<g id="freepik--Floor--inject-2">
	<ellipse id="freepik--floor--inject-2" class="st0" cx="207.3" cy="334.3" rx="170.6" ry="98.5"/>
</g>
<path id="freepik--Shadow--inject-2" class="st1" d="M238.9,361l31.9,18.5c1.2,0.6,2.6,0.6,3.8,0l46.7-26.9c1.1-0.6,1.1-1.6,0-2.2
	l-31.9-18.4c-1.2-0.6-2.6-0.6-3.8,0l-46.7,26.9C237.9,359.4,237.9,360.4,238.9,361z"/>
<path id="freepik--shadow--inject-2" class="st1" d="M77.8,369.4l1.1,0.7c0.6,0.3,1.4,0.3,2,0l185.3-106.9c0.3-0.1,0.5-0.4,0.4-0.8
	c-0.1-0.2-0.2-0.3-0.4-0.4l-1.1-0.7c-0.6-0.3-1.4-0.3-2,0L77.8,368.3c-0.3,0.1-0.5,0.5-0.4,0.8C77.5,369.2,77.6,369.4,77.8,369.4z"
	/>
<ellipse id="freepik--shadow--inject-2_2_" class="st1" cx="317.5" cy="319.4" rx="11.2" ry="6.5"/>
<g id="freepik--Gears--inject-2">
	<path class="st2" d="M66.9,178.2L66.9,178.2c-0.3-0.1-0.6-0.1-0.8,0.1l-4,2.6c-0.5,0.3-1.2,0.2-1.6-0.4c-0.2-0.3-0.5-0.6-0.7-0.9
		c-0.5-0.5-0.7-1.2-0.5-1.9l6.3-4l-4.8-2.7l0,0c-0.1-0.1-0.2-0.1-0.3-0.1l-3-0.7c-0.7-0.1-1.3,0.2-1.7,0.8l-2.8,5.3
		c-0.4,0.6-1,1.1-1.7,1.3l-0.2,0.1c0.1-0.4,0.2-0.8,0.2-1.2l-4.7-2.7l0,0c-0.3-0.2-0.6-0.1-0.9,0.1l-4.5,3.5
		c-0.5,0.5-0.9,1.2-0.8,1.9l0.3,4.3c0,0.7-0.3,1.5-0.7,2.1c-0.7,0.9-1.5,1.8-2.1,2.7c-0.4,0.6-1.1,0.9-1.8,0.9l-2.9-0.1
		c-0.7,0-1.3,0.4-1.6,1l-2.7,6.1c-0.2,0.5,0,1.2,0.5,1.5l0,0l3.2,1.8c0.1,0.3,0.2,0.6,0.1,0.8c-0.2,1-0.4,1.9-0.5,2.9
		c-0.1,0.7-0.5,1.4-1,2l-4,3.7c-0.5,0.5-0.7,1.2-0.7,2l0.7,4.3c0,0.2,0.2,0.5,0.4,0.6l0,0l4.7,2.7l0.1-5.4c0.5-0.3,1.2-0.2,1.6,0.3
		c0,0,0,0,0,0c0.2,0.3,0.5,0.6,0.8,0.9c0.5,0.5,0.7,1.2,0.5,1.9l-2,5.5c-0.2,0.4,0,1,0.4,1.2l0,0l4.7,2.7l1.3-3.5l1.8-4.5
		c0.4-0.6,1-1.1,1.7-1.3c0.6-0.2,1.2-0.4,1.8-0.6c0.5-0.2,1.1,0,1.4,0.5c0,0.1,0,0.1,0.1,0.2l1,3.3c0.1,0.2,0.2,0.4,0.4,0.5l0,0
		l4.7,2.7l-0.8-5.2l1.5-1.1c0.5-0.5,0.9-1.2,0.8-1.9l-0.3-4.3c0-0.7,0.3-1.5,0.7-2.1c0.7-0.9,1.8-1.3,2.5-2.3
		c0.4-0.5,0.7-1.4,1.4-1.4l2.9,0.1c0.7,0,1.3-0.4,1.6-1l2.7-6.1c0.3-0.6,0-1.3-0.6-1.5c0,0,0,0,0,0l-2.4-1c-0.6-0.3-0.9-0.9-0.8-1.6
		c0.2-1,0.4-1.9,0.5-2.9c0.1-0.7,0.4-1.4,1-2l4-3.7c0.4-0.4,0.6-0.8,0.7-1.3l3.6-2.8L66.9,178.2z M48.9,206.1
		c-4.8,3.8-9.5,2.8-10.3-2.3c-0.9-5.1,3.1-11.5,7.9-15.4c4.8-3.8,8.7-3.5,9.6,1.6C57,195.1,53.8,202.3,48.9,206.1z"/>
	<path class="st3" d="M31.3,205.1l-3.9,3.6c-0.3,0.3-0.5,0.7-0.6,1.1l5.8,3.4v-0.3c0.5-0.3,1.2-0.2,1.6,0.3c0,0,0,0,0,0l0,0l5.6-3.2
		L31.3,205.1z"/>
	<path class="st3" d="M41.2,194.2c0.4-0.7,0.9-1.3,1.5-2l-5.6-3.2c-0.3,0.1-0.5,0.2-0.8,0.2l-2.9-0.1c-0.4,0-0.9,0.2-1.2,0.4l8.6,5
		L41.2,194.2z"/>
	<path class="st3" d="M71.6,180.9c-0.3-0.1-0.6-0.1-0.8,0.1l-4,2.6c-0.5,0.3-1.2,0.2-1.6-0.4c-0.2-0.3-0.5-0.7-0.8-0.9
		c-0.5-0.5-0.7-1.2-0.5-1.9l0.4-1l1.7-1.1c0.2-0.2,0.6-0.2,0.8-0.1l0,0L71.6,180.9z"/>
	<path class="st3" d="M59.9,179.7c-0.1-0.1-0.1-0.1-0.1-0.2c-0.5-0.5-0.7-1.2-0.5-1.9l6.3-4l-4.7-2.8l0,0c-0.1-0.1-0.2-0.1-0.3-0.1
		l-3-0.7c-0.7-0.1-1.3,0.2-1.7,0.8l-2.8,5.3c-0.2,0.3-0.4,0.5-0.6,0.7l6.3,3.7L59.9,179.7z"/>
	<path class="st3" d="M40.7,178.5l5.8,3.4l4.8-4.4c0.1-0.4,0.2-0.7,0.2-1.1l-4.7-2.7l0,0c-0.3-0.2-0.6-0.1-0.9,0.1l-4.5,3.5
		C41.1,177.6,40.8,178,40.7,178.5z"/>
	<path class="st4" d="M72.7,185.8l-0.7-4.3c0-0.4-0.4-0.7-0.8-0.7c-0.1,0-0.3,0.1-0.4,0.2l-4,2.6c-0.5,0.3-1.2,0.2-1.6-0.4
		c-0.2-0.3-0.5-0.7-0.8-0.9c-0.5-0.5-0.7-1.2-0.5-1.9l2-5.5c0.2-0.5,0-1.1-0.5-1.3c-0.1,0-0.1,0-0.2-0.1l-3-0.7
		c-0.7-0.1-1.3,0.2-1.7,0.8l-2.8,5.3c-0.4,0.6-1,1.1-1.7,1.3c-0.6,0.2-1.2,0.4-1.8,0.6c-0.5,0.2-1.1,0-1.3-0.5c0-0.1,0-0.1-0.1-0.2
		l-1-3.3c-0.1-0.4-0.4-0.7-0.8-0.6c-0.2,0-0.3,0.1-0.4,0.2l-4.5,3.5c-0.6,0.5-0.9,1.2-0.8,1.9l0.3,4.2c0,0.7-0.2,1.5-0.7,2.1
		c-0.7,0.9-1.5,1.8-2.1,2.8c-0.4,0.6-1.1,0.9-1.8,0.9l-2.9-0.1c-0.7,0-1.3,0.4-1.7,1l-2.7,6.1c-0.3,0.6,0,1.3,0.6,1.5c0,0,0,0,0,0
		l2.3,1c0.6,0.3,0.9,0.9,0.8,1.6c-0.2,1-0.4,1.9-0.5,2.9c-0.1,0.7-0.5,1.4-1,2l-4,3.7c-0.5,0.5-0.7,1.2-0.7,1.9l0.7,4.3
		c0,0.4,0.4,0.7,0.8,0.7c0.1,0,0.3-0.1,0.4-0.2l4-2.6c0.5-0.3,1.2-0.2,1.6,0.4c0.2,0.3,0.5,0.6,0.7,0.9c0.5,0.5,0.7,1.2,0.5,1.9
		l-2,5.5c-0.2,0.5,0,1.1,0.5,1.3c0.1,0,0.1,0,0.2,0.1l3,0.7c0.7,0.1,1.3-0.2,1.7-0.8l2.8-5.3c0.4-0.6,1-1.1,1.7-1.3
		c0.6-0.2,1.2-0.4,1.8-0.6c0.5-0.2,1.1,0,1.4,0.5c0,0.1,0,0.1,0.1,0.2l1,3.3c0.1,0.4,0.4,0.7,0.8,0.6c0.2,0,0.3-0.1,0.4-0.2l4.5-3.5
		c0.5-0.5,0.8-1.2,0.8-1.9l-0.3-4.3c0-0.7,0.3-1.5,0.7-2.1c0.7-0.9,1.4-1.8,2.1-2.7c0.4-0.6,1.1-0.9,1.8-0.9l2.9,0.1
		c0.7,0,1.3-0.4,1.7-1l2.7-6.1c0.3-0.6,0-1.3-0.6-1.5c0,0,0,0,0,0l-2.3-1c-0.6-0.3-0.9-0.9-0.8-1.6c0.2-1,0.4-1.9,0.5-2.9
		c0.1-0.7,0.4-1.4,1-2l4-3.7C72.5,187.2,72.8,186.5,72.7,185.8z M53.6,208.8c-4.8,3.8-9.5,2.8-10.4-2.3c-0.8-5.1,2.3-12.3,7.2-16.1
		s9.5-2.8,10.3,2.3S58.5,205,53.6,208.8z"/>
	<path class="st2" d="M109.1,230.3l-4.7-2.7l0,0c-0.2-0.1-0.5-0.1-0.7,0l-8.4,3.8c-0.5,0.2-1.1,0-1.3-0.5c0-0.1,0-0.1-0.1-0.2
		c-0.4-1.5-1.1-2.8-1.9-4.1c-0.4-0.6-0.4-1.4-0.1-2l5.6-11.2c0.3-0.6,0.1-1.3-0.5-1.6l-6.1-3.5c-0.6-0.3-1.3-0.2-1.7,0.4L82.4,219
		c-0.4,0.6-1.1,0.9-1.8,0.9c-0.8,0-1.6,0-2.4,0.1v-7.6l-4.6-2.7l0,0c-0.2-0.1-0.5-0.1-0.7,0.1l-9.4,5.4c-0.6,0.4-1,1-1.1,1.7
		l-0.9,10.5c-0.1,0.7-0.4,1.4-1,2c-1.9,1.7-3.6,3.6-5.2,5.5c-0.5,0.5-1.2,0.7-1.8,0.5l-6-2.1c-0.6-0.2-1.3,0.1-1.7,0.6l-6.9,12
		c-0.3,0.6-0.2,1.3,0.3,1.8l4.8,4.2c0.5,0.5,0.7,1.2,0.5,1.9c-0.9,2.4-1.6,4.8-2.2,7.3c-0.2,0.7-0.6,1.4-1.2,1.8l-8.6,6
		c-0.6,0.4-0.9,1.1-1,1.9v10.8c0,0.3,0.1,0.5,0.3,0.7l0,0l4.6,2.7l6.9-3.3c0.3,0.5,0.5,1.1,0.9,1.6c0.4,0.6,0.4,1.4,0.1,2l-5.6,11.2
		c-0.3,0.6-0.1,1.3,0.5,1.6l6.1,3.5c0.6,0.3,1.3,0.1,1.7-0.4l6.9-10.4c0.4-0.6,1.1-0.9,1.8-0.9c1.5,0,3-0.1,4.5-0.5
		c0.5-0.1,1.1,0.2,1.2,0.7c0,0.1,0,0.1,0,0.2l0.9,9.1c0,0.3,0.1,0.5,0.4,0.6l0,0l4.6,2.7l5.5-8.1c0.6-0.4,1-1,1.1-1.8l0.9-10.5
		c0.1-0.7,0.6-1.3,1.2-1.6c2.8-1.2,5.3-2.9,7.3-5.1c0.5-0.5,1.2-0.7,1.9-0.5l3.7,1.3c0.6,0.2,1.3,0,1.7-0.6l6.9-12
		c0.3-0.6,0.2-1.3-0.3-1.8l-3.2-2.7c-0.5-0.5-0.7-1.2-0.5-1.9c0.7-2.8,1-5.8,0.9-8.7c0-0.7,0.3-1.4,0.9-1.8l8.6-6
		c0.6-0.4,0.9-1.1,1-1.8l4.1-4.9L109.1,230.3z M68.1,273.3c-8.8,5.1-14.2,1.5-14.2-8.6c0-10.1,7.2-22.5,16-27.6
		c8.8-5.1,14.1-1.4,14.1,8.7S76.9,268.2,68.1,273.3z"/>
	<path class="st3" d="M95.8,217.1l1.8-3.7c0.3-0.6,0.1-1.3-0.5-1.6l-6.1-3.5c-0.6-0.3-1.3-0.2-1.7,0.4L82.4,219
		c-0.1,0.2-0.3,0.3-0.5,0.4l7.8,4.5L95.8,217.1z"/>
	<path class="st3" d="M41.6,262.1c-0.2,0.3-0.4,0.5-0.7,0.7l-8.6,6c-0.2,0.2-0.4,0.4-0.6,0.7l5.2,3l11.4-6.5L41.6,262.1z"/>
	<path class="st3" d="M46.8,233.3c-0.5,0-1,0.3-1.2,0.7l-6.9,12c-0.1,0.3-0.2,0.6-0.2,0.9l6,3.4l9.5-12.8L46.8,233.3z"/>
	<path class="st3" d="M62.5,216.4l7.4,4.3l8.4-4.8v-3.4l-4.6-2.7l0,0c-0.2-0.1-0.5-0.1-0.7,0.1l-9.4,5.4
		C63,215.5,62.7,215.9,62.5,216.4z"/>
	<path class="st4" d="M109.5,241.8V231c0-0.4-0.2-0.8-0.6-0.8c-0.1,0-0.3,0-0.4,0.1L100,234c-0.5,0.2-1.1,0-1.3-0.5
		c0-0.1,0-0.1-0.1-0.2c-0.4-1.5-1.1-2.8-1.9-4.1c-0.4-0.6-0.4-1.4-0.1-2l5.6-11.2c0.3-0.6,0.1-1.3-0.5-1.6l-6-3.4
		c-0.6-0.3-1.3-0.2-1.7,0.4l-6.9,10.4c-0.4,0.6-1.1,0.9-1.8,0.9c-1.5,0-3,0.1-4.5,0.5c-0.5,0.1-1.1-0.2-1.2-0.7c0-0.1,0-0.1,0-0.2
		l-0.9-9.1c0-0.4-0.4-0.7-0.8-0.7c-0.1,0-0.3,0-0.4,0.1l-9.4,5.4c-0.6,0.4-1,1-1.1,1.8L66,230.1c-0.1,0.7-0.5,1.4-1,2
		c-1.9,1.7-3.6,3.6-5.2,5.5c-0.5,0.5-1.2,0.7-1.8,0.5l-6-2.1c-0.6-0.2-1.3,0.1-1.7,0.6l-6.9,12c-0.3,0.6-0.2,1.3,0.3,1.8l4.8,4.2
		c0.5,0.5,0.7,1.2,0.5,1.9c-0.9,2.4-1.6,4.8-2.2,7.3c-0.2,0.7-0.6,1.4-1.2,1.8l-8.6,6c-0.6,0.4-0.9,1.1-1,1.8v10.8
		c0,0.4,0.3,0.7,0.7,0.8c0.1,0,0.3,0,0.4-0.1l8.4-3.8c0.5-0.2,1.1,0,1.3,0.5c0,0.1,0,0.1,0.1,0.2c0.4,1.5,1.1,2.8,1.9,4.1
		c0.4,0.6,0.4,1.4,0.1,2l-5.6,11.2c-0.3,0.6-0.1,1.3,0.5,1.6l6.1,3.5c0.6,0.3,1.3,0.1,1.7-0.4l6.9-10.4c0.4-0.6,1.1-0.9,1.8-0.9
		c1.5,0,3-0.1,4.5-0.5c0.5-0.2,1.1,0.1,1.2,0.7c0,0.1,0,0.1,0,0.2l0.9,9.1c0,0.4,0.4,0.7,0.8,0.7c0.1,0,0.3,0,0.4-0.1l9.4-5.4
		c0.6-0.4,1-1,1.1-1.8l1-10.5c0.1-0.7,0.5-1.4,1-2c1.9-1.7,3.6-3.6,5.2-5.5c0.5-0.5,1.2-0.7,1.8-0.5l6,2.1c0.6,0.2,1.3-0.1,1.7-0.6
		l6.9-12c0.3-0.6,0.2-1.3-0.3-1.8l-4.8-4.2c-0.5-0.5-0.7-1.2-0.5-1.9c0.9-2.4,1.6-4.8,2.2-7.3c0.2-0.7,0.6-1.4,1.2-1.8l8.6-6
		C109.1,243.2,109.4,242.5,109.5,241.8z M72.7,275.9c-8.8,5.1-15.9,1-15.9-9.2c0-10.1,7.1-22.4,15.9-27.5c8.8-5.1,15.9-1,15.9,9.2
		S81.5,270.9,72.7,275.9z"/>
	<path class="st3" d="M109.1,230.3L109.1,230.3c-0.2-0.1-0.5-0.1-0.7,0L100,234c-0.5,0.2-1.1,0-1.3-0.5c0-0.1-0.1-0.1-0.1-0.2
		c-0.3-1-0.7-2-1.2-2.9l6.3-2.9c0.2-0.1,0.5-0.1,0.7,0l0,0L109.1,230.3z"/>
</g>
<g id="freepik--Window--inject-2">
	<path class="st1" d="M267.2,86.8c0.1-0.9-0.3-1.7-1-2.2l-3.2-1.9c-0.8-0.4-1.7-0.3-2.4,0.2L80.2,187.3c-2,1.3-3.2,3.5-3.4,5.9
		v160.8c-0.1,0.9,0.3,1.7,1,2.2l3.2,1.8c0.8,0.4,1.7,0.3,2.4-0.2l180.5-104.2c2-1.3,3.3-3.5,3.4-5.9V86.8z"/>
	<path class="st5" d="M266.2,84.6c-0.8-0.4-1.7-0.3-2.4,0.2L83.3,189.1c-1,0.6-1.8,1.5-2.4,2.5l-3.2-1.8c0.6-1,1.4-1.9,2.4-2.5
		L260.7,83c0.7-0.5,1.6-0.6,2.4-0.2L266.2,84.6z"/>
	<path class="st6" d="M266.2,84.6c-0.8-0.4-1.7-0.3-2.4,0.2L83.3,189.1c-1,0.6-1.8,1.5-2.4,2.5l-3.2-1.8c0.6-1,1.4-1.9,2.4-2.5
		L260.7,83c0.7-0.5,1.6-0.6,2.4-0.2L266.2,84.6z"/>
	<path class="st7" d="M83.3,189.1L263.9,84.9c1.9-1.1,3.4-0.2,3.4,2v160.8c-0.1,2.4-1.4,4.6-3.4,5.9L83.3,357.7
		c-1.9,1.1-3.4,0.2-3.4-2V195C80.1,192.6,81.3,190.4,83.3,189.1z"/>
	<path class="st5" d="M80.9,191.6c-0.6,1-0.9,2.2-1,3.3v10.8l-3.2-1.8v-10.8c0-1.2,0.4-2.3,1-3.3L80.9,191.6z"/>
	<path class="st8" d="M80.9,191.6c-0.6,1-0.9,2.2-1,3.3v10.8l-3.2-1.8v-10.8c0-1.2,0.4-2.3,1-3.3L80.9,191.6z"/>
	<path class="st5" d="M267.2,86.8c0-2.2-1.5-3-3.4-2L83.3,189.1c-2,1.3-3.2,3.5-3.4,5.9v10.8L267.2,97.6L267.2,86.8z"/>
	<polygon class="st5" points="86.3,209.4 86.3,312 156.1,271.7 156.1,194.8 111.7,194.7 	"/>
	<path class="st0" d="M130.8,227.1c-0.5,0-1.1-0.1-1.5-0.4c-1.1-0.6-1.7-1.9-1.7-3.6l0,0c0.2-3.5,2.1-6.8,5-8.7
		c1.5-0.8,2.8-1,3.9-0.3s1.7,1.9,1.7,3.6c-0.2,3.5-2.1,6.8-5,8.7C132.5,226.8,131.7,227.1,130.8,227.1z M135.1,214.8
		c-0.7,0-1.3,0.2-1.9,0.6c-2.6,1.7-4.3,4.6-4.5,7.8l0,0c0,1.3,0.4,2.2,1.1,2.6c0.7,0.4,1.7,0.3,2.8-0.3c2.6-1.7,4.3-4.6,4.5-7.8
		c0-1.3-0.4-2.2-1.1-2.6C135.7,214.9,135.4,214.8,135.1,214.8L135.1,214.8z"/>
	<path class="st0" d="M92.6,301.6c-0.1,0-0.2,0-0.3-0.1c-0.2-0.1-0.3-0.3-0.3-0.5v-88c0-0.2,0.1-0.4,0.3-0.5l28.6-16.5
		c0.1-0.1,0.2-0.1,0.3-0.1l28.6,1.8c0.3,0,0.5,0.3,0.5,0.5V268c0,0.2-0.1,0.4-0.3,0.5l-57.1,33C92.8,301.6,92.7,301.6,92.6,301.6z
		 M93.2,213.4v86.7l56-32.4v-68.8l-27.9-1.8L93.2,213.4z"/>
	<path class="st0" d="M125.6,249.6c-0.1,0-0.2,0-0.3-0.1c-0.2-0.2-0.3-0.5-0.1-0.8c0,0,0,0,0,0l11.5-15.8c0.2-0.2,0.5-0.3,0.7-0.1
		l12.7,9.2c0.2,0.2,0.3,0.5,0.1,0.8c-0.2,0.2-0.5,0.3-0.7,0.1l-12.3-8.8l-11.2,15.4C125.9,249.5,125.8,249.6,125.6,249.6z"/>
	<path class="st0" d="M92.6,275.9c-0.1,0-0.2,0-0.2-0.1c-0.3-0.1-0.4-0.5-0.2-0.7l19-36.7c0.1-0.1,0.2-0.2,0.4-0.3
		c0.2,0,0.3,0,0.5,0.1l22.2,16.5c0.2,0.2,0.3,0.5,0.1,0.8c-0.2,0.2-0.5,0.3-0.8,0.1l0,0l-21.7-16.1l-18.8,36.1
		C93,275.8,92.8,275.9,92.6,275.9z"/>
	<path class="st8" d="M111.7,194.7c0,0,11,3.3,14.3,9.2c2.9,5.1,3,7.3,3,7.3s18.8-4,27.1-16.4L111.7,194.7z"/>
	<path class="st5" d="M111.7,194.7c0,0,17.2,1.8,22.2,17.3c9.5-3.2,17.2-8.7,22.2-17.2L111.7,194.7z"/>
	<path class="st6" d="M111.7,194.7c0,0,17.2,1.8,22.2,17.3c9.5-3.2,17.2-8.7,22.2-17.2L111.7,194.7z"/>
	<g>
		<path class="st5" d="M167.9,106c-0.3,0.2-0.7,0.9-1.2,2.2c0.6-0.3,1.1-0.7,1.4-1.3c0.1-0.2,0.3-0.7,0.2-0.9
			C168.1,105.9,168,105.9,167.9,106C167.9,105.9,167.9,106,167.9,106z"/>
		<path class="st5" d="M163,104.6c-0.2,0.1-0.3,0.3-0.3,0.5c-0.1,0.5,0,1.1,0.2,1.6c0.3-0.6,0.4-1.3,0.4-1.9
			C163.3,104.6,163.2,104.5,163,104.6z"/>
		<path class="st5" d="M157.7,111.2L157.7,111.2c-0.2,0.1-0.3,0.2-0.3,0.3c-0.2,0.3-0.1,0.6,0.1,0.8c0.2,0.2,0.7,0.2,1.3-0.1
			C158.4,111.4,158,111.1,157.7,111.2z"/>
		<path class="st5" d="M163.6,93.1c-5.6,2.9-10.5,11.1-10.9,18.3c-0.6,10.5,6,8.8,5.8,13c-0.1,0.6,0.3,1.2,0.9,1.3
			c1.3,0.3,3.5-0.8,5-2.5c0.6-0.7,1-1.5,1.1-2.4l0,0c0.2-4.2,7-9.3,7.5-19.8C173.5,93.8,169.3,90.3,163.6,93.1z M168.6,107.4
			c-0.5,1-1.4,1.7-2.4,2.1c-0.3,0.8-0.5,1.8-0.8,2.9c-0.7,3.1-1.1,6.2-1.3,9.3c0,0.3-0.2,0.6-0.4,0.8l0,0c-0.2,0.1-0.4,0-0.4-0.3
			c0.2-3.2,0.6-6.4,1.4-9.6c0.2-1,0.5-2,0.8-2.9c-0.4,0-0.7,0-1-0.1c-0.6-0.2-1.1-0.5-1.5-1c-0.5,0.9-1.1,1.8-1.7,2.6
			c-0.3,0.4-0.7,0.8-1.1,1.2c0.2,0.7,0.4,1.5,0.5,2.2c0.4,2.9,0.5,5.8,0.4,8.7c0,0.3-0.2,0.6-0.5,0.7c-0.2,0.1-0.4,0-0.4-0.3
			c0.1-2.8,0-5.6-0.4-8.4c-0.1-0.8-0.3-1.5-0.5-2.2c-1,0.7-1.8,0.7-2.3,0.3c-0.4-0.4-0.5-1.3-0.1-2.2c0.2-0.5,0.6-1,1.2-1.2
			c0.7-0.2,1.3,0.4,1.7,1.5c0.4-0.3,0.7-0.7,1-1.1c0.6-0.8,1.2-1.6,1.7-2.5c-0.5-0.8-0.7-1.8-0.5-2.7c0.1-0.7,0.6-1.3,1.2-1.7
			c0.6-0.3,1-0.1,1.1,0.5c0.1,0.7-0.1,1.9-0.8,3.4c0.4,0.4,0.9,0.8,1.5,0.9c0.3,0.1,0.6,0.1,0.9,0.1c0.6-1.7,1.3-2.9,2-3.4
			c0.4-0.3,0.8-0.3,1.1,0C169.2,105.5,169.1,106.4,168.6,107.4z"/>
		<path class="st5" d="M163.8,90.7c-0.4,0.2-0.7-0.1-0.6-0.5l0.3-5.2c0-0.5,0.3-1,0.7-1.2c0.4-0.2,0.7,0.1,0.6,0.5l-0.3,5.1
			C164.5,89.9,164.2,90.4,163.8,90.7z"/>
		<path class="st5" d="M157.4,96c-0.3,0.4-0.8,0.5-0.9,0.2l-1.7-3.4c-0.1-0.5,0-1,0.3-1.4c0.3-0.4,0.8-0.5,0.9-0.2l1.8,3.4
			C157.8,95.2,157.7,95.7,157.4,96z"/>
		<path class="st5" d="M152.5,104.3c-0.2,0.5-0.6,0.9-1,0.8l-3.3-0.8c-0.3-0.1-0.4-0.6-0.2-1.1c0.2-0.5,0.6-0.9,1-0.8l3.3,0.8
			C152.6,103.3,152.7,103.8,152.5,104.3z"/>
		<path class="st5" d="M150.3,113.3c0,0.5-0.3,1-0.7,1.2l-4,2c-0.4,0.2-0.7-0.1-0.6-0.5c0-0.5,0.3-1,0.7-1.2l4-2
			C150.1,112.6,150.4,112.8,150.3,113.3z"/>
		<path class="st5" d="M151.6,120.6c0.1,0.5,0,1-0.3,1.3l-3.6,4.3c-0.3,0.4-0.8,0.5-0.9,0.2c-0.1-0.5,0-1,0.3-1.3l3.6-4.3
			C151,120.3,151.4,120.2,151.6,120.6z"/>
		<path class="st5" d="M173.3,109.5c0.2-0.5,0.6-0.9,1-0.8l3.3,0.8c0.3,0.1,0.4,0.6,0.2,1.1s-0.6,0.9-1,0.8l-3.3-0.8
			C173.2,110.5,173.1,110,173.3,109.5z"/>
		<path class="st5" d="M175.5,100.5c0-0.5,0.3-1,0.7-1.2l4-2c0.4-0.2,0.7,0,0.6,0.5c0,0.5-0.3,1-0.7,1.2l-4,2
			C175.7,101.3,175.4,101,175.5,100.5z"/>
		<path class="st5" d="M174.2,93.3c-0.1-0.5,0-1,0.3-1.3l3.6-4.3c0.3-0.4,0.8-0.5,0.9-0.2c0.1,0.5,0,1-0.3,1.4l-3.6,4.3
			C174.8,93.5,174.4,93.6,174.2,93.3z"/>
		<path class="st5" d="M169.9,89.6c-0.3-0.1-0.4-0.6-0.2-1.1l2.2-5.5c0.2-0.5,0.6-0.9,1-0.8c0.3,0.1,0.4,0.6,0.2,1.1l-2.2,5.5
			C170.7,89.4,170.3,89.7,169.9,89.6z"/>
		<path class="st3" d="M163.8,90.7c-0.4,0.2-0.7-0.1-0.6-0.5l0.3-5.2c0-0.5,0.3-1,0.7-1.2c0.4-0.2,0.7,0.1,0.6,0.5l-0.3,5.1
			C164.5,89.9,164.2,90.4,163.8,90.7z"/>
		<path class="st3" d="M157.4,96c-0.3,0.4-0.8,0.5-0.9,0.2l-1.7-3.4c-0.1-0.5,0-1,0.3-1.4c0.3-0.4,0.8-0.5,0.9-0.2l1.8,3.4
			C157.8,95.2,157.7,95.7,157.4,96z"/>
		<path class="st3" d="M152.5,104.3c-0.2,0.5-0.6,0.9-1,0.8l-3.3-0.8c-0.3-0.1-0.4-0.6-0.2-1.1c0.2-0.5,0.6-0.9,1-0.8l3.3,0.8
			C152.6,103.3,152.7,103.8,152.5,104.3z"/>
		<path class="st3" d="M150.3,113.3c0,0.5-0.3,1-0.7,1.2l-4,2c-0.4,0.2-0.7-0.1-0.6-0.5c0-0.5,0.3-1,0.7-1.2l4-2
			C150.1,112.6,150.4,112.8,150.3,113.3z"/>
		<path class="st3" d="M151.6,120.6c0.1,0.5,0,1-0.3,1.3l-3.6,4.3c-0.3,0.4-0.8,0.5-0.9,0.2c-0.1-0.5,0-1,0.3-1.3l3.6-4.3
			C151,120.3,151.4,120.2,151.6,120.6z"/>
		<path class="st3" d="M173.3,109.5c0.2-0.5,0.6-0.9,1-0.8l3.3,0.8c0.3,0.1,0.4,0.6,0.2,1.1s-0.6,0.9-1,0.8l-3.3-0.8
			C173.2,110.5,173.1,110,173.3,109.5z"/>
		<path class="st3" d="M175.5,100.5c0-0.5,0.3-1,0.7-1.2l4-2c0.4-0.2,0.7,0,0.6,0.5c0,0.5-0.3,1-0.7,1.2l-4,2
			C175.7,101.3,175.4,101,175.5,100.5z"/>
		<path class="st3" d="M174.2,93.3c-0.1-0.5,0-1,0.3-1.3l3.6-4.3c0.3-0.4,0.8-0.5,0.9-0.2c0.1,0.5,0,1-0.3,1.4l-3.6,4.3
			C174.8,93.5,174.4,93.6,174.2,93.3z"/>
		<path class="st3" d="M169.9,89.6c-0.3-0.1-0.4-0.6-0.2-1.1l2.2-5.5c0.2-0.5,0.6-0.9,1-0.8c0.3,0.1,0.4,0.6,0.2,1.1l-2.2,5.5
			C170.7,89.4,170.3,89.7,169.9,89.6z"/>
		<path class="st5" d="M165.6,122.2l-0.2,3.4c-0.1,0.9-0.5,1.8-1.2,2.5c-1.5,1.8-3.8,2.9-5.1,2.6c-0.7-0.2-1-0.7-0.9-1.5l0.2-3
			c0,0.6,0.4,1,1,1.1c1.4,0.3,3.7-0.8,5.1-2.6C165.1,124,165.5,123.1,165.6,122.2z"/>
		<path class="st9" d="M165.6,122.2l-0.2,3.4c-0.1,0.9-0.5,1.8-1.2,2.5c-1.5,1.8-3.8,2.9-5.1,2.6c-0.7-0.2-1-0.7-0.9-1.5l0.2-3
			c0,0.6,0.4,1,1,1.1c1.4,0.3,3.7-0.8,5.1-2.6C165.1,124,165.5,123.1,165.6,122.2z"/>
	</g>
</g>
<g id="freepik--Timeline--inject-2">
	<g id="freepik--timeline--inject-2">
		<g id="freepik--window--inject-2_4_">
			<path class="st4" d="M238.1,239.5v26.3c0,1.3-0.7,2.6-1.9,3.3l-103.6,59.8c-0.2,0.1-0.4,0.2-0.6,0.2c-0.1,0-0.2,0-0.3,0
				c-0.1-0.1-0.1-0.1-0.2-0.1l-0.1-0.1l-0.1-0.1l-0.1-0.1c-0.2-0.2-0.3-0.4-0.4-0.5c-0.1-0.4-0.2-0.6-0.2-1v-25.9
				c0-1.3,0.7-2.6,1.9-3.3l103.6-59.7c0.4-0.3,0.8-0.4,1.2-0.2c0.1,0,0.1,0.1,0.2,0.1C238,238.5,238.2,239,238.1,239.5z"/>
			<path class="st2" d="M131.1,328.9c-0.2-0.2-0.3-0.4-0.4-0.5c-0.1-0.4-0.2-0.6-0.2-1v-25.9c0-0.6,0.2-1.3,0.5-1.9l-2.4-1.4
				c-0.4,0.5-0.6,1.2-0.6,1.9v25.9c0,0.4,0.1,0.6,0.3,1c0.1,0.1,0.2,0.3,0.3,0.4c0.1,0.1,0.3,0.2,0.4,0.3l2.4,1.3
				C131.4,328.9,131.3,328.8,131.1,328.9z"/>
			<path class="st3" d="M237.5,238.1c-0.2,0-0.4-0.1-0.5,0h-0.1c-0.1,0-0.3,0-0.4,0.1l-0.3,0.1l-103.6,59.8
				c-0.2,0.2-0.4,0.3-0.5,0.4c-0.1,0.1-0.1,0.1-0.2,0.2l-0.2,0.2c-0.2,0.2-0.4,0.4-0.4,0.6l-2.4-1.4c0.2-0.3,0.4-0.5,0.6-0.8
				l0.2-0.2l0.2-0.2c0.1-0.1,0.2-0.2,0.4-0.3l103.6-59.8l0.2-0.1c0.4-0.2,0.7-0.2,1.1-0.1l0.1,0.1l0.2,0.1l0.4,0.3l0.4,0.2l1,0.5
				l0.1,0.1L237.5,238.1L237.5,238.1L237.5,238.1L237.5,238.1z"/>
		</g>
		<path class="st3" d="M236.4,240.9c-0.2-0.1-0.3-0.1-0.4,0l-103.5,59.8c-0.1,0.1-0.2,0.2-0.2,0.3v24.8c0,0.1,0.1,0.2,0.2,0.3
			c0.1,0,0.1,0,0.2,0c0.1,0,0.1,0,0.2,0l17.6-10.2l85.9-49.6c0.1-0.1,0.2-0.2,0.2-0.3v-24.7C236.6,241.2,236.5,241.1,236.4,240.9z
			 M236,244.8v3.6l-85.3,49.2v-3.7l25.1-14.4l0,0L236,244.8z M236,252.8L150.7,302v-3.6l85.3-49.2V252.8z M133,304.2l4.3-2.5
			l12.8-7.4v3.6l-17,9.8V304.2z M133,308.6l17-9.8v3.6l-17,9.8V308.6z M133,312.9l17-9.8v3.7l-17,9.8V312.9z M150.7,302.8l85.3-49.2
			v3.6l-85.3,49.2V302.8z M224.3,251v-1c0-0.2-0.2-0.4-0.4-0.4c-0.2,0-0.4,0.2-0.4,0.4v1.3l-2,1.1v-1c0-0.2-0.2-0.4-0.4-0.4
			c-0.2,0.1-0.4,0.2-0.4,0.4v1.3L219,254v-1c0-0.2-0.2-0.4-0.4-0.4c-0.2,0.1-0.4,0.2-0.4,0.4v1.3l-1.9,1.1v-1c0-0.2-0.2-0.4-0.4-0.4
			s-0.4,0.2-0.4,0.4v1.3l-1.9,1.1v-2.2l12-6.9v2.2L224.3,251z M213.5,254.9v2.2l-1.9,1.2v-1c-0.1-0.2-0.2-0.4-0.4-0.4
			c-0.2,0-0.4,0.2-0.4,0.4v1.4l-2,1.1v-1c0-0.2-0.2-0.4-0.4-0.4c-0.2,0-0.4,0.2-0.4,0.4v1.3l-1.9,1.1v-1c0-0.2-0.2-0.4-0.4-0.4
			c-0.2,0-0.4,0.2-0.4,0.4v1.3l-1.9,1.1v-1c0-0.2-0.2-0.4-0.4-0.4s-0.4,0.2-0.4,0.4v1.3l-1.9,1.1v-2.2l12-6.9H213.5z M200.7,264.6
			l-1.9,1.1v-1c0-0.2-0.2-0.4-0.4-0.4c-0.2,0-0.4,0.2-0.4,0.4v1.3l-1.9,1.1v-1c0-0.2-0.2-0.4-0.4-0.4c-0.2,0.1-0.4,0.2-0.4,0.4v1.3
			l-1.9,1.1v-1c0-0.2-0.2-0.4-0.4-0.4c-0.2,0-0.4,0.2-0.4,0.4v1.3l-1.8,1.2v-1c0-0.2-0.2-0.4-0.4-0.4s-0.4,0.2-0.4,0.4v1.3l-1.9,1.1
			v-2.2l12-6.9L200.7,264.6z M188.2,269.6v2.3l-1.9,1.1V272c0-0.2-0.2-0.4-0.4-0.4c-0.2,0-0.4,0.2-0.4,0.4v1.2l-2,1.1v-1
			c0-0.2-0.2-0.4-0.4-0.4c-0.2,0.1-0.4,0.2-0.4,0.4v1.3l-1.9,1.1v-1c0-0.2-0.2-0.4-0.4-0.4c-0.2,0-0.4,0.2-0.4,0.4v1.3l-1.9,1.1
			v-0.9c0-0.2-0.2-0.4-0.4-0.4s-0.4,0.2-0.4,0.4v1.3l-1.9,1.1v-2.2l12-6.9H188.2z M175.6,276.8v2.4l-1.9,1.1v-1
			c0-0.2-0.2-0.4-0.4-0.4c-0.2,0-0.4,0.2-0.4,0.4v1.3l-2,1.1v-1c0-0.2-0.2-0.4-0.4-0.4s-0.4,0.2-0.4,0.4v1.3l-1.9,1.1v-1
			c0-0.2-0.2-0.4-0.4-0.4c-0.2,0-0.4,0.2-0.4,0.4v1.2l-1.9,1.1v-0.9c0-0.2-0.2-0.4-0.4-0.4s-0.4,0.2-0.4,0.4v1.3l-1.9,1.1v-2.2
			l12-6.9H175.6z M162.9,284.1v2.4l-1.9,1.1v-1c-0.1-0.2-0.2-0.4-0.4-0.4c-0.2,0-0.4,0.2-0.4,0.4v1.3l-2,1.1v-1
			c0-0.2-0.2-0.4-0.4-0.4c-0.2,0.1-0.4,0.2-0.4,0.4v1.3l-1.9,1.1v-1c0-0.2-0.2-0.4-0.4-0.4c-0.2,0-0.4,0.2-0.4,0.4v1.3l-1.9,1.1v-1
			c0-0.2-0.2-0.4-0.4-0.4c-0.2,0-0.4,0.2-0.4,0.4v1.3l-1.9,1.1V291l12-6.9H162.9z M133,317.3l17-9.8v3.6l-17,9.8V317.3z
			 M150.7,307.2l85.3-49.3v3.6l-85.3,49.2V307.2z M236.2,241.8v2.4l-2,1.1v-1c0-0.2-0.2-0.4-0.4-0.4c-0.2,0.1-0.4,0.2-0.4,0.4v1.3
			l-1.9,1.1v-1c0-0.2-0.2-0.4-0.4-0.4c-0.2,0-0.4,0.2-0.4,0.4v1.3l-1.9,1.1v-1c0-0.2-0.2-0.4-0.4-0.4s-0.4,0.2-0.4,0.4v1.3l-1.9,1.1
			v-2.2l9.5-5.5H236.2z M133.1,301.3l17-9.8v2.2l-17.1,9.8L133.1,301.3z M133.1,325.3v-3.6l17-9.8v3.7L133.1,325.3z M150.7,315.1
			v-3.6l85.3-49.2v3.6L150.7,315.1z"/>
		<polygon class="st10" points="150.7,294 186.1,273.5 186.1,277.3 150.7,297.7 		"/>
		<polygon class="st11" points="150.7,294 186.1,273.5 186.1,277.3 150.7,297.7 		"/>
		<polygon class="st10" points="150.7,302.8 186.1,282.3 186.1,286 150.7,306.4 		"/>
		<polygon class="st11" points="150.7,302.8 186.1,282.3 186.1,286 150.7,306.4 		"/>
		<rect x="164.9" y="295.6" transform="matrix(0.5 -0.866 0.866 0.5 -173.5412 291.3219)" class="st12" width="1.2" height="0.7"/>
		<rect x="175" y="289.8" transform="matrix(0.5 -0.866 0.866 0.5 -163.4201 297.1563)" class="st12" width="1.2" height="0.7"/>
		<polygon class="st10" points="150.7,311.5 168.8,301 168.8,304.7 150.7,315.2 		"/>
		<polygon class="st13" points="150.7,311.5 168.8,301 168.8,304.7 150.7,315.2 		"/>
		<polygon class="st10" points="217.8,272.7 236,262.3 236,265.9 217.8,276.4 		"/>
		<polygon class="st11" points="217.8,272.7 236,262.3 236,265.9 217.8,276.4 		"/>
		<rect x="223.1" y="270.8" transform="matrix(0.5 -0.866 0.866 0.5 -122.9987 329.2909)" class="st12" width="1.2" height="0.7"/>
		<rect x="230.6" y="266.4" transform="matrix(0.5 -0.866 0.866 0.5 -115.454 333.6164)" class="st12" width="1.2" height="0.7"/>
		<polygon class="st10" points="200.6,273.9 236,253.5 236,257.2 200.6,277.6 		"/>
		<polygon class="st13" points="200.6,273.9 236,253.5 236,257.2 200.6,277.6 		"/>
		<polygon class="st1" points="178.4,282.3 214.3,261.7 214.3,265.3 178.4,286 		"/>
		<polygon class="st1" points="160.5,301.5 223.9,264.9 223.9,268.5 160.5,305.1 		"/>
		<path class="st3" d="M134.6,305.7c-0.2,0-0.4-0.2-0.5-0.4c-0.1-0.4,0-0.7,0.3-0.9l13.3-7.6c0.4-0.1,0.7,0,0.9,0.3
			c0.1,0.4,0,0.7-0.3,0.9l0,0l-13.3,7.6C134.8,305.7,134.7,305.7,134.6,305.7z"/>
		<path class="st3" d="M134.6,310.1c-0.4,0-0.6-0.3-0.6-0.6c0-0.2,0.2-0.4,0.4-0.5l13.3-7.6c0.4-0.2,0.7,0,0.9,0.3
			c0.2,0.4,0,0.7-0.3,0.9l-13.3,7.6C134.8,310.1,134.7,310.1,134.6,310.1z"/>
		<path class="st3" d="M134.6,314.5c-0.4,0-0.6-0.3-0.6-0.6c0-0.2,0.2-0.4,0.4-0.5l13.3-7.6c0.3-0.2,0.6,0,0.8,0.3s0.1,0.6-0.2,0.8
			l-13.3,7.6C134.8,314.5,134.7,314.5,134.6,314.5z"/>
		<path class="st3" d="M134.6,318.8c-0.4,0-0.6-0.3-0.6-0.6c0-0.2,0.2-0.4,0.4-0.5l13.3-7.6c0.4-0.2,0.7,0,0.9,0.3
			c0.2,0.4,0,0.7-0.3,0.9l-13.3,7.6C134.8,318.8,134.7,318.8,134.6,318.8z"/>
		<path class="st3" d="M134.6,323.3c-0.4,0-0.6-0.3-0.6-0.6c0-0.2,0.2-0.4,0.4-0.5l13.3-7.6c0.3-0.2,0.6,0,0.8,0.3
			c0.2,0.3,0.1,0.6-0.2,0.8l-13.3,7.6C134.8,323.2,134.7,323.3,134.6,323.3z"/>
		<rect x="154.8" y="292.7" transform="matrix(0.5 -0.866 0.866 0.5 -176.0585 281.1022)" class="st12" width="1.2" height="0.7"/>
		<rect x="159.9" y="289.8" transform="matrix(0.5 -0.866 0.866 0.5 -170.9983 284.0276)" class="st12" width="1.2" height="0.7"/>
		
			<rect x="165.9" y="286.3" transform="matrix(0.4983 -0.867 0.867 0.4983 -165.0164 288.147)" class="st12" width="1.2" height="0.7"/>
		<rect x="157.4" y="308.7" transform="matrix(0.5 -0.866 0.866 0.5 -188.6914 291.3617)" class="st12" width="1.2" height="0.7"/>
		<path class="st10" d="M188.3,277.8c0.4-0.2,0.6-0.1,0.6,0.4c0,0.4-0.3,0.8-0.6,1.1c-0.4,0.2-0.6,0.1-0.6-0.4
			C187.7,278.4,187.9,278,188.3,277.8z"/>
		<path class="st10" d="M195.8,273.5c0.4-0.2,0.6-0.1,0.6,0.4c0,0.4-0.3,0.8-0.6,1.1c-0.4,0.2-0.6,0.1-0.6-0.4
			C195.2,274.1,195.5,273.6,195.8,273.5z"/>
		<path class="st10" d="M203.4,269c0.4-0.2,0.6-0.1,0.6,0.4c0,0.4-0.3,0.8-0.6,1.1c-0.4,0.2-0.6,0.1-0.6-0.4
			C202.8,269.6,203,269.3,203.4,269z"/>
		<path class="st10" d="M188.3,286.6c0.4-0.2,0.6-0.1,0.6,0.4c0,0.4-0.3,0.8-0.6,1.1c-0.4,0.2-0.6,0.1-0.6-0.4
			C187.7,287.2,187.9,286.8,188.3,286.6z"/>
		<path class="st10" d="M200.9,279.3c0.4-0.2,0.6-0.1,0.6,0.4c0,0.4-0.3,0.8-0.6,1.1c-0.4,0.2-0.6,0.1-0.6-0.4
			C200.3,279.9,200.5,279.5,200.9,279.3z"/>
		<path class="st10" d="M213.5,271.9c0.4-0.2,0.6-0.1,0.6,0.4c0,0.4-0.3,0.8-0.6,1.1c-0.4,0.2-0.6,0.1-0.6-0.4
			C212.9,272.6,213.1,272.2,213.5,271.9z"/>
		<path class="st10" d="M178.1,299.9c-0.2,0-0.4-0.2-0.4-0.4v-21.8c0-0.2,0.2-0.4,0.4-0.4c0.2,0,0.4,0.2,0.4,0.4v21.9
			C178.4,299.8,178.4,300,178.1,299.9z"/>
		<path class="st14" d="M178.1,299.9c-0.2,0-0.4-0.2-0.4-0.4v-21.8c0-0.2,0.2-0.4,0.4-0.4c0.2,0,0.4,0.2,0.4,0.4v21.9
			C178.4,299.8,178.4,300,178.1,299.9z"/>
	</g>
</g>
<g id="freepik--paint-pot--inject-2_1_">
	<g id="freepik--paint-pot--inject-2">
		<path class="st4" d="M327.1,303.4l-18.7-0.3l-0.2,15.3l0,0c0,1.4,0.9,2.8,2.7,3.8c3.7,2.1,9.5,2.2,13.2,0.1c1.9-1,2.8-2.4,2.8-3.8
			L327.1,303.4z"/>
		<path class="st3" d="M311.2,299.3c-3.7,2.1-3.7,5.5-0.1,7.6c3.6,2.1,9.5,2.2,13.2,0.1s3.7-5.5,0.1-7.6
			C320.7,297.3,314.8,297.3,311.2,299.3z"/>
		<path class="st2" d="M326.3,303.3c0,0.2,0,0.5-0.1,0.7c-0.4,1-1.2,1.9-2.2,2.4c-1.9,1-4.1,1.5-6.2,1.4c-2.1,0-4.3-0.5-6.2-1.5
			c-1-0.5-1.8-1.3-2.2-2.4c-0.1-0.3-0.1-0.5-0.1-0.8c0-1.1,0.9-2.2,2.4-3.1c1.9-1,4.1-1.5,6.2-1.4c2.2,0,4.3,0.5,6.2,1.5
			C325.4,301.1,326.3,302.2,326.3,303.3z"/>
		<path class="st15" d="M326.1,304c-0.4,1-1.2,1.9-2.2,2.4c-1.9,1-4.1,1.5-6.2,1.4c-2.2,0-4.3-0.5-6.2-1.5c-1-0.5-1.8-1.3-2.2-2.4
			c0.4-1,1.2-1.9,2.2-2.3c1.9-1,4.1-1.5,6.2-1.4c2.2,0,4.3,0.5,6.2,1.5C324.9,302.2,325.7,303,326.1,304z"/>
		<path class="st2" d="M321.7,309.1c0.4-0.2,0.7,0,0.7,0.4c0,0.5-0.3,1-0.7,1.3c-0.4,0.2-0.7,0-0.7-0.4
			C321,309.8,321.3,309.4,321.7,309.1z"/>
		<path class="st1" d="M308.3,305.8c-1,2-3.1,6.8-0.4,8.8l0.3,0.2v1c-0.3-0.2-0.5-0.3-0.8-0.5c-4-2.9,0.5-10.5,0.7-10.8
			c0.1-0.1,0.1-0.1,0.2-0.2L308.3,305.8z"/>
		<path class="st1" d="M322,310.1c-0.1,0.2-3,5.8-7.7,6.9c-0.5,0.1-1.1,0.2-1.6,0.2c-1.6,0-3.1-0.5-4.4-1.4v-1
			c1.7,1.3,3.8,1.8,5.9,1.4c4.4-1,7.2-6.4,7.2-6.5c0.1-0.2,0.4-0.3,0.5-0.2C322.1,309.7,322.2,309.9,322,310.1
			C322.1,310.1,322.1,310.1,322,310.1z"/>
	</g>
</g>
<g id="freepik--Canvas--inject-2">
	<path class="st7" d="M319.1,348c0-0.5-0.3-0.9-0.8-1.1l-28.9-16.7c-1.2-0.6-2.6-0.6-3.8,0l-43.7,25.3c-0.4,0.2-0.7,0.6-0.8,1.1v3.4
		c0,0.5,0.3,0.9,0.8,1.1l28.9,16.7c1.2,0.6,2.6,0.6,3.8,0l43.7-25.3c0.4-0.2,0.7-0.6,0.8-1.1V348z"/>
	<path class="st16" d="M272.7,374.8v3.4c-0.7,0-1.3-0.1-1.9-0.5l-28.9-16.7c-0.4-0.2-0.7-0.6-0.8-1.1v-3.4c0,0.5,0.3,0.9,0.8,1.1
		l28.9,16.7C271.4,374.7,272,374.8,272.7,374.8z"/>
	<path class="st12" d="M241.9,355.5l43.7-25.3c1.2-0.6,2.6-0.6,3.8,0l28.9,16.7c1.1,0.6,1.1,1.6,0,2.2l-43.7,25.2
		c-1.2,0.6-2.6,0.6-3.8,0l-28.9-16.7C240.9,357.1,240.9,356.1,241.9,355.5z"/>
	<path class="st15" d="M289.4,330.2c-1.2-0.6-2.6-0.6-3.8,0l-43.7,25.3c-1,0.6-1,1.6,0,2.2l10.4,6l0,0c0,0,10.9,2.6,15.5-0.4
		c4.6-3,2.7-10.4,8.6-12.4c5.9-2,14.9,0.6,23.1-2.2s8.3-7.8,8.3-7.8l0,0L289.4,330.2z"/>
	<path class="st15" d="M289.4,330.2c-1.2-0.6-2.6-0.6-3.8,0l-43.7,25.3c-1,0.6-1,1.6,0,2.2l10.4,6l0,0c0,0,10.9,2.6,15.5-0.4
		c4.6-3,2.7-10.4,8.6-12.4c5.9-2,14.9,0.6,23.1-2.2s8.3-7.8,8.3-7.8l0,0L289.4,330.2z"/>
	<path class="st15" d="M241.1,356.6v3.4c0,0.5,0.3,0.9,0.8,1.1l10.4,6v-3.4l0,0l-10.3-6C241.5,357.5,241.2,357.1,241.1,356.6z"/>
	<path class="st8" d="M241.1,356.6v3.4c0,0.5,0.3,0.9,0.8,1.1l10.4,6v-3.4l0,0l-10.3-6C241.5,357.5,241.2,357.1,241.1,356.6z"/>
</g>
<g id="freepik--character-2--inject-2">
	<path class="st3" d="M218.6,326.9c-0.5-1.1,2.1-2.2,4-2c0.9,0.1,2,0.8,2.8,0.8c1.3,0.1,2.9-0.4,4.3-0.3c2.1,0.1,2.3,1.5,2,2.7
		c-0.4,1.1-2.9,2.1-2.9,2.1l-5-1.2C221.3,328.7,219.4,328.1,218.6,326.9z"/>
	<path class="st2" d="M230.3,327.5c-0.7,0-0.3,2.4-1.1,2.9c-0.4,0.3-3-1.6-4.5-2c-1.4-0.4-4.9,0.1-6.1-1.6c0.2,0.5,0.5,0.9,0.8,1.2
		c1.7,1.4,3.6,2.6,5.5,3.6c2,1,6.6,2.7,6.6,2.7L230.3,327.5z"/>
	<path class="st15" d="M252.9,338.3c0.2,4.3-6.9,5.1-13,2.2c-4.7-2.2-6.7-3.8-11-7c-5.3-3.9-7-11.4-3.1-16.9l17.9-0.9
		c3.1,3.6,14.3,8.4,18,16.9C263.5,337.1,257.3,339.5,252.9,338.3L252.9,338.3z"/>
	<path class="st9" d="M252.9,338.3c0.2,4.3-6.9,5.1-13,2.2c-4.7-2.2-6.7-3.8-11-7c-5.3-3.9-6.8-9.9-3.1-16.9l17.9-0.9
		c3.1,3.6,14.3,8.4,18,16.9C263.5,337.1,257.3,339.5,252.9,338.3L252.9,338.3z"/>
	<path class="st17" d="M252.9,338.3c-0.5-4-3.5-6-6.2-8c-2.6-2-8.2-5.4-8.2-5.4c2,0.3,4-0.5,5.3-2c-0.2,1.1-0.8,2.1-1.8,2.7
		c0,0,7.7,4.4,10,8.1C252.9,335.2,253.2,336.8,252.9,338.3z"/>
	<path class="st18" d="M268.5,293.9c-1.7-2.5-2.6-1.8-3.2,0.5c-0.3,1-0.8,2-1.4,2.9c0-0.7-1.9,0.4-2,1.9c0,0.5-0.2,0.9-0.4,1.3
		c-1.5,1.9-5.7,5.1-8.7,7.4l-8-10.3c-2.7-3.5-3.7-4.9-6.8-5.2c1,0.4,1.8,1.1,2.5,1.9c1.2,1.5-0.3,8.5-0.3,8.5s9.5,9.7,10.5,10.6
		c0.1,0.1,0.3,0.3,0.4,0.4c1,0.8,2.4,0.7,3.4-0.1c2.8-2.2,7.1-7,9.3-9.5c1.5-1.7,2.3-2.4,3.3-3.4C269,298.8,269.6,295.5,268.5,293.9
		z"/>
	<path class="st15" d="M231.4,292.5L231.4,292.5c-4.2,0.3-4.5,2.3-5.5,4.5c-0.8,1.7-0.8,3.6-0.2,5.4l2.9,8.5c0,0-1.1,2.5-2.7,5.7
		c7.3,4.1,16.3,2.7,18.5-0.3c0.1-0.6-0.5-5.6-0.8-8.8c1.3-3.2,1.6-5.3,1.1-7.4c-1-4-4.9-7.9-6.7-7.7L231.4,292.5z"/>
	<path class="st8" d="M228,312.2c-0.3,0.5-0.6,1.2-1,2c-0.1,0.1-0.1,0.3-0.2,0.4l-0.3,0.5c-0.2,0.5-0.5,0.9-0.7,1.4
		c0.3,0.2,0.5,0.3,0.8,0.4c4.3,2.2,9.3,2.7,14,1.5c-2.5,0.3-5,0.2-7.4-0.3c-2.4-0.5-3.9-2.9-3.3-5.3c0,0,0-0.1,0-0.1
		c0-0.1,0.1-0.2,0.1-0.2c0.2-0.6,0.8-1,1.5-1c-0.9-0.6-1.6-1.6-1.8-2.7l-0.4-1.2c-0.9-2.7-0.9-5.6-0.1-8.3v-0.1l-3.1-1.8l-0.5,0.4
		l0,0c-0.2,0.6-0.3,1.1-0.3,1.7l0,0c0,0.1,0,0.3,0,0.4c0,0.1,0,0.1,0,0.2v0.4c0,0.1,0,0.2,0,0.3l0,0.3c0,0.1,0.1,0.2,0.1,0.4
		c0,0.1,0,0.2,0.1,0.2c0.1,0.2,0.1,0.4,0.2,0.6l2.9,8.5L228,312.2z"/>
	<path class="st2" d="M244.4,291.2h-9.2c-4.9,0-8.9-4-8.9-8.9c0,0,0,0,0,0v-1.9c0-5.2,4.2-9.4,9.4-9.4l0,0c4.8,0,8.7,3.9,8.7,8.7
		l0,0V291.2z"/>
	<path class="st18" d="M241.4,276.1c0.5,0.2,1.7,2.6,1.6,7.9c-0.1,4.4-1.5,5.5-2.3,5.9c-0.7,0.3-2.1,0.1-3.5-0.1v2.7
		c0,0,1.9,2.2,1.8,3.4c-0.1,1.2-2.7,1.5-4.5,0.3c-1.1-0.8-2.1-1.8-2.9-3v-6.4c-0.6,0.7-1.7,0.8-2.4,0.2c0,0,0,0,0,0
		c-1.5-1-1.6-3.4-0.7-4.3s2.7-0.6,3.1,0.6c0,0,2.2,0.4,5.1-1.5C240,279.6,241,278,241.4,276.1z"/>
	<path class="st2" d="M242.1,281.1l-1.2-0.6c0.1-0.3,0.5-0.5,0.8-0.4c0,0,0,0,0,0C242.1,280.3,242.3,280.7,242.1,281.1z"/>
	<path class="st2" d="M237,280.7l-1.2,0.7c-0.2-0.3-0.1-0.7,0.1-0.9c0,0,0,0,0,0C236.4,280.3,236.8,280.4,237,280.7z"/>
	<path class="st2" d="M231.7,281.9l0.1,2.7c0.7,0,1.3-0.5,1.3-1.3c0,0,0,0,0-0.1C233,282.5,232.4,281.9,231.7,281.9z"/>
	<path class="st2" d="M230.4,273.2l-1.2-2.5c-0.7,0.3-1,1-0.7,1.7c0,0,0,0,0,0.1C228.9,273.2,229.7,273.5,230.4,273.2z"/>
	<path class="st2" d="M229.7,273.1l-2.7-0.2c-0.1,0.7,0.4,1.4,1.2,1.5c0,0,0,0,0,0C229,274.4,229.6,273.8,229.7,273.1z"/>
	<path class="st2" d="M237.6,282.7c0,0.3-0.2,0.6-0.5,0.6c-0.3,0-0.6-0.2-0.6-0.5c0,0,0-0.1,0-0.1c0-0.3,0.2-0.6,0.5-0.6
		c0,0,0,0,0,0C237.3,282.1,237.6,282.4,237.6,282.7C237.6,282.7,237.6,282.7,237.6,282.7z"/>
	<path class="st19" d="M238.2,286.6l1.3,0.4c-0.1,0.4-0.5,0.6-0.8,0.5c0,0,0,0,0,0C238.3,287.4,238.1,287,238.2,286.6z"/>
	<path class="st2" d="M241.9,282.4c0,0.3-0.2,0.6-0.5,0.6c-0.3,0-0.6-0.2-0.6-0.5c0-0.3,0.2-0.5,0.5-0.6
		C241.6,281.9,241.9,282.1,241.9,282.4z"/>
	<polygon class="st19" points="239.2,282.1 239.2,285.5 241,284.9 	"/>
	<path class="st19" d="M237.3,289.7c-1.4-0.2-4.4-1-4.8-2.2c0.2,0.6,0.5,1.1,1,1.5c0.9,0.7,3.8,1.6,3.8,1.6V289.7z"/>
	<path class="st18" d="M235.2,327.1c2.5-1.7,1.8-2.5-0.4-3.3c-0.9-0.3-1.8-0.7-2.6-1.2c0.5,0,1,0,1.5-0.1c0.5-0.1,0.9-0.6,0.8-1.1
		c0-0.2-0.6-0.1-1.5-0.3c-1.1-0.3-1.7-0.7-2.9-0.7c-0.5,0-0.9-0.2-1.3-0.5c-1.8-1.5-4.8-6.1-7.1-9.1c2.2-2.5,7.1-10,7.1-10
		c1.8-2.3,2-5.4,0.6-7.9c-2.1,0.2-4.1,2.3-6.7,6.3c-5.8,8.9-8,10.8-6.5,13.1c2,2.9,6.2,7.4,8.6,9.8c1.1,1.1,2.4,2.2,3.7,3.2
		C231.8,328,233.7,328.1,235.2,327.1z"/>
	<path class="st3" d="M265.8,291.8v7.4c0,0.2-0.1,0.3-0.3,0.4c-0.4,0.2-0.9,0.2-1.4,0c-0.2-0.1-0.3-0.2-0.3-0.4v-7.4H265.8z"/>
	<polygon class="st4" points="263.9,293.7 265.8,294.8 265.8,291.8 263.9,291.8 	"/>
	<path class="st4" d="M262.9,285.9v1.5l-1.3-0.7v3.1c0.1,1,0.6,2,1.5,2.5l2.3,1.3c0.3,0.2,0.7,0.2,1,0.1c0,0,1.1-0.6,1.4-0.8
		c0.3-0.2,0.4-0.6,0.4-0.9v-3.1L262.9,285.9z"/>
	<path class="st3" d="M265.4,293.6l-2.3-1.3c-0.9-0.6-1.4-1.5-1.5-2.5v-3.1l5.2,3v3.1C266.8,293.7,266.2,294.1,265.4,293.6z"/>
	<polygon class="st7" points="266.8,289.7 261.6,286.7 261.6,282.2 266.8,285.2 	"/>
	<polygon class="st1" points="266.8,289.7 266.8,285.2 268.1,284.4 268.1,288.9 	"/>
	<polygon class="st15" points="266.8,291 261.6,288 261.6,288.6 266.8,291.7 	"/>
	<polygon class="st15" points="266.8,291 268.1,290.3 268.1,290.9 266.8,291.7 	"/>
	<polygon class="st8" points="266.8,291 268.1,290.3 268.1,290.9 266.8,291.7 	"/>
	<path class="st15" d="M268.1,285.8c0,0-0.4,1.1-1.3,1.1v-1.7l1.3-0.7V285.8z"/>
	<path class="st8" d="M268.1,285.8c0,0-0.4,1.1-1.3,1.1v-1.7l1.3-0.7V285.8z"/>
	<path class="st15" d="M266.8,286.9c-0.6,0.2-1.3,0.2-1.8-0.2c-0.6-0.5-0.8-2.1-2-2.1c-0.6,0.1-1.1,0.4-1.4,0.9v-3.3l5.2,3
		L266.8,286.9z"/>
	<polygon class="st15" points="261.6,282.2 262.9,281.4 268.1,284.4 266.8,285.2 	"/>
	<polygon class="st6" points="261.6,282.2 262.9,281.4 268.1,284.4 266.8,285.2 	"/>
	<path class="st18" d="M261.9,299.5c-0.1-1,0-2,0.2-3c0.3-0.9,1.9-2.1,2.4-2.4s1.1,0,0.8,1c-0.3,1-0.7,1.3-1.1,2
		c-0.2,0.4-0.3,0.7-0.3,1.1L261.9,299.5z"/>
</g>
<g id="freepik--character-1--inject-2">
	<path class="st8" d="M149.2,218.1c-0.7-0.5-1.5-0.6-2.3-0.2l-15.8,9.1c-0.7,0.5-1,1.3-1,2.1c0.1,2.2,1.3,4.3,3.2,5.5
		c0.7,0.5,1.5,0.6,2.3,0.2l15.8-9.1c0.7-0.5,1.1-1.3,1-2.1C152.2,221.3,151,219.3,149.2,218.1z"/>
	<path class="st20" d="M171.4,282.5c0,0-5.1,0.2-6.5,0.2c-3.7-3.8-9-9.2-10.1-10.8c-1.6-2.9-2.9-5.6-4.2-5.8
		c-1.3-0.2-4.2,0.5-4.9,1.8c-0.5,0.9,0.6,3.4,1.5,2.8c0.5,0.8,1,2.9,3.4,3.7c3.8,4.5,8,10.4,10.4,13.1c1.2,1.2,3.2,1.3,4.5,0.2
		L171.4,282.5z"/>
	<path class="st2" d="M186.5,365.5c0.3,0.1,0.4,0.7,0.4,1.9c0,0.9,0.2,2.5-0.9,2.8c-1.1,0.3-2.6,0.1-3.3-0.8c-0.8-1.1-1.4-2-2.5-3.4
		c-1-1.1-2.1-2.2-2.5-3.8c-0.4-1.4,0-2,1-2.4c1.3-0.5,3.4,1.4,4.4,1.7C183.9,361.8,186.2,365.4,186.5,365.5z"/>
	<path class="st20" d="M186.5,364.4l0,1.5c-1.1,0.7-2.6,0.7-3.7,0c-0.1-0.1-0.3-2.1-0.3-2.1L186.5,364.4z"/>
	<path class="st2" d="M174.4,373.7c0,0,0.4,1.3,0.6,2.4c0.2,0.9,0.4,2.4,0.1,3c-0.3,0.7-1.5,1.1-3.4,1c-1.2,0-3.1,0.7-4.4,1.5
		s-4.1,1-5.6,0.7c-1.7-0.2-3.4-1.2-3.6-1.9s0.1-1.4,4.1-3c0,0,5.5-1.7,7.4-3.7H174.4z"/>
	<path class="st20" d="M174.5,372.1c0,0,0,1.1,0,1.7s-0.8,1.5-2.7,1.4c-1.3-0.1-2.3-0.5-2.2-1.6l0-1.6L174.5,372.1z"/>
	<path class="st4" d="M187.9,345c-0.3-2.6-0.8-5.2-1.6-7.7c0,0,0.7-6.6,1.1-12.8c0.4-6.7,0.3-15.2,0.5-16.9c0,0-21.6-4.9-22.2,2.9
		c-0.6,7.8,0.2,27.6,0.4,31c0.2,3.4,0.7,6.5,1.3,12c0.6,5.6,2.2,18.4,2.2,18.4c1.5,0.8,3.3,0.8,4.8,0c0,0,1.9-15.5,1.8-19.5
		c-0.1-2.9-0.5-5.8-1.3-8.6c0,0,0.6-6.4,1-12c0.5-5.6,0.9-8.3,1.1-10.7l0.5-0.2c0,0,0.3,9.6,0.4,13.1c0.2,3.4,0.7,6.7,1.5,13.1
		c0.7,5.5,3,17.2,3,17.2c2.5,1.4,4-0.1,4-0.1S188.4,349.8,187.9,345z"/>
	<path class="st2" d="M177.1,321.3c0,0,5.3-2.5,8-4.8c0,0-2.5,3.4-5.8,4.9c0,0-1.4,11.9-1.4,11.7l-0.4-11.8L177.1,321.3z"/>
	<polygon class="st20" points="173.3,276.7 174.5,283.8 181.2,283.2 179.9,275.4 	"/>
	<path class="st5" d="M187.7,283.3c-0.6-1.9-3-4.1-5.4-3.7l-1.6,0.3c0,1.2-3.4,2.1-6.6,1.4c-0.9,0.2-1.8,0.5-2.6,0.7
		c-2.3,0.7-4.3,2.6-4.7,10c0,0-1.1,17.1-1.2,20.4c4.6,1.9,9.7,2.5,14.6,1.8c6.8-1.3,7.6-4.1,7.6-4.1s0.4-12.3,0.3-17.7
		C188.1,288,188.1,284.7,187.7,283.3z"/>
	<path class="st21" d="M168.9,267.4c0,0-2,2.3-1.8,2.6s1.4,0.6,1.4,0.6L168.9,267.4z"/>
	<path class="st20" d="M174.3,261c-3.5,0.3-5.1,1.5-5.8,7c-0.6,5.6-0.2,7.6,0.5,8.4c0.4,0.6,2.9,0.8,4.3,0.6c1.8-0.3,5.9-1.2,8-3.8
		c2.6-3.1,3.7-7.5,1.6-9.6C180.1,260.6,175.7,260.8,174.3,261z"/>
	<path class="st2" d="M168.2,262.9l0.1,0.1c0.7,0.6,1.5,1,2.2,1.6c0.7,0.6,1.3,1.5,1.5,2.5c0.2,0.8,0.3,1.7,1.2,2.1
		c0,0,0.5-2.1,2.3-1.8c1.8,0.3,2,2.5,0.9,3.9c-1.1,1.4-2.2,0.8-2.2,0.8s0.1,3,1.4,4.7c1.4,0.3,2.9,0.3,4.3-0.1
		c1.7-0.4,4.1-2.5,5.1-4.7c2.1-4.8,2.3-9-0.7-10.3c-0.3-2.2-2.1-3.2-4-3.7c-2.9-0.7-5.7,1.1-8.6,0.4c-0.6-0.1-1.2-0.4-1.8-0.4
		c-0.1,0-0.1,0-0.2,0c-0.1,0.1-0.1,0.3-0.1,0.4c0.2,0.6,0.4,1.1,0.9,1.6c-1.1,0.1-2.2-0.1-3.3-0.4
		C166.9,260.8,167.4,262,168.2,262.9z"/>
	<path class="st2" d="M184.3,262.3l2-1.2c-0.3-0.6-1.1-0.7-1.6-0.4C184.2,261,184,261.8,184.3,262.3z"/>
	<path class="st2" d="M173.2,270.3l0.1-2.4c-0.7,0-1.2,0.5-1.2,1.1S172.5,270.3,173.2,270.3z"/>
	<path class="st4" d="M154.6,290.2L154.6,290.2l-2.4-15.5l-3.2,0.5l2.4,15.5l0,0c0,0.2,0.1,0.3,0.3,0.4c0.7,0.4,1.5,0.4,2.3,0
		C154.4,290.9,154.6,290.5,154.6,290.2z"/>
	<path class="st3" d="M149.2,275.7c0.7,0.4,1.5,0.4,2.3,0c0.7-0.4,1-0.9,0.5-1.3c-0.7-0.4-1.5-0.4-2.3,0
		C148.9,274.7,148.7,275.3,149.2,275.7z"/>
	<path class="st4" d="M151.8,223.6c-0.2,0-0.3-0.1-0.4-0.3l-1-6.2l-0.6,0.3c-0.2,0.1-0.4,0.1-0.5-0.1s-0.1-0.4,0.1-0.5
		c0,0,0,0,0.1,0l1-0.6c0.1-0.1,0.2-0.1,0.3,0c0.1,0.1,0.2,0.2,0.2,0.3l1,6.7C152.2,223.4,152.1,223.6,151.8,223.6
		C151.9,223.6,151.9,223.6,151.8,223.6L151.8,223.6z"/>
	<path class="st5" d="M152.9,219c-0.1-2.2-1.3-4.3-3.2-5.5c-0.7-0.5-1.5-0.6-2.3-0.2l-15.9,9.2l4.5,7.8l15.9-9.2
		C152.6,220.6,153,219.8,152.9,219z"/>
	<path class="st5" d="M152.9,219c-0.1-2.2-1.3-4.3-3.2-5.5c-0.7-0.5-1.5-0.6-2.3-0.2l-15.9,9.2l4.5,7.8l15.9-9.2
		C152.6,220.6,153,219.8,152.9,219z"/>
	<path class="st22" d="M152.9,219c-0.1-2.2-1.3-4.3-3.2-5.5c-0.7-0.5-1.5-0.6-2.3-0.2l-15.9,9.2l4.5,7.8l15.9-9.2
		C152.6,220.6,153,219.8,152.9,219z"/>
	<path class="st14" d="M151,214.6l-15.8,9.2c-0.4-0.4-0.8-0.8-1.3-1.1c-0.6-0.4-1.4-0.5-2.1-0.3l15.7-9.1c0.7-0.4,1.6-0.3,2.3,0.2
		C150.2,213.8,150.7,214.2,151,214.6z"/>
	<path class="st5" d="M133.9,222.7c1.9,1.2,3.1,3.3,3.2,5.5c0,2-1.4,2.8-3.2,1.8c-1.9-1.2-3.1-3.3-3.2-5.5
		C130.7,222.5,132.1,221.6,133.9,222.7z"/>
	<path class="st14" d="M133.9,222.7c1.9,1.2,3.1,3.3,3.2,5.5c0,2-1.4,2.8-3.2,1.8c-1.9-1.2-3.1-3.3-3.2-5.5
		C130.7,222.5,132.1,221.6,133.9,222.7z"/>
	<path class="st11" d="M131.8,222.4c0,0-0.1,0.1-0.1,0.1l0,0L131.8,222.4z"/>
	<path class="st4" d="M133.9,234c-0.1,0-0.1,0-0.2,0c-0.1,0-0.2-0.2-0.2-0.3l-1-6.7c0-0.1,0-0.3,0.2-0.4l1-0.6
		c0.2-0.1,0.4-0.1,0.5,0.1c0.1,0.2,0.1,0.4-0.1,0.5c0,0,0,0-0.1,0l-0.8,0.5l0.9,6l17.5-10.1c0.2-0.1,0.4,0,0.5,0.2
		c0.1,0.2,0,0.3-0.1,0.4L134.1,234C134,234,133.9,234,133.9,234z"/>
	<path class="st4" d="M150.5,275.1c-0.2,0-0.3-0.1-0.4-0.3l-7.1-46.6c0-0.2,0.1-0.4,0.3-0.4c0.2,0,0.4,0.1,0.4,0.3l7.1,46.6
		C150.9,274.9,150.8,275.1,150.5,275.1C150.6,275.1,150.6,275.1,150.5,275.1L150.5,275.1z"/>
	<path class="st20" d="M170.6,282.4c-2.7,0.4-4.6,2.5-7.6,6.2c-2.7,3.3-5.2,7.1-5.2,7.1s-4.6-8.2-5-10c-0.4-1.8,0.4-2.3,0.8-4.8
		c0.5-2.5-1.1-3.5-1.1-3.5l0.2,1.1c-0.2,0.9-0.9,1.6-1.8,1.9c0,0-1.3,0-1.5-1.8l-0.4-2.7c0,0-1.7,0.1-1.9,4.2
		c-0.1,3.2,0.6,4.7,1.2,6.8c0.5,1.8,2.8,10.6,5.4,14.9c1,1.7,2.4,3.6,5.6,0.9c3.2-2.7,10.2-10.2,10.2-10.2S173.2,289.2,170.6,282.4z
		"/>
	<path class="st4" d="M171.5,282.1c-2.3,0.3-4.4,1.4-5.9,3.1c-2,2.2-6.2,7.8-6.2,7.8s0.2,4,4.6,6l6.6-6.5c1.4-1.5,2.2-3.5,2.4-5.5
		C173.2,282.8,171.5,282.1,171.5,282.1z"/>
	<path class="st21" d="M148,267.4c0.4,0.6,0.7,1.2,0.9,1.9c0.2,0.6,0.2,2.4,2.4,2.6c0,0-0.2-2.7-1.1-3.7
		C149.6,267.7,148.8,267.4,148,267.4z"/>
	<path class="st20" d="M151.5,272.1c-2.2-1.1-1.6-2.3-2.8-3.6c-1-1.2-1.1-1.6-1-2c0.1-0.3,0.4-0.3,0.9-0.2c1.4,0.3,2.3,1.8,3,2.9
		L151.5,272.1z"/>
	<path class="st21" d="M147.2,270.7c0.1-0.1,0.1-0.2,0.2-0.3c0.2,0.2,0.4,0.2,0.7,0.2c0.3-0.1,0.5-0.4,0.5-0.7
		c0,0.4-0.2,0.7-0.5,0.8c-0.6,0.2-0.6-0.1-0.6-0.1c0,0.1-0.1,0.2-0.1,0.3"/>
</g>
<g>
	<path class="st23" d="M167.7,240.6h-0.1c-0.1,0-0.1-0.1-0.1-0.2v-48.5c0-0.1,0-0.2,0.1-0.2l39-22.5c0,0,0.1,0,0.2,0
		c0.1,0,0.1,0.1,0.1,0.2v48.5c0,0.1,0,0.2-0.1,0.2l-39,22.5H167.7z M167.9,191.9v47.9l38.5-22.2v-47.9L167.9,191.9z"/>
	<path class="st5" d="M170.7,218.1h-0.1c-0.1,0-0.1-0.1-0.1-0.2v-24.4c0-0.1,0-0.2,0.1-0.2l33-19.1c0,0,0.1,0,0.2,0
		c0.1,0,0.1,0.1,0.1,0.2v24.3c0,0.1,0,0.2-0.1,0.2l-33,19.1L170.7,218.1z M170.9,193.6v23.6l32.4-18.7v-23.6L170.9,193.6z"/>
	<path class="st5" d="M171,221.1l8.3-4.9c0.2-0.1,0.3,0,0.3,0.2v1c0,0.2-0.1,0.5-0.3,0.6L171,223c-0.2,0.1-0.3,0-0.3-0.2v-1
		C170.7,221.5,170.8,221.2,171,221.1z"/>
	<path class="st23" d="M171,224.6l31.4-18c0.2-0.1,0.3,0,0.3,0.2v1c0,0.2-0.1,0.5-0.3,0.6l-31.4,18c-0.2,0.1-0.3,0-0.3-0.2v-1
		C170.7,224.9,170.8,224.7,171,224.6z"/>
	<path class="st23" d="M171,231.5l31.4-18c0.2-0.1,0.3,0,0.3,0.2v1c0,0.2-0.1,0.5-0.3,0.6l-31.4,18c-0.2,0.1-0.3,0-0.3-0.2v-1
		C170.7,231.9,170.8,231.6,171,231.5z"/>
	<path class="st23" d="M171,228.1l31.4-18c0.2-0.1,0.3,0,0.3,0.2v1c0,0.2-0.1,0.5-0.3,0.6l-31.4,18c-0.2,0.1-0.3,0-0.3-0.2v-1
		C170.7,228.4,170.8,228.2,171,228.1z"/>
	<path class="st5" d="M203.7,199.1L203.7,199.1l-11.5-1.8c-0.1,0-0.2-0.2-0.2-0.3c0.1-0.1,0.2-0.2,0.3-0.2l0,0l11.4,1.8
		c0.1,0,0.2,0.2,0.2,0.3C203.9,199,203.8,199.1,203.7,199.1L203.7,199.1z"/>
	<path class="st5" d="M182.2,195.7L182.2,195.7l-11.5-1.8c-0.1-0.1-0.2-0.2-0.2-0.3c0-0.1,0.1-0.2,0.2-0.2l0,0l11.5,1.8
		c0.1,0,0.2,0.2,0.2,0.3C182.5,195.6,182.4,195.7,182.2,195.7L182.2,195.7z"/>
	<path class="st5" d="M170.7,218.1h-0.1c-0.1-0.1-0.1-0.2,0-0.3l0,0l11.4-15c0.1-0.1,0.2-0.1,0.3,0c0.1,0.1,0.1,0.2,0,0.3l0,0
		L170.9,218C170.8,218,170.8,218.1,170.7,218.1z"/>
	<path class="st5" d="M192.2,189.8c0-0.1-0.1-0.1-0.1-0.1c-0.1-0.1-0.1-0.2,0-0.3l11.5-15.1c0-0.1,0.2-0.1,0.3,0
		c0.1,0,0.1,0.2,0,0.3l-11.5,15.1C192.4,189.8,192.3,189.9,192.2,189.8z"/>
	<path class="st5" d="M187.2,194.4c-0.8,0.6-1.3,1.5-1.3,2.5c0,1,0.5,1.5,1.2,1.2c0.8-0.6,1.2-1.5,1.2-2.5
		C188.4,194.6,187.8,194,187.2,194.4z"/>
	<path class="st5" d="M189.9,191.1l-0.9,0.6v-0.5c0-0.3-0.1-0.5-0.3-0.3l-2.7,1.5c-0.2,0.2-0.3,0.5-0.3,0.8v0.5l-0.9,0.6
		c-0.5,0.5-0.7,1-0.7,1.6v4.9c0,0.6,0.2,0.9,0.7,0.7l5.2-3c0.5-0.5,0.7-1,0.7-1.6V192C190.6,191.3,190.2,191.1,189.9,191.1z
		 M187.1,199.1c-1,0.6-1.8-0.2-1.8-1.7s0.7-2.9,1.8-3.8c1-0.6,1.8,0.2,1.8,1.7C189.1,196.8,188.4,198.1,187.1,199.1z"/>
	<path class="st23" d="M215.7,212.9h-0.1c-0.1,0-0.1-0.1-0.1-0.2v-48.5c0-0.1,0-0.2,0.1-0.2l39-22.5c0-0.1,0.1-0.1,0.2,0
		c0.1,0,0.1,0.1,0.1,0.2v48.5c0,0.1,0,0.2-0.1,0.2l-39,22.5C215.7,212.9,215.7,212.9,215.7,212.9z M216,164.2V212l38.5-22.2V142
		L216,164.2z"/>
	<path class="st15" d="M218.7,190.4h-0.1c-0.1,0-0.1-0.1-0.1-0.2v-24.4c0-0.1,0-0.2,0.1-0.2l33-19.1c0-0.1,0.1-0.1,0.2,0
		c0.1,0,0.1,0.1,0.1,0.2V171c0,0.1,0,0.2-0.1,0.2l-33,19.1C218.7,190.3,218.7,190.4,218.7,190.4z M219,165.9v23.6l32.4-18.7v-23.6
		L219,165.9z"/>
	<path class="st15" d="M219.2,193.4l8.3-4.9c0-0.1,0.1-0.1,0.2,0c0,0,0,0,0,0.1v1c0,0.2-0.1,0.5-0.3,0.6l-8.3,4.9
		c-0.2,0.1-0.3,0-0.3-0.2v-1C218.7,193.8,218.8,193.5,219.2,193.4z"/>
	<path class="st23" d="M219.2,196.9l31.4-18c0-0.1,0.1-0.1,0.2,0c0,0,0,0,0,0.1v1c0,0.2-0.1,0.5-0.3,0.6l-31.4,18
		c-0.2,0.1-0.3,0-0.3-0.2v-1C218.7,197.2,218.8,197,219.2,196.9z"/>
	<path class="st23" d="M219.1,203.8l31.4-18c0.2-0.1,0.3,0,0.3,0.2v1c0,0.2-0.1,0.5-0.3,0.6l-31.4,18c-0.2,0-0.3,0-0.3-0.2v-1
		C218.7,204.1,218.8,203.9,219.1,203.8z"/>
	<path class="st23" d="M219.1,200.2l31.4-18c0.2,0,0.3,0,0.3,0.2v1c0,0.2-0.1,0.5-0.3,0.6l-31.4,18c-0.2,0.1-0.3,0-0.3-0.2v-1
		C218.7,200.7,218.8,200.5,219.1,200.2z"/>
	<path class="st15" d="M235.1,163.2c-2.7,1.7-4.4,4.7-4.5,7.9c0,2.9,2,4,4.5,2.7c2.7-1.7,4.4-4.7,4.5-7.9
		C239.6,162.9,237.7,161.8,235.1,163.2z M237.6,167.4l-3.3,4.2c-0.3,0.3-0.6,0.2-0.6-0.2v-3.8c0-0.6,0.5-0.9,0.9-0.9l0,0l2.7,0.1
		C237.8,166.7,237.9,167.1,237.6,167.4L237.6,167.4z"/>
</g>
<g id="freepik--Camera--inject-2">
	<path class="st24" d="M321,183c0,14.1-9.9,31.3-22.1,38.4c-5.1,2.9-9.8,3.7-13.5,2.5c-2.9-2.6-4.6-7.1-4.6-12.9
		c0-14.1,9.9-31.3,22.1-38.4c5.1-2.9,9.8-3.6,13.5-2.5C319.3,172.7,321,177.1,321,183z"/>
	<path class="st24" d="M325,185.3c0,14.1-9.9,31.2-22.1,38.3c-6,3.5-11.5,3.9-15.5,1.7l-0.3-0.2c-0.6-0.4-1.2-0.8-1.7-1.3
		c-2.9-2.6-4.6-7.1-4.6-12.9c0-14.1,9.9-31.3,22.1-38.4c5.1-2.9,9.8-3.6,13.5-2.5c0.6,0.2,1.2,0.4,1.8,0.7l0.1,0.1l0.6,0.4
		C322.7,173.7,325,178.5,325,185.3z"/>
	<path class="st3" d="M314.8,168.9L314.8,168.9l-0.7-0.4c-4-2.1-9.3-1.7-15.3,1.8c-12.2,7-22.1,24.2-22.1,38.3c0,2.3,0.3,4.7,1,6.9
		c0.7,2.4,2.1,4.6,4,6.3c0.4,0.4,0.9,0.7,1.4,1h0.1l0.1,0.1l0.4,0.2l3.5,2c-0.6-0.4-1.2-0.8-1.7-1.3c-2.9-2.6-4.6-7.1-4.6-12.9
		c0-14.1,9.9-31.3,22.1-38.4c5.1-2.9,9.8-3.6,13.5-2.5c0.6,0.2,1.2,0.4,1.8,0.7L314.8,168.9z"/>
	<path class="st2" d="M281.7,221.8c0.4,0.4,0.9,0.7,1.4,1l-7.8-4.5h-0.1c-3.9-2.3-6.4-7.3-6.4-14.2c0-14.1,9.9-31.3,22.1-38.4
		c3-1.8,6.4-2.9,9.9-3c2,0,4,0.5,5.8,1.5l7.7,4.4c-4-2.1-9.3-1.7-15.3,1.8c-12.3,7.1-22.1,24.2-22.1,38.3c0,2.3,0.3,4.7,1,6.9
		C278.4,217.9,279.8,220.1,281.7,221.8z"/>
	<path class="st2" d="M349.1,199.3c0,14.1-9.9,31.2-22.1,38.4c-3,1.9-6.4,2.9-9.9,3c-2,0-4-0.5-5.7-1.5l0,0l-24-13.9l-0.3-0.2
		c-0.6-0.4-1.2-0.8-1.7-1.3c-2.9-2.6-4.6-7.1-4.6-12.9c0-14.1,9.9-31.3,22.1-38.4c5.1-2.9,9.8-3.6,13.5-2.5c0.6,0.2,1.2,0.4,1.8,0.7
		l0.1,0.1l0.6,0.4l23.7,13.7l0,0C346.7,187.2,349.1,192.2,349.1,199.3z"/>
	<path class="st2" d="M336.1,274c-4.7,2-11.4,1.7-15.7-0.7l-15-8.7c-5.1-3.3-8.2-8.8-8.6-14.8v-40.5c0-1.1,0.1-2.1,0.4-3.2
		c0.1-0.4,0.2-0.7,0.3-1.1v-0.1c0.1-0.3,0.2-0.6,0.3-1c0.1-0.3,0.3-0.8,0.5-1.3l0.4-0.9l0.5-0.8l0.1-0.2l32.2,18.6
		c-1.5,2.6-2.4,5.5-2.5,8.4v40.5C329,273.2,332.1,275.5,336.1,274z"/>
	<path class="st4" d="M417.5,176.7v40.5c-0.3,6-3.5,11.6-8.6,14.8l-71.3,41.2l-0.2,0.1c-0.1,0.1-0.3,0.2-0.4,0.2l-0.5,0.2l-0.4,0.2
		c-4,1.5-7.1-0.8-7.1-5.7v-40.5c0.3-6,3.5-11.5,8.6-14.8c8.2-4.9,13.8-13.2,15.2-22.7c0.3-1.5,0.8-2.9,1.6-4.2
		c0.8-1.3,1.8-2.4,3.1-3.2l15.5-9c0.9-0.6,2.1-0.7,3.2-0.3l0.3,0.2l0,0c0.8,0.6,1.5,1.4,1.9,2.4c2.6,5.3,9.1,7.5,14.4,4.8
		c0,0,0,0,0,0l0.6-0.3l15.6-9c4.5-2.6,8.2-0.7,8.5,4.2C417.5,176.2,417.5,176.4,417.5,176.7z"/>
	<path class="st4" d="M337.1,176.1L337.1,176.1l-14.9-8.6c-0.8,1.3-1.3,2.7-1.6,4.2c-1.4,9.4-7,17.7-15.2,22.6
		c-2.5,1.6-4.6,3.8-6.1,6.4l32.2,18.6c1.4-2.6,3.5-4.8,6.1-6.4c8.2-4.9,13.8-13.3,15.2-22.7c0.3-1.5,0.8-2.9,1.6-4.2L337.1,176.1z"
		/>
	<path class="st4" d="M408.9,161.8l-15-8.7c-5.4-2.7-11.8-2.7-17.1,0l-15.6,9c-0.9,0.5-1.9,0.9-2.9,1.2l0.5,0.3l0,0l17.4,10.1
		l0.3,0.2l0,0c0.8,0.6,1.5,1.4,1.9,2.4c2.6,5.3,9.1,7.5,14.4,4.8c0,0,0,0,0,0l0.6-0.3l15.6-9c4.5-2.6,8.2-0.7,8.5,4.2
		C416.9,170.2,413.8,165,408.9,161.8z"/>
	<path class="st3" d="M358.7,163.6L358.7,163.6l-0.5-0.3l-14-8.1l-0.3-0.2c-1-0.5-2.2-0.4-3.2,0.3l-15.6,9c-1.3,0.8-2.3,1.9-3.1,3.2
		l14.8,8.6l0,0l17.3,10c0.8-1.3,1.8-2.4,3.1-3.2l15.5-9c0.9-0.6,2.1-0.7,3.2-0.3L358.7,163.6z"/>
	<path class="st1" d="M360.4,185.8l11.8-6.8c1.2-0.7,2.2-0.1,2.2,1.2v6.7c-0.1,1.5-0.9,2.9-2.2,3.7l-11.8,6.8
		c-1.2,0.7-2.2,0.1-2.2-1.2v-6.7C358.3,188,359.1,186.6,360.4,185.8z"/>
	<path class="st2" d="M316,197.5c-1.7,1-1.5,2.6,0.4,3.7l5.2,3c2,1.1,4.4,1.2,6.4,0.2c1.7-1,1.5-2.6-0.4-3.7l-5.2-3
		C320.4,196.7,318,196.6,316,197.5z"/>
	<path class="st3" d="M316,196.3c-1.7,1-1.5,2.6,0.4,3.7l5.2,3c2,1.1,4.4,1.2,6.4,0.2c1.7-1,1.5-2.6-0.4-3.7l-5.2-3
		C320.4,195.4,318,195.3,316,196.3z"/>
	<path class="st2" d="M386.7,171.1l-1.5-0.4l-3.6-2c-1.5-0.8-3.3-0.9-4.9-0.2h-0.1l-0.8-0.2v1.4l0,0c0.1,0.7,0.5,1.3,1.2,1.6
		l3.9,2.3c1.5,0.8,3.3,0.9,4.9,0.2c0.5-0.2,0.8-0.7,0.8-1.2L386.7,171.1L386.7,171.1z"/>
	<path class="st3" d="M376.8,167.1c-1.3,0.7-1.1,2,0.3,2.8l3.9,2.3c1.5,0.8,3.3,0.9,4.9,0.2c1.2-0.7,1.1-2-0.3-2.8l-3.9-2.3
		C380.1,166.5,378.3,166.4,376.8,167.1z"/>
	<path class="st2" d="M400.5,159.4c-4.5-2.2-9.7-2.2-14.2,0h-3v4.2c0,1.5,1,3,3,4.1c4.5,2.3,9.8,2.3,14.3,0c2-1.1,3-2.6,3-4.1v-4.2
		H400.5z"/>
	<path class="st3" d="M386.2,155.2c-3.9,2.3-3.9,6,0,8.3c4.5,2.3,9.8,2.3,14.3,0c3.9-2.3,3.9-6,0-8.3C396,153,390.7,153,386.2,155.2
		z"/>
	<path class="st2" d="M371.2,164.4c-1.2-0.6-2.7-0.6-3.9,0h-0.9v1.2c0,0.5,0.4,1,0.8,1.2c1.3,0.6,2.8,0.6,4,0
		c0.5-0.2,0.8-0.7,0.8-1.2v-1.2L371.2,164.4z"/>
	<path class="st2" d="M380.1,161v-1.2h-0.9c-1.2-0.6-2.7-0.6-3.9,0h-0.9v1.2c0,0.5,0.4,1,0.8,1.2c1.3,0.6,2.8,0.6,4,0
		C379.8,162,380.1,161.5,380.1,161z"/>
	<path class="st3" d="M367.2,163.3c-0.6,0.2-1,0.9-0.8,1.6c0.1,0.4,0.4,0.6,0.8,0.8c1.3,0.6,2.8,0.6,4,0c0.6-0.2,1-0.9,0.8-1.6
		c-0.1-0.4-0.4-0.6-0.8-0.8C370,162.6,368.5,162.6,367.2,163.3z"/>
	<path class="st3" d="M375.3,158.6c-0.6,0.2-1,0.9-0.8,1.6c0.1,0.4,0.4,0.6,0.8,0.8c1.3,0.6,2.8,0.6,4,0c0.6-0.2,1-0.9,0.8-1.6
		c-0.1-0.4-0.4-0.6-0.8-0.8C378,158,376.6,158,375.3,158.6z"/>
	<path class="st2" d="M406.7,207.2c0.8-1.4,1.2-2.9,1.2-4.5c0.1-1.2-0.4-2.4-1.2-3.2l3.3-5.7c1.5,1.1,2.3,3.1,2.3,5.8
		c-0.1,3.2-1,6.4-2.6,9.2L406.7,207.2z"/>
	<path class="st2" d="M398.2,217.9c-0.7,0-1.3-0.1-1.9-0.4l3.3-5.6c0.3,0.1,0.7,0.2,1,0.2c0.8,0,1.7-0.3,2.4-0.7
		c1.3-0.8,2.5-1.9,3.3-3.3l2.9,1.7c-1.6,2.8-3.9,5.2-6.7,6.9C401.2,217.4,399.7,217.9,398.2,217.9z"/>
	<path class="st2" d="M395.4,217c-1.5-1.1-2.3-3.1-2.3-5.8c0.1-3.2,1-6.4,2.6-9.2l2.9,1.7c-0.8,1.4-1.2,2.9-1.2,4.5
		c-0.1,1.2,0.4,2.4,1.2,3.2L395.4,217z"/>
	<path class="st2" d="M407,203c-0.2,3-1.8,5.8-4.3,7.4c-1.1,1-2.7,0.9-3.7-0.2c-0.5-0.6-0.8-1.5-0.6-2.3c0.2-3,1.8-5.8,4.3-7.4
		c1.1-1,2.7-0.8,3.7,0.2C406.9,201.3,407.2,202.2,407,203L407,203z"/>
	<path class="st2" d="M396.2,201.2c1.6-2.8,3.9-5.2,6.7-6.9c1.3-0.8,2.7-1.2,4.2-1.3c0.7,0,1.3,0.1,1.9,0.4l-3.3,5.7
		c-0.3-0.1-0.7-0.2-1-0.2c-0.8,0-1.7,0.3-2.4,0.7c-1.3,0.8-2.5,1.9-3.3,3.3L396.2,201.2z"/>
	<path class="st2" d="M393.5,226.2l2.3-1.3c0.5-0.3,0.9-0.1,0.9,0.5v2.7c0,0.6-0.3,1.2-0.9,1.5l-2.3,1.3c-0.5,0.3-0.9,0.1-0.9-0.5
		v-2.7C392.7,227.1,393,226.5,393.5,226.2z"/>
	<path class="st2" d="M409.6,216.9l2.3-1.3c0.2-0.2,0.6-0.1,0.8,0.1c0.1,0.1,0.1,0.3,0.1,0.4v2.6c0,0.6-0.3,1.2-0.9,1.5l-2.3,1.3
		c-0.2,0.2-0.6,0.2-0.7-0.1c-0.1-0.1-0.1-0.3-0.1-0.4v-2.7C408.8,217.8,409.1,217.2,409.6,216.9z"/>
	<path class="st2" d="M393.5,189.1l2.3-1.3c0.2-0.2,0.6-0.2,0.7,0.1c0.1,0.1,0.1,0.3,0.1,0.4v2.7c0,0.6-0.3,1.2-0.9,1.5l-2.3,1.3
		c-0.5,0.3-0.9,0.1-0.9-0.5v-2.7C392.7,189.9,393,189.4,393.5,189.1z"/>
	<path class="st2" d="M409.6,179.8l2.3-1.3c0.5-0.3,0.9-0.1,0.9,0.5v2.7c0,0.6-0.3,1.2-0.9,1.5l-2.3,1.3c-0.5,0.3-0.9,0.1-0.9-0.5
		v-2.7C408.8,180.7,409.1,180.1,409.6,179.8z"/>
	<path class="st7" d="M385.3,197.6v35.8c-0.1,1.8-1.1,3.5-2.6,4.5l-43.1,24.9c-1.4,0.8-2.6,0.2-2.6-1.5v-35.9
		c0.1-1.8,1.1-3.5,2.6-4.4l43.1-24.9C384.2,195.3,385.3,196,385.3,197.6z"/>
	<path class="st24" d="M342.1,233.4c4-2.6,6.5-7,6.8-11.8c0-2.4-0.9-4-2.4-4.6l-6.8,3.9c-1.5,1-2.5,2.6-2.6,4.4v8.4
		C338.3,234.6,340.1,234.6,342.1,233.4z"/>
	<path class="st6" d="M342.1,233.4c4-2.6,6.5-7,6.8-11.8c0-2.4-0.9-4-2.4-4.6l-6.8,3.9c-1.5,1-2.5,2.6-2.6,4.4v8.4
		C338.3,234.6,340.1,234.6,342.1,233.4z"/>
	<path class="st25" d="M378.5,212.5c-0.3-0.5-1-0.7-1.5-0.4c-0.2,0.1-0.4,0.4-0.5,0.6l-11.2,23.7l-9.9-5.9c-0.9-0.6-2.1-0.3-2.7,0.7
		l0,0l-15.6,26.2v4c0,1.6,1.2,2.3,2.6,1.5l43.1-24.9c1.5-1,2.5-2.6,2.6-4.4v-11.3L378.5,212.5z"/>
	<polyline class="st26" points="345.1,222.5 341.1,224.8 341.1,229.5 	"/>
	<polyline class="st26" points="341.1,252.7 341.1,257.3 345.1,255 	"/>
	<polyline class="st26" points="377.3,203.9 381.3,201.6 381.3,206.2 	"/>
	<polyline class="st26" points="381.3,229.5 381.3,234.1 377.3,236.4 	"/>
	<path class="st3" d="M407.5,207.6c0.8-1.4,1.2-2.9,1.2-4.5c0.1-1.2-0.4-2.4-1.2-3.2l3.3-5.6c1.5,1.1,2.3,3.1,2.3,5.8
		c-0.1,3.2-1,6.4-2.6,9.2L407.5,207.6z"/>
	<path class="st3" d="M399,218.4c-0.7,0-1.3-0.1-1.9-0.4l3.3-5.7c0.3,0.1,0.7,0.2,1,0.2c0.8,0,1.7-0.3,2.4-0.7
		c1.3-0.8,2.5-1.9,3.3-3.3l2.9,1.7c-1.6,2.8-3.9,5.2-6.7,6.9C401.9,217.9,400.5,218.3,399,218.4z"/>
	<path class="st3" d="M396.2,217.5c-1.5-1.1-2.3-3.1-2.3-5.8c0.1-3.2,1-6.4,2.6-9.2l2.9,1.7c-0.8,1.4-1.2,2.9-1.2,4.5
		c-0.1,1.2,0.4,2.4,1.2,3.2L396.2,217.5z"/>
	<path class="st3" d="M407.7,203.4c-0.2,3-1.8,5.8-4.3,7.4c-1.1,1-2.7,0.8-3.7-0.2c-0.5-0.6-0.8-1.4-0.6-2.2c0.1-1.5,0.5-3,1.3-4.2
		c0.7-1.3,1.8-2.4,3-3.2c1.1-1,2.7-0.8,3.7,0.2C407.7,201.8,407.9,202.6,407.7,203.4L407.7,203.4z"/>
	<path class="st3" d="M397,201.6c1.6-2.8,3.9-5.2,6.7-6.9c1.3-0.8,2.7-1.2,4.2-1.3c0.7,0,1.3,0.1,1.9,0.4l-3.3,5.7
		c-0.3-0.1-0.7-0.2-1-0.2c-0.8,0-1.7,0.3-2.4,0.7c-1.3,0.8-2.5,1.9-3.3,3.3L397,201.6z"/>
	<path class="st3" d="M394.2,226.6l2.3-1.3c0.2-0.2,0.6-0.2,0.7,0.1c0.1,0.1,0.1,0.3,0.1,0.4v2.7c0,0.6-0.3,1.2-0.9,1.5l-2.3,1.3
		c-0.2,0.2-0.6,0.2-0.7-0.1c-0.1-0.1-0.1-0.3-0.1-0.4v-2.7C393.4,227.5,393.7,227,394.2,226.6z"/>
	<path class="st3" d="M410.3,217.3l2.3-1.3c0.2-0.2,0.6-0.2,0.7,0.1c0.1,0.1,0.1,0.3,0.1,0.4v2.7c0,0.6-0.3,1.2-0.9,1.5l-2.3,1.3
		c-0.2,0.2-0.6,0.1-0.8-0.1c-0.1-0.1-0.1-0.3-0.1-0.4v-2.7C409.5,218.2,409.8,217.7,410.3,217.3z"/>
	<path class="st3" d="M394.2,189.5l2.3-1.3c0.2-0.2,0.6-0.2,0.7,0.1c0.1,0.1,0.1,0.3,0.1,0.4v2.7c0,0.6-0.3,1.2-0.9,1.5l-2.3,1.3
		c-0.2,0.2-0.6,0.2-0.7-0.1c-0.1-0.1-0.1-0.3-0.1-0.4V191C393.4,190.4,393.7,189.8,394.2,189.5z"/>
	<path class="st3" d="M410.3,180.2l2.3-1.3c0.5-0.3,0.9-0.1,0.9,0.5v2.7c0,0.6-0.3,1.2-0.9,1.5l-2.3,1.3c-0.5,0.3-0.9,0.1-0.9-0.5
		v-2.7C409.5,181.1,409.8,180.5,410.3,180.2z"/>
</g>
<g id="freepik--Ladder--inject-2">
	<path class="st4" d="M448.5,193.1l-19.9,54.1l0,0c-0.1,0.2-0.2,0.3-0.4,0.4c-0.6,0.3-1.2,0.3-1.8,0c-0.2-0.1-0.3-0.3-0.4-0.5
		c0,0,0-0.1,0-0.1c0-0.1,0-0.3,0.1-0.4l19.9-54.4c0.2-0.7,1-1,1.6-0.8C448.4,191.7,448.8,192.5,448.5,193.1L448.5,193.1L448.5,193.1
		z"/>
	<rect x="430.3" y="224.6" transform="matrix(0.5 -0.866 0.866 0.5 11.4963 492.1092)" class="st4" width="3.3" height="23"/>
	<rect x="444.8" y="216.2" transform="matrix(0.5 -0.866 0.866 0.5 25.9922 500.4753)" class="st4" width="3.3" height="23"/>
	<path class="st3" d="M432.3,189.4l10.6-6.1c1.3-0.9,3-0.5,3.9,0.8c0.2,0.3,0.4,0.7,0.4,1.1l17.6,82.5c0,0.1,0,0.1,0,0.2
		c0,0.1,0,0.1,0,0.2c-0.1,0.2-0.2,0.4-0.4,0.4c-0.6,0.3-1.2,0.3-1.8,0c-0.2-0.1-0.3-0.2-0.4-0.4c0,0,0-0.1,0-0.1l-17.6-82.3
		c0-0.1-0.1-0.2-0.2-0.3c-0.1,0-0.2,0-0.3,0.1l-10.6,6.1"/>
	<path class="st15" d="M449.7,268.3l-6.5-3.7c-0.2-0.1-0.4-0.4-0.4-0.7v-0.2c0-0.3,0.2-0.5,0.4-0.7l15.5-9c0.2-0.1,0.5-0.1,0.8,0
		l6.5,3.7c0.2,0.1,0.4,0.4,0.4,0.7v0.2c0,0.3-0.2,0.5-0.4,0.7l-15.5,9C450.2,268.4,449.9,268.4,449.7,268.3z"/>
	<path class="st8" d="M442.9,263.4c-0.1,0.1-0.1,0.2-0.1,0.4v0.2c0,0.3,0.2,0.5,0.4,0.7l6.5,3.7c0.1,0.1,0.3,0.1,0.4,0.1v-0.9
		L442.9,263.4z"/>
	<path class="st27" d="M450,267.5v0.9c0.1,0,0.3,0,0.4-0.1l7.8-4.5l7.8-4.5c0.2-0.1,0.4-0.4,0.4-0.7v-0.2c0-0.1,0-0.3-0.1-0.4
		L450,267.5z"/>
	<path class="st15" d="M446.8,255.2l-6.5-3.7c-0.2-0.2-0.4-0.4-0.4-0.7v-0.2c0-0.3,0.2-0.5,0.4-0.7l15.5-9c0.2-0.1,0.5-0.1,0.8,0
		l6.5,3.7c0.2,0.2,0.4,0.4,0.4,0.7v0.2c0,0.3-0.2,0.5-0.4,0.7l-15.5,9C447.4,255.3,447.1,255.3,446.8,255.2z"/>
	<path class="st8" d="M440.1,250.2c-0.1,0.1-0.1,0.2-0.1,0.4v0.2c0,0.3,0.2,0.5,0.4,0.7l6.5,3.7c0.1,0.1,0.2,0.1,0.4,0.1v-0.9
		L440.1,250.2z"/>
	<path class="st27" d="M447.2,254.3v0.9c0.1,0,0.3,0,0.4-0.1l7.8-4.5l7.8-4.5c0.2-0.2,0.4-0.4,0.4-0.7v-0.2c0-0.1,0-0.3-0.1-0.4
		L447.2,254.3z"/>
	<path class="st15" d="M444,242l-6.5-3.7c-0.2-0.1-0.4-0.4-0.4-0.7v-0.2c0-0.3,0.2-0.5,0.4-0.7l15.5-9c0.2-0.1,0.5-0.1,0.8,0
		l6.5,3.7c0.2,0.1,0.4,0.4,0.4,0.7v0.2c0,0.3-0.2,0.5-0.4,0.7l-15.5,9C444.6,242.2,444.3,242.2,444,242z"/>
	<path class="st8" d="M437.3,237.1c-0.1,0.1-0.1,0.2-0.1,0.4v0.2c0,0.3,0.2,0.5,0.4,0.7l3.2,1.9l3.2,1.9c0.1,0.1,0.3,0.1,0.4,0.1
		v-0.9L437.3,237.1z"/>
	<path class="st27" d="M444.4,241.2v0.9c0.1,0,0.3,0,0.4-0.1l7.8-4.5l7.8-4.5c0.2-0.1,0.4-0.4,0.4-0.7v-0.2c0-0.1,0-0.3-0.1-0.4
		L444.4,241.2z"/>
	<path class="st15" d="M441.2,228.9l-6.5-3.7c-0.2-0.1-0.4-0.4-0.4-0.7v-0.2c0-0.3,0.2-0.5,0.4-0.7l15.5-9c0.2-0.1,0.5-0.1,0.8,0
		l6.5,3.7c0.2,0.1,0.4,0.4,0.4,0.7v0.2c0,0.3-0.2,0.5-0.4,0.7l-15.5,9C441.8,229,441.5,229,441.2,228.9z"/>
	<path class="st27" d="M441.6,228.1v0.9c0.1,0,0.3,0,0.4-0.1l7.8-4.5l7.8-4.5c0.2-0.1,0.4-0.4,0.4-0.7v-0.2c0-0.1,0-0.3-0.1-0.4
		L441.6,228.1z"/>
	<path class="st8" d="M434.5,224c-0.1,0.1-0.1,0.2-0.1,0.4v0.2c0,0.3,0.2,0.5,0.4,0.7l6.5,3.7c0.1,0.1,0.3,0.1,0.4,0.1v-0.9
		L434.5,224z"/>
	<path class="st15" d="M438.4,215.8l-10.8-6.2c-0.2-0.1-0.4-0.4-0.4-0.7v-0.2c0-0.3,0.2-0.5,0.4-0.7l15.5-9c0.2-0.1,0.5-0.1,0.8,0
		l10.8,6.2c0.2,0.2,0.4,0.4,0.4,0.7v0.2c0,0.3-0.2,0.5-0.4,0.7l-15.5,9C439,215.9,438.7,215.9,438.4,215.8z"/>
	<path class="st27" d="M438.8,215v0.9c0.1,0,0.3,0,0.4-0.1l7.8-4.5l7.8-4.5c0.2-0.2,0.4-0.4,0.4-0.7V206c0-0.1,0-0.3-0.1-0.4
		L438.8,215z"/>
	<path class="st8" d="M427.4,208.4c-0.1,0.1-0.1,0.2-0.1,0.4v0.2c0,0.3,0.2,0.5,0.4,0.7l10.8,6.2c0.1,0.1,0.3,0.1,0.4,0.1V215
		L427.4,208.4z"/>
	<path class="st4" d="M434,201.5l-19.9,54l0,0l0,0.1c-0.1,0.1-0.2,0.2-0.3,0.3c-0.6,0.3-1.2,0.3-1.8,0c-0.2-0.1-0.3-0.2-0.4-0.4
		c0,0,0-0.1,0-0.1c0-0.1,0-0.3,0.1-0.4l19.9-54.4c0.3-0.7,1-1,1.7-0.7C433.9,200.2,434.2,200.9,434,201.5L434,201.5z"/>
	<path class="st3" d="M433.6,191.6c-0.6,0.4-1,1.2-0.9,1.9l17.6,82.5c0,0.1,0,0.1,0,0.2v0.1c-0.1,0.2-0.2,0.4-0.4,0.5
		c-0.6,0.3-1.2,0.3-1.8,0c-0.2-0.1-0.3-0.2-0.4-0.4l0,0v-0.1l-17.6-82.3c-0.3-1.8,0.5-3.7,2.1-4.7"/>
</g>
<g id="Layer_6">
	<path class="st28" d="M324.3,106.9c1.8,0,3.6,0.2,5.2,0.7c5.2-15.3,19.8-26.3,36.9-26.3c13.8,0,25.9,7.2,32.9,18
		c3.8-1.8,8-2.8,12.5-2.8c16,0,29.1,13,29.1,29.1H303.4C304.6,115,313.5,106.9,324.3,106.9z"/>
	<path class="st28" d="M14.7,123.9c0-13.2,10.8-23.8,24-23.8c5.7,0,10.9,2,15.1,5.3c5.8-5.6,13.7-9.1,22.5-9.1
		c10,0,18.9,4.5,24.8,11.6c2.8-2,6.3-3.2,10-3.2c9.6,0,17.4,7.7,17.4,17.2c0,0.7,0,1.3-0.1,2L14.7,123.9L14.7,123.9z"/>
</g>
</svg>
