<svg xmlns="http://www.w3.org/2000/svg" width="171.311" height="152.674" viewBox="0 0 171.311 152.674">
  <g id="web-05" transform="translate(-57.874 -52.968)">
    <g id="Group_799" data-name="Group 799" transform="translate(60.65 56.97)">
      <g id="Group_795" data-name="Group 795" transform="translate(5.042 63.399)">
        <path id="Path_178" data-name="Path 178" d="M211.022,218.463H82.111A15.042,15.042,0,0,1,67.07,203.422V137.69H226.062v65.732A15.042,15.042,0,0,1,211.022,218.463Z" transform="translate(-67.07 -137.69)" fill="none" stroke="#00a19a" stroke-miterlimit="10" stroke-width="9"/>
      </g>
      <g id="Group_796" data-name="Group 796" transform="translate(1.751 0.526)">
        <path id="Path_179" data-name="Path 179" d="M71.826,86.049,205.355,57.883A11.262,11.262,0,0,1,218.7,66.578L220.922,77.1,65.346,109.925,63.123,99.4A11.271,11.271,0,0,1,71.826,86.049Z" transform="translate(-62.88 -57.64)" fill="none" stroke="#00a19a" stroke-miterlimit="10" stroke-width="9"/>
      </g>
      <g id="Group_797" data-name="Group 797" transform="translate(5.035 61.608)">
        <path id="Path_180" data-name="Path 180" d="M102.11,135.41l11.852,22.023h9.716L111.833,135.41Z" transform="translate(-74.581 -135.41)" fill="none"/>
        <path id="Path_181" data-name="Path 181" d="M215.8,135.41l11.844,22.023h9.723L225.523,135.41Z" transform="translate(-98.977 -135.41)" fill="none"/>
        <path id="Path_182" data-name="Path 182" d="M124.85,135.41l11.844,22.023h9.724L134.573,135.41Z" transform="translate(-79.461 -135.41)" fill="none"/>
        <path id="Path_183" data-name="Path 183" d="M147.59,135.41l11.844,22.023h9.723L157.313,135.41Z" transform="translate(-84.34 -135.41)" fill="none"/>
        <path id="Path_184" data-name="Path 184" d="M79.38,135.41l11.844,22.023h9.723L89.1,135.41Z" transform="translate(-69.704 -135.41)" fill="none"/>
        <path id="Path_185" data-name="Path 185" d="M193.06,135.41,204.9,157.433h9.724L202.784,135.41Z" transform="translate(-94.097 -135.41)" fill="none"/>
        <path id="Path_186" data-name="Path 186" d="M267.734,135.41H261.27l6.464,12.025Z" transform="translate(-108.734 -135.41)" fill="none"/>
        <path id="Path_187" data-name="Path 187" d="M67.06,135.41v15.221l3.66,6.8h9.723L68.6,135.41Z" transform="translate(-67.06 -135.41)" fill="none"/>
        <path id="Path_188" data-name="Path 188" d="M170.32,135.41l11.852,22.023h9.716L180.043,135.41Z" transform="translate(-89.218 -135.41)" fill="none"/>
        <path id="Path_189" data-name="Path 189" d="M238.53,135.41l11.852,22.023h9.724L248.253,135.41Z" transform="translate(-103.854 -135.41)" fill="none"/>
        <path id="Path_190" data-name="Path 190" d="M67.06,161.592h3.66l-3.66-6.8Z" transform="translate(-67.06 -139.569)" fill="#00a19a"/>
        <path id="Path_191" data-name="Path 191" d="M69.02,135.41l11.844,22.023H89L77.157,135.41Z" transform="translate(-67.481 -135.41)" fill="#00a19a"/>
        <path id="Path_192" data-name="Path 192" d="M91.76,135.41,103.6,157.433h8.137L99.889,135.41Z" transform="translate(-72.36 -135.41)" fill="#00a19a"/>
        <path id="Path_193" data-name="Path 193" d="M114.49,135.41l11.844,22.023h8.137L122.627,135.41Z" transform="translate(-77.238 -135.41)" fill="#00a19a"/>
        <path id="Path_194" data-name="Path 194" d="M137.23,135.41l11.844,22.023h8.137L145.367,135.41Z" transform="translate(-82.117 -135.41)" fill="#00a19a"/>
        <path id="Path_195" data-name="Path 195" d="M159.97,135.41l11.844,22.023h8.137L168.1,135.41Z" transform="translate(-86.997 -135.41)" fill="#00a19a"/>
        <path id="Path_196" data-name="Path 196" d="M182.7,135.41l11.844,22.023h8.137L190.837,135.41Z" transform="translate(-91.874 -135.41)" fill="#00a19a"/>
        <path id="Path_197" data-name="Path 197" d="M205.44,135.41l11.844,22.023h8.137L213.577,135.41Z" transform="translate(-96.754 -135.41)" fill="#00a19a"/>
        <path id="Path_198" data-name="Path 198" d="M228.18,135.41l11.844,22.023h8.137L236.309,135.41Z" transform="translate(-101.633 -135.41)" fill="#00a19a"/>
        <path id="Path_199" data-name="Path 199" d="M265.511,147.435l-6.464-12.025H250.91l11.852,22.023h2.749Z" transform="translate(-106.511 -135.41)" fill="#00a19a"/>
      </g>
      <g id="Group_798" data-name="Group 798">
        <path id="Path_200" data-name="Path 200" d="M219.917,64.2l-7.045,23.995-9.511,2.011,7.045-24Z" transform="translate(-91.273 -58.521)" fill="none"/>
        <path id="Path_201" data-name="Path 201" d="M108.677,87.66l-7.045,23.995-9.511,2.011,7.045-23.995Z" transform="translate(-67.403 -63.555)" fill="none"/>
        <path id="Path_202" data-name="Path 202" d="M197.667,68.89l-7.045,23.995L181.11,94.9,188.155,70.9Z" transform="translate(-86.498 -59.528)" fill="none"/>
        <path id="Path_203" data-name="Path 203" d="M175.417,73.58l-7.045,24-9.511,2,7.045-23.995Z" transform="translate(-81.724 -60.534)" fill="none"/>
        <path id="Path_204" data-name="Path 204" d="M242.164,59.51,235.119,83.5l-9.519,2,7.045-23.995Z" transform="translate(-96.045 -57.515)" fill="none"/>
        <path id="Path_205" data-name="Path 205" d="M130.927,82.97l-7.045,23.995-9.511,2.011,7.045-24Z" transform="translate(-72.177 -62.549)" fill="none"/>
        <path id="Path_206" data-name="Path 206" d="M60.65,98.385l6.33-1.335-3.849,13.093Z" transform="translate(-60.65 -65.57)" fill="none"/>
        <path id="Path_207" data-name="Path 207" d="M256.4,56.97l3.142,14.892-2.176,7.414-9.511,2L254.9,57.284Z" transform="translate(-100.819 -56.97)" fill="none"/>
        <path id="Path_208" data-name="Path 208" d="M153.174,78.28l-7.045,23.995-9.519,2,7.045-23.995Z" transform="translate(-76.95 -61.543)" fill="none"/>
        <path id="Path_209" data-name="Path 209" d="M86.427,92.35l-7.037,24-9.519,2,7.045-23.995Z" transform="translate(-62.628 -64.562)" fill="none"/>
        <path id="Path_210" data-name="Path 210" d="M263.542,82.583l-3.582.762,2.176-7.414Z" transform="translate(-103.418 -61.038)" fill="#00a19a"/>
        <path id="Path_211" data-name="Path 211" d="M252.722,57.37l-7.045,23.995-7.956,1.681,7.045-23.995Z" transform="translate(-98.646 -57.056)" fill="#00a19a"/>
        <path id="Path_212" data-name="Path 212" d="M230.472,62.06l-7.045,23.995-7.956,1.681,7.045-23.995Z" transform="translate(-93.871 -58.062)" fill="#00a19a"/>
        <path id="Path_213" data-name="Path 213" d="M208.229,66.75l-7.045,24-7.964,1.673,7.045-23.995Z" transform="translate(-89.097 -59.069)" fill="#00a19a"/>
        <path id="Path_214" data-name="Path 214" d="M185.979,71.45l-7.045,23.995-7.964,1.681,7.045-24Z" transform="translate(-84.323 -60.077)" fill="#00a19a"/>
        <path id="Path_215" data-name="Path 215" d="M163.732,76.14l-7.045,23.995-7.956,1.681,7.045-23.995Z" transform="translate(-79.55 -61.084)" fill="#00a19a"/>
        <path id="Path_216" data-name="Path 216" d="M141.482,80.83l-7.045,23.995-7.956,1.681,7.045-23.995Z" transform="translate(-74.776 -62.09)" fill="#00a19a"/>
        <path id="Path_217" data-name="Path 217" d="M119.239,85.52l-7.045,24L104.23,111.2,111.275,87.2Z" transform="translate(-70.001 -63.096)" fill="#00a19a"/>
        <path id="Path_218" data-name="Path 218" d="M96.992,90.22l-7.045,23.995L81.99,115.9l7.037-24Z" transform="translate(-65.229 -64.105)" fill="#00a19a"/>
        <path id="Path_219" data-name="Path 219" d="M63.81,109.684l3.849-13.093,7.956-1.681L68.57,118.9l-2.694.566Z" transform="translate(-61.328 -65.111)" fill="#00a19a"/>
      </g>
    </g>
    <rect id="Rectangle_29" data-name="Rectangle 29" width="156.196" height="1.162" transform="translate(67.892 139.447)" fill="#00a19a"/>
  </g>
</svg>
