<svg id="Layer_1" data-name="Layer 1" xmlns="http://www.w3.org/2000/svg" viewBox="0 0 411.54 388.75"><defs><style>.cls-1{fill:#00a19a;}.cls-2{fill:none;stroke:#00a19a;stroke-linecap:round;stroke-linejoin:round;stroke-width:10px;}</style></defs><path class="cls-1" d="M208.45,261.83a8.77,8.77,0,0,1-4.46-.12,8.68,8.68,0,0,1-6-6.31L173.15,150.83a8.67,8.67,0,0,1,11-10.29l101.68,31.07a8.67,8.67,0,0,1,3.46,14.55l-76.81,73.5A8.71,8.71,0,0,1,208.45,261.83Zm-14.94-100.3,17.87,75.15,55.2-52.82Z"/><line class="cls-2" x1="41.32" y1="270.62" x2="172.53" y2="239.42"/><line class="cls-2" x1="60.79" y1="232.78" x2="165.06" y2="207.99"/><line class="cls-2" x1="91.98" y1="192.17" x2="157.59" y2="176.57"/><path class="cls-2" d="M114.53,166.93A111.26,111.26,0,1,1,138.69,267.7"/></svg>