<svg xmlns="http://www.w3.org/2000/svg" width="130" height="130" viewBox="0 0 130 130">
  <g id="web-02" transform="translate(-84.459 -61.22)">
    <path id="Path_173" data-name="Path 173" d="M214.459,122.97v6.611c-.06.37-.159.733-.189,1.1-.951,13.063-5.216,24.948-13.414,35.132-16.222,20.165-37.35,28.544-62.894,24.351-26.05-4.284-46.891-24.978-52.152-50.87A63.639,63.639,0,0,1,87.6,106.462a64.426,64.426,0,0,1,22.2-31.6,63.392,63.392,0,0,1,28.971-12.64c2.287-.378,4.582-.665,6.877-1h7.616c2.634.37,5.284.627,7.888,1.141,18.154,3.574,32.436,13,42.664,28.484a62.947,62.947,0,0,1,9.6,24.23C213.878,117.681,214.119,120.333,214.459,122.97Zm-37.048-1.39H204.94A54.875,54.875,0,0,0,197.1,97.486a84.584,84.584,0,0,1-22.3,7.676C175.683,110.708,176.536,116.079,177.411,121.58Zm-75.56,33.47a84.887,84.887,0,0,1,22.313-7.654c-.883-5.546-1.736-10.955-2.612-16.425H94.031A55.037,55.037,0,0,0,101.851,155.05Zm22.3-49.9a85.063,85.063,0,0,1-22.306-7.646,55.026,55.026,0,0,0-7.813,24.079h27.522C122.413,116.132,123.266,110.761,124.149,105.154ZM174.807,147.4a85.289,85.289,0,0,1,22.313,7.638,55.189,55.189,0,0,0,7.813-24.056H177.4C176.536,136.479,175.683,141.851,174.807,147.4Zm-43.879-25.824h36.9a71.512,71.512,0,0,0-2.5-14.831c-.483.045-.9.1-1.306.113-6.122.234-12.244.6-18.365.65-3.706.03-7.428-.408-11.134-.7-.694-.053-.981.106-1.11.8-.226,1.2-.634,2.372-.838,3.581C132,114.606,131.487,118.021,130.928,121.572Zm36.9,9.406h-36.98q1.291,7.536,2.514,14.65c5.654-.272,10.923-.725,16.2-.725,5.261,0,10.515.461,15.806.718A72.569,72.569,0,0,0,167.832,130.979ZM191.6,89.893a55.064,55.064,0,0,0-31.945-18.254,131.262,131.262,0,0,1,12.176,24.623A77.332,77.332,0,0,0,191.6,89.893Zm-64.449,6.384a132.183,132.183,0,0,1,12.13-24.615,55.083,55.083,0,0,0-31.922,18.246A78.5,78.5,0,0,0,127.154,96.277Zm32.519,84.613a55.068,55.068,0,0,0,31.93-18.231A76.774,76.774,0,0,0,171.81,156.3,132.249,132.249,0,0,1,159.672,180.889Zm-52.326-18.239a55.186,55.186,0,0,0,31.945,18.239,132.346,132.346,0,0,1-12.153-24.6A77.264,77.264,0,0,0,107.347,162.651Zm42.12-89.04a112.028,112.028,0,0,0-12.795,23.905c3.586,1.058,21.687,1.08,25.551.06C161.227,93.3,153.89,79.481,149.467,73.611ZM136.6,154.876a110.3,110.3,0,0,0,12.885,24.079,112.727,112.727,0,0,0,12.855-24.079A121.132,121.132,0,0,0,136.6,154.876Z" fill="#00a19a"/>
  </g>
</svg>
