<svg id="Layer_1" data-name="Layer 1" xmlns="http://www.w3.org/2000/svg" viewBox="0 0 411.54 388.75"><defs><style>.cls-1{fill:#00a19a;}.cls-2,.cls-3{fill:none;stroke:#00a19a;}.cls-2{stroke-linejoin:round;stroke-width:10px;}.cls-3{stroke-miterlimit:10;stroke-width:4px;}</style></defs><path class="cls-1" d="M194.78,238.71l-12.42-1.57-4.55-14.85-18.5-1-3.4,12.53-8.27-1,15.65-56.33,9.87-1.84Zm-20.22-27L168,189.5l-6,22.16Z"/><path class="cls-1" d="M253.38,246.12l-16.18-2.05V235.4a20.18,20.18,0,0,1-8.67,6.48,19.25,19.25,0,0,1-9.37,1.15c-6-.79-10.94-3.86-14.88-9.11-3.81-5.07-5.67-11.71-5.67-20,0-8.52,1.81-15.09,5.51-19.84a21.36,21.36,0,0,1,15.24-8.42c6.16-.65,11.76,1.43,16.68,6.42v-29.2l17.34-3.23Zm-41.91-33q0,8.5,2.25,12.45a11.66,11.66,0,0,0,9.55,6.36,10.4,10.4,0,0,0,8.95-3.74c2.57-2.86,3.87-7.33,3.87-13.38q0-10.12-3.76-14.41a10.78,10.78,0,0,0-9.16-3.85,11.21,11.21,0,0,0-8.45,4.54C212.54,203.82,211.47,207.82,211.47,213.09Z"/><polygon class="cls-2" points="303.89 289.82 107.46 269.08 107.46 151.57 303.89 113.32 303.89 289.82"/><rect class="cls-1" x="186.55" y="278.15" width="19.12" height="62.23"/><path class="cls-3" d="M134.53,142.34s-5.35-46.19-45.22-46.19"/><ellipse class="cls-1" cx="83.83" cy="96.47" rx="7.64" ry="23.75" transform="translate(-21.91 168.26) rotate(-83.18)"/><path class="cls-3" d="M198.19,133.11s-3.18-54-49.46-56.57"/><ellipse class="cls-1" cx="142.35" cy="76.55" rx="8.89" ry="27.61" transform="translate(42.14 203.36) rotate(-79.95)"/><path class="cls-3" d="M268.34,123.91s.11-60.45-51.37-66.5"/><ellipse class="cls-1" cx="209.85" cy="56.98" rx="9.94" ry="30.88" transform="translate(105.36 247.68) rotate(-76.47)"/></svg>