<svg id="Layer_1" data-name="Layer 1" xmlns="http://www.w3.org/2000/svg" viewBox="0 0 411.54 388.75"><defs><style>.cls-1,.cls-2{fill:none;stroke:#00a19a;stroke-linecap:round;stroke-linejoin:round;}.cls-1{stroke-width:8px;}.cls-2{stroke-width:10px;}</style></defs><polygon class="cls-1" points="198.08 94.17 93.03 134.48 91.89 262.92 196.72 302.34 302.23 262.65 303.37 134.22 198.08 94.17"/><polyline class="cls-1" points="196.72 302.34 196.72 174.77 93.03 134.48"/><line class="cls-1" x1="196.71" y1="174.77" x2="303.37" y2="134.22"/><polyline class="cls-1" points="131 119.91 234.88 160.26 234.88 206.91 253.92 184.16 267.76 193.06 267.76 147.76 164.28 107.14"/><polyline class="cls-2" points="277.4 65.99 334.06 65.99 334.06 120.62"/><polyline class="cls-2" points="63.16 122.65 63.16 65.99 117.79 65.99"/><polyline class="cls-2" points="119.82 336.89 63.16 336.89 63.16 282.26"/><polyline class="cls-2" points="334.06 280.23 334.06 336.89 279.43 336.89"/></svg>