<svg id="Layer_1" data-name="Layer 1" xmlns="http://www.w3.org/2000/svg" viewBox="0 0 411.54 388.75"><defs><style>.cls-1{fill:#00a19a;}</style></defs><path class="cls-1" d="M95.58,308.65a5,5,0,0,1-5-5V206.74a5,5,0,0,1,5-5h42.54a5,5,0,0,1,0,10H100.58v91.91A5,5,0,0,1,95.58,308.65Z"/><path class="cls-1" d="M221.56,309.79a5,5,0,0,1-5-5V256.57a5,5,0,0,1,10,0v48.22A5,5,0,0,1,221.56,309.79Z"/><path class="cls-1" d="M221.23,336.74H95.91A18.67,18.67,0,0,1,77.27,318.1V304.79a5,5,0,0,1,5-5h152.6a5,5,0,0,1,5,5V318.1A18.67,18.67,0,0,1,221.23,336.74Zm-134-26.95v8.31a8.66,8.66,0,0,0,8.64,8.64H221.23a8.66,8.66,0,0,0,8.64-8.64v-8.31Z"/><path class="cls-1" d="M122,241.9a60,60,0,0,1,2.27-7.22,20.92,20.92,0,0,1,9.15-9.52q12-6.89,24-13.87a7,7,0,0,0,1.93-1.67q19.44-24.69,38.81-49.45c2.44-3.13,5.34-5,9.39-4.4a9.19,9.19,0,0,1,6.82,4.87c3.37,5.86,6.79,11.69,10.1,17.59a2.35,2.35,0,0,0,2.62,1.4c3.14-.27,6.3-.38,9.44-.62a3.66,3.66,0,0,1,3.74,2.07q2.7,4.77,5.49,9.5a3.6,3.6,0,0,1-.16,4.26c-1.78,2.61-3.44,5.29-5.25,7.87a2.22,2.22,0,0,0-.12,2.81c3.16,5.34,6.3,10.69,9.31,16.11A9.15,9.15,0,0,1,243,235.34c-4,.69-7.89,1.49-11.83,2.26l-45.77,9c-.45.09-.89.21-1.54.37l3.27,5.72c1.68,2.92,1.33,4.24-1.6,5.94L179,262.34c-.08.05-.12.16-.24.32q4.34,7.54,8.73,15.14c2.11,3.64,2.66,7.45,1,11.39A12.16,12.16,0,0,1,167.72,292a19.59,19.59,0,0,1-1.68-2.54q-6.91-11.94-13.81-23.9c-.28-.48-.57-.95-.78-1.29a55.68,55.68,0,0,1-7,1.14c-11.17.47-20.18-6.88-22.16-17.92a3.53,3.53,0,0,0-.28-.67ZM233.8,230.84c-11.81-20.44-23.51-40.7-35.22-61a2.32,2.32,0,0,0-.37.29Q181.58,191.32,165,212.52a1.87,1.87,0,0,0,0,1.68c5,8.7,10,17.36,15,26a1.39,1.39,0,0,0,1.77.85c9.66-1.94,19.34-3.8,29-5.7C218.33,233.9,226,232.39,233.8,230.84Zm-59,12.75-15.29-26.47c-8.37,4.89-16.68,9.56-24.81,14.55-4.09,2.5-6.18,6.56-6.51,11.34a14.41,14.41,0,0,0,6.32,13.43,14.57,14.57,0,0,0,15.71,1.25c3.72-1.85,7.24-4.09,10.85-6.17Zm54-58c2.47,4.28,4.8,8.33,7.25,12.56,1.25-1.88,2.37-3.5,3.4-5.18a1.43,1.43,0,0,0-.06-1.21c-1.07-2-2.2-3.88-3.34-5.8-.19-.31-.56-.75-.84-.74C233.2,185.32,231.14,185.48,228.85,185.63Zm-51,63.24L172.59,252l3.06,5.26,5.27-3Z"/><path class="cls-1" d="M257.88,177.57a11.28,11.28,0,0,1-2.31-2.08,2.58,2.58,0,0,1,.48-3.22,5.48,5.48,0,0,1,1.34-1q7.89-4.41,15.82-8.8c2.1-1.16,4-.7,4.79,1.09.7,1.57.16,3.07-1.59,4.08-2.15,1.25-4.33,2.43-6.5,3.64-3.1,1.73-6.2,3.47-9.31,5.17A28.67,28.67,0,0,1,257.88,177.57Z"/><path class="cls-1" d="M260,190.6c.27.06.87.18,1.45.33,3.38.91,6.76,1.79,10.13,2.73,2.05.58,3,2.09,2.53,3.84s-2.05,2.54-4.12,2q-5.52-1.41-11-2.93c-1.86-.52-2.79-1.87-2.55-3.44S258,190.52,260,190.6Z"/><path class="cls-1" d="M248.29,152.37c-.19.75-.47,1.83-.76,2.91-.78,2.94-1.52,5.88-2.36,8.8-.57,2-2,2.87-3.75,2.47a3,3,0,0,1-2.13-3.94c1-3.83,2-7.65,3.06-11.45a3,3,0,0,1,3.46-2.29A3.16,3.16,0,0,1,248.29,152.37Z"/><path class="cls-1" d="M331.64,288.27h-51.1A15.31,15.31,0,0,1,265.26,273V221.89a15.3,15.3,0,0,1,15.28-15.28h51.1a15.3,15.3,0,0,1,15.28,15.28V273A15.31,15.31,0,0,1,331.64,288.27Zm-51.1-71.66a5.29,5.29,0,0,0-5.28,5.28V273a5.29,5.29,0,0,0,5.28,5.29h51.1a5.29,5.29,0,0,0,5.28-5.29V221.89a5.29,5.29,0,0,0-5.28-5.28Z"/><path class="cls-1" d="M331.64,149h-51.1a15.31,15.31,0,0,1-15.28-15.29V82.6a15.3,15.3,0,0,1,15.28-15.28h51.1A15.3,15.3,0,0,1,346.92,82.6v51.09A15.31,15.31,0,0,1,331.64,149Zm-51.1-71.66a5.29,5.29,0,0,0-5.28,5.28v51.09a5.29,5.29,0,0,0,5.28,5.29h51.1a5.29,5.29,0,0,0,5.28-5.29V82.6a5.29,5.29,0,0,0-5.28-5.28Z"/><path class="cls-1" d="M135.84,188.36H81a5,5,0,0,1-5-5V111.6a5,5,0,0,1,5-5h54.82a5,5,0,0,1,5,5v71.76A5,5,0,0,1,135.84,188.36ZM86,178.36h44.82V116.6H86Z"/><path class="cls-1" d="M306.09,264.3A16.86,16.86,0,1,1,323,247.44,16.88,16.88,0,0,1,306.09,264.3Zm0-26.72a9.86,9.86,0,1,0,9.86,9.86A9.87,9.87,0,0,0,306.09,237.58Z"/><circle class="cls-1" cx="326.56" cy="227.64" r="4.01"/><path class="cls-1" d="M302.77,132a2.5,2.5,0,0,1-2.5-2.5V99.1A11.76,11.76,0,0,1,312,87.35h7.43a2.5,2.5,0,0,1,0,5H312a6.76,6.76,0,0,0-6.75,6.75v30.44A2.5,2.5,0,0,1,302.77,132Z"/><path class="cls-1" d="M314.58,110.65H297a2.5,2.5,0,0,1,0-5h17.6a2.5,2.5,0,0,1,0,5Z"/><path class="cls-1" d="M120.12,150H96.74a2.5,2.5,0,1,1,0-5h23.38a2.5,2.5,0,1,1,0,5Z"/><path class="cls-1" d="M120.12,132H105.65a2.5,2.5,0,1,1,0-5h14.47a2.5,2.5,0,1,1,0,5Z"/><path class="cls-1" d="M120.12,167.11H96.74a2.5,2.5,0,0,1,0-5h23.38a2.5,2.5,0,0,1,0,5Z"/><path class="cls-1" d="M189.1,142.24a40.39,40.39,0,1,1,40.38-40.38A40.43,40.43,0,0,1,189.1,142.24Zm0-70.77a30.39,30.39,0,1,0,30.38,30.39A30.42,30.42,0,0,0,189.1,71.47Z"/><path class="cls-1" d="M180.81,121.25a2.48,2.48,0,0,1-1.24-.33,2.51,2.51,0,0,1-1.26-2.17v-31a2.5,2.5,0,0,1,3.76-2.16l26.47,15.51a2.5,2.5,0,0,1,0,4.31l-26.47,15.5A2.44,2.44,0,0,1,180.81,121.25Zm2.5-29.15v22.29l19-11.15Z"/></svg>