<svg xmlns="http://www.w3.org/2000/svg" width="465.18" height="436" viewBox="0 0 465.18 436">
  <g id="mockup" transform="translate(0)">
    <path id="Path_237" data-name="Path 237" d="M87.708,49.934A22.854,22.854,0,1,0,64.852,72.786,22.879,22.879,0,0,0,87.708,49.934Zm-32.08,0a9.226,9.226,0,1,1,9.224,9.224,9.236,9.236,0,0,1-9.224-9.224Zm0,0" transform="translate(-3.841 -2.476)" fill="#00a69c"/>
    <path id="Path_238" data-name="Path 238" d="M124.614,72.786a22.854,22.854,0,1,0-22.852-22.852A22.881,22.881,0,0,0,124.614,72.786Zm0-32.08a9.226,9.226,0,1,1-9.224,9.228A9.236,9.236,0,0,1,124.614,40.706Zm0,0" transform="translate(-9.306 -2.476)" fill="#00a69c"/>
    <path id="Path_239" data-name="Path 239" d="M184.376,72.786A22.854,22.854,0,1,0,161.52,49.934,22.88,22.88,0,0,0,184.376,72.786Zm0-32.08a9.226,9.226,0,1,1-9.228,9.228A9.236,9.236,0,0,1,184.376,40.706Zm0,0" transform="translate(-14.77 -2.476)" fill="#00a69c"/>
    <path id="Path_240" data-name="Path 240" d="M268.982,58.363h165.96a6.814,6.814,0,1,0,0-13.628H268.982a6.814,6.814,0,1,0,0,13.628Zm0,0" transform="translate(-23.974 -4.091)" fill="#00a69c"/>
    <path id="Path_241" data-name="Path 241" d="M436.728,0H28.453A28.485,28.485,0,0,0,0,28.453V407.547A28.485,28.485,0,0,0,28.453,436H436.728a28.483,28.483,0,0,0,28.453-28.453V28.453A28.488,28.488,0,0,0,436.728,0Zm0,422.372H28.453a14.842,14.842,0,0,1-14.824-14.824V94.912H51.614a6.814,6.814,0,1,0,0-13.628H13.629V28.452A14.84,14.84,0,0,1,28.453,13.628H436.728a14.842,14.842,0,0,1,14.824,14.824V81.284H77.054a6.814,6.814,0,0,0,0,13.628h374.5V407.547A14.842,14.842,0,0,1,436.728,422.372Zm0,0" fill="#00a69c"/>
    <path id="Path_242" data-name="Path 242" d="M412.282,126.141H63.181a6.822,6.822,0,0,0-6.974,6.949V269.04a6.819,6.819,0,0,0,6.97,6.945H412.282a6.819,6.819,0,0,0,6.97-6.956V133.1a6.828,6.828,0,0,0-6.97-6.96ZM69.835,142.928,218.97,201.065,69.835,259.205Zm29.429-3.159H376.2L237.73,193.75Zm138.466,68.61L376.2,262.357H99.263Zm18.76-7.315,149.135-58.137V259.2Zm0,0" transform="translate(-5.14 -11.535)" fill="#00a69c"/>
    <path id="Path_243" data-name="Path 243" d="M218.582,301.93c-.894,0-155.6,0-155.715,0a6.826,6.826,0,0,0-6.662,6.811c0,1.54-.021,117.537,0,120.583a6.814,6.814,0,0,0,6.864,6.807c123.4,0,155.626.011,156-.011a6.888,6.888,0,0,0,6.4-6.8V308.8a6.817,6.817,0,0,0-6.882-6.867ZM69.834,322.646l59.876,46.386-59.876,46.39Zm13.107-7.087H198.728l-57.892,44.856Zm57.9,62.094,57.892,44.853H82.941Zm11.126-8.621,59.872-46.386v92.775Zm0,0" transform="translate(-5.139 -27.61)" fill="#00a69c"/>
    <path id="Path_244" data-name="Path 244" d="M431.951,301.93c-.092,0-155.64,0-155.775,0A6.815,6.815,0,0,0,269.5,308.8V429.259a6.813,6.813,0,0,0,6.864,6.874h76.269a6.814,6.814,0,1,0,0-13.628h-56.4l57.892-44.853,57.9,44.853h-33.95a6.814,6.814,0,1,0,0,13.628h53.864a6.815,6.815,0,0,0,6.818-6.921V308.854a6.822,6.822,0,0,0-6.8-6.924Zm-19.928,13.628-57.9,44.856-57.892-44.856ZM283.129,415.421V322.646L343,369.032Zm142-92.775v92.775l-59.872-46.39Zm0,0" transform="translate(-24.644 -27.61)" fill="#00a69c"/>
  </g>
</svg>
