<svg id="Layer_1" data-name="Layer 1" xmlns="http://www.w3.org/2000/svg" viewBox="0 0 411.54 388.75"><defs><style>.cls-1,.cls-3{fill:none;stroke:#00a19a;}.cls-1{stroke-linecap:round;stroke-linejoin:round;stroke-width:14px;}.cls-2{fill:#00a19a;}.cls-3{stroke-miterlimit:10;stroke-width:17px;}</style></defs><path class="cls-1" d="M336.64,182.62v-85a23.36,23.36,0,0,0-23.35-23.35H126.49a23.35,23.35,0,0,0-23.34,23.35V288.41a23.34,23.34,0,0,0,23.34,23.35h85.62"/><rect class="cls-2" x="131.97" y="105.94" width="14.12" height="14.12"/><rect class="cls-2" x="173.34" y="105.94" width="14.12" height="14.12"/><rect class="cls-2" x="214.7" y="105.94" width="14.12" height="14.12"/><rect class="cls-2" x="131.97" y="265.06" width="14.12" height="14.12"/><rect class="cls-2" x="173.34" y="265.06" width="14.12" height="14.12"/><rect class="cls-2" x="256.07" y="105.94" width="14.12" height="14.12"/><rect class="cls-2" x="297.43" y="105.94" width="14.12" height="14.12"/><path class="cls-2" d="M250.16,168.21h2.48a17.56,17.56,0,0,1,17.56,17.56v86.36a0,0,0,0,1,0,0h-20a0,0,0,0,1,0,0V168.21A0,0,0,0,1,250.16,168.21Z"/><circle class="cls-3" cx="260.18" cy="291.87" r="19.89"/><path class="cls-2" d="M237.55,180.82h20a0,0,0,0,1,0,0v86.36A17.56,17.56,0,0,1,240,284.74h-2.48a0,0,0,0,1,0,0V180.82A0,0,0,0,1,237.55,180.82Z" transform="translate(480.34 -14.79) rotate(90)"/><circle class="cls-3" cx="319.27" cy="232.78" r="19.89"/></svg>